G04 #@! TF.GenerationSoftware,KiCad,Pcbnew,(5.1.9)-1*
G04 #@! TF.CreationDate,2021-03-07T13:30:36+01:00*
G04 #@! TF.ProjectId,Minew MS88SF2 breakout,4d696e65-7720-44d5-9338-385346322062,rev?*
G04 #@! TF.SameCoordinates,Original*
G04 #@! TF.FileFunction,Soldermask,Top*
G04 #@! TF.FilePolarity,Negative*
%FSLAX46Y46*%
G04 Gerber Fmt 4.6, Leading zero omitted, Abs format (unit mm)*
G04 Created by KiCad (PCBNEW (5.1.9)-1) date 2021-03-07 13:30:36*
%MOMM*%
%LPD*%
G01*
G04 APERTURE LIST*
%ADD10O,1.802000X1.802000*%
%ADD11O,0.902000X2.102000*%
%ADD12C,3.602000*%
%ADD13C,1.802000*%
%ADD14C,0.100000*%
G04 APERTURE END LIST*
G36*
G01*
X-23650248Y9239000D02*
X-24609752Y9239000D01*
G75*
G02*
X-24881000Y9510248I0J271248D01*
G01*
X-24881000Y10269752D01*
G75*
G02*
X-24609752Y10541000I271248J0D01*
G01*
X-23650248Y10541000D01*
G75*
G02*
X-23379000Y10269752I0J-271248D01*
G01*
X-23379000Y9510248D01*
G75*
G02*
X-23650248Y9239000I-271248J0D01*
G01*
G37*
G36*
G01*
X-23650248Y7239000D02*
X-24609752Y7239000D01*
G75*
G02*
X-24881000Y7510248I0J271248D01*
G01*
X-24881000Y8269752D01*
G75*
G02*
X-24609752Y8541000I271248J0D01*
G01*
X-23650248Y8541000D01*
G75*
G02*
X-23379000Y8269752I0J-271248D01*
G01*
X-23379000Y7510248D01*
G75*
G02*
X-23650248Y7239000I-271248J0D01*
G01*
G37*
G36*
G01*
X13571000Y11934298D02*
X13571000Y10925702D01*
G75*
G02*
X13299298Y10654000I-271702J0D01*
G01*
X12565702Y10654000D01*
G75*
G02*
X12294000Y10925702I0J271702D01*
G01*
X12294000Y11934298D01*
G75*
G02*
X12565702Y12206000I271702J0D01*
G01*
X13299298Y12206000D01*
G75*
G02*
X13571000Y11934298I0J-271702D01*
G01*
G37*
G36*
G01*
X15646000Y11934298D02*
X15646000Y10925702D01*
G75*
G02*
X15374298Y10654000I-271702J0D01*
G01*
X14640702Y10654000D01*
G75*
G02*
X14369000Y10925702I0J271702D01*
G01*
X14369000Y11934298D01*
G75*
G02*
X14640702Y12206000I271702J0D01*
G01*
X15374298Y12206000D01*
G75*
G02*
X15646000Y11934298I0J-271702D01*
G01*
G37*
G36*
G01*
X13571000Y-10925702D02*
X13571000Y-11934298D01*
G75*
G02*
X13299298Y-12206000I-271702J0D01*
G01*
X12565702Y-12206000D01*
G75*
G02*
X12294000Y-11934298I0J271702D01*
G01*
X12294000Y-10925702D01*
G75*
G02*
X12565702Y-10654000I271702J0D01*
G01*
X13299298Y-10654000D01*
G75*
G02*
X13571000Y-10925702I0J-271702D01*
G01*
G37*
G36*
G01*
X15646000Y-10925702D02*
X15646000Y-11934298D01*
G75*
G02*
X15374298Y-12206000I-271702J0D01*
G01*
X14640702Y-12206000D01*
G75*
G02*
X14369000Y-11934298I0J271702D01*
G01*
X14369000Y-10925702D01*
G75*
G02*
X14640702Y-10654000I271702J0D01*
G01*
X15374298Y-10654000D01*
G75*
G02*
X15646000Y-10925702I0J-271702D01*
G01*
G37*
G36*
G01*
X-4600248Y5429000D02*
X-5559752Y5429000D01*
G75*
G02*
X-5831000Y5700248I0J271248D01*
G01*
X-5831000Y6459752D01*
G75*
G02*
X-5559752Y6731000I271248J0D01*
G01*
X-4600248Y6731000D01*
G75*
G02*
X-4329000Y6459752I0J-271248D01*
G01*
X-4329000Y5700248D01*
G75*
G02*
X-4600248Y5429000I-271248J0D01*
G01*
G37*
G36*
G01*
X-4600248Y3429000D02*
X-5559752Y3429000D01*
G75*
G02*
X-5831000Y3700248I0J271248D01*
G01*
X-5831000Y4459752D01*
G75*
G02*
X-5559752Y4731000I271248J0D01*
G01*
X-4600248Y4731000D01*
G75*
G02*
X-4329000Y4459752I0J-271248D01*
G01*
X-4329000Y3700248D01*
G75*
G02*
X-4600248Y3429000I-271248J0D01*
G01*
G37*
G36*
G01*
X-32099000Y-13490248D02*
X-32099000Y-14449752D01*
G75*
G02*
X-32370248Y-14721000I-271248J0D01*
G01*
X-33129752Y-14721000D01*
G75*
G02*
X-33401000Y-14449752I0J271248D01*
G01*
X-33401000Y-13490248D01*
G75*
G02*
X-33129752Y-13219000I271248J0D01*
G01*
X-32370248Y-13219000D01*
G75*
G02*
X-32099000Y-13490248I0J-271248D01*
G01*
G37*
G36*
G01*
X-30099000Y-13490248D02*
X-30099000Y-14449752D01*
G75*
G02*
X-30370248Y-14721000I-271248J0D01*
G01*
X-31129752Y-14721000D01*
G75*
G02*
X-31401000Y-14449752I0J271248D01*
G01*
X-31401000Y-13490248D01*
G75*
G02*
X-31129752Y-13219000I271248J0D01*
G01*
X-30370248Y-13219000D01*
G75*
G02*
X-30099000Y-13490248I0J-271248D01*
G01*
G37*
D10*
X8890000Y19050000D03*
X8890000Y16510000D03*
X6350000Y19050000D03*
X6350000Y16510000D03*
X3810000Y19050000D03*
X3810000Y16510000D03*
X1270000Y19050000D03*
X1270000Y16510000D03*
X-1270000Y19050000D03*
X-1270000Y16510000D03*
X-3810000Y19050000D03*
X-3810000Y16510000D03*
X-6350000Y19050000D03*
X-6350000Y16510000D03*
X-8890000Y19050000D03*
G36*
G01*
X-8040000Y15609000D02*
X-9740000Y15609000D01*
G75*
G02*
X-9791000Y15660000I0J51000D01*
G01*
X-9791000Y17360000D01*
G75*
G02*
X-9740000Y17411000I51000J0D01*
G01*
X-8040000Y17411000D01*
G75*
G02*
X-7989000Y17360000I0J-51000D01*
G01*
X-7989000Y15660000D01*
G75*
G02*
X-8040000Y15609000I-51000J0D01*
G01*
G37*
G36*
G01*
X-31351000Y-11934298D02*
X-31351000Y-10925702D01*
G75*
G02*
X-31079298Y-10654000I271702J0D01*
G01*
X-30345702Y-10654000D01*
G75*
G02*
X-30074000Y-10925702I0J-271702D01*
G01*
X-30074000Y-11934298D01*
G75*
G02*
X-30345702Y-12206000I-271702J0D01*
G01*
X-31079298Y-12206000D01*
G75*
G02*
X-31351000Y-11934298I0J271702D01*
G01*
G37*
G36*
G01*
X-33426000Y-11934298D02*
X-33426000Y-10925702D01*
G75*
G02*
X-33154298Y-10654000I271702J0D01*
G01*
X-32420702Y-10654000D01*
G75*
G02*
X-32149000Y-10925702I0J-271702D01*
G01*
X-32149000Y-11934298D01*
G75*
G02*
X-32420702Y-12206000I-271702J0D01*
G01*
X-33154298Y-12206000D01*
G75*
G02*
X-33426000Y-11934298I0J271702D01*
G01*
G37*
G36*
G01*
X790248Y-5429000D02*
X1749752Y-5429000D01*
G75*
G02*
X2021000Y-5700248I0J-271248D01*
G01*
X2021000Y-6459752D01*
G75*
G02*
X1749752Y-6731000I-271248J0D01*
G01*
X790248Y-6731000D01*
G75*
G02*
X519000Y-6459752I0J271248D01*
G01*
X519000Y-5700248D01*
G75*
G02*
X790248Y-5429000I271248J0D01*
G01*
G37*
G36*
G01*
X790248Y-3429000D02*
X1749752Y-3429000D01*
G75*
G02*
X2021000Y-3700248I0J-271248D01*
G01*
X2021000Y-4459752D01*
G75*
G02*
X1749752Y-4731000I-271248J0D01*
G01*
X790248Y-4731000D01*
G75*
G02*
X519000Y-4459752I0J271248D01*
G01*
X519000Y-3700248D01*
G75*
G02*
X790248Y-3429000I271248J0D01*
G01*
G37*
G36*
G01*
X9811000Y6829752D02*
X9811000Y5870248D01*
G75*
G02*
X9539752Y5599000I-271248J0D01*
G01*
X8780248Y5599000D01*
G75*
G02*
X8509000Y5870248I0J271248D01*
G01*
X8509000Y6829752D01*
G75*
G02*
X8780248Y7101000I271248J0D01*
G01*
X9539752Y7101000D01*
G75*
G02*
X9811000Y6829752I0J-271248D01*
G01*
G37*
G36*
G01*
X11811000Y6829752D02*
X11811000Y5870248D01*
G75*
G02*
X11539752Y5599000I-271248J0D01*
G01*
X10780248Y5599000D01*
G75*
G02*
X10509000Y5870248I0J271248D01*
G01*
X10509000Y6829752D01*
G75*
G02*
X10780248Y7101000I271248J0D01*
G01*
X11539752Y7101000D01*
G75*
G02*
X11811000Y6829752I0J-271248D01*
G01*
G37*
G36*
G01*
X349000Y5870248D02*
X349000Y6829752D01*
G75*
G02*
X620248Y7101000I271248J0D01*
G01*
X1379752Y7101000D01*
G75*
G02*
X1651000Y6829752I0J-271248D01*
G01*
X1651000Y5870248D01*
G75*
G02*
X1379752Y5599000I-271248J0D01*
G01*
X620248Y5599000D01*
G75*
G02*
X349000Y5870248I0J271248D01*
G01*
G37*
G36*
G01*
X-1651000Y5870248D02*
X-1651000Y6829752D01*
G75*
G02*
X-1379752Y7101000I271248J0D01*
G01*
X-620248Y7101000D01*
G75*
G02*
X-349000Y6829752I0J-271248D01*
G01*
X-349000Y5870248D01*
G75*
G02*
X-620248Y5599000I-271248J0D01*
G01*
X-1379752Y5599000D01*
G75*
G02*
X-1651000Y5870248I0J271248D01*
G01*
G37*
G36*
G01*
X349000Y3330248D02*
X349000Y4289752D01*
G75*
G02*
X620248Y4561000I271248J0D01*
G01*
X1379752Y4561000D01*
G75*
G02*
X1651000Y4289752I0J-271248D01*
G01*
X1651000Y3330248D01*
G75*
G02*
X1379752Y3059000I-271248J0D01*
G01*
X620248Y3059000D01*
G75*
G02*
X349000Y3330248I0J271248D01*
G01*
G37*
G36*
G01*
X-1651000Y3330248D02*
X-1651000Y4289752D01*
G75*
G02*
X-1379752Y4561000I271248J0D01*
G01*
X-620248Y4561000D01*
G75*
G02*
X-349000Y4289752I0J-271248D01*
G01*
X-349000Y3330248D01*
G75*
G02*
X-620248Y3059000I-271248J0D01*
G01*
X-1379752Y3059000D01*
G75*
G02*
X-1651000Y3330248I0J271248D01*
G01*
G37*
G36*
G01*
X-2035702Y-4681000D02*
X-3044298Y-4681000D01*
G75*
G02*
X-3316000Y-4409298I0J271702D01*
G01*
X-3316000Y-3675702D01*
G75*
G02*
X-3044298Y-3404000I271702J0D01*
G01*
X-2035702Y-3404000D01*
G75*
G02*
X-1764000Y-3675702I0J-271702D01*
G01*
X-1764000Y-4409298D01*
G75*
G02*
X-2035702Y-4681000I-271702J0D01*
G01*
G37*
G36*
G01*
X-2035702Y-6756000D02*
X-3044298Y-6756000D01*
G75*
G02*
X-3316000Y-6484298I0J271702D01*
G01*
X-3316000Y-5750702D01*
G75*
G02*
X-3044298Y-5479000I271702J0D01*
G01*
X-2035702Y-5479000D01*
G75*
G02*
X-1764000Y-5750702I0J-271702D01*
G01*
X-1764000Y-6484298D01*
G75*
G02*
X-2035702Y-6756000I-271702J0D01*
G01*
G37*
G36*
G01*
X-8099752Y-5429000D02*
X-7140248Y-5429000D01*
G75*
G02*
X-6869000Y-5700248I0J-271248D01*
G01*
X-6869000Y-6459752D01*
G75*
G02*
X-7140248Y-6731000I-271248J0D01*
G01*
X-8099752Y-6731000D01*
G75*
G02*
X-8371000Y-6459752I0J271248D01*
G01*
X-8371000Y-5700248D01*
G75*
G02*
X-8099752Y-5429000I271248J0D01*
G01*
G37*
G36*
G01*
X-8099752Y-3429000D02*
X-7140248Y-3429000D01*
G75*
G02*
X-6869000Y-3700248I0J-271248D01*
G01*
X-6869000Y-4459752D01*
G75*
G02*
X-7140248Y-4731000I-271248J0D01*
G01*
X-8099752Y-4731000D01*
G75*
G02*
X-8371000Y-4459752I0J271248D01*
G01*
X-8371000Y-3700248D01*
G75*
G02*
X-8099752Y-3429000I271248J0D01*
G01*
G37*
G36*
G01*
X-4600248Y-4731000D02*
X-5559752Y-4731000D01*
G75*
G02*
X-5831000Y-4459752I0J271248D01*
G01*
X-5831000Y-3700248D01*
G75*
G02*
X-5559752Y-3429000I271248J0D01*
G01*
X-4600248Y-3429000D01*
G75*
G02*
X-4329000Y-3700248I0J-271248D01*
G01*
X-4329000Y-4459752D01*
G75*
G02*
X-4600248Y-4731000I-271248J0D01*
G01*
G37*
G36*
G01*
X-4600248Y-6731000D02*
X-5559752Y-6731000D01*
G75*
G02*
X-5831000Y-6459752I0J271248D01*
G01*
X-5831000Y-5700248D01*
G75*
G02*
X-5559752Y-5429000I271248J0D01*
G01*
X-4600248Y-5429000D01*
G75*
G02*
X-4329000Y-5700248I0J-271248D01*
G01*
X-4329000Y-6459752D01*
G75*
G02*
X-4600248Y-6731000I-271248J0D01*
G01*
G37*
G36*
G01*
X-14960000Y14361000D02*
X-13460000Y14361000D01*
G75*
G02*
X-13409000Y14310000I0J-51000D01*
G01*
X-13409000Y12310000D01*
G75*
G02*
X-13460000Y12259000I-51000J0D01*
G01*
X-14960000Y12259000D01*
G75*
G02*
X-15011000Y12310000I0J51000D01*
G01*
X-15011000Y14310000D01*
G75*
G02*
X-14960000Y14361000I51000J0D01*
G01*
G37*
G36*
G01*
X-19560000Y14361000D02*
X-18060000Y14361000D01*
G75*
G02*
X-18009000Y14310000I0J-51000D01*
G01*
X-18009000Y12310000D01*
G75*
G02*
X-18060000Y12259000I-51000J0D01*
G01*
X-19560000Y12259000D01*
G75*
G02*
X-19611000Y12310000I0J51000D01*
G01*
X-19611000Y14310000D01*
G75*
G02*
X-19560000Y14361000I51000J0D01*
G01*
G37*
G36*
G01*
X-17260000Y14361000D02*
X-15760000Y14361000D01*
G75*
G02*
X-15709000Y14310000I0J-51000D01*
G01*
X-15709000Y12310000D01*
G75*
G02*
X-15760000Y12259000I-51000J0D01*
G01*
X-17260000Y12259000D01*
G75*
G02*
X-17311000Y12310000I0J51000D01*
G01*
X-17311000Y14310000D01*
G75*
G02*
X-17260000Y14361000I51000J0D01*
G01*
G37*
G36*
G01*
X-18410000Y8061000D02*
X-14610000Y8061000D01*
G75*
G02*
X-14559000Y8010000I0J-51000D01*
G01*
X-14559000Y6010000D01*
G75*
G02*
X-14610000Y5959000I-51000J0D01*
G01*
X-18410000Y5959000D01*
G75*
G02*
X-18461000Y6010000I0J51000D01*
G01*
X-18461000Y8010000D01*
G75*
G02*
X-18410000Y8061000I51000J0D01*
G01*
G37*
X11430000Y-19050000D03*
G36*
G01*
X10529000Y-17360000D02*
X10529000Y-15660000D01*
G75*
G02*
X10580000Y-15609000I51000J0D01*
G01*
X12280000Y-15609000D01*
G75*
G02*
X12331000Y-15660000I0J-51000D01*
G01*
X12331000Y-17360000D01*
G75*
G02*
X12280000Y-17411000I-51000J0D01*
G01*
X10580000Y-17411000D01*
G75*
G02*
X10529000Y-17360000I0J51000D01*
G01*
G37*
G36*
G01*
X-31204000Y10818106D02*
X-31204000Y9501894D01*
G75*
G02*
X-31471894Y9234000I-267894J0D01*
G01*
X-32463106Y9234000D01*
G75*
G02*
X-32731000Y9501894I0J267894D01*
G01*
X-32731000Y10818106D01*
G75*
G02*
X-32463106Y11086000I267894J0D01*
G01*
X-31471894Y11086000D01*
G75*
G02*
X-31204000Y10818106I0J-267894D01*
G01*
G37*
G36*
G01*
X-28229000Y10818106D02*
X-28229000Y9501894D01*
G75*
G02*
X-28496894Y9234000I-267894J0D01*
G01*
X-29488106Y9234000D01*
G75*
G02*
X-29756000Y9501894I0J267894D01*
G01*
X-29756000Y10818106D01*
G75*
G02*
X-29488106Y11086000I267894J0D01*
G01*
X-28496894Y11086000D01*
G75*
G02*
X-28229000Y10818106I0J-267894D01*
G01*
G37*
G36*
G01*
X-21990000Y2041000D02*
X-21190000Y2041000D01*
G75*
G02*
X-21139000Y1990000I0J-51000D01*
G01*
X-21139000Y1090000D01*
G75*
G02*
X-21190000Y1039000I-51000J0D01*
G01*
X-21990000Y1039000D01*
G75*
G02*
X-22041000Y1090000I0J51000D01*
G01*
X-22041000Y1990000D01*
G75*
G02*
X-21990000Y2041000I51000J0D01*
G01*
G37*
G36*
G01*
X-22940000Y4041000D02*
X-22140000Y4041000D01*
G75*
G02*
X-22089000Y3990000I0J-51000D01*
G01*
X-22089000Y3090000D01*
G75*
G02*
X-22140000Y3039000I-51000J0D01*
G01*
X-22940000Y3039000D01*
G75*
G02*
X-22991000Y3090000I0J51000D01*
G01*
X-22991000Y3990000D01*
G75*
G02*
X-22940000Y4041000I51000J0D01*
G01*
G37*
G36*
G01*
X-21040000Y4041000D02*
X-20240000Y4041000D01*
G75*
G02*
X-20189000Y3990000I0J-51000D01*
G01*
X-20189000Y3090000D01*
G75*
G02*
X-20240000Y3039000I-51000J0D01*
G01*
X-21040000Y3039000D01*
G75*
G02*
X-21091000Y3090000I0J51000D01*
G01*
X-21091000Y3990000D01*
G75*
G02*
X-21040000Y4041000I51000J0D01*
G01*
G37*
G36*
G01*
X-21190000Y-2041000D02*
X-21990000Y-2041000D01*
G75*
G02*
X-22041000Y-1990000I0J51000D01*
G01*
X-22041000Y-1090000D01*
G75*
G02*
X-21990000Y-1039000I51000J0D01*
G01*
X-21190000Y-1039000D01*
G75*
G02*
X-21139000Y-1090000I0J-51000D01*
G01*
X-21139000Y-1990000D01*
G75*
G02*
X-21190000Y-2041000I-51000J0D01*
G01*
G37*
G36*
G01*
X-20240000Y-4041000D02*
X-21040000Y-4041000D01*
G75*
G02*
X-21091000Y-3990000I0J51000D01*
G01*
X-21091000Y-3090000D01*
G75*
G02*
X-21040000Y-3039000I51000J0D01*
G01*
X-20240000Y-3039000D01*
G75*
G02*
X-20189000Y-3090000I0J-51000D01*
G01*
X-20189000Y-3990000D01*
G75*
G02*
X-20240000Y-4041000I-51000J0D01*
G01*
G37*
G36*
G01*
X-22140000Y-4041000D02*
X-22940000Y-4041000D01*
G75*
G02*
X-22991000Y-3990000I0J51000D01*
G01*
X-22991000Y-3090000D01*
G75*
G02*
X-22940000Y-3039000I51000J0D01*
G01*
X-22140000Y-3039000D01*
G75*
G02*
X-22089000Y-3090000I0J-51000D01*
G01*
X-22089000Y-3990000D01*
G75*
G02*
X-22140000Y-4041000I-51000J0D01*
G01*
G37*
G36*
G01*
X-14541000Y20690000D02*
X-14541000Y22490000D01*
G75*
G02*
X-14490000Y22541000I51000J0D01*
G01*
X-11990000Y22541000D01*
G75*
G02*
X-11939000Y22490000I0J-51000D01*
G01*
X-11939000Y20690000D01*
G75*
G02*
X-11990000Y20639000I-51000J0D01*
G01*
X-14490000Y20639000D01*
G75*
G02*
X-14541000Y20690000I0J51000D01*
G01*
G37*
G36*
G01*
X-18541000Y20690000D02*
X-18541000Y22490000D01*
G75*
G02*
X-18490000Y22541000I51000J0D01*
G01*
X-15990000Y22541000D01*
G75*
G02*
X-15939000Y22490000I0J-51000D01*
G01*
X-15939000Y20690000D01*
G75*
G02*
X-15990000Y20639000I-51000J0D01*
G01*
X-18490000Y20639000D01*
G75*
G02*
X-18541000Y20690000I0J51000D01*
G01*
G37*
G36*
G01*
X-37730000Y12001000D02*
X-35930000Y12001000D01*
G75*
G02*
X-35879000Y11950000I0J-51000D01*
G01*
X-35879000Y9450000D01*
G75*
G02*
X-35930000Y9399000I-51000J0D01*
G01*
X-37730000Y9399000D01*
G75*
G02*
X-37781000Y9450000I0J51000D01*
G01*
X-37781000Y11950000D01*
G75*
G02*
X-37730000Y12001000I51000J0D01*
G01*
G37*
G36*
G01*
X-37730000Y16001000D02*
X-35930000Y16001000D01*
G75*
G02*
X-35879000Y15950000I0J-51000D01*
G01*
X-35879000Y13450000D01*
G75*
G02*
X-35930000Y13399000I-51000J0D01*
G01*
X-37730000Y13399000D01*
G75*
G02*
X-37781000Y13450000I0J51000D01*
G01*
X-37781000Y15950000D01*
G75*
G02*
X-37730000Y16001000I51000J0D01*
G01*
G37*
G36*
G01*
X16909000Y-16379298D02*
X16909000Y-15370702D01*
G75*
G02*
X17180702Y-15099000I271702J0D01*
G01*
X17914298Y-15099000D01*
G75*
G02*
X18186000Y-15370702I0J-271702D01*
G01*
X18186000Y-16379298D01*
G75*
G02*
X17914298Y-16651000I-271702J0D01*
G01*
X17180702Y-16651000D01*
G75*
G02*
X16909000Y-16379298I0J271702D01*
G01*
G37*
G36*
G01*
X14834000Y-16379298D02*
X14834000Y-15370702D01*
G75*
G02*
X15105702Y-15099000I271702J0D01*
G01*
X15839298Y-15099000D01*
G75*
G02*
X16111000Y-15370702I0J-271702D01*
G01*
X16111000Y-16379298D01*
G75*
G02*
X15839298Y-16651000I-271702J0D01*
G01*
X15105702Y-16651000D01*
G75*
G02*
X14834000Y-16379298I0J271702D01*
G01*
G37*
G36*
G01*
X16909000Y-20189298D02*
X16909000Y-19180702D01*
G75*
G02*
X17180702Y-18909000I271702J0D01*
G01*
X17914298Y-18909000D01*
G75*
G02*
X18186000Y-19180702I0J-271702D01*
G01*
X18186000Y-20189298D01*
G75*
G02*
X17914298Y-20461000I-271702J0D01*
G01*
X17180702Y-20461000D01*
G75*
G02*
X16909000Y-20189298I0J271702D01*
G01*
G37*
G36*
G01*
X14834000Y-20189298D02*
X14834000Y-19180702D01*
G75*
G02*
X15105702Y-18909000I271702J0D01*
G01*
X15839298Y-18909000D01*
G75*
G02*
X16111000Y-19180702I0J-271702D01*
G01*
X16111000Y-20189298D01*
G75*
G02*
X15839298Y-20461000I-271702J0D01*
G01*
X15105702Y-20461000D01*
G75*
G02*
X14834000Y-20189298I0J271702D01*
G01*
G37*
G36*
G01*
X-10925702Y9289000D02*
X-11934298Y9289000D01*
G75*
G02*
X-12206000Y9560702I0J271702D01*
G01*
X-12206000Y10294298D01*
G75*
G02*
X-11934298Y10566000I271702J0D01*
G01*
X-10925702Y10566000D01*
G75*
G02*
X-10654000Y10294298I0J-271702D01*
G01*
X-10654000Y9560702D01*
G75*
G02*
X-10925702Y9289000I-271702J0D01*
G01*
G37*
G36*
G01*
X-10925702Y7214000D02*
X-11934298Y7214000D01*
G75*
G02*
X-12206000Y7485702I0J271702D01*
G01*
X-12206000Y8219298D01*
G75*
G02*
X-11934298Y8491000I271702J0D01*
G01*
X-10925702Y8491000D01*
G75*
G02*
X-10654000Y8219298I0J-271702D01*
G01*
X-10654000Y7485702D01*
G75*
G02*
X-10925702Y7214000I-271702J0D01*
G01*
G37*
G36*
G01*
X-22094298Y8491000D02*
X-21085702Y8491000D01*
G75*
G02*
X-20814000Y8219298I0J-271702D01*
G01*
X-20814000Y7485702D01*
G75*
G02*
X-21085702Y7214000I-271702J0D01*
G01*
X-22094298Y7214000D01*
G75*
G02*
X-22366000Y7485702I0J271702D01*
G01*
X-22366000Y8219298D01*
G75*
G02*
X-22094298Y8491000I271702J0D01*
G01*
G37*
G36*
G01*
X-22094298Y10566000D02*
X-21085702Y10566000D01*
G75*
G02*
X-20814000Y10294298I0J-271702D01*
G01*
X-20814000Y9560702D01*
G75*
G02*
X-21085702Y9289000I-271702J0D01*
G01*
X-22094298Y9289000D01*
G75*
G02*
X-22366000Y9560702I0J271702D01*
G01*
X-22366000Y10294298D01*
G75*
G02*
X-22094298Y10566000I271702J0D01*
G01*
G37*
X-5080000Y-19050000D03*
X-5080000Y-16510000D03*
X-2540000Y-19050000D03*
X-2540000Y-16510000D03*
X0Y-19050000D03*
X0Y-16510000D03*
X2540000Y-19050000D03*
X2540000Y-16510000D03*
X5080000Y-19050000D03*
G36*
G01*
X4230000Y-15609000D02*
X5930000Y-15609000D01*
G75*
G02*
X5981000Y-15660000I0J-51000D01*
G01*
X5981000Y-17360000D01*
G75*
G02*
X5930000Y-17411000I-51000J0D01*
G01*
X4230000Y-17411000D01*
G75*
G02*
X4179000Y-17360000I0J51000D01*
G01*
X4179000Y-15660000D01*
G75*
G02*
X4230000Y-15609000I51000J0D01*
G01*
G37*
D11*
X29285000Y-8500000D03*
X28185000Y-8500000D03*
X27085000Y-8500000D03*
X25985000Y-8500000D03*
X24885000Y-8500000D03*
X23785000Y-8500000D03*
X22685000Y-8500000D03*
X21585000Y-8500000D03*
X20485000Y-8500000D03*
X19385000Y-8500000D03*
X18285000Y-8500000D03*
X31485000Y-8500000D03*
X30385000Y-8500000D03*
X31485000Y8500000D03*
X30385000Y8500000D03*
X29285000Y8500000D03*
X28185000Y8500000D03*
X27085000Y8500000D03*
X25985000Y8500000D03*
X24885000Y8500000D03*
X23785000Y8500000D03*
X22685000Y8500000D03*
X21585000Y8500000D03*
X20485000Y8500000D03*
X19385000Y8500000D03*
X18285000Y8500000D03*
X17185000Y8500000D03*
X17185000Y-8500000D03*
D12*
X-32650000Y6000000D03*
X-32650000Y-6040000D03*
D13*
X-29940000Y-1270000D03*
X-29940000Y1230000D03*
X-27940000Y1230000D03*
G36*
G01*
X-27039000Y-420000D02*
X-27039000Y-2120000D01*
G75*
G02*
X-27090000Y-2171000I-51000J0D01*
G01*
X-28790000Y-2171000D01*
G75*
G02*
X-28841000Y-2120000I0J51000D01*
G01*
X-28841000Y-420000D01*
G75*
G02*
X-28790000Y-369000I51000J0D01*
G01*
X-27090000Y-369000D01*
G75*
G02*
X-27039000Y-420000I0J-51000D01*
G01*
G37*
D12*
X25135000Y-15255000D03*
X25065000Y15255000D03*
X-25135000Y-15255000D03*
X-25135000Y15255000D03*
D14*
G36*
X20053853Y-7779154D02*
G01*
X20054180Y-7780952D01*
X20044637Y-7812409D01*
X20036001Y-7900094D01*
X20036000Y-9099906D01*
X20044636Y-9187590D01*
X20054180Y-9219052D01*
X20053726Y-9221000D01*
X20051812Y-9221581D01*
X20050418Y-9220398D01*
X20043466Y-9203616D01*
X20030072Y-9183569D01*
X20013025Y-9166522D01*
X19992977Y-9153127D01*
X19970704Y-9143901D01*
X19947053Y-9139196D01*
X19922947Y-9139196D01*
X19899297Y-9143900D01*
X19877023Y-9153127D01*
X19856976Y-9166521D01*
X19839929Y-9183568D01*
X19826534Y-9203616D01*
X19819582Y-9220398D01*
X19817995Y-9221616D01*
X19816147Y-9220851D01*
X19815820Y-9219052D01*
X19825364Y-9187591D01*
X19834000Y-9099906D01*
X19834000Y-7900094D01*
X19825364Y-7812409D01*
X19815818Y-7780941D01*
X19816272Y-7778993D01*
X19818186Y-7778412D01*
X19819580Y-7779595D01*
X19826535Y-7796385D01*
X19839930Y-7816433D01*
X19856977Y-7833480D01*
X19877024Y-7846874D01*
X19899298Y-7856101D01*
X19922948Y-7860805D01*
X19947054Y-7860805D01*
X19970705Y-7856100D01*
X19992978Y-7846874D01*
X20013026Y-7833479D01*
X20030073Y-7816432D01*
X20043467Y-7796385D01*
X20050418Y-7779606D01*
X20052005Y-7778388D01*
X20053853Y-7779154D01*
G37*
G36*
X26653853Y-7779154D02*
G01*
X26654180Y-7780952D01*
X26644637Y-7812409D01*
X26636001Y-7900094D01*
X26636000Y-9099906D01*
X26644636Y-9187590D01*
X26654180Y-9219052D01*
X26653726Y-9221000D01*
X26651812Y-9221581D01*
X26650418Y-9220398D01*
X26643466Y-9203616D01*
X26630072Y-9183569D01*
X26613025Y-9166522D01*
X26592977Y-9153127D01*
X26570704Y-9143901D01*
X26547053Y-9139196D01*
X26522947Y-9139196D01*
X26499297Y-9143900D01*
X26477023Y-9153127D01*
X26456976Y-9166521D01*
X26439929Y-9183568D01*
X26426534Y-9203616D01*
X26419582Y-9220398D01*
X26417995Y-9221616D01*
X26416147Y-9220851D01*
X26415820Y-9219052D01*
X26425364Y-9187591D01*
X26434000Y-9099906D01*
X26434000Y-7900094D01*
X26425364Y-7812409D01*
X26415818Y-7780941D01*
X26416272Y-7778993D01*
X26418186Y-7778412D01*
X26419580Y-7779595D01*
X26426535Y-7796385D01*
X26439930Y-7816433D01*
X26456977Y-7833480D01*
X26477024Y-7846874D01*
X26499298Y-7856101D01*
X26522948Y-7860805D01*
X26547054Y-7860805D01*
X26570705Y-7856100D01*
X26592978Y-7846874D01*
X26613026Y-7833479D01*
X26630073Y-7816432D01*
X26643467Y-7796385D01*
X26650418Y-7779606D01*
X26652005Y-7778388D01*
X26653853Y-7779154D01*
G37*
G36*
X25553853Y-7779154D02*
G01*
X25554180Y-7780952D01*
X25544637Y-7812409D01*
X25536001Y-7900094D01*
X25536000Y-9099906D01*
X25544636Y-9187590D01*
X25554180Y-9219052D01*
X25553726Y-9221000D01*
X25551812Y-9221581D01*
X25550418Y-9220398D01*
X25543466Y-9203616D01*
X25530072Y-9183569D01*
X25513025Y-9166522D01*
X25492977Y-9153127D01*
X25470704Y-9143901D01*
X25447053Y-9139196D01*
X25422947Y-9139196D01*
X25399297Y-9143900D01*
X25377023Y-9153127D01*
X25356976Y-9166521D01*
X25339929Y-9183568D01*
X25326534Y-9203616D01*
X25319582Y-9220398D01*
X25317995Y-9221616D01*
X25316147Y-9220851D01*
X25315820Y-9219052D01*
X25325364Y-9187591D01*
X25334000Y-9099906D01*
X25334000Y-7900094D01*
X25325364Y-7812409D01*
X25315818Y-7780941D01*
X25316272Y-7778993D01*
X25318186Y-7778412D01*
X25319580Y-7779595D01*
X25326535Y-7796385D01*
X25339930Y-7816433D01*
X25356977Y-7833480D01*
X25377024Y-7846874D01*
X25399298Y-7856101D01*
X25422948Y-7860805D01*
X25447054Y-7860805D01*
X25470705Y-7856100D01*
X25492978Y-7846874D01*
X25513026Y-7833479D01*
X25530073Y-7816432D01*
X25543467Y-7796385D01*
X25550418Y-7779606D01*
X25552005Y-7778388D01*
X25553853Y-7779154D01*
G37*
G36*
X31053853Y-7779154D02*
G01*
X31054180Y-7780952D01*
X31044637Y-7812409D01*
X31036001Y-7900094D01*
X31036000Y-9099906D01*
X31044636Y-9187590D01*
X31054180Y-9219052D01*
X31053726Y-9221000D01*
X31051812Y-9221581D01*
X31050418Y-9220398D01*
X31043466Y-9203616D01*
X31030072Y-9183569D01*
X31013025Y-9166522D01*
X30992977Y-9153127D01*
X30970704Y-9143901D01*
X30947053Y-9139196D01*
X30922947Y-9139196D01*
X30899297Y-9143900D01*
X30877023Y-9153127D01*
X30856976Y-9166521D01*
X30839929Y-9183568D01*
X30826534Y-9203616D01*
X30819582Y-9220398D01*
X30817995Y-9221616D01*
X30816147Y-9220851D01*
X30815820Y-9219052D01*
X30825364Y-9187591D01*
X30834000Y-9099906D01*
X30834000Y-7900094D01*
X30825364Y-7812409D01*
X30815818Y-7780941D01*
X30816272Y-7778993D01*
X30818186Y-7778412D01*
X30819580Y-7779595D01*
X30826535Y-7796385D01*
X30839930Y-7816433D01*
X30856977Y-7833480D01*
X30877024Y-7846874D01*
X30899298Y-7856101D01*
X30922948Y-7860805D01*
X30947054Y-7860805D01*
X30970705Y-7856100D01*
X30992978Y-7846874D01*
X31013026Y-7833479D01*
X31030073Y-7816432D01*
X31043467Y-7796385D01*
X31050418Y-7779606D01*
X31052005Y-7778388D01*
X31053853Y-7779154D01*
G37*
G36*
X18953853Y-7779154D02*
G01*
X18954180Y-7780952D01*
X18944637Y-7812409D01*
X18936001Y-7900094D01*
X18936000Y-9099906D01*
X18944636Y-9187590D01*
X18954180Y-9219052D01*
X18953726Y-9221000D01*
X18951812Y-9221581D01*
X18950418Y-9220398D01*
X18943466Y-9203616D01*
X18930072Y-9183569D01*
X18913025Y-9166522D01*
X18892977Y-9153127D01*
X18870704Y-9143901D01*
X18847053Y-9139196D01*
X18822947Y-9139196D01*
X18799297Y-9143900D01*
X18777023Y-9153127D01*
X18756976Y-9166521D01*
X18739929Y-9183568D01*
X18726534Y-9203616D01*
X18719582Y-9220398D01*
X18717995Y-9221616D01*
X18716147Y-9220851D01*
X18715820Y-9219052D01*
X18725364Y-9187591D01*
X18734000Y-9099906D01*
X18734000Y-7900094D01*
X18725364Y-7812409D01*
X18715818Y-7780941D01*
X18716272Y-7778993D01*
X18718186Y-7778412D01*
X18719580Y-7779595D01*
X18726535Y-7796385D01*
X18739930Y-7816433D01*
X18756977Y-7833480D01*
X18777024Y-7846874D01*
X18799298Y-7856101D01*
X18822948Y-7860805D01*
X18847054Y-7860805D01*
X18870705Y-7856100D01*
X18892978Y-7846874D01*
X18913026Y-7833479D01*
X18930073Y-7816432D01*
X18943467Y-7796385D01*
X18950418Y-7779606D01*
X18952005Y-7778388D01*
X18953853Y-7779154D01*
G37*
G36*
X22253853Y-7779154D02*
G01*
X22254180Y-7780952D01*
X22244637Y-7812409D01*
X22236001Y-7900094D01*
X22236000Y-9099906D01*
X22244636Y-9187590D01*
X22254180Y-9219052D01*
X22253726Y-9221000D01*
X22251812Y-9221581D01*
X22250418Y-9220398D01*
X22243466Y-9203616D01*
X22230072Y-9183569D01*
X22213025Y-9166522D01*
X22192977Y-9153127D01*
X22170704Y-9143901D01*
X22147053Y-9139196D01*
X22122947Y-9139196D01*
X22099297Y-9143900D01*
X22077023Y-9153127D01*
X22056976Y-9166521D01*
X22039929Y-9183568D01*
X22026534Y-9203616D01*
X22019582Y-9220398D01*
X22017995Y-9221616D01*
X22016147Y-9220851D01*
X22015820Y-9219052D01*
X22025364Y-9187591D01*
X22034000Y-9099906D01*
X22034000Y-7900094D01*
X22025364Y-7812409D01*
X22015818Y-7780941D01*
X22016272Y-7778993D01*
X22018186Y-7778412D01*
X22019580Y-7779595D01*
X22026535Y-7796385D01*
X22039930Y-7816433D01*
X22056977Y-7833480D01*
X22077024Y-7846874D01*
X22099298Y-7856101D01*
X22122948Y-7860805D01*
X22147054Y-7860805D01*
X22170705Y-7856100D01*
X22192978Y-7846874D01*
X22213026Y-7833479D01*
X22230073Y-7816432D01*
X22243467Y-7796385D01*
X22250418Y-7779606D01*
X22252005Y-7778388D01*
X22253853Y-7779154D01*
G37*
G36*
X28853853Y-7779154D02*
G01*
X28854180Y-7780952D01*
X28844637Y-7812409D01*
X28836001Y-7900094D01*
X28836000Y-9099906D01*
X28844636Y-9187590D01*
X28854180Y-9219052D01*
X28853726Y-9221000D01*
X28851812Y-9221581D01*
X28850418Y-9220398D01*
X28843466Y-9203616D01*
X28830072Y-9183569D01*
X28813025Y-9166522D01*
X28792977Y-9153127D01*
X28770704Y-9143901D01*
X28747053Y-9139196D01*
X28722947Y-9139196D01*
X28699297Y-9143900D01*
X28677023Y-9153127D01*
X28656976Y-9166521D01*
X28639929Y-9183568D01*
X28626534Y-9203616D01*
X28619582Y-9220398D01*
X28617995Y-9221616D01*
X28616147Y-9220851D01*
X28615820Y-9219052D01*
X28625364Y-9187591D01*
X28634000Y-9099906D01*
X28634000Y-7900094D01*
X28625364Y-7812409D01*
X28615818Y-7780941D01*
X28616272Y-7778993D01*
X28618186Y-7778412D01*
X28619580Y-7779595D01*
X28626535Y-7796385D01*
X28639930Y-7816433D01*
X28656977Y-7833480D01*
X28677024Y-7846874D01*
X28699298Y-7856101D01*
X28722948Y-7860805D01*
X28747054Y-7860805D01*
X28770705Y-7856100D01*
X28792978Y-7846874D01*
X28813026Y-7833479D01*
X28830073Y-7816432D01*
X28843467Y-7796385D01*
X28850418Y-7779606D01*
X28852005Y-7778388D01*
X28853853Y-7779154D01*
G37*
G36*
X27753853Y-7779154D02*
G01*
X27754180Y-7780952D01*
X27744637Y-7812409D01*
X27736001Y-7900094D01*
X27736000Y-9099906D01*
X27744636Y-9187590D01*
X27754180Y-9219052D01*
X27753726Y-9221000D01*
X27751812Y-9221581D01*
X27750418Y-9220398D01*
X27743466Y-9203616D01*
X27730072Y-9183569D01*
X27713025Y-9166522D01*
X27692977Y-9153127D01*
X27670704Y-9143901D01*
X27647053Y-9139196D01*
X27622947Y-9139196D01*
X27599297Y-9143900D01*
X27577023Y-9153127D01*
X27556976Y-9166521D01*
X27539929Y-9183568D01*
X27526534Y-9203616D01*
X27519582Y-9220398D01*
X27517995Y-9221616D01*
X27516147Y-9220851D01*
X27515820Y-9219052D01*
X27525364Y-9187591D01*
X27534000Y-9099906D01*
X27534000Y-7900094D01*
X27525364Y-7812409D01*
X27515818Y-7780941D01*
X27516272Y-7778993D01*
X27518186Y-7778412D01*
X27519580Y-7779595D01*
X27526535Y-7796385D01*
X27539930Y-7816433D01*
X27556977Y-7833480D01*
X27577024Y-7846874D01*
X27599298Y-7856101D01*
X27622948Y-7860805D01*
X27647054Y-7860805D01*
X27670705Y-7856100D01*
X27692978Y-7846874D01*
X27713026Y-7833479D01*
X27730073Y-7816432D01*
X27743467Y-7796385D01*
X27750418Y-7779606D01*
X27752005Y-7778388D01*
X27753853Y-7779154D01*
G37*
G36*
X23353853Y-7779154D02*
G01*
X23354180Y-7780952D01*
X23344637Y-7812409D01*
X23336001Y-7900094D01*
X23336000Y-9099906D01*
X23344636Y-9187590D01*
X23354180Y-9219052D01*
X23353726Y-9221000D01*
X23351812Y-9221581D01*
X23350418Y-9220398D01*
X23343466Y-9203616D01*
X23330072Y-9183569D01*
X23313025Y-9166522D01*
X23292977Y-9153127D01*
X23270704Y-9143901D01*
X23247053Y-9139196D01*
X23222947Y-9139196D01*
X23199297Y-9143900D01*
X23177023Y-9153127D01*
X23156976Y-9166521D01*
X23139929Y-9183568D01*
X23126534Y-9203616D01*
X23119582Y-9220398D01*
X23117995Y-9221616D01*
X23116147Y-9220851D01*
X23115820Y-9219052D01*
X23125364Y-9187591D01*
X23134000Y-9099906D01*
X23134000Y-7900094D01*
X23125364Y-7812409D01*
X23115818Y-7780941D01*
X23116272Y-7778993D01*
X23118186Y-7778412D01*
X23119580Y-7779595D01*
X23126535Y-7796385D01*
X23139930Y-7816433D01*
X23156977Y-7833480D01*
X23177024Y-7846874D01*
X23199298Y-7856101D01*
X23222948Y-7860805D01*
X23247054Y-7860805D01*
X23270705Y-7856100D01*
X23292978Y-7846874D01*
X23313026Y-7833479D01*
X23330073Y-7816432D01*
X23343467Y-7796385D01*
X23350418Y-7779606D01*
X23352005Y-7778388D01*
X23353853Y-7779154D01*
G37*
G36*
X24453853Y-7779154D02*
G01*
X24454180Y-7780952D01*
X24444637Y-7812409D01*
X24436001Y-7900094D01*
X24436000Y-9099906D01*
X24444636Y-9187590D01*
X24454180Y-9219052D01*
X24453726Y-9221000D01*
X24451812Y-9221581D01*
X24450418Y-9220398D01*
X24443466Y-9203616D01*
X24430072Y-9183569D01*
X24413025Y-9166522D01*
X24392977Y-9153127D01*
X24370704Y-9143901D01*
X24347053Y-9139196D01*
X24322947Y-9139196D01*
X24299297Y-9143900D01*
X24277023Y-9153127D01*
X24256976Y-9166521D01*
X24239929Y-9183568D01*
X24226534Y-9203616D01*
X24219582Y-9220398D01*
X24217995Y-9221616D01*
X24216147Y-9220851D01*
X24215820Y-9219052D01*
X24225364Y-9187591D01*
X24234000Y-9099906D01*
X24234000Y-7900094D01*
X24225364Y-7812409D01*
X24215818Y-7780941D01*
X24216272Y-7778993D01*
X24218186Y-7778412D01*
X24219580Y-7779595D01*
X24226535Y-7796385D01*
X24239930Y-7816433D01*
X24256977Y-7833480D01*
X24277024Y-7846874D01*
X24299298Y-7856101D01*
X24322948Y-7860805D01*
X24347054Y-7860805D01*
X24370705Y-7856100D01*
X24392978Y-7846874D01*
X24413026Y-7833479D01*
X24430073Y-7816432D01*
X24443467Y-7796385D01*
X24450418Y-7779606D01*
X24452005Y-7778388D01*
X24453853Y-7779154D01*
G37*
G36*
X21153853Y-7779154D02*
G01*
X21154180Y-7780952D01*
X21144637Y-7812409D01*
X21136001Y-7900094D01*
X21136000Y-9099906D01*
X21144636Y-9187590D01*
X21154180Y-9219052D01*
X21153726Y-9221000D01*
X21151812Y-9221581D01*
X21150418Y-9220398D01*
X21143466Y-9203616D01*
X21130072Y-9183569D01*
X21113025Y-9166522D01*
X21092977Y-9153127D01*
X21070704Y-9143901D01*
X21047053Y-9139196D01*
X21022947Y-9139196D01*
X20999297Y-9143900D01*
X20977023Y-9153127D01*
X20956976Y-9166521D01*
X20939929Y-9183568D01*
X20926534Y-9203616D01*
X20919582Y-9220398D01*
X20917995Y-9221616D01*
X20916147Y-9220851D01*
X20915820Y-9219052D01*
X20925364Y-9187591D01*
X20934000Y-9099906D01*
X20934000Y-7900094D01*
X20925364Y-7812409D01*
X20915818Y-7780941D01*
X20916272Y-7778993D01*
X20918186Y-7778412D01*
X20919580Y-7779595D01*
X20926535Y-7796385D01*
X20939930Y-7816433D01*
X20956977Y-7833480D01*
X20977024Y-7846874D01*
X20999298Y-7856101D01*
X21022948Y-7860805D01*
X21047054Y-7860805D01*
X21070705Y-7856100D01*
X21092978Y-7846874D01*
X21113026Y-7833479D01*
X21130073Y-7816432D01*
X21143467Y-7796385D01*
X21150418Y-7779606D01*
X21152005Y-7778388D01*
X21153853Y-7779154D01*
G37*
G36*
X17853853Y-7779154D02*
G01*
X17854180Y-7780952D01*
X17844637Y-7812409D01*
X17836001Y-7900094D01*
X17836000Y-9099906D01*
X17844636Y-9187590D01*
X17854180Y-9219052D01*
X17853726Y-9221000D01*
X17851812Y-9221581D01*
X17850418Y-9220398D01*
X17843466Y-9203616D01*
X17830072Y-9183569D01*
X17813025Y-9166522D01*
X17792977Y-9153127D01*
X17770704Y-9143901D01*
X17747053Y-9139196D01*
X17722947Y-9139196D01*
X17699297Y-9143900D01*
X17677023Y-9153127D01*
X17656976Y-9166521D01*
X17639929Y-9183568D01*
X17626534Y-9203616D01*
X17619582Y-9220398D01*
X17617995Y-9221616D01*
X17616147Y-9220851D01*
X17615820Y-9219052D01*
X17625364Y-9187591D01*
X17634000Y-9099906D01*
X17634000Y-7900094D01*
X17625364Y-7812409D01*
X17615818Y-7780941D01*
X17616272Y-7778993D01*
X17618186Y-7778412D01*
X17619580Y-7779595D01*
X17626535Y-7796385D01*
X17639930Y-7816433D01*
X17656977Y-7833480D01*
X17677024Y-7846874D01*
X17699298Y-7856101D01*
X17722948Y-7860805D01*
X17747054Y-7860805D01*
X17770705Y-7856100D01*
X17792978Y-7846874D01*
X17813026Y-7833479D01*
X17830073Y-7816432D01*
X17843467Y-7796385D01*
X17850418Y-7779606D01*
X17852005Y-7778388D01*
X17853853Y-7779154D01*
G37*
G36*
X29953853Y-7779154D02*
G01*
X29954180Y-7780952D01*
X29944637Y-7812409D01*
X29936001Y-7900094D01*
X29936000Y-9099906D01*
X29944636Y-9187590D01*
X29954180Y-9219052D01*
X29953726Y-9221000D01*
X29951812Y-9221581D01*
X29950418Y-9220398D01*
X29943466Y-9203616D01*
X29930072Y-9183569D01*
X29913025Y-9166522D01*
X29892977Y-9153127D01*
X29870704Y-9143901D01*
X29847053Y-9139196D01*
X29822947Y-9139196D01*
X29799297Y-9143900D01*
X29777023Y-9153127D01*
X29756976Y-9166521D01*
X29739929Y-9183568D01*
X29726534Y-9203616D01*
X29719582Y-9220398D01*
X29717995Y-9221616D01*
X29716147Y-9220851D01*
X29715820Y-9219052D01*
X29725364Y-9187591D01*
X29734000Y-9099906D01*
X29734000Y-7900094D01*
X29725364Y-7812409D01*
X29715818Y-7780941D01*
X29716272Y-7778993D01*
X29718186Y-7778412D01*
X29719580Y-7779595D01*
X29726535Y-7796385D01*
X29739930Y-7816433D01*
X29756977Y-7833480D01*
X29777024Y-7846874D01*
X29799298Y-7856101D01*
X29822948Y-7860805D01*
X29847054Y-7860805D01*
X29870705Y-7856100D01*
X29892978Y-7846874D01*
X29913026Y-7833479D01*
X29930073Y-7816432D01*
X29943467Y-7796385D01*
X29950418Y-7779606D01*
X29952005Y-7778388D01*
X29953853Y-7779154D01*
G37*
G36*
X-28839835Y-951665D02*
G01*
X-28839000Y-953291D01*
X-28839000Y-1586709D01*
X-28840000Y-1588441D01*
X-28842000Y-1588441D01*
X-28842990Y-1586905D01*
X-28845372Y-1562718D01*
X-28852372Y-1539643D01*
X-28863737Y-1518379D01*
X-28879032Y-1499742D01*
X-28897669Y-1484447D01*
X-28918933Y-1473082D01*
X-28942008Y-1466082D01*
X-28965999Y-1463719D01*
X-28989990Y-1466082D01*
X-29013065Y-1473082D01*
X-29034329Y-1484447D01*
X-29052966Y-1499742D01*
X-29068261Y-1518379D01*
X-29076828Y-1534408D01*
X-29078527Y-1535464D01*
X-29080290Y-1534521D01*
X-29080440Y-1532700D01*
X-29079721Y-1530964D01*
X-29045339Y-1358114D01*
X-29045339Y-1181886D01*
X-29079721Y-1009036D01*
X-29080440Y-1007300D01*
X-29080179Y-1005318D01*
X-29078331Y-1004552D01*
X-29076828Y-1005592D01*
X-29068261Y-1021621D01*
X-29052965Y-1040258D01*
X-29034328Y-1055553D01*
X-29013065Y-1066918D01*
X-28989990Y-1073918D01*
X-28965999Y-1076281D01*
X-28942008Y-1073918D01*
X-28918933Y-1066918D01*
X-28897669Y-1055553D01*
X-28879032Y-1040257D01*
X-28863737Y-1021620D01*
X-28852372Y-1000357D01*
X-28845372Y-977282D01*
X-28842990Y-953095D01*
X-28841825Y-951469D01*
X-28839835Y-951665D01*
G37*
G36*
X-28817723Y1407547D02*
G01*
X-28817221Y1405790D01*
X-28834661Y1318114D01*
X-28834661Y1141886D01*
X-28817221Y1054210D01*
X-28817864Y1052316D01*
X-28819826Y1051926D01*
X-28821097Y1053239D01*
X-28826373Y1070631D01*
X-28837738Y1091895D01*
X-28853033Y1110532D01*
X-28871670Y1125827D01*
X-28892934Y1137192D01*
X-28916009Y1144192D01*
X-28940000Y1146555D01*
X-28963991Y1144192D01*
X-28987066Y1137192D01*
X-29008330Y1125827D01*
X-29026967Y1110532D01*
X-29042262Y1091895D01*
X-29053627Y1070631D01*
X-29058903Y1053239D01*
X-29060363Y1051872D01*
X-29062277Y1052453D01*
X-29062779Y1054210D01*
X-29045339Y1141886D01*
X-29045339Y1318114D01*
X-29062779Y1405790D01*
X-29062136Y1407684D01*
X-29060174Y1408074D01*
X-29058903Y1406761D01*
X-29053627Y1389369D01*
X-29042262Y1368105D01*
X-29026967Y1349468D01*
X-29008330Y1334173D01*
X-28987066Y1322808D01*
X-28963991Y1315808D01*
X-28940000Y1313445D01*
X-28916009Y1315808D01*
X-28892934Y1322808D01*
X-28871670Y1334173D01*
X-28853033Y1349468D01*
X-28837738Y1368105D01*
X-28826373Y1389369D01*
X-28821097Y1406761D01*
X-28819637Y1408128D01*
X-28817723Y1407547D01*
G37*
G36*
X23353853Y9220846D02*
G01*
X23354180Y9219048D01*
X23344637Y9187591D01*
X23336001Y9099906D01*
X23336000Y7900094D01*
X23344636Y7812410D01*
X23354180Y7780948D01*
X23353726Y7779000D01*
X23351812Y7778419D01*
X23350418Y7779602D01*
X23343466Y7796384D01*
X23330072Y7816431D01*
X23313025Y7833478D01*
X23292977Y7846873D01*
X23270704Y7856099D01*
X23247053Y7860804D01*
X23222947Y7860804D01*
X23199297Y7856100D01*
X23177023Y7846873D01*
X23156976Y7833479D01*
X23139929Y7816432D01*
X23126534Y7796384D01*
X23119582Y7779602D01*
X23117995Y7778384D01*
X23116147Y7779149D01*
X23115820Y7780948D01*
X23125364Y7812409D01*
X23134000Y7900094D01*
X23134000Y9099906D01*
X23125364Y9187591D01*
X23115818Y9219059D01*
X23116272Y9221007D01*
X23118186Y9221588D01*
X23119580Y9220405D01*
X23126535Y9203615D01*
X23139930Y9183567D01*
X23156977Y9166520D01*
X23177024Y9153126D01*
X23199298Y9143899D01*
X23222948Y9139195D01*
X23247054Y9139195D01*
X23270705Y9143900D01*
X23292978Y9153126D01*
X23313026Y9166521D01*
X23330073Y9183568D01*
X23343467Y9203615D01*
X23350418Y9220394D01*
X23352005Y9221612D01*
X23353853Y9220846D01*
G37*
G36*
X17853853Y9220846D02*
G01*
X17854180Y9219048D01*
X17844637Y9187591D01*
X17836001Y9099906D01*
X17836000Y7900094D01*
X17844636Y7812410D01*
X17854180Y7780948D01*
X17853726Y7779000D01*
X17851812Y7778419D01*
X17850418Y7779602D01*
X17843466Y7796384D01*
X17830072Y7816431D01*
X17813025Y7833478D01*
X17792977Y7846873D01*
X17770704Y7856099D01*
X17747053Y7860804D01*
X17722947Y7860804D01*
X17699297Y7856100D01*
X17677023Y7846873D01*
X17656976Y7833479D01*
X17639929Y7816432D01*
X17626534Y7796384D01*
X17619582Y7779602D01*
X17617995Y7778384D01*
X17616147Y7779149D01*
X17615820Y7780948D01*
X17625364Y7812409D01*
X17634000Y7900094D01*
X17634000Y9099906D01*
X17625364Y9187591D01*
X17615818Y9219059D01*
X17616272Y9221007D01*
X17618186Y9221588D01*
X17619580Y9220405D01*
X17626535Y9203615D01*
X17639930Y9183567D01*
X17656977Y9166520D01*
X17677024Y9153126D01*
X17699298Y9143899D01*
X17722948Y9139195D01*
X17747054Y9139195D01*
X17770705Y9143900D01*
X17792978Y9153126D01*
X17813026Y9166521D01*
X17830073Y9183568D01*
X17843467Y9203615D01*
X17850418Y9220394D01*
X17852005Y9221612D01*
X17853853Y9220846D01*
G37*
G36*
X29953853Y9220846D02*
G01*
X29954180Y9219048D01*
X29944637Y9187591D01*
X29936001Y9099906D01*
X29936000Y7900094D01*
X29944636Y7812410D01*
X29954180Y7780948D01*
X29953726Y7779000D01*
X29951812Y7778419D01*
X29950418Y7779602D01*
X29943466Y7796384D01*
X29930072Y7816431D01*
X29913025Y7833478D01*
X29892977Y7846873D01*
X29870704Y7856099D01*
X29847053Y7860804D01*
X29822947Y7860804D01*
X29799297Y7856100D01*
X29777023Y7846873D01*
X29756976Y7833479D01*
X29739929Y7816432D01*
X29726534Y7796384D01*
X29719582Y7779602D01*
X29717995Y7778384D01*
X29716147Y7779149D01*
X29715820Y7780948D01*
X29725364Y7812409D01*
X29734000Y7900094D01*
X29734000Y9099906D01*
X29725364Y9187591D01*
X29715818Y9219059D01*
X29716272Y9221007D01*
X29718186Y9221588D01*
X29719580Y9220405D01*
X29726535Y9203615D01*
X29739930Y9183567D01*
X29756977Y9166520D01*
X29777024Y9153126D01*
X29799298Y9143899D01*
X29822948Y9139195D01*
X29847054Y9139195D01*
X29870705Y9143900D01*
X29892978Y9153126D01*
X29913026Y9166521D01*
X29930073Y9183568D01*
X29943467Y9203615D01*
X29950418Y9220394D01*
X29952005Y9221612D01*
X29953853Y9220846D01*
G37*
G36*
X28853853Y9220846D02*
G01*
X28854180Y9219048D01*
X28844637Y9187591D01*
X28836001Y9099906D01*
X28836000Y7900094D01*
X28844636Y7812410D01*
X28854180Y7780948D01*
X28853726Y7779000D01*
X28851812Y7778419D01*
X28850418Y7779602D01*
X28843466Y7796384D01*
X28830072Y7816431D01*
X28813025Y7833478D01*
X28792977Y7846873D01*
X28770704Y7856099D01*
X28747053Y7860804D01*
X28722947Y7860804D01*
X28699297Y7856100D01*
X28677023Y7846873D01*
X28656976Y7833479D01*
X28639929Y7816432D01*
X28626534Y7796384D01*
X28619582Y7779602D01*
X28617995Y7778384D01*
X28616147Y7779149D01*
X28615820Y7780948D01*
X28625364Y7812409D01*
X28634000Y7900094D01*
X28634000Y9099906D01*
X28625364Y9187591D01*
X28615818Y9219059D01*
X28616272Y9221007D01*
X28618186Y9221588D01*
X28619580Y9220405D01*
X28626535Y9203615D01*
X28639930Y9183567D01*
X28656977Y9166520D01*
X28677024Y9153126D01*
X28699298Y9143899D01*
X28722948Y9139195D01*
X28747054Y9139195D01*
X28770705Y9143900D01*
X28792978Y9153126D01*
X28813026Y9166521D01*
X28830073Y9183568D01*
X28843467Y9203615D01*
X28850418Y9220394D01*
X28852005Y9221612D01*
X28853853Y9220846D01*
G37*
G36*
X21153853Y9220846D02*
G01*
X21154180Y9219048D01*
X21144637Y9187591D01*
X21136001Y9099906D01*
X21136000Y7900094D01*
X21144636Y7812410D01*
X21154180Y7780948D01*
X21153726Y7779000D01*
X21151812Y7778419D01*
X21150418Y7779602D01*
X21143466Y7796384D01*
X21130072Y7816431D01*
X21113025Y7833478D01*
X21092977Y7846873D01*
X21070704Y7856099D01*
X21047053Y7860804D01*
X21022947Y7860804D01*
X20999297Y7856100D01*
X20977023Y7846873D01*
X20956976Y7833479D01*
X20939929Y7816432D01*
X20926534Y7796384D01*
X20919582Y7779602D01*
X20917995Y7778384D01*
X20916147Y7779149D01*
X20915820Y7780948D01*
X20925364Y7812409D01*
X20934000Y7900094D01*
X20934000Y9099906D01*
X20925364Y9187591D01*
X20915818Y9219059D01*
X20916272Y9221007D01*
X20918186Y9221588D01*
X20919580Y9220405D01*
X20926535Y9203615D01*
X20939930Y9183567D01*
X20956977Y9166520D01*
X20977024Y9153126D01*
X20999298Y9143899D01*
X21022948Y9139195D01*
X21047054Y9139195D01*
X21070705Y9143900D01*
X21092978Y9153126D01*
X21113026Y9166521D01*
X21130073Y9183568D01*
X21143467Y9203615D01*
X21150418Y9220394D01*
X21152005Y9221612D01*
X21153853Y9220846D01*
G37*
G36*
X22253853Y9220846D02*
G01*
X22254180Y9219048D01*
X22244637Y9187591D01*
X22236001Y9099906D01*
X22236000Y7900094D01*
X22244636Y7812410D01*
X22254180Y7780948D01*
X22253726Y7779000D01*
X22251812Y7778419D01*
X22250418Y7779602D01*
X22243466Y7796384D01*
X22230072Y7816431D01*
X22213025Y7833478D01*
X22192977Y7846873D01*
X22170704Y7856099D01*
X22147053Y7860804D01*
X22122947Y7860804D01*
X22099297Y7856100D01*
X22077023Y7846873D01*
X22056976Y7833479D01*
X22039929Y7816432D01*
X22026534Y7796384D01*
X22019582Y7779602D01*
X22017995Y7778384D01*
X22016147Y7779149D01*
X22015820Y7780948D01*
X22025364Y7812409D01*
X22034000Y7900094D01*
X22034000Y9099906D01*
X22025364Y9187591D01*
X22015818Y9219059D01*
X22016272Y9221007D01*
X22018186Y9221588D01*
X22019580Y9220405D01*
X22026535Y9203615D01*
X22039930Y9183567D01*
X22056977Y9166520D01*
X22077024Y9153126D01*
X22099298Y9143899D01*
X22122948Y9139195D01*
X22147054Y9139195D01*
X22170705Y9143900D01*
X22192978Y9153126D01*
X22213026Y9166521D01*
X22230073Y9183568D01*
X22243467Y9203615D01*
X22250418Y9220394D01*
X22252005Y9221612D01*
X22253853Y9220846D01*
G37*
G36*
X31053853Y9220846D02*
G01*
X31054180Y9219048D01*
X31044637Y9187591D01*
X31036001Y9099906D01*
X31036000Y7900094D01*
X31044636Y7812410D01*
X31054180Y7780948D01*
X31053726Y7779000D01*
X31051812Y7778419D01*
X31050418Y7779602D01*
X31043466Y7796384D01*
X31030072Y7816431D01*
X31013025Y7833478D01*
X30992977Y7846873D01*
X30970704Y7856099D01*
X30947053Y7860804D01*
X30922947Y7860804D01*
X30899297Y7856100D01*
X30877023Y7846873D01*
X30856976Y7833479D01*
X30839929Y7816432D01*
X30826534Y7796384D01*
X30819582Y7779602D01*
X30817995Y7778384D01*
X30816147Y7779149D01*
X30815820Y7780948D01*
X30825364Y7812409D01*
X30834000Y7900094D01*
X30834000Y9099906D01*
X30825364Y9187591D01*
X30815818Y9219059D01*
X30816272Y9221007D01*
X30818186Y9221588D01*
X30819580Y9220405D01*
X30826535Y9203615D01*
X30839930Y9183567D01*
X30856977Y9166520D01*
X30877024Y9153126D01*
X30899298Y9143899D01*
X30922948Y9139195D01*
X30947054Y9139195D01*
X30970705Y9143900D01*
X30992978Y9153126D01*
X31013026Y9166521D01*
X31030073Y9183568D01*
X31043467Y9203615D01*
X31050418Y9220394D01*
X31052005Y9221612D01*
X31053853Y9220846D01*
G37*
G36*
X25553853Y9220846D02*
G01*
X25554180Y9219048D01*
X25544637Y9187591D01*
X25536001Y9099906D01*
X25536000Y7900094D01*
X25544636Y7812410D01*
X25554180Y7780948D01*
X25553726Y7779000D01*
X25551812Y7778419D01*
X25550418Y7779602D01*
X25543466Y7796384D01*
X25530072Y7816431D01*
X25513025Y7833478D01*
X25492977Y7846873D01*
X25470704Y7856099D01*
X25447053Y7860804D01*
X25422947Y7860804D01*
X25399297Y7856100D01*
X25377023Y7846873D01*
X25356976Y7833479D01*
X25339929Y7816432D01*
X25326534Y7796384D01*
X25319582Y7779602D01*
X25317995Y7778384D01*
X25316147Y7779149D01*
X25315820Y7780948D01*
X25325364Y7812409D01*
X25334000Y7900094D01*
X25334000Y9099906D01*
X25325364Y9187591D01*
X25315818Y9219059D01*
X25316272Y9221007D01*
X25318186Y9221588D01*
X25319580Y9220405D01*
X25326535Y9203615D01*
X25339930Y9183567D01*
X25356977Y9166520D01*
X25377024Y9153126D01*
X25399298Y9143899D01*
X25422948Y9139195D01*
X25447054Y9139195D01*
X25470705Y9143900D01*
X25492978Y9153126D01*
X25513026Y9166521D01*
X25530073Y9183568D01*
X25543467Y9203615D01*
X25550418Y9220394D01*
X25552005Y9221612D01*
X25553853Y9220846D01*
G37*
G36*
X20053853Y9220846D02*
G01*
X20054180Y9219048D01*
X20044637Y9187591D01*
X20036001Y9099906D01*
X20036000Y7900094D01*
X20044636Y7812410D01*
X20054180Y7780948D01*
X20053726Y7779000D01*
X20051812Y7778419D01*
X20050418Y7779602D01*
X20043466Y7796384D01*
X20030072Y7816431D01*
X20013025Y7833478D01*
X19992977Y7846873D01*
X19970704Y7856099D01*
X19947053Y7860804D01*
X19922947Y7860804D01*
X19899297Y7856100D01*
X19877023Y7846873D01*
X19856976Y7833479D01*
X19839929Y7816432D01*
X19826534Y7796384D01*
X19819582Y7779602D01*
X19817995Y7778384D01*
X19816147Y7779149D01*
X19815820Y7780948D01*
X19825364Y7812409D01*
X19834000Y7900094D01*
X19834000Y9099906D01*
X19825364Y9187591D01*
X19815818Y9219059D01*
X19816272Y9221007D01*
X19818186Y9221588D01*
X19819580Y9220405D01*
X19826535Y9203615D01*
X19839930Y9183567D01*
X19856977Y9166520D01*
X19877024Y9153126D01*
X19899298Y9143899D01*
X19922948Y9139195D01*
X19947054Y9139195D01*
X19970705Y9143900D01*
X19992978Y9153126D01*
X20013026Y9166521D01*
X20030073Y9183568D01*
X20043467Y9203615D01*
X20050418Y9220394D01*
X20052005Y9221612D01*
X20053853Y9220846D01*
G37*
G36*
X26653853Y9220846D02*
G01*
X26654180Y9219048D01*
X26644637Y9187591D01*
X26636001Y9099906D01*
X26636000Y7900094D01*
X26644636Y7812410D01*
X26654180Y7780948D01*
X26653726Y7779000D01*
X26651812Y7778419D01*
X26650418Y7779602D01*
X26643466Y7796384D01*
X26630072Y7816431D01*
X26613025Y7833478D01*
X26592977Y7846873D01*
X26570704Y7856099D01*
X26547053Y7860804D01*
X26522947Y7860804D01*
X26499297Y7856100D01*
X26477023Y7846873D01*
X26456976Y7833479D01*
X26439929Y7816432D01*
X26426534Y7796384D01*
X26419582Y7779602D01*
X26417995Y7778384D01*
X26416147Y7779149D01*
X26415820Y7780948D01*
X26425364Y7812409D01*
X26434000Y7900094D01*
X26434000Y9099906D01*
X26425364Y9187591D01*
X26415818Y9219059D01*
X26416272Y9221007D01*
X26418186Y9221588D01*
X26419580Y9220405D01*
X26426535Y9203615D01*
X26439930Y9183567D01*
X26456977Y9166520D01*
X26477024Y9153126D01*
X26499298Y9143899D01*
X26522948Y9139195D01*
X26547054Y9139195D01*
X26570705Y9143900D01*
X26592978Y9153126D01*
X26613026Y9166521D01*
X26630073Y9183568D01*
X26643467Y9203615D01*
X26650418Y9220394D01*
X26652005Y9221612D01*
X26653853Y9220846D01*
G37*
G36*
X18953853Y9220846D02*
G01*
X18954180Y9219048D01*
X18944637Y9187591D01*
X18936001Y9099906D01*
X18936000Y7900094D01*
X18944636Y7812410D01*
X18954180Y7780948D01*
X18953726Y7779000D01*
X18951812Y7778419D01*
X18950418Y7779602D01*
X18943466Y7796384D01*
X18930072Y7816431D01*
X18913025Y7833478D01*
X18892977Y7846873D01*
X18870704Y7856099D01*
X18847053Y7860804D01*
X18822947Y7860804D01*
X18799297Y7856100D01*
X18777023Y7846873D01*
X18756976Y7833479D01*
X18739929Y7816432D01*
X18726534Y7796384D01*
X18719582Y7779602D01*
X18717995Y7778384D01*
X18716147Y7779149D01*
X18715820Y7780948D01*
X18725364Y7812409D01*
X18734000Y7900094D01*
X18734000Y9099906D01*
X18725364Y9187591D01*
X18715818Y9219059D01*
X18716272Y9221007D01*
X18718186Y9221588D01*
X18719580Y9220405D01*
X18726535Y9203615D01*
X18739930Y9183567D01*
X18756977Y9166520D01*
X18777024Y9153126D01*
X18799298Y9143899D01*
X18822948Y9139195D01*
X18847054Y9139195D01*
X18870705Y9143900D01*
X18892978Y9153126D01*
X18913026Y9166521D01*
X18930073Y9183568D01*
X18943467Y9203615D01*
X18950418Y9220394D01*
X18952005Y9221612D01*
X18953853Y9220846D01*
G37*
G36*
X27753853Y9220846D02*
G01*
X27754180Y9219048D01*
X27744637Y9187591D01*
X27736001Y9099906D01*
X27736000Y7900094D01*
X27744636Y7812410D01*
X27754180Y7780948D01*
X27753726Y7779000D01*
X27751812Y7778419D01*
X27750418Y7779602D01*
X27743466Y7796384D01*
X27730072Y7816431D01*
X27713025Y7833478D01*
X27692977Y7846873D01*
X27670704Y7856099D01*
X27647053Y7860804D01*
X27622947Y7860804D01*
X27599297Y7856100D01*
X27577023Y7846873D01*
X27556976Y7833479D01*
X27539929Y7816432D01*
X27526534Y7796384D01*
X27519582Y7779602D01*
X27517995Y7778384D01*
X27516147Y7779149D01*
X27515820Y7780948D01*
X27525364Y7812409D01*
X27534000Y7900094D01*
X27534000Y9099906D01*
X27525364Y9187591D01*
X27515818Y9219059D01*
X27516272Y9221007D01*
X27518186Y9221588D01*
X27519580Y9220405D01*
X27526535Y9203615D01*
X27539930Y9183567D01*
X27556977Y9166520D01*
X27577024Y9153126D01*
X27599298Y9143899D01*
X27622948Y9139195D01*
X27647054Y9139195D01*
X27670705Y9143900D01*
X27692978Y9153126D01*
X27713026Y9166521D01*
X27730073Y9183568D01*
X27743467Y9203615D01*
X27750418Y9220394D01*
X27752005Y9221612D01*
X27753853Y9220846D01*
G37*
G36*
X24453853Y9220846D02*
G01*
X24454180Y9219048D01*
X24444637Y9187591D01*
X24436001Y9099906D01*
X24436000Y7900094D01*
X24444636Y7812410D01*
X24454180Y7780948D01*
X24453726Y7779000D01*
X24451812Y7778419D01*
X24450418Y7779602D01*
X24443466Y7796384D01*
X24430072Y7816431D01*
X24413025Y7833478D01*
X24392977Y7846873D01*
X24370704Y7856099D01*
X24347053Y7860804D01*
X24322947Y7860804D01*
X24299297Y7856100D01*
X24277023Y7846873D01*
X24256976Y7833479D01*
X24239929Y7816432D01*
X24226534Y7796384D01*
X24219582Y7779602D01*
X24217995Y7778384D01*
X24216147Y7779149D01*
X24215820Y7780948D01*
X24225364Y7812409D01*
X24234000Y7900094D01*
X24234000Y9099906D01*
X24225364Y9187591D01*
X24215818Y9219059D01*
X24216272Y9221007D01*
X24218186Y9221588D01*
X24219580Y9220405D01*
X24226535Y9203615D01*
X24239930Y9183567D01*
X24256977Y9166520D01*
X24277024Y9153126D01*
X24299298Y9143899D01*
X24322948Y9139195D01*
X24347054Y9139195D01*
X24370705Y9143900D01*
X24392978Y9153126D01*
X24413026Y9166521D01*
X24430073Y9183568D01*
X24443467Y9203615D01*
X24450418Y9220394D01*
X24452005Y9221612D01*
X24453853Y9220846D01*
G37*
M02*
