G04 #@! TF.GenerationSoftware,KiCad,Pcbnew,(5.1.9)-1*
G04 #@! TF.CreationDate,2021-03-07T13:30:35+01:00*
G04 #@! TF.ProjectId,Minew MS88SF2 breakout,4d696e65-7720-44d5-9338-385346322062,rev?*
G04 #@! TF.SameCoordinates,Original*
G04 #@! TF.FileFunction,Copper,L2,Bot*
G04 #@! TF.FilePolarity,Positive*
%FSLAX46Y46*%
G04 Gerber Fmt 4.6, Leading zero omitted, Abs format (unit mm)*
G04 Created by KiCad (PCBNEW (5.1.9)-1) date 2021-03-07 13:30:35*
%MOMM*%
%LPD*%
G01*
G04 APERTURE LIST*
G04 #@! TA.AperFunction,SMDPad,CuDef*
%ADD10R,1.500000X1.500000*%
G04 #@! TD*
G04 #@! TA.AperFunction,ComponentPad*
%ADD11O,1.700000X1.700000*%
G04 #@! TD*
G04 #@! TA.AperFunction,ComponentPad*
%ADD12R,1.700000X1.700000*%
G04 #@! TD*
G04 #@! TA.AperFunction,SMDPad,CuDef*
%ADD13R,1.500000X1.000000*%
G04 #@! TD*
G04 #@! TA.AperFunction,ComponentPad*
%ADD14C,3.500000*%
G04 #@! TD*
G04 #@! TA.AperFunction,ComponentPad*
%ADD15C,1.700000*%
G04 #@! TD*
G04 #@! TA.AperFunction,ViaPad*
%ADD16C,0.800000*%
G04 #@! TD*
G04 #@! TA.AperFunction,Conductor*
%ADD17C,0.250000*%
G04 #@! TD*
G04 #@! TA.AperFunction,Conductor*
%ADD18C,0.500000*%
G04 #@! TD*
G04 #@! TA.AperFunction,Conductor*
%ADD19C,0.254000*%
G04 #@! TD*
G04 #@! TA.AperFunction,Conductor*
%ADD20C,0.100000*%
G04 #@! TD*
G04 APERTURE END LIST*
D10*
X-1180000Y5080000D03*
X-8980000Y5080000D03*
D11*
X8890000Y19050000D03*
X8890000Y16510000D03*
X6350000Y19050000D03*
X6350000Y16510000D03*
X3810000Y19050000D03*
X3810000Y16510000D03*
X1270000Y19050000D03*
X1270000Y16510000D03*
X-1270000Y19050000D03*
X-1270000Y16510000D03*
X-3810000Y19050000D03*
X-3810000Y16510000D03*
X-6350000Y19050000D03*
X-6350000Y16510000D03*
X-8890000Y19050000D03*
D12*
X-8890000Y16510000D03*
G04 #@! TA.AperFunction,SMDPad,CuDef*
G36*
G01*
X5530000Y-5530001D02*
X5530000Y-4629999D01*
G75*
G02*
X5779999Y-4380000I249999J0D01*
G01*
X6430001Y-4380000D01*
G75*
G02*
X6680000Y-4629999I0J-249999D01*
G01*
X6680000Y-5530001D01*
G75*
G02*
X6430001Y-5780000I-249999J0D01*
G01*
X5779999Y-5780000D01*
G75*
G02*
X5530000Y-5530001I0J249999D01*
G01*
G37*
G04 #@! TD.AperFunction*
G04 #@! TA.AperFunction,SMDPad,CuDef*
G36*
G01*
X3480000Y-5530001D02*
X3480000Y-4629999D01*
G75*
G02*
X3729999Y-4380000I249999J0D01*
G01*
X4380001Y-4380000D01*
G75*
G02*
X4630000Y-4629999I0J-249999D01*
G01*
X4630000Y-5530001D01*
G75*
G02*
X4380001Y-5780000I-249999J0D01*
G01*
X3729999Y-5780000D01*
G75*
G02*
X3480000Y-5530001I0J249999D01*
G01*
G37*
G04 #@! TD.AperFunction*
D13*
X3330000Y4380000D03*
X3330000Y5780000D03*
X6830000Y4380000D03*
X6830000Y5780000D03*
D10*
X-1180000Y-5080000D03*
X-8980000Y-5080000D03*
D11*
X11430000Y-19050000D03*
D12*
X11430000Y-16510000D03*
D11*
X-5080000Y-19050000D03*
X-5080000Y-16510000D03*
X-2540000Y-19050000D03*
X-2540000Y-16510000D03*
X0Y-19050000D03*
X0Y-16510000D03*
X2540000Y-19050000D03*
X2540000Y-16510000D03*
X5080000Y-19050000D03*
D12*
X5080000Y-16510000D03*
D14*
X-32650000Y6000000D03*
X-32650000Y-6040000D03*
D15*
X-29940000Y-1270000D03*
X-29940000Y1230000D03*
X-27940000Y1230000D03*
D12*
X-27940000Y-1270000D03*
D16*
X-15113000Y2921000D03*
X-15113000Y-2794000D03*
X14478000Y2603500D03*
X14224000Y-2794000D03*
X21209000Y-381000D03*
X7874000Y-3302000D03*
X24003000Y-635000D03*
X27178000Y127000D03*
X27432000Y-5588000D03*
X27813000Y-23749000D03*
X19939000Y-16129000D03*
X9017000Y-23368000D03*
X7874000Y-12827000D03*
X8509000Y-9398000D03*
X8509000Y-6731000D03*
X10287000Y-3556000D03*
X-7747000Y-10668000D03*
X-1143000Y-9779000D03*
X-2032000Y-12827000D03*
X-2921000Y-22733000D03*
X-8763000Y-21082000D03*
X-17526000Y-5207000D03*
X-18923000Y3302000D03*
X-19177000Y-1270000D03*
X-25273000Y0D03*
X-21463000Y0D03*
X-23241000Y-1016000D03*
X-31115000Y3175000D03*
X-33782000Y2794000D03*
X-26035000Y8763000D03*
X-27686000Y11557000D03*
X-31877000Y14732000D03*
X-39370000Y16764000D03*
X-28067000Y19939000D03*
X-30480000Y24130000D03*
X-19304000Y23368000D03*
X-19812000Y19939000D03*
X-14478000Y10160000D03*
X-14224000Y16129000D03*
X-11049000Y23495000D03*
X-9652000Y9144000D03*
X-9017000Y6731000D03*
X12192000Y15367000D03*
X17907000Y15494000D03*
X20828000Y21717000D03*
X20828000Y24003000D03*
X29337000Y13081000D03*
X30734000Y19177000D03*
X30353000Y5080000D03*
X31369000Y11430000D03*
X30353000Y-5842000D03*
X13081000Y-9017000D03*
X15875000Y-18034000D03*
X12827000Y-22733000D03*
X13970000Y-14478000D03*
X6604000Y8890000D03*
X3937000Y8763000D03*
X-21590000Y-7620000D03*
X-21590000Y-10160000D03*
X-27940000Y-5080000D03*
X-24130000Y-5080000D03*
X22733000Y-10922000D03*
X-5080000Y-10414002D03*
X28130500Y-18415000D03*
X29053843Y-19766856D03*
X29086290Y-18709089D03*
X5588000Y-3556000D03*
X-3937000Y-2921000D03*
X-11493500Y3238500D03*
X-9906000Y7874000D03*
X16002000Y8509000D03*
X-24130000Y3302000D03*
X-23876000Y-2413000D03*
X15113002Y19050000D03*
X-36830000Y8636006D03*
X27882542Y10635979D03*
X-7874000Y9906000D03*
X18796000Y11430000D03*
X-5144333Y11808558D03*
X22606000Y-6350000D03*
X-381000Y-7493000D03*
X17526000Y11430000D03*
X-4953000Y10827021D03*
X-8995577Y-3644010D03*
X705205Y4927750D03*
X1618979Y5334000D03*
X10287002Y8128000D03*
X3175000Y-6731000D03*
X22733000Y5461000D03*
X-2540000Y2794000D03*
X21082000Y5588000D03*
X-2667000Y5080000D03*
X19385003Y6431003D03*
X16280853Y6576415D03*
X25527000Y-2667000D03*
X16129000Y5334000D03*
X24892000Y-4826000D03*
X12446000Y2379978D03*
X3810000Y2379968D03*
X23749000Y-4445000D03*
X2540000Y2379964D03*
X21788337Y-4674117D03*
X-3810004Y5207000D03*
X20700998Y-4953000D03*
X28702000Y18287998D03*
X29210000Y10795000D03*
X-127000Y10827021D03*
X27014654Y10139195D03*
X-6349999Y9652001D03*
X22225000Y11938000D03*
X-5080000Y13258569D03*
X20828000Y11557000D03*
X-10033000Y12065000D03*
X-5461000Y2794000D03*
X14986000Y-10033000D03*
X-25908000Y7366000D03*
D17*
X22733000Y-10922000D02*
X22333001Y-11321999D01*
X22333001Y-11321999D02*
X-4172003Y-11321999D01*
X-4172003Y-11321999D02*
X-5080000Y-10414002D01*
X0Y-18923000D02*
X0Y-19050000D01*
X6413500Y-18644498D02*
X5644001Y-17874999D01*
X6413500Y-19240500D02*
X6413500Y-18644498D01*
X1048001Y-17874999D02*
X0Y-18923000D01*
X7398001Y-20225001D02*
X6413500Y-19240500D01*
X5644001Y-17874999D02*
X1048001Y-17874999D01*
X26764999Y-20225001D02*
X7398001Y-20225001D01*
X28130500Y-18859500D02*
X26764999Y-20225001D01*
X28130500Y-18415000D02*
X28130500Y-18859500D01*
X2540000Y-19050000D02*
X4615023Y-21125023D01*
X4615023Y-21125023D02*
X27695676Y-21125023D01*
X27695676Y-21125023D02*
X29053843Y-19766856D01*
X6705012Y-20675012D02*
X27120367Y-20675012D01*
X5080000Y-19050000D02*
X6705012Y-20675012D01*
X27120367Y-20675012D02*
X29086290Y-18709089D01*
D18*
X-4064000Y-2794000D02*
X-3937000Y-2921000D01*
X-9525000Y-2794000D02*
X-4064000Y-2794000D01*
X-11493500Y-825500D02*
X-9525000Y-2794000D01*
X-11493500Y3238500D02*
X-11493500Y-825500D01*
X5588000Y-4563000D02*
X6105000Y-5080000D01*
X5588000Y-3556000D02*
X5588000Y-4563000D01*
X-9906000Y7874000D02*
X5207000Y7874000D01*
D17*
X-24130000Y-2159000D02*
X-23876000Y-2413000D01*
X-24130000Y-635000D02*
X-24130000Y-2159000D01*
X-24130000Y3302000D02*
X-24130000Y-635000D01*
D18*
X6830000Y4380000D02*
X5889601Y4380000D01*
X5889601Y4380000D02*
X5207000Y5062601D01*
X5207000Y5062601D02*
X5207000Y7874000D01*
X6350000Y19050000D02*
X8020001Y20720001D01*
X8020001Y20720001D02*
X13443001Y20720001D01*
X13443001Y20720001D02*
X15113002Y19050000D01*
X14478000Y10033000D02*
X16002000Y8509000D01*
X5969000Y10033000D02*
X14478000Y10033000D01*
X5207000Y9271000D02*
X5969000Y10033000D01*
X5207000Y7874000D02*
X5207000Y9271000D01*
X4445000Y-3556000D02*
X5588000Y-3556000D01*
X3429000Y-3556000D02*
X4445000Y-3556000D01*
X2794000Y-2921000D02*
X3429000Y-3556000D01*
X-3937000Y-2921000D02*
X2794000Y-2921000D01*
X-27940000Y-1270000D02*
X-29464000Y-2794000D01*
X-35433000Y-2794000D02*
X-36830000Y-1397000D01*
X-29464000Y-2794000D02*
X-35433000Y-2794000D01*
X-36830000Y-1397000D02*
X-36830000Y8636006D01*
D17*
X26702999Y10885001D02*
X25670987Y9852989D01*
X4588412Y10102011D02*
X-5727007Y10102011D01*
X-6001998Y10377002D02*
X-7402998Y10377002D01*
X5544423Y11058022D02*
X4588412Y10102011D01*
X14902577Y11058022D02*
X5544423Y11058022D01*
X27882542Y10635979D02*
X27633520Y10885001D01*
X16107609Y9852989D02*
X14902577Y11058022D01*
X27633520Y10885001D02*
X26702999Y10885001D01*
X-7402998Y10377002D02*
X-7874000Y9906000D01*
X-5727007Y10102011D02*
X-6001998Y10377002D01*
X25670987Y9852989D02*
X16107609Y9852989D01*
X18796000Y11430000D02*
X17583991Y12642009D01*
X17583991Y12642009D02*
X-3774422Y12642009D01*
X-4607873Y11808558D02*
X-5144333Y11808558D01*
X-3774422Y12642009D02*
X-4607873Y11808558D01*
X21463000Y-7493000D02*
X-381000Y-7493000D01*
X22606000Y-6350000D02*
X21463000Y-7493000D01*
X16997956Y11958044D02*
X-3821977Y11958044D01*
X17526000Y11430000D02*
X16997956Y11958044D01*
X-3821977Y11958044D02*
X-4953000Y10827021D01*
X-8980000Y-5080000D02*
X-8980000Y-3659587D01*
X-8980000Y-3659587D02*
X-8995577Y-3644010D01*
X3330000Y4380000D02*
X1252955Y4380000D01*
X1252955Y4380000D02*
X705205Y4927750D01*
X2064979Y5780000D02*
X1618979Y5334000D01*
X3330000Y5780000D02*
X2064979Y5780000D01*
X7939002Y5780000D02*
X10287002Y8128000D01*
X6830000Y5780000D02*
X7939002Y5780000D01*
X3175000Y-5960000D02*
X4055000Y-5080000D01*
X3175000Y-6731000D02*
X3175000Y-5960000D01*
X14452485Y3650987D02*
X13906486Y3104988D01*
X-2229012Y3104988D02*
X-2540000Y2794000D01*
X13906486Y3104988D02*
X-2229012Y3104988D01*
X20922987Y3650987D02*
X14452485Y3650987D01*
X22733000Y5461000D02*
X20922987Y3650987D01*
X-1707684Y3554999D02*
X-2667000Y4514315D01*
X13720086Y3554999D02*
X-1707684Y3554999D01*
X19594998Y4100998D02*
X14266085Y4100998D01*
X21082000Y5588000D02*
X19594998Y4100998D01*
X-2667000Y4514315D02*
X-2667000Y5080000D01*
X14266085Y4100998D02*
X13720086Y3554999D01*
X16426265Y6431003D02*
X16280853Y6576415D01*
X19385003Y6431003D02*
X16426265Y6431003D01*
X24130000Y6604000D02*
X21024996Y6604000D01*
X25527000Y-2667000D02*
X25527000Y5207000D01*
X25527000Y5207000D02*
X24130000Y6604000D01*
X19754996Y5334000D02*
X16129000Y5334000D01*
X21024996Y6604000D02*
X19754996Y5334000D01*
X12947479Y1878499D02*
X12446000Y2379978D01*
X22769999Y-3719999D02*
X17171501Y1878499D01*
X24351684Y-3719999D02*
X22769999Y-3719999D01*
X24892000Y-4260315D02*
X24351684Y-3719999D01*
X24892000Y-4826000D02*
X24892000Y-4260315D01*
X17171501Y1878499D02*
X12947479Y1878499D01*
X3810000Y2379968D02*
X4761480Y1428488D01*
X4761480Y1428488D02*
X16928827Y1428488D01*
X22802315Y-4445000D02*
X23749000Y-4445000D01*
X16928827Y1428488D02*
X22802315Y-4445000D01*
X2540000Y2379964D02*
X3941487Y978477D01*
X3941487Y978477D02*
X16135743Y978477D01*
X16135743Y978477D02*
X21788337Y-4674117D01*
X-3810004Y2991002D02*
X-1347468Y528466D01*
X-3810004Y5207000D02*
X-3810004Y2991002D01*
X-1347468Y528466D02*
X15219532Y528466D01*
X15219532Y528466D02*
X20700998Y-4953000D01*
X-1270000Y19050000D02*
X2558999Y22878999D01*
X2558999Y22878999D02*
X24110999Y22878999D01*
X24110999Y22878999D02*
X28702000Y18287998D01*
X29210000Y10795000D02*
X28644011Y11360989D01*
X22028002Y10668000D02*
X15929010Y10668000D01*
X15088977Y11508033D02*
X554012Y11508033D01*
X554012Y11508033D02*
X-127000Y10827021D01*
X15929010Y10668000D02*
X15088977Y11508033D01*
X22720991Y11360989D02*
X22028002Y10668000D01*
X28644011Y11360989D02*
X22720991Y11360989D01*
X-5784314Y9652001D02*
X-6349999Y9652001D01*
X27014654Y10139195D02*
X26213470Y9338011D01*
X5730823Y10608011D02*
X4774812Y9652000D01*
X4774812Y9652000D02*
X-5784314Y9652001D01*
X14716177Y10608011D02*
X5730823Y10608011D01*
X15986177Y9338011D02*
X14716177Y10608011D01*
X26213470Y9338011D02*
X15986177Y9338011D01*
X22225000Y11938000D02*
X20364501Y13798499D01*
X-4540070Y13798499D02*
X-5080000Y13258569D01*
X20364501Y13798499D02*
X-4540070Y13798499D01*
X20828000Y11557000D02*
X19292980Y13092020D01*
X-9633001Y12464999D02*
X-10033000Y12065000D01*
X19292980Y13092020D02*
X-4091325Y13092020D01*
X-4091325Y13092020D02*
X-4649786Y12533559D01*
X-4649786Y12533559D02*
X-9564441Y12533559D01*
X-9564441Y12533559D02*
X-9633001Y12464999D01*
X-5461000Y2794000D02*
X-8509000Y2794000D01*
X-8980000Y3265000D02*
X-8980000Y5080000D01*
X-8509000Y2794000D02*
X-8980000Y3265000D01*
D18*
X-26123001Y-4991999D02*
X-26123001Y7150999D01*
X-22225000Y-8890000D02*
X-26123001Y-4991999D01*
X-4699000Y-8890000D02*
X-22225000Y-8890000D01*
X-2959999Y-10629001D02*
X-4699000Y-8890000D01*
X14389999Y-10629001D02*
X-2959999Y-10629001D01*
X-26123001Y7150999D02*
X-25908000Y7366000D01*
X14986000Y-10033000D02*
X14389999Y-10629001D01*
D19*
X31869001Y21241374D02*
X31869083Y21240542D01*
X31869089Y21238808D01*
X31871213Y21217907D01*
X31871066Y21196902D01*
X31871721Y21190218D01*
X31943326Y20508938D01*
X31952084Y20466276D01*
X31960261Y20423410D01*
X31962202Y20416981D01*
X32164771Y19762584D01*
X32181664Y19722398D01*
X32197996Y19681975D01*
X32201149Y19676045D01*
X32258000Y19570901D01*
X32258000Y-19574010D01*
X32190145Y-19701627D01*
X32173536Y-19741924D01*
X32156359Y-19782002D01*
X32154372Y-19788418D01*
X31956376Y-20444213D01*
X31947908Y-20486981D01*
X31938845Y-20529621D01*
X31938143Y-20536300D01*
X31871296Y-21218063D01*
X31869000Y-21241375D01*
X31869001Y-25274000D01*
X-31869000Y-25274000D01*
X-31869000Y-21241374D01*
X-31869083Y-21240532D01*
X-31869089Y-21238808D01*
X-31871213Y-21217907D01*
X-31871066Y-21196903D01*
X-31871721Y-21190218D01*
X-31943326Y-20508938D01*
X-31952092Y-20466231D01*
X-31960261Y-20423411D01*
X-31962202Y-20416981D01*
X-32164771Y-19762585D01*
X-32181665Y-19722396D01*
X-32197996Y-19681975D01*
X-32201149Y-19676045D01*
X-32526967Y-19073458D01*
X-32551330Y-19037338D01*
X-32575216Y-19000837D01*
X-32579461Y-18995632D01*
X-32634784Y-18928757D01*
X-6311000Y-18928757D01*
X-6311000Y-19171243D01*
X-6263693Y-19409069D01*
X-6170898Y-19633097D01*
X-6036180Y-19834717D01*
X-5864717Y-20006180D01*
X-5663097Y-20140898D01*
X-5439069Y-20233693D01*
X-5201243Y-20281000D01*
X-4958757Y-20281000D01*
X-4720931Y-20233693D01*
X-4496903Y-20140898D01*
X-4295283Y-20006180D01*
X-4123820Y-19834717D01*
X-3989102Y-19633097D01*
X-3896307Y-19409069D01*
X-3849000Y-19171243D01*
X-3849000Y-18928757D01*
X-3771000Y-18928757D01*
X-3771000Y-19171243D01*
X-3723693Y-19409069D01*
X-3630898Y-19633097D01*
X-3496180Y-19834717D01*
X-3324717Y-20006180D01*
X-3123097Y-20140898D01*
X-2899069Y-20233693D01*
X-2661243Y-20281000D01*
X-2418757Y-20281000D01*
X-2180931Y-20233693D01*
X-1956903Y-20140898D01*
X-1755283Y-20006180D01*
X-1583820Y-19834717D01*
X-1449102Y-19633097D01*
X-1356307Y-19409069D01*
X-1309000Y-19171243D01*
X-1309000Y-18928757D01*
X-1231000Y-18928757D01*
X-1231000Y-19171243D01*
X-1183693Y-19409069D01*
X-1090898Y-19633097D01*
X-956180Y-19834717D01*
X-784717Y-20006180D01*
X-583097Y-20140898D01*
X-359069Y-20233693D01*
X-121243Y-20281000D01*
X121243Y-20281000D01*
X359069Y-20233693D01*
X583097Y-20140898D01*
X784717Y-20006180D01*
X956180Y-19834717D01*
X1090898Y-19633097D01*
X1183693Y-19409069D01*
X1231000Y-19171243D01*
X1231000Y-18928757D01*
X1183693Y-18690931D01*
X1114561Y-18524031D01*
X1257593Y-18380999D01*
X1506501Y-18380999D01*
X1449102Y-18466903D01*
X1356307Y-18690931D01*
X1309000Y-18928757D01*
X1309000Y-19171243D01*
X1356307Y-19409069D01*
X1449102Y-19633097D01*
X1583820Y-19834717D01*
X1755283Y-20006180D01*
X1956903Y-20140898D01*
X2180931Y-20233693D01*
X2418757Y-20281000D01*
X2661243Y-20281000D01*
X2899069Y-20233693D01*
X2976167Y-20201758D01*
X4239651Y-21465243D01*
X4255496Y-21484550D01*
X4332544Y-21547782D01*
X4420448Y-21594768D01*
X4515830Y-21623701D01*
X4615023Y-21633471D01*
X4639877Y-21631023D01*
X27670830Y-21631023D01*
X27695676Y-21633470D01*
X27720522Y-21631023D01*
X27720530Y-21631023D01*
X27794869Y-21623701D01*
X27890251Y-21594768D01*
X27978155Y-21547782D01*
X28055203Y-21484550D01*
X28071052Y-21465238D01*
X28988435Y-20547856D01*
X29130765Y-20547856D01*
X29281652Y-20517843D01*
X29423785Y-20458969D01*
X29551702Y-20373498D01*
X29660485Y-20264715D01*
X29745956Y-20136798D01*
X29804830Y-19994665D01*
X29834843Y-19843778D01*
X29834843Y-19689934D01*
X29804830Y-19539047D01*
X29745956Y-19396914D01*
X29660485Y-19268997D01*
X29645684Y-19254196D01*
X29692932Y-19206948D01*
X29778403Y-19079031D01*
X29837277Y-18936898D01*
X29867290Y-18786011D01*
X29867290Y-18632167D01*
X29837277Y-18481280D01*
X29778403Y-18339147D01*
X29692932Y-18211230D01*
X29584149Y-18102447D01*
X29456232Y-18016976D01*
X29314099Y-17958102D01*
X29163212Y-17928089D01*
X29009368Y-17928089D01*
X28858481Y-17958102D01*
X28784881Y-17988588D01*
X28737142Y-17917141D01*
X28628359Y-17808358D01*
X28500442Y-17722887D01*
X28358309Y-17664013D01*
X28207422Y-17634000D01*
X28053578Y-17634000D01*
X27902691Y-17664013D01*
X27760558Y-17722887D01*
X27632641Y-17808358D01*
X27523858Y-17917141D01*
X27438387Y-18045058D01*
X27379513Y-18187191D01*
X27349500Y-18338078D01*
X27349500Y-18491922D01*
X27379513Y-18642809D01*
X27438387Y-18784942D01*
X27458846Y-18815562D01*
X26555408Y-19719001D01*
X12463499Y-19719001D01*
X12520898Y-19633097D01*
X12613693Y-19409069D01*
X12661000Y-19171243D01*
X12661000Y-18928757D01*
X12613693Y-18690931D01*
X12520898Y-18466903D01*
X12386180Y-18265283D01*
X12214717Y-18093820D01*
X12013097Y-17959102D01*
X11789069Y-17866307D01*
X11551243Y-17819000D01*
X11308757Y-17819000D01*
X11070931Y-17866307D01*
X10846903Y-17959102D01*
X10645283Y-18093820D01*
X10473820Y-18265283D01*
X10339102Y-18466903D01*
X10246307Y-18690931D01*
X10199000Y-18928757D01*
X10199000Y-19171243D01*
X10246307Y-19409069D01*
X10339102Y-19633097D01*
X10396501Y-19719001D01*
X7607593Y-19719001D01*
X6919500Y-19030909D01*
X6919500Y-18669352D01*
X6921948Y-18644498D01*
X6912178Y-18545305D01*
X6883245Y-18449923D01*
X6878660Y-18441346D01*
X6836259Y-18362019D01*
X6773027Y-18284971D01*
X6753720Y-18269126D01*
X6153801Y-17669208D01*
X6200711Y-17630711D01*
X6248322Y-17572696D01*
X6283701Y-17506508D01*
X6305487Y-17434689D01*
X6312843Y-17360000D01*
X6312843Y-15660000D01*
X10197157Y-15660000D01*
X10197157Y-17360000D01*
X10204513Y-17434689D01*
X10226299Y-17506508D01*
X10261678Y-17572696D01*
X10309289Y-17630711D01*
X10367304Y-17678322D01*
X10433492Y-17713701D01*
X10505311Y-17735487D01*
X10580000Y-17742843D01*
X12280000Y-17742843D01*
X12354689Y-17735487D01*
X12426508Y-17713701D01*
X12492696Y-17678322D01*
X12550711Y-17630711D01*
X12598322Y-17572696D01*
X12633701Y-17506508D01*
X12655487Y-17434689D01*
X12662843Y-17360000D01*
X12662843Y-15660000D01*
X12655487Y-15585311D01*
X12633701Y-15513492D01*
X12598322Y-15447304D01*
X12550711Y-15389289D01*
X12492696Y-15341678D01*
X12426508Y-15306299D01*
X12354689Y-15284513D01*
X12280000Y-15277157D01*
X10580000Y-15277157D01*
X10505311Y-15284513D01*
X10433492Y-15306299D01*
X10367304Y-15341678D01*
X10309289Y-15389289D01*
X10261678Y-15447304D01*
X10226299Y-15513492D01*
X10204513Y-15585311D01*
X10197157Y-15660000D01*
X6312843Y-15660000D01*
X6305487Y-15585311D01*
X6283701Y-15513492D01*
X6248322Y-15447304D01*
X6200711Y-15389289D01*
X6142696Y-15341678D01*
X6076508Y-15306299D01*
X6004689Y-15284513D01*
X5930000Y-15277157D01*
X4230000Y-15277157D01*
X4155311Y-15284513D01*
X4083492Y-15306299D01*
X4017304Y-15341678D01*
X3959289Y-15389289D01*
X3911678Y-15447304D01*
X3876299Y-15513492D01*
X3854513Y-15585311D01*
X3847157Y-15660000D01*
X3847157Y-17360000D01*
X3848043Y-17368999D01*
X3414018Y-17368999D01*
X3517647Y-17258052D01*
X3644799Y-17052949D01*
X3729495Y-16826981D01*
X3669187Y-16637000D01*
X2667000Y-16637000D01*
X2667000Y-16657000D01*
X2413000Y-16657000D01*
X2413000Y-16637000D01*
X1410813Y-16637000D01*
X1350505Y-16826981D01*
X1435201Y-17052949D01*
X1562353Y-17258052D01*
X1665982Y-17368999D01*
X1072846Y-17368999D01*
X1048000Y-17366552D01*
X1023154Y-17368999D01*
X1023147Y-17368999D01*
X958695Y-17375347D01*
X948807Y-17376321D01*
X880145Y-17397149D01*
X853426Y-17405254D01*
X826923Y-17419420D01*
X977647Y-17258052D01*
X1104799Y-17052949D01*
X1189495Y-16826981D01*
X1129187Y-16637000D01*
X127000Y-16637000D01*
X127000Y-17638627D01*
X316980Y-17699489D01*
X397288Y-17675134D01*
X616961Y-17575239D01*
X671017Y-17536391D01*
X344082Y-17863326D01*
X121243Y-17819000D01*
X-121243Y-17819000D01*
X-359069Y-17866307D01*
X-583097Y-17959102D01*
X-784717Y-18093820D01*
X-956180Y-18265283D01*
X-1090898Y-18466903D01*
X-1183693Y-18690931D01*
X-1231000Y-18928757D01*
X-1309000Y-18928757D01*
X-1356307Y-18690931D01*
X-1449102Y-18466903D01*
X-1583820Y-18265283D01*
X-1755283Y-18093820D01*
X-1956903Y-17959102D01*
X-2180931Y-17866307D01*
X-2418757Y-17819000D01*
X-2661243Y-17819000D01*
X-2899069Y-17866307D01*
X-3123097Y-17959102D01*
X-3324717Y-18093820D01*
X-3496180Y-18265283D01*
X-3630898Y-18466903D01*
X-3723693Y-18690931D01*
X-3771000Y-18928757D01*
X-3849000Y-18928757D01*
X-3896307Y-18690931D01*
X-3989102Y-18466903D01*
X-4123820Y-18265283D01*
X-4295283Y-18093820D01*
X-4496903Y-17959102D01*
X-4720931Y-17866307D01*
X-4958757Y-17819000D01*
X-5201243Y-17819000D01*
X-5439069Y-17866307D01*
X-5663097Y-17959102D01*
X-5864717Y-18093820D01*
X-6036180Y-18265283D01*
X-6170898Y-18466903D01*
X-6263693Y-18690931D01*
X-6311000Y-18928757D01*
X-32634784Y-18928757D01*
X-33016117Y-18467806D01*
X-33047036Y-18437103D01*
X-33077553Y-18405940D01*
X-33082727Y-18401659D01*
X-33613590Y-17968698D01*
X-33649895Y-17944577D01*
X-33685872Y-17919943D01*
X-33691780Y-17916748D01*
X-34296627Y-17595145D01*
X-34336924Y-17578536D01*
X-34377002Y-17561359D01*
X-34383418Y-17559372D01*
X-35039213Y-17361376D01*
X-35081981Y-17352908D01*
X-35124621Y-17343845D01*
X-35131300Y-17343143D01*
X-35812916Y-17276310D01*
X-35836374Y-17274000D01*
X-39869000Y-17274000D01*
X-39869000Y-15045115D01*
X-27266000Y-15045115D01*
X-27266000Y-15464885D01*
X-27184107Y-15876590D01*
X-27023468Y-16264407D01*
X-26790256Y-16613433D01*
X-26493433Y-16910256D01*
X-26144407Y-17143468D01*
X-25756590Y-17304107D01*
X-25344885Y-17386000D01*
X-24925115Y-17386000D01*
X-24513410Y-17304107D01*
X-24125593Y-17143468D01*
X-23776567Y-16910256D01*
X-23693292Y-16826981D01*
X-6269495Y-16826981D01*
X-6184799Y-17052949D01*
X-6057647Y-17258052D01*
X-5892924Y-17434408D01*
X-5696961Y-17575239D01*
X-5477288Y-17675134D01*
X-5396980Y-17699489D01*
X-5207000Y-17638627D01*
X-5207000Y-16637000D01*
X-4953000Y-16637000D01*
X-4953000Y-17638627D01*
X-4763020Y-17699489D01*
X-4682712Y-17675134D01*
X-4463039Y-17575239D01*
X-4267076Y-17434408D01*
X-4102353Y-17258052D01*
X-3975201Y-17052949D01*
X-3890505Y-16826981D01*
X-3950813Y-16637000D01*
X-4953000Y-16637000D01*
X-5207000Y-16637000D01*
X-6209187Y-16637000D01*
X-6269495Y-16826981D01*
X-23693292Y-16826981D01*
X-23479744Y-16613433D01*
X-23329621Y-16388757D01*
X-3771000Y-16388757D01*
X-3771000Y-16631243D01*
X-3723693Y-16869069D01*
X-3630898Y-17093097D01*
X-3496180Y-17294717D01*
X-3324717Y-17466180D01*
X-3123097Y-17600898D01*
X-2899069Y-17693693D01*
X-2661243Y-17741000D01*
X-2418757Y-17741000D01*
X-2180931Y-17693693D01*
X-1956903Y-17600898D01*
X-1755283Y-17466180D01*
X-1583820Y-17294717D01*
X-1449102Y-17093097D01*
X-1356307Y-16869069D01*
X-1347936Y-16826981D01*
X-1189495Y-16826981D01*
X-1104799Y-17052949D01*
X-977647Y-17258052D01*
X-812924Y-17434408D01*
X-616961Y-17575239D01*
X-397288Y-17675134D01*
X-316980Y-17699489D01*
X-127000Y-17638627D01*
X-127000Y-16637000D01*
X-1129187Y-16637000D01*
X-1189495Y-16826981D01*
X-1347936Y-16826981D01*
X-1309000Y-16631243D01*
X-1309000Y-16388757D01*
X-1347935Y-16193019D01*
X-1189495Y-16193019D01*
X-1129187Y-16383000D01*
X-127000Y-16383000D01*
X-127000Y-15381373D01*
X127000Y-15381373D01*
X127000Y-16383000D01*
X1129187Y-16383000D01*
X1189495Y-16193019D01*
X1350505Y-16193019D01*
X1410813Y-16383000D01*
X2413000Y-16383000D01*
X2413000Y-15381373D01*
X2667000Y-15381373D01*
X2667000Y-16383000D01*
X3669187Y-16383000D01*
X3729495Y-16193019D01*
X3644799Y-15967051D01*
X3517647Y-15761948D01*
X3352924Y-15585592D01*
X3156961Y-15444761D01*
X2937288Y-15344866D01*
X2856980Y-15320511D01*
X2667000Y-15381373D01*
X2413000Y-15381373D01*
X2223020Y-15320511D01*
X2142712Y-15344866D01*
X1923039Y-15444761D01*
X1727076Y-15585592D01*
X1562353Y-15761948D01*
X1435201Y-15967051D01*
X1350505Y-16193019D01*
X1189495Y-16193019D01*
X1104799Y-15967051D01*
X977647Y-15761948D01*
X812924Y-15585592D01*
X616961Y-15444761D01*
X397288Y-15344866D01*
X316980Y-15320511D01*
X127000Y-15381373D01*
X-127000Y-15381373D01*
X-316980Y-15320511D01*
X-397288Y-15344866D01*
X-616961Y-15444761D01*
X-812924Y-15585592D01*
X-977647Y-15761948D01*
X-1104799Y-15967051D01*
X-1189495Y-16193019D01*
X-1347935Y-16193019D01*
X-1356307Y-16150931D01*
X-1449102Y-15926903D01*
X-1583820Y-15725283D01*
X-1755283Y-15553820D01*
X-1956903Y-15419102D01*
X-2180931Y-15326307D01*
X-2418757Y-15279000D01*
X-2661243Y-15279000D01*
X-2899069Y-15326307D01*
X-3123097Y-15419102D01*
X-3324717Y-15553820D01*
X-3496180Y-15725283D01*
X-3630898Y-15926903D01*
X-3723693Y-16150931D01*
X-3771000Y-16388757D01*
X-23329621Y-16388757D01*
X-23246532Y-16264407D01*
X-23216963Y-16193019D01*
X-6269495Y-16193019D01*
X-6209187Y-16383000D01*
X-5207000Y-16383000D01*
X-5207000Y-15381373D01*
X-4953000Y-15381373D01*
X-4953000Y-16383000D01*
X-3950813Y-16383000D01*
X-3890505Y-16193019D01*
X-3975201Y-15967051D01*
X-4102353Y-15761948D01*
X-4267076Y-15585592D01*
X-4463039Y-15444761D01*
X-4682712Y-15344866D01*
X-4763020Y-15320511D01*
X-4953000Y-15381373D01*
X-5207000Y-15381373D01*
X-5396980Y-15320511D01*
X-5477288Y-15344866D01*
X-5696961Y-15444761D01*
X-5892924Y-15585592D01*
X-6057647Y-15761948D01*
X-6184799Y-15967051D01*
X-6269495Y-16193019D01*
X-23216963Y-16193019D01*
X-23085893Y-15876590D01*
X-23004000Y-15464885D01*
X-23004000Y-15045115D01*
X23004000Y-15045115D01*
X23004000Y-15464885D01*
X23085893Y-15876590D01*
X23246532Y-16264407D01*
X23479744Y-16613433D01*
X23776567Y-16910256D01*
X24125593Y-17143468D01*
X24513410Y-17304107D01*
X24925115Y-17386000D01*
X25344885Y-17386000D01*
X25756590Y-17304107D01*
X26144407Y-17143468D01*
X26493433Y-16910256D01*
X26790256Y-16613433D01*
X27023468Y-16264407D01*
X27184107Y-15876590D01*
X27266000Y-15464885D01*
X27266000Y-15045115D01*
X27184107Y-14633410D01*
X27023468Y-14245593D01*
X26790256Y-13896567D01*
X26493433Y-13599744D01*
X26144407Y-13366532D01*
X25756590Y-13205893D01*
X25344885Y-13124000D01*
X24925115Y-13124000D01*
X24513410Y-13205893D01*
X24125593Y-13366532D01*
X23776567Y-13599744D01*
X23479744Y-13896567D01*
X23246532Y-14245593D01*
X23085893Y-14633410D01*
X23004000Y-15045115D01*
X-23004000Y-15045115D01*
X-23085893Y-14633410D01*
X-23246532Y-14245593D01*
X-23479744Y-13896567D01*
X-23776567Y-13599744D01*
X-24125593Y-13366532D01*
X-24513410Y-13205893D01*
X-24925115Y-13124000D01*
X-25344885Y-13124000D01*
X-25756590Y-13205893D01*
X-26144407Y-13366532D01*
X-26493433Y-13599744D01*
X-26790256Y-13896567D01*
X-27023468Y-14245593D01*
X-27184107Y-14633410D01*
X-27266000Y-15045115D01*
X-39869000Y-15045115D01*
X-39869000Y-5830115D01*
X-34781000Y-5830115D01*
X-34781000Y-6249885D01*
X-34699107Y-6661590D01*
X-34538468Y-7049407D01*
X-34305256Y-7398433D01*
X-34008433Y-7695256D01*
X-33659407Y-7928468D01*
X-33271590Y-8089107D01*
X-32859885Y-8171000D01*
X-32440115Y-8171000D01*
X-32028410Y-8089107D01*
X-31640593Y-7928468D01*
X-31291567Y-7695256D01*
X-30994744Y-7398433D01*
X-30761532Y-7049407D01*
X-30600893Y-6661590D01*
X-30519000Y-6249885D01*
X-30519000Y-5830115D01*
X-30600893Y-5418410D01*
X-30761532Y-5030593D01*
X-30994744Y-4681567D01*
X-31291567Y-4384744D01*
X-31640593Y-4151532D01*
X-32028410Y-3990893D01*
X-32440115Y-3909000D01*
X-32859885Y-3909000D01*
X-33271590Y-3990893D01*
X-33659407Y-4151532D01*
X-34008433Y-4384744D01*
X-34305256Y-4681567D01*
X-34538468Y-5030593D01*
X-34699107Y-5418410D01*
X-34781000Y-5830115D01*
X-39869000Y-5830115D01*
X-39869000Y8712928D01*
X-37611000Y8712928D01*
X-37611000Y8559084D01*
X-37580987Y8408197D01*
X-37522113Y8266064D01*
X-37460999Y8174600D01*
X-37461000Y-1366010D01*
X-37464052Y-1397000D01*
X-37461000Y-1427990D01*
X-37461000Y-1427997D01*
X-37451870Y-1520697D01*
X-37415789Y-1639641D01*
X-37357196Y-1749260D01*
X-37278343Y-1845343D01*
X-37254263Y-1865105D01*
X-35901101Y-3218268D01*
X-35881343Y-3242343D01*
X-35857268Y-3262101D01*
X-35857266Y-3262103D01*
X-35829996Y-3284483D01*
X-35785261Y-3321196D01*
X-35675642Y-3379789D01*
X-35556698Y-3415870D01*
X-35463998Y-3425000D01*
X-35463989Y-3425000D01*
X-35433001Y-3428052D01*
X-35402013Y-3425000D01*
X-29494990Y-3425000D01*
X-29464000Y-3428052D01*
X-29433010Y-3425000D01*
X-29433002Y-3425000D01*
X-29340302Y-3415870D01*
X-29221358Y-3379789D01*
X-29111739Y-3321196D01*
X-29015657Y-3242343D01*
X-28995895Y-3218263D01*
X-28280475Y-2502843D01*
X-27090000Y-2502843D01*
X-27015311Y-2495487D01*
X-26943492Y-2473701D01*
X-26877304Y-2438322D01*
X-26819289Y-2390711D01*
X-26771678Y-2332696D01*
X-26754001Y-2299625D01*
X-26754001Y-4961009D01*
X-26757053Y-4991999D01*
X-26754001Y-5022989D01*
X-26754001Y-5022996D01*
X-26744871Y-5115696D01*
X-26708790Y-5234640D01*
X-26650197Y-5344259D01*
X-26571344Y-5440342D01*
X-26547264Y-5460104D01*
X-22693101Y-9314268D01*
X-22673343Y-9338343D01*
X-22577261Y-9417196D01*
X-22467642Y-9475789D01*
X-22348698Y-9511870D01*
X-22255998Y-9521000D01*
X-22255991Y-9521000D01*
X-22225000Y-9524052D01*
X-22194010Y-9521000D01*
X-4960368Y-9521000D01*
X-4794426Y-9686942D01*
X-4852191Y-9663015D01*
X-5003078Y-9633002D01*
X-5156922Y-9633002D01*
X-5307809Y-9663015D01*
X-5449942Y-9721889D01*
X-5577859Y-9807360D01*
X-5686642Y-9916143D01*
X-5772113Y-10044060D01*
X-5830987Y-10186193D01*
X-5861000Y-10337080D01*
X-5861000Y-10490924D01*
X-5830987Y-10641811D01*
X-5772113Y-10783944D01*
X-5686642Y-10911861D01*
X-5577859Y-11020644D01*
X-5449942Y-11106115D01*
X-5307809Y-11164989D01*
X-5156922Y-11195002D01*
X-5014591Y-11195002D01*
X-4547375Y-11662219D01*
X-4531530Y-11681526D01*
X-4454482Y-11744758D01*
X-4366578Y-11791744D01*
X-4271196Y-11820677D01*
X-4172003Y-11830447D01*
X-4147149Y-11827999D01*
X22308155Y-11827999D01*
X22333001Y-11830446D01*
X22357847Y-11827999D01*
X22357855Y-11827999D01*
X22432194Y-11820677D01*
X22527576Y-11791744D01*
X22615480Y-11744758D01*
X22666362Y-11703000D01*
X22809922Y-11703000D01*
X22960809Y-11672987D01*
X23102942Y-11614113D01*
X23230859Y-11528642D01*
X23339642Y-11419859D01*
X23425113Y-11291942D01*
X23483987Y-11149809D01*
X23514000Y-10998922D01*
X23514000Y-10845078D01*
X23483987Y-10694191D01*
X23425113Y-10552058D01*
X23339642Y-10424141D01*
X23230859Y-10315358D01*
X23102942Y-10229887D01*
X22960809Y-10171013D01*
X22809922Y-10141000D01*
X22656078Y-10141000D01*
X22505191Y-10171013D01*
X22363058Y-10229887D01*
X22235141Y-10315358D01*
X22126358Y-10424141D01*
X22040887Y-10552058D01*
X21982013Y-10694191D01*
X21957784Y-10815999D01*
X15095369Y-10815999D01*
X15105922Y-10805447D01*
X15213809Y-10783987D01*
X15355942Y-10725113D01*
X15483859Y-10639642D01*
X15592642Y-10530859D01*
X15678113Y-10402942D01*
X15736987Y-10260809D01*
X15767000Y-10109922D01*
X15767000Y-9956078D01*
X15736987Y-9805191D01*
X15678113Y-9663058D01*
X15592642Y-9535141D01*
X15483859Y-9426358D01*
X15355942Y-9340887D01*
X15213809Y-9282013D01*
X15062922Y-9252000D01*
X14909078Y-9252000D01*
X14758191Y-9282013D01*
X14616058Y-9340887D01*
X14488141Y-9426358D01*
X14379358Y-9535141D01*
X14293887Y-9663058D01*
X14235013Y-9805191D01*
X14213553Y-9913078D01*
X14128631Y-9998001D01*
X-2698630Y-9998001D01*
X-4230895Y-8465737D01*
X-4250657Y-8441657D01*
X-4346739Y-8362804D01*
X-4456358Y-8304211D01*
X-4575302Y-8268130D01*
X-4668002Y-8259000D01*
X-4668010Y-8259000D01*
X-4699000Y-8255948D01*
X-4729990Y-8259000D01*
X-21963631Y-8259000D01*
X-25492001Y-4730631D01*
X-25492001Y3378922D01*
X-24911000Y3378922D01*
X-24911000Y3225078D01*
X-24880987Y3074191D01*
X-24822113Y2932058D01*
X-24736642Y2804141D01*
X-24636000Y2703499D01*
X-24635999Y-610137D01*
X-24636000Y-610147D01*
X-24635999Y-2134144D01*
X-24638447Y-2159000D01*
X-24632927Y-2215052D01*
X-24657000Y-2336078D01*
X-24657000Y-2489922D01*
X-24626987Y-2640809D01*
X-24568113Y-2782942D01*
X-24482642Y-2910859D01*
X-24373859Y-3019642D01*
X-24245942Y-3105113D01*
X-24103809Y-3163987D01*
X-23952922Y-3194000D01*
X-23799078Y-3194000D01*
X-23648191Y-3163987D01*
X-23506058Y-3105113D01*
X-23378141Y-3019642D01*
X-23269358Y-2910859D01*
X-23183887Y-2782942D01*
X-23125013Y-2640809D01*
X-23095000Y-2489922D01*
X-23095000Y-2336078D01*
X-23125013Y-2185191D01*
X-23183887Y-2043058D01*
X-23269358Y-1915141D01*
X-23378141Y-1806358D01*
X-23506058Y-1720887D01*
X-23624000Y-1672033D01*
X-23624000Y2703499D01*
X-23523358Y2804141D01*
X-23437887Y2932058D01*
X-23379013Y3074191D01*
X-23349000Y3225078D01*
X-23349000Y3315422D01*
X-12274500Y3315422D01*
X-12274500Y3161578D01*
X-12244487Y3010691D01*
X-12185613Y2868558D01*
X-12124500Y2777095D01*
X-12124499Y-794500D01*
X-12127552Y-825500D01*
X-12115370Y-949197D01*
X-12079289Y-1068141D01*
X-12020696Y-1177760D01*
X-11961603Y-1249765D01*
X-11961600Y-1249768D01*
X-11941842Y-1273843D01*
X-11917767Y-1293601D01*
X-9993105Y-3218263D01*
X-9973343Y-3242343D01*
X-9877261Y-3321196D01*
X-9767642Y-3379789D01*
X-9735518Y-3389534D01*
X-9746564Y-3416201D01*
X-9776577Y-3567088D01*
X-9776577Y-3720932D01*
X-9746564Y-3871819D01*
X-9715358Y-3947157D01*
X-9730000Y-3947157D01*
X-9804689Y-3954513D01*
X-9876508Y-3976299D01*
X-9942696Y-4011678D01*
X-10000711Y-4059289D01*
X-10048322Y-4117304D01*
X-10083701Y-4183492D01*
X-10105487Y-4255311D01*
X-10112843Y-4330000D01*
X-10112843Y-5830000D01*
X-10105487Y-5904689D01*
X-10083701Y-5976508D01*
X-10048322Y-6042696D01*
X-10000711Y-6100711D01*
X-9942696Y-6148322D01*
X-9876508Y-6183701D01*
X-9804689Y-6205487D01*
X-9730000Y-6212843D01*
X-8230000Y-6212843D01*
X-8155311Y-6205487D01*
X-8083492Y-6183701D01*
X-8017304Y-6148322D01*
X-7959289Y-6100711D01*
X-7911678Y-6042696D01*
X-7876299Y-5976508D01*
X-7854513Y-5904689D01*
X-7847157Y-5830000D01*
X-2312843Y-5830000D01*
X-2305487Y-5904689D01*
X-2283701Y-5976508D01*
X-2248322Y-6042696D01*
X-2200711Y-6100711D01*
X-2142696Y-6148322D01*
X-2076508Y-6183701D01*
X-2004689Y-6205487D01*
X-1930000Y-6212843D01*
X-1402250Y-6211000D01*
X-1307000Y-6115750D01*
X-1307000Y-5207000D01*
X-1053000Y-5207000D01*
X-1053000Y-6115750D01*
X-957750Y-6211000D01*
X-430000Y-6212843D01*
X-355311Y-6205487D01*
X-283492Y-6183701D01*
X-217304Y-6148322D01*
X-159289Y-6100711D01*
X-111678Y-6042696D01*
X-76299Y-5976508D01*
X-54513Y-5904689D01*
X-47157Y-5830000D01*
X-49000Y-5302250D01*
X-144250Y-5207000D01*
X-1053000Y-5207000D01*
X-1307000Y-5207000D01*
X-2215750Y-5207000D01*
X-2311000Y-5302250D01*
X-2312843Y-5830000D01*
X-7847157Y-5830000D01*
X-7847157Y-4330000D01*
X-2312843Y-4330000D01*
X-2311000Y-4857750D01*
X-2215750Y-4953000D01*
X-1307000Y-4953000D01*
X-1307000Y-4044250D01*
X-1053000Y-4044250D01*
X-1053000Y-4953000D01*
X-144250Y-4953000D01*
X-49000Y-4857750D01*
X-47157Y-4330000D01*
X-54513Y-4255311D01*
X-76299Y-4183492D01*
X-111678Y-4117304D01*
X-159289Y-4059289D01*
X-217304Y-4011678D01*
X-283492Y-3976299D01*
X-355311Y-3954513D01*
X-430000Y-3947157D01*
X-957750Y-3949000D01*
X-1053000Y-4044250D01*
X-1307000Y-4044250D01*
X-1402250Y-3949000D01*
X-1930000Y-3947157D01*
X-2004689Y-3954513D01*
X-2076508Y-3976299D01*
X-2142696Y-4011678D01*
X-2200711Y-4059289D01*
X-2248322Y-4117304D01*
X-2283701Y-4183492D01*
X-2305487Y-4255311D01*
X-2312843Y-4330000D01*
X-7847157Y-4330000D01*
X-7854513Y-4255311D01*
X-7876299Y-4183492D01*
X-7911678Y-4117304D01*
X-7959289Y-4059289D01*
X-8017304Y-4011678D01*
X-8083492Y-3976299D01*
X-8155311Y-3954513D01*
X-8230000Y-3947157D01*
X-8275796Y-3947157D01*
X-8244590Y-3871819D01*
X-8214577Y-3720932D01*
X-8214577Y-3567088D01*
X-8242840Y-3425000D01*
X-4537501Y-3425000D01*
X-4434859Y-3527642D01*
X-4306942Y-3613113D01*
X-4164809Y-3671987D01*
X-4013922Y-3702000D01*
X-3860078Y-3702000D01*
X-3709191Y-3671987D01*
X-3567058Y-3613113D01*
X-3475595Y-3552000D01*
X2532632Y-3552000D01*
X2960899Y-3980268D01*
X2980657Y-4004343D01*
X3004732Y-4024101D01*
X3004734Y-4024103D01*
X3076739Y-4083196D01*
X3186358Y-4141789D01*
X3292792Y-4174075D01*
X3282512Y-4182512D01*
X3203810Y-4278411D01*
X3145329Y-4387821D01*
X3109317Y-4506538D01*
X3097157Y-4629999D01*
X3097157Y-5322252D01*
X2834780Y-5584629D01*
X2815474Y-5600473D01*
X2752242Y-5677521D01*
X2739228Y-5701869D01*
X2705255Y-5765426D01*
X2676322Y-5860808D01*
X2666553Y-5960000D01*
X2669001Y-5984856D01*
X2669001Y-6132498D01*
X2568358Y-6233141D01*
X2482887Y-6361058D01*
X2424013Y-6503191D01*
X2394000Y-6654078D01*
X2394000Y-6807922D01*
X2424013Y-6958809D01*
X2435690Y-6987000D01*
X217501Y-6987000D01*
X116859Y-6886358D01*
X-11058Y-6800887D01*
X-153191Y-6742013D01*
X-304078Y-6712000D01*
X-457922Y-6712000D01*
X-608809Y-6742013D01*
X-750942Y-6800887D01*
X-878859Y-6886358D01*
X-987642Y-6995141D01*
X-1073113Y-7123058D01*
X-1131987Y-7265191D01*
X-1162000Y-7416078D01*
X-1162000Y-7569922D01*
X-1131987Y-7720809D01*
X-1073113Y-7862942D01*
X-987642Y-7990859D01*
X-878859Y-8099642D01*
X-750942Y-8185113D01*
X-608809Y-8243987D01*
X-457922Y-8274000D01*
X-304078Y-8274000D01*
X-153191Y-8243987D01*
X-11058Y-8185113D01*
X116859Y-8099642D01*
X217501Y-7999000D01*
X21438154Y-7999000D01*
X21463000Y-8001447D01*
X21487846Y-7999000D01*
X21487854Y-7999000D01*
X21562193Y-7991678D01*
X21657575Y-7962745D01*
X21745479Y-7915759D01*
X21822527Y-7852527D01*
X21838376Y-7833215D01*
X22540592Y-7131000D01*
X22682922Y-7131000D01*
X22833809Y-7100987D01*
X22975942Y-7042113D01*
X23103859Y-6956642D01*
X23212642Y-6847859D01*
X23298113Y-6719942D01*
X23356987Y-6577809D01*
X23387000Y-6426922D01*
X23387000Y-6273078D01*
X23356987Y-6122191D01*
X23298113Y-5980058D01*
X23212642Y-5852141D01*
X23103859Y-5743358D01*
X22975942Y-5657887D01*
X22833809Y-5599013D01*
X22682922Y-5569000D01*
X22529078Y-5569000D01*
X22378191Y-5599013D01*
X22236058Y-5657887D01*
X22108141Y-5743358D01*
X21999358Y-5852141D01*
X21913887Y-5980058D01*
X21855013Y-6122191D01*
X21825000Y-6273078D01*
X21825000Y-6415408D01*
X21253409Y-6987000D01*
X3914310Y-6987000D01*
X3925987Y-6958809D01*
X3956000Y-6807922D01*
X3956000Y-6654078D01*
X3925987Y-6503191D01*
X3867113Y-6361058D01*
X3781642Y-6233141D01*
X3709306Y-6160805D01*
X3729999Y-6162843D01*
X4380001Y-6162843D01*
X4503462Y-6150683D01*
X4622179Y-6114671D01*
X4731589Y-6056190D01*
X4827488Y-5977488D01*
X4906190Y-5881589D01*
X4964671Y-5772179D01*
X5000683Y-5653462D01*
X5012843Y-5530001D01*
X5012843Y-4825532D01*
X5060804Y-4915260D01*
X5119897Y-4987265D01*
X5119900Y-4987268D01*
X5139658Y-5011343D01*
X5147157Y-5017497D01*
X5147157Y-5530001D01*
X5159317Y-5653462D01*
X5195329Y-5772179D01*
X5253810Y-5881589D01*
X5332512Y-5977488D01*
X5428411Y-6056190D01*
X5537821Y-6114671D01*
X5656538Y-6150683D01*
X5779999Y-6162843D01*
X6430001Y-6162843D01*
X6553462Y-6150683D01*
X6672179Y-6114671D01*
X6781589Y-6056190D01*
X6877488Y-5977488D01*
X6956190Y-5881589D01*
X7014671Y-5772179D01*
X7050683Y-5653462D01*
X7062843Y-5530001D01*
X7062843Y-4629999D01*
X7050683Y-4506538D01*
X7014671Y-4387821D01*
X6956190Y-4278411D01*
X6877488Y-4182512D01*
X6781589Y-4103810D01*
X6672179Y-4045329D01*
X6553462Y-4009317D01*
X6430001Y-3997157D01*
X6232529Y-3997157D01*
X6280113Y-3925942D01*
X6338987Y-3783809D01*
X6369000Y-3632922D01*
X6369000Y-3479078D01*
X6338987Y-3328191D01*
X6280113Y-3186058D01*
X6194642Y-3058141D01*
X6085859Y-2949358D01*
X5957942Y-2863887D01*
X5815809Y-2805013D01*
X5664922Y-2775000D01*
X5511078Y-2775000D01*
X5360191Y-2805013D01*
X5218058Y-2863887D01*
X5126595Y-2925000D01*
X3690369Y-2925000D01*
X3262103Y-2496735D01*
X3242343Y-2472657D01*
X3146261Y-2393804D01*
X3036642Y-2335211D01*
X2917698Y-2299130D01*
X2824998Y-2290000D01*
X2824990Y-2290000D01*
X2794000Y-2286948D01*
X2763010Y-2290000D01*
X-3475595Y-2290000D01*
X-3567058Y-2228887D01*
X-3709191Y-2170013D01*
X-3860078Y-2140000D01*
X-4013922Y-2140000D01*
X-4129552Y-2163000D01*
X-9263632Y-2163000D01*
X-10862500Y-564132D01*
X-10862500Y2777095D01*
X-10801387Y2868558D01*
X-10742513Y3010691D01*
X-10712500Y3161578D01*
X-10712500Y3315422D01*
X-10742513Y3466309D01*
X-10801387Y3608442D01*
X-10886858Y3736359D01*
X-10995641Y3845142D01*
X-11123558Y3930613D01*
X-11265691Y3989487D01*
X-11416578Y4019500D01*
X-11570422Y4019500D01*
X-11721309Y3989487D01*
X-11863442Y3930613D01*
X-11991359Y3845142D01*
X-12100142Y3736359D01*
X-12185613Y3608442D01*
X-12244487Y3466309D01*
X-12274500Y3315422D01*
X-23349000Y3315422D01*
X-23349000Y3378922D01*
X-23379013Y3529809D01*
X-23437887Y3671942D01*
X-23523358Y3799859D01*
X-23632141Y3908642D01*
X-23760058Y3994113D01*
X-23902191Y4052987D01*
X-24053078Y4083000D01*
X-24206922Y4083000D01*
X-24357809Y4052987D01*
X-24499942Y3994113D01*
X-24627859Y3908642D01*
X-24736642Y3799859D01*
X-24822113Y3671942D01*
X-24880987Y3529809D01*
X-24911000Y3378922D01*
X-25492001Y3378922D01*
X-25492001Y5830000D01*
X-10112843Y5830000D01*
X-10112843Y4330000D01*
X-10105487Y4255311D01*
X-10083701Y4183492D01*
X-10048322Y4117304D01*
X-10000711Y4059289D01*
X-9942696Y4011678D01*
X-9876508Y3976299D01*
X-9804689Y3954513D01*
X-9730000Y3947157D01*
X-9486000Y3947157D01*
X-9486000Y3289847D01*
X-9488447Y3265000D01*
X-9486000Y3240154D01*
X-9486000Y3240147D01*
X-9478678Y3165808D01*
X-9449745Y3070426D01*
X-9402759Y2982521D01*
X-9339527Y2905473D01*
X-9320215Y2889624D01*
X-8884372Y2453780D01*
X-8868527Y2434473D01*
X-8791479Y2371241D01*
X-8703575Y2324255D01*
X-8608193Y2295322D01*
X-8509000Y2285552D01*
X-8484146Y2288000D01*
X-6059501Y2288000D01*
X-5958859Y2187358D01*
X-5830942Y2101887D01*
X-5688809Y2043013D01*
X-5537922Y2013000D01*
X-5384078Y2013000D01*
X-5233191Y2043013D01*
X-5091058Y2101887D01*
X-4963141Y2187358D01*
X-4854358Y2296141D01*
X-4768887Y2424058D01*
X-4710013Y2566191D01*
X-4680000Y2717078D01*
X-4680000Y2870922D01*
X-4710013Y3021809D01*
X-4768887Y3163942D01*
X-4854358Y3291859D01*
X-4963141Y3400642D01*
X-5091058Y3486113D01*
X-5233191Y3544987D01*
X-5384078Y3575000D01*
X-5537922Y3575000D01*
X-5688809Y3544987D01*
X-5830942Y3486113D01*
X-5958859Y3400642D01*
X-6059501Y3300000D01*
X-8299408Y3300000D01*
X-8474000Y3474591D01*
X-8474000Y3947157D01*
X-8230000Y3947157D01*
X-8155311Y3954513D01*
X-8083492Y3976299D01*
X-8017304Y4011678D01*
X-7959289Y4059289D01*
X-7911678Y4117304D01*
X-7876299Y4183492D01*
X-7854513Y4255311D01*
X-7847157Y4330000D01*
X-7847157Y5830000D01*
X-7854513Y5904689D01*
X-7876299Y5976508D01*
X-7911678Y6042696D01*
X-7959289Y6100711D01*
X-8017304Y6148322D01*
X-8083492Y6183701D01*
X-8155311Y6205487D01*
X-8230000Y6212843D01*
X-9730000Y6212843D01*
X-9804689Y6205487D01*
X-9876508Y6183701D01*
X-9942696Y6148322D01*
X-10000711Y6100711D01*
X-10048322Y6042696D01*
X-10083701Y5976508D01*
X-10105487Y5904689D01*
X-10112843Y5830000D01*
X-25492001Y5830000D01*
X-25492001Y6704661D01*
X-25410141Y6759358D01*
X-25301358Y6868141D01*
X-25215887Y6996058D01*
X-25157013Y7138191D01*
X-25127000Y7289078D01*
X-25127000Y7442922D01*
X-25157013Y7593809D01*
X-25215887Y7735942D01*
X-25301358Y7863859D01*
X-25410141Y7972642D01*
X-25538058Y8058113D01*
X-25680191Y8116987D01*
X-25831078Y8147000D01*
X-25984922Y8147000D01*
X-26135809Y8116987D01*
X-26277942Y8058113D01*
X-26405859Y7972642D01*
X-26514642Y7863859D01*
X-26600113Y7735942D01*
X-26658987Y7593809D01*
X-26689000Y7442922D01*
X-26689000Y7430664D01*
X-26708790Y7393640D01*
X-26744871Y7274696D01*
X-26757053Y7150999D01*
X-26754000Y7119999D01*
X-26754000Y1577473D01*
X-26756307Y1589069D01*
X-26849102Y1813097D01*
X-26983820Y2014717D01*
X-27155283Y2186180D01*
X-27356903Y2320898D01*
X-27580931Y2413693D01*
X-27818757Y2461000D01*
X-28061243Y2461000D01*
X-28299069Y2413693D01*
X-28523097Y2320898D01*
X-28724717Y2186180D01*
X-28896180Y2014717D01*
X-28940000Y1949136D01*
X-28983820Y2014717D01*
X-29155283Y2186180D01*
X-29356903Y2320898D01*
X-29580931Y2413693D01*
X-29818757Y2461000D01*
X-30061243Y2461000D01*
X-30299069Y2413693D01*
X-30523097Y2320898D01*
X-30724717Y2186180D01*
X-30896180Y2014717D01*
X-31030898Y1813097D01*
X-31123693Y1589069D01*
X-31171000Y1351243D01*
X-31171000Y1108757D01*
X-31123693Y870931D01*
X-31030898Y646903D01*
X-30896180Y445283D01*
X-30724717Y273820D01*
X-30523097Y139102D01*
X-30299069Y46307D01*
X-30061243Y-1000D01*
X-29818757Y-1000D01*
X-29580931Y46307D01*
X-29356903Y139102D01*
X-29155283Y273820D01*
X-28983820Y445283D01*
X-28940000Y510864D01*
X-28896180Y445283D01*
X-28724717Y273820D01*
X-28523097Y139102D01*
X-28299069Y46307D01*
X-28061243Y-1000D01*
X-27818757Y-1000D01*
X-27580931Y46307D01*
X-27356903Y139102D01*
X-27155283Y273820D01*
X-26983820Y445283D01*
X-26849102Y646903D01*
X-26756307Y870931D01*
X-26754001Y882526D01*
X-26754001Y-240375D01*
X-26771678Y-207304D01*
X-26819289Y-149289D01*
X-26877304Y-101678D01*
X-26943492Y-66299D01*
X-27015311Y-44513D01*
X-27090000Y-37157D01*
X-28790000Y-37157D01*
X-28864689Y-44513D01*
X-28936508Y-66299D01*
X-29002696Y-101678D01*
X-29060711Y-149289D01*
X-29108322Y-207304D01*
X-29143701Y-273492D01*
X-29154024Y-307524D01*
X-29155578Y-305970D01*
X-29227506Y-377898D01*
X-29319523Y-199922D01*
X-29540207Y-99434D01*
X-29776255Y-43931D01*
X-30018596Y-35544D01*
X-30257917Y-74598D01*
X-30485020Y-159589D01*
X-30560477Y-199922D01*
X-30652495Y-377900D01*
X-29940000Y-1090395D01*
X-29925858Y-1076253D01*
X-29746253Y-1255858D01*
X-29760395Y-1270000D01*
X-29746253Y-1284143D01*
X-29925858Y-1463748D01*
X-29940000Y-1449605D01*
X-30652495Y-2162100D01*
X-30652030Y-2163000D01*
X-35171631Y-2163000D01*
X-35986035Y-1348596D01*
X-31174456Y-1348596D01*
X-31135402Y-1587917D01*
X-31050411Y-1815020D01*
X-31010078Y-1890477D01*
X-30832100Y-1982495D01*
X-30119605Y-1270000D01*
X-30832100Y-557505D01*
X-31010078Y-649523D01*
X-31110566Y-870207D01*
X-31166069Y-1106255D01*
X-31174456Y-1348596D01*
X-35986035Y-1348596D01*
X-36199000Y-1135632D01*
X-36199000Y6209885D01*
X-34781000Y6209885D01*
X-34781000Y5790115D01*
X-34699107Y5378410D01*
X-34538468Y4990593D01*
X-34305256Y4641567D01*
X-34008433Y4344744D01*
X-33659407Y4111532D01*
X-33271590Y3950893D01*
X-32859885Y3869000D01*
X-32440115Y3869000D01*
X-32028410Y3950893D01*
X-31640593Y4111532D01*
X-31291567Y4344744D01*
X-30994744Y4641567D01*
X-30761532Y4990593D01*
X-30600893Y5378410D01*
X-30519000Y5790115D01*
X-30519000Y6209885D01*
X-30600893Y6621590D01*
X-30761532Y7009407D01*
X-30994744Y7358433D01*
X-31291567Y7655256D01*
X-31640593Y7888468D01*
X-32028410Y8049107D01*
X-32440115Y8131000D01*
X-32859885Y8131000D01*
X-33271590Y8049107D01*
X-33659407Y7888468D01*
X-34008433Y7655256D01*
X-34305256Y7358433D01*
X-34538468Y7009407D01*
X-34699107Y6621590D01*
X-34781000Y6209885D01*
X-36199000Y6209885D01*
X-36199000Y8174601D01*
X-36137887Y8266064D01*
X-36079013Y8408197D01*
X-36049000Y8559084D01*
X-36049000Y8712928D01*
X-36079013Y8863815D01*
X-36137887Y9005948D01*
X-36223358Y9133865D01*
X-36332141Y9242648D01*
X-36460058Y9328119D01*
X-36602191Y9386993D01*
X-36753078Y9417006D01*
X-36906922Y9417006D01*
X-37057809Y9386993D01*
X-37199942Y9328119D01*
X-37327859Y9242648D01*
X-37436642Y9133865D01*
X-37522113Y9005948D01*
X-37580987Y8863815D01*
X-37611000Y8712928D01*
X-39869000Y8712928D01*
X-39869000Y12141922D01*
X-10814000Y12141922D01*
X-10814000Y11988078D01*
X-10783987Y11837191D01*
X-10725113Y11695058D01*
X-10639642Y11567141D01*
X-10530859Y11458358D01*
X-10402942Y11372887D01*
X-10260809Y11314013D01*
X-10109922Y11284000D01*
X-9956078Y11284000D01*
X-9805191Y11314013D01*
X-9663058Y11372887D01*
X-9535141Y11458358D01*
X-9426358Y11567141D01*
X-9340887Y11695058D01*
X-9282013Y11837191D01*
X-9252000Y11988078D01*
X-9252000Y12027559D01*
X-5897072Y12027559D01*
X-5925333Y11885480D01*
X-5925333Y11731636D01*
X-5895320Y11580749D01*
X-5836446Y11438616D01*
X-5750975Y11310699D01*
X-5642192Y11201916D01*
X-5641923Y11201737D01*
X-5645113Y11196963D01*
X-5703987Y11054830D01*
X-5734000Y10903943D01*
X-5734000Y10807501D01*
X-5807423Y10846747D01*
X-5902805Y10875680D01*
X-5977144Y10883002D01*
X-5977152Y10883002D01*
X-6001998Y10885449D01*
X-6026844Y10883002D01*
X-7378153Y10883002D01*
X-7402999Y10885449D01*
X-7427845Y10883002D01*
X-7427852Y10883002D01*
X-7492304Y10876654D01*
X-7502192Y10875680D01*
X-7514580Y10871922D01*
X-7597573Y10846747D01*
X-7685477Y10799761D01*
X-7762525Y10736529D01*
X-7778370Y10717222D01*
X-7808592Y10687000D01*
X-7950922Y10687000D01*
X-8101809Y10656987D01*
X-8243942Y10598113D01*
X-8371859Y10512642D01*
X-8480642Y10403859D01*
X-8566113Y10275942D01*
X-8624987Y10133809D01*
X-8655000Y9982922D01*
X-8655000Y9829078D01*
X-8624987Y9678191D01*
X-8566113Y9536058D01*
X-8480642Y9408141D01*
X-8371859Y9299358D01*
X-8243942Y9213887D01*
X-8101809Y9155013D01*
X-7950922Y9125000D01*
X-7797078Y9125000D01*
X-7646191Y9155013D01*
X-7504058Y9213887D01*
X-7376141Y9299358D01*
X-7267358Y9408141D01*
X-7181887Y9536058D01*
X-7130999Y9658911D01*
X-7130999Y9575079D01*
X-7100986Y9424192D01*
X-7042112Y9282059D01*
X-6956641Y9154142D01*
X-6847858Y9045359D01*
X-6719941Y8959888D01*
X-6577808Y8901014D01*
X-6426921Y8871001D01*
X-6273077Y8871001D01*
X-6122190Y8901014D01*
X-5980057Y8959888D01*
X-5852140Y9045359D01*
X-5751497Y9146002D01*
X4576001Y9146000D01*
X4576000Y8505000D01*
X-9444595Y8505000D01*
X-9536058Y8566113D01*
X-9678191Y8624987D01*
X-9829078Y8655000D01*
X-9982922Y8655000D01*
X-10133809Y8624987D01*
X-10275942Y8566113D01*
X-10403859Y8480642D01*
X-10512642Y8371859D01*
X-10598113Y8243942D01*
X-10656987Y8101809D01*
X-10687000Y7950922D01*
X-10687000Y7797078D01*
X-10656987Y7646191D01*
X-10598113Y7504058D01*
X-10512642Y7376141D01*
X-10403859Y7267358D01*
X-10275942Y7181887D01*
X-10133809Y7123013D01*
X-9982922Y7093000D01*
X-9829078Y7093000D01*
X-9678191Y7123013D01*
X-9536058Y7181887D01*
X-9444595Y7243000D01*
X4576001Y7243000D01*
X4576000Y5093591D01*
X4572948Y5062601D01*
X4576000Y5031611D01*
X4576000Y5031604D01*
X4585130Y4938904D01*
X4621211Y4819960D01*
X4679804Y4710341D01*
X4758657Y4614258D01*
X4782737Y4594496D01*
X5316233Y4060999D01*
X4462843Y4060999D01*
X4462843Y4880000D01*
X4455487Y4954689D01*
X4433701Y5026508D01*
X4405108Y5080000D01*
X4433701Y5133492D01*
X4455487Y5205311D01*
X4462843Y5280000D01*
X4462843Y6280000D01*
X4455487Y6354689D01*
X4433701Y6426508D01*
X4398322Y6492696D01*
X4350711Y6550711D01*
X4292696Y6598322D01*
X4226508Y6633701D01*
X4154689Y6655487D01*
X4080000Y6662843D01*
X2580000Y6662843D01*
X2505311Y6655487D01*
X2433492Y6633701D01*
X2367304Y6598322D01*
X2309289Y6550711D01*
X2261678Y6492696D01*
X2226299Y6426508D01*
X2204513Y6354689D01*
X2197748Y6286000D01*
X2089824Y6286000D01*
X2064978Y6288447D01*
X2040132Y6286000D01*
X2040125Y6286000D01*
X1979208Y6280000D01*
X1965785Y6278678D01*
X1870404Y6249745D01*
X1782500Y6202759D01*
X1705452Y6139527D01*
X1689608Y6120221D01*
X1684387Y6115000D01*
X1542057Y6115000D01*
X1391170Y6084987D01*
X1249037Y6026113D01*
X1121120Y5940642D01*
X1012337Y5831859D01*
X926866Y5703942D01*
X917688Y5681785D01*
X782127Y5708750D01*
X628283Y5708750D01*
X477396Y5678737D01*
X335263Y5619863D01*
X207346Y5534392D01*
X98563Y5425609D01*
X13092Y5297692D01*
X-45782Y5155559D01*
X-49000Y5139381D01*
X-49000Y5207002D01*
X-144248Y5207002D01*
X-49000Y5302250D01*
X-47157Y5830000D01*
X-54513Y5904689D01*
X-76299Y5976508D01*
X-111678Y6042696D01*
X-159289Y6100711D01*
X-217304Y6148322D01*
X-283492Y6183701D01*
X-355311Y6205487D01*
X-430000Y6212843D01*
X-957750Y6211000D01*
X-1053000Y6115750D01*
X-1053000Y5207000D01*
X-1033000Y5207000D01*
X-1033000Y4953000D01*
X-1053000Y4953000D01*
X-1053000Y4933000D01*
X-1307000Y4933000D01*
X-1307000Y4953000D01*
X-1327000Y4953000D01*
X-1327000Y5207000D01*
X-1307000Y5207000D01*
X-1307000Y6115750D01*
X-1402250Y6211000D01*
X-1930000Y6212843D01*
X-2004689Y6205487D01*
X-2076508Y6183701D01*
X-2142696Y6148322D01*
X-2200711Y6100711D01*
X-2248322Y6042696D01*
X-2283701Y5976508D01*
X-2305487Y5904689D01*
X-2312843Y5830000D01*
X-2312663Y5778577D01*
X-2439191Y5830987D01*
X-2590078Y5861000D01*
X-2743922Y5861000D01*
X-2894809Y5830987D01*
X-3036942Y5772113D01*
X-3164859Y5686642D01*
X-3180643Y5670858D01*
X-3203362Y5704859D01*
X-3312145Y5813642D01*
X-3440062Y5899113D01*
X-3582195Y5957987D01*
X-3733082Y5988000D01*
X-3886926Y5988000D01*
X-4037813Y5957987D01*
X-4179946Y5899113D01*
X-4307863Y5813642D01*
X-4416646Y5704859D01*
X-4502117Y5576942D01*
X-4560991Y5434809D01*
X-4591004Y5283922D01*
X-4591004Y5130078D01*
X-4560991Y4979191D01*
X-4502117Y4837058D01*
X-4416646Y4709141D01*
X-4316004Y4608499D01*
X-4316003Y3015858D01*
X-4318451Y2991002D01*
X-4308682Y2891810D01*
X-4279749Y2796428D01*
X-4262825Y2764767D01*
X-4232762Y2708523D01*
X-4169530Y2631475D01*
X-4150223Y2615630D01*
X-1722840Y188246D01*
X-1706995Y168939D01*
X-1629947Y105707D01*
X-1542043Y58721D01*
X-1446661Y29788D01*
X-1347468Y20018D01*
X-1322614Y22466D01*
X15009941Y22466D01*
X19919998Y-4887592D01*
X19919998Y-5029922D01*
X19950011Y-5180809D01*
X20008885Y-5322942D01*
X20094356Y-5450859D01*
X20203139Y-5559642D01*
X20331056Y-5645113D01*
X20473189Y-5703987D01*
X20624076Y-5734000D01*
X20777920Y-5734000D01*
X20928807Y-5703987D01*
X21070940Y-5645113D01*
X21198857Y-5559642D01*
X21307640Y-5450859D01*
X21380919Y-5341189D01*
X21418395Y-5366230D01*
X21560528Y-5425104D01*
X21711415Y-5455117D01*
X21865259Y-5455117D01*
X22016146Y-5425104D01*
X22158279Y-5366230D01*
X22286196Y-5280759D01*
X22394979Y-5171976D01*
X22480450Y-5044059D01*
X22539324Y-4901926D01*
X22543594Y-4880458D01*
X22607740Y-4914745D01*
X22680922Y-4936944D01*
X22703121Y-4943678D01*
X22713009Y-4944652D01*
X22777461Y-4951000D01*
X22777468Y-4951000D01*
X22802314Y-4953447D01*
X22827160Y-4951000D01*
X23150499Y-4951000D01*
X23251141Y-5051642D01*
X23379058Y-5137113D01*
X23521191Y-5195987D01*
X23672078Y-5226000D01*
X23825922Y-5226000D01*
X23976809Y-5195987D01*
X24118942Y-5137113D01*
X24163255Y-5107504D01*
X24199887Y-5195942D01*
X24285358Y-5323859D01*
X24394141Y-5432642D01*
X24522058Y-5518113D01*
X24664191Y-5576987D01*
X24815078Y-5607000D01*
X24968922Y-5607000D01*
X25119809Y-5576987D01*
X25261942Y-5518113D01*
X25389859Y-5432642D01*
X25498642Y-5323859D01*
X25584113Y-5195942D01*
X25642987Y-5053809D01*
X25673000Y-4902922D01*
X25673000Y-4749078D01*
X25642987Y-4598191D01*
X25584113Y-4456058D01*
X25498642Y-4328141D01*
X25397130Y-4226629D01*
X25390678Y-4161122D01*
X25389812Y-4158265D01*
X25361745Y-4065740D01*
X25350258Y-4044250D01*
X25314759Y-3977836D01*
X25251527Y-3900788D01*
X25232220Y-3884943D01*
X24727060Y-3379784D01*
X24711211Y-3360472D01*
X24634163Y-3297240D01*
X24546259Y-3250254D01*
X24450877Y-3221321D01*
X24376538Y-3213999D01*
X24376530Y-3213999D01*
X24351684Y-3211552D01*
X24326838Y-3213999D01*
X22979591Y-3213999D01*
X17546877Y2218714D01*
X17531028Y2238026D01*
X17453980Y2301258D01*
X17366076Y2348244D01*
X17270694Y2377177D01*
X17196355Y2384499D01*
X17196347Y2384499D01*
X17171501Y2386946D01*
X17146655Y2384499D01*
X13227000Y2384499D01*
X13227000Y2456900D01*
X13198737Y2598988D01*
X13881640Y2598988D01*
X13906486Y2596541D01*
X13931332Y2598988D01*
X13931340Y2598988D01*
X14005679Y2606310D01*
X14101061Y2635243D01*
X14188965Y2682229D01*
X14266013Y2745461D01*
X14281862Y2764773D01*
X14662077Y3144987D01*
X20898141Y3144987D01*
X20922987Y3142540D01*
X20947833Y3144987D01*
X20947841Y3144987D01*
X21022180Y3152309D01*
X21117562Y3181242D01*
X21205466Y3228228D01*
X21282514Y3291460D01*
X21298363Y3310772D01*
X22667592Y4680000D01*
X22809922Y4680000D01*
X22960809Y4710013D01*
X23102942Y4768887D01*
X23230859Y4854358D01*
X23339642Y4963141D01*
X23425113Y5091058D01*
X23483987Y5233191D01*
X23514000Y5384078D01*
X23514000Y5537922D01*
X23483987Y5688809D01*
X23425113Y5830942D01*
X23339642Y5958859D01*
X23230859Y6067642D01*
X23185425Y6098000D01*
X23920409Y6098000D01*
X25021001Y4997407D01*
X25021000Y-2068499D01*
X24920358Y-2169141D01*
X24834887Y-2297058D01*
X24776013Y-2439191D01*
X24746000Y-2590078D01*
X24746000Y-2743922D01*
X24776013Y-2894809D01*
X24834887Y-3036942D01*
X24920358Y-3164859D01*
X25029141Y-3273642D01*
X25157058Y-3359113D01*
X25299191Y-3417987D01*
X25450078Y-3448000D01*
X25603922Y-3448000D01*
X25754809Y-3417987D01*
X25896942Y-3359113D01*
X26024859Y-3273642D01*
X26133642Y-3164859D01*
X26219113Y-3036942D01*
X26277987Y-2894809D01*
X26308000Y-2743922D01*
X26308000Y-2590078D01*
X26277987Y-2439191D01*
X26219113Y-2297058D01*
X26133642Y-2169141D01*
X26033000Y-2068499D01*
X26033000Y5182155D01*
X26035447Y5207001D01*
X26033000Y5231847D01*
X26033000Y5231854D01*
X26025678Y5306193D01*
X25996745Y5401575D01*
X25949759Y5489479D01*
X25886527Y5566527D01*
X25867220Y5582372D01*
X24505376Y6944215D01*
X24489527Y6963527D01*
X24412479Y7026759D01*
X24324575Y7073745D01*
X24229193Y7102678D01*
X24154854Y7110000D01*
X24154846Y7110000D01*
X24130000Y7112447D01*
X24105154Y7110000D01*
X21049841Y7110000D01*
X21024995Y7112447D01*
X21000149Y7110000D01*
X21000142Y7110000D01*
X20935690Y7103652D01*
X20925802Y7102678D01*
X20834865Y7075093D01*
X20830421Y7073745D01*
X20742517Y7026759D01*
X20665469Y6963527D01*
X20649624Y6944220D01*
X20166003Y6460599D01*
X20166003Y6507925D01*
X20135990Y6658812D01*
X20077116Y6800945D01*
X19991645Y6928862D01*
X19882862Y7037645D01*
X19754945Y7123116D01*
X19612812Y7181990D01*
X19461925Y7212003D01*
X19308081Y7212003D01*
X19157194Y7181990D01*
X19015061Y7123116D01*
X18887144Y7037645D01*
X18786502Y6937003D01*
X16976841Y6937003D01*
X16972966Y6946357D01*
X16887495Y7074274D01*
X16778712Y7183057D01*
X16650795Y7268528D01*
X16508662Y7327402D01*
X16357775Y7357415D01*
X16203931Y7357415D01*
X16053044Y7327402D01*
X15910911Y7268528D01*
X15782994Y7183057D01*
X15674211Y7074274D01*
X15588740Y6946357D01*
X15529866Y6804224D01*
X15499853Y6653337D01*
X15499853Y6499493D01*
X15529866Y6348606D01*
X15588740Y6206473D01*
X15674211Y6078556D01*
X15739633Y6013134D01*
X15631141Y5940642D01*
X15522358Y5831859D01*
X15436887Y5703942D01*
X15378013Y5561809D01*
X15348000Y5410922D01*
X15348000Y5257078D01*
X15378013Y5106191D01*
X15436887Y4964058D01*
X15522358Y4836141D01*
X15631141Y4727358D01*
X15759058Y4641887D01*
X15843287Y4606998D01*
X14290930Y4606998D01*
X14266084Y4609445D01*
X14241238Y4606998D01*
X14241231Y4606998D01*
X14176779Y4600650D01*
X14166891Y4599676D01*
X14109085Y4582141D01*
X14071510Y4570743D01*
X13983606Y4523757D01*
X13906558Y4460525D01*
X13890714Y4441219D01*
X13510495Y4060999D01*
X7962843Y4060999D01*
X7962843Y4880000D01*
X7955487Y4954689D01*
X7933701Y5026508D01*
X7905108Y5080000D01*
X7933701Y5133492D01*
X7955487Y5205311D01*
X7962236Y5273841D01*
X7963848Y5274000D01*
X7963856Y5274000D01*
X8038195Y5281322D01*
X8133577Y5310255D01*
X8221481Y5357241D01*
X8298529Y5420473D01*
X8314378Y5439785D01*
X10221594Y7347000D01*
X10363924Y7347000D01*
X10514811Y7377013D01*
X10656944Y7435887D01*
X10784861Y7521358D01*
X10893644Y7630141D01*
X10979115Y7758058D01*
X11037989Y7900191D01*
X11068002Y8051078D01*
X11068002Y8204922D01*
X11037989Y8355809D01*
X10979115Y8497942D01*
X10893644Y8625859D01*
X10784861Y8734642D01*
X10656944Y8820113D01*
X10514811Y8878987D01*
X10363924Y8909000D01*
X10210080Y8909000D01*
X10059193Y8878987D01*
X9917060Y8820113D01*
X9789143Y8734642D01*
X9680360Y8625859D01*
X9594889Y8497942D01*
X9536015Y8355809D01*
X9506002Y8204922D01*
X9506002Y8062592D01*
X7911484Y6468073D01*
X7898322Y6492696D01*
X7850711Y6550711D01*
X7792696Y6598322D01*
X7726508Y6633701D01*
X7654689Y6655487D01*
X7580000Y6662843D01*
X6080000Y6662843D01*
X6005311Y6655487D01*
X5933492Y6633701D01*
X5867304Y6598322D01*
X5838000Y6574273D01*
X5838000Y7843003D01*
X5841053Y7874000D01*
X5838000Y7904998D01*
X5838000Y9009632D01*
X6230369Y9402000D01*
X14216632Y9402000D01*
X15229553Y8389079D01*
X15251013Y8281191D01*
X15309887Y8139058D01*
X15395358Y8011141D01*
X15504141Y7902358D01*
X15632058Y7816887D01*
X15774191Y7758013D01*
X15925078Y7728000D01*
X16078922Y7728000D01*
X16229809Y7758013D01*
X16371942Y7816887D01*
X16499859Y7902358D01*
X16608642Y8011141D01*
X16694113Y8139058D01*
X16752987Y8281191D01*
X16783000Y8432078D01*
X16783000Y8585922D01*
X16752987Y8736809D01*
X16713553Y8832011D01*
X26188624Y8832011D01*
X26213470Y8829564D01*
X26238316Y8832011D01*
X26238324Y8832011D01*
X26312663Y8839333D01*
X26408045Y8868266D01*
X26495949Y8915252D01*
X26572997Y8978484D01*
X26588846Y8997796D01*
X26949245Y9358195D01*
X27091576Y9358195D01*
X27242463Y9388208D01*
X27384596Y9447082D01*
X27512513Y9532553D01*
X27621296Y9641336D01*
X27706767Y9769253D01*
X27747098Y9866620D01*
X27805620Y9854979D01*
X27959464Y9854979D01*
X28110351Y9884992D01*
X28252484Y9943866D01*
X28380401Y10029337D01*
X28489184Y10138120D01*
X28574655Y10266037D01*
X28593593Y10311756D01*
X28603358Y10297141D01*
X28712141Y10188358D01*
X28840058Y10102887D01*
X28982191Y10044013D01*
X29133078Y10014000D01*
X29286922Y10014000D01*
X29437809Y10044013D01*
X29579942Y10102887D01*
X29707859Y10188358D01*
X29816642Y10297141D01*
X29902113Y10425058D01*
X29960987Y10567191D01*
X29991000Y10718078D01*
X29991000Y10871922D01*
X29960987Y11022809D01*
X29902113Y11164942D01*
X29816642Y11292859D01*
X29707859Y11401642D01*
X29579942Y11487113D01*
X29437809Y11545987D01*
X29286922Y11576000D01*
X29144591Y11576000D01*
X29019387Y11701204D01*
X29003538Y11720516D01*
X28926490Y11783748D01*
X28838586Y11830734D01*
X28743204Y11859667D01*
X28668865Y11866989D01*
X28668857Y11866989D01*
X28644011Y11869436D01*
X28619165Y11866989D01*
X23006000Y11866989D01*
X23006000Y12014922D01*
X22975987Y12165809D01*
X22917113Y12307942D01*
X22831642Y12435859D01*
X22722859Y12544642D01*
X22594942Y12630113D01*
X22452809Y12688987D01*
X22301922Y12719000D01*
X22159592Y12719000D01*
X20739877Y14138714D01*
X20724028Y14158026D01*
X20646980Y14221258D01*
X20559076Y14268244D01*
X20463694Y14297177D01*
X20389355Y14304499D01*
X20389347Y14304499D01*
X20364501Y14306946D01*
X20339655Y14304499D01*
X-4515225Y14304499D01*
X-4540071Y14306946D01*
X-4564917Y14304499D01*
X-4564924Y14304499D01*
X-4629376Y14298151D01*
X-4639264Y14297177D01*
X-4661463Y14290443D01*
X-4734645Y14268244D01*
X-4822549Y14221258D01*
X-4899597Y14158026D01*
X-4915442Y14138719D01*
X-5014592Y14039569D01*
X-5156922Y14039569D01*
X-5307809Y14009556D01*
X-5449942Y13950682D01*
X-5577859Y13865211D01*
X-5686642Y13756428D01*
X-5772113Y13628511D01*
X-5830987Y13486378D01*
X-5861000Y13335491D01*
X-5861000Y13181647D01*
X-5832737Y13039559D01*
X-9539596Y13039559D01*
X-9564442Y13042006D01*
X-9589288Y13039559D01*
X-9589295Y13039559D01*
X-9663634Y13032237D01*
X-9759016Y13003304D01*
X-9846920Y12956318D01*
X-9923968Y12893086D01*
X-9939817Y12873774D01*
X-9967591Y12846000D01*
X-10109922Y12846000D01*
X-10260809Y12815987D01*
X-10402942Y12757113D01*
X-10530859Y12671642D01*
X-10639642Y12562859D01*
X-10725113Y12434942D01*
X-10783987Y12292809D01*
X-10814000Y12141922D01*
X-39869000Y12141922D01*
X-39869000Y15464885D01*
X-27266000Y15464885D01*
X-27266000Y15045115D01*
X-27184107Y14633410D01*
X-27023468Y14245593D01*
X-26790256Y13896567D01*
X-26493433Y13599744D01*
X-26144407Y13366532D01*
X-25756590Y13205893D01*
X-25344885Y13124000D01*
X-24925115Y13124000D01*
X-24513410Y13205893D01*
X-24125593Y13366532D01*
X-23776567Y13599744D01*
X-23479744Y13896567D01*
X-23246532Y14245593D01*
X-23085893Y14633410D01*
X-23004000Y15045115D01*
X-23004000Y15464885D01*
X-23085893Y15876590D01*
X-23246532Y16264407D01*
X-23479744Y16613433D01*
X-23776567Y16910256D01*
X-24125593Y17143468D01*
X-24513410Y17304107D01*
X-24794403Y17360000D01*
X-10122843Y17360000D01*
X-10122843Y15660000D01*
X-10115487Y15585311D01*
X-10093701Y15513492D01*
X-10058322Y15447304D01*
X-10010711Y15389289D01*
X-9952696Y15341678D01*
X-9886508Y15306299D01*
X-9814689Y15284513D01*
X-9740000Y15277157D01*
X-8040000Y15277157D01*
X-7965311Y15284513D01*
X-7893492Y15306299D01*
X-7827304Y15341678D01*
X-7769289Y15389289D01*
X-7721678Y15447304D01*
X-7686299Y15513492D01*
X-7664513Y15585311D01*
X-7657157Y15660000D01*
X-7657157Y16631243D01*
X-7581000Y16631243D01*
X-7581000Y16388757D01*
X-7533693Y16150931D01*
X-7440898Y15926903D01*
X-7306180Y15725283D01*
X-7134717Y15553820D01*
X-6933097Y15419102D01*
X-6709069Y15326307D01*
X-6471243Y15279000D01*
X-6228757Y15279000D01*
X-5990931Y15326307D01*
X-5766903Y15419102D01*
X-5565283Y15553820D01*
X-5393820Y15725283D01*
X-5259102Y15926903D01*
X-5166307Y16150931D01*
X-5119000Y16388757D01*
X-5119000Y16631243D01*
X-5041000Y16631243D01*
X-5041000Y16388757D01*
X-4993693Y16150931D01*
X-4900898Y15926903D01*
X-4766180Y15725283D01*
X-4594717Y15553820D01*
X-4393097Y15419102D01*
X-4169069Y15326307D01*
X-3931243Y15279000D01*
X-3688757Y15279000D01*
X-3450931Y15326307D01*
X-3226903Y15419102D01*
X-3025283Y15553820D01*
X-2853820Y15725283D01*
X-2719102Y15926903D01*
X-2626307Y16150931D01*
X-2579000Y16388757D01*
X-2579000Y16631243D01*
X-2501000Y16631243D01*
X-2501000Y16388757D01*
X-2453693Y16150931D01*
X-2360898Y15926903D01*
X-2226180Y15725283D01*
X-2054717Y15553820D01*
X-1853097Y15419102D01*
X-1629069Y15326307D01*
X-1391243Y15279000D01*
X-1148757Y15279000D01*
X-910931Y15326307D01*
X-686903Y15419102D01*
X-485283Y15553820D01*
X-313820Y15725283D01*
X-179102Y15926903D01*
X-86307Y16150931D01*
X-39000Y16388757D01*
X-39000Y16631243D01*
X39000Y16631243D01*
X39000Y16388757D01*
X86307Y16150931D01*
X179102Y15926903D01*
X313820Y15725283D01*
X485283Y15553820D01*
X686903Y15419102D01*
X910931Y15326307D01*
X1148757Y15279000D01*
X1391243Y15279000D01*
X1629069Y15326307D01*
X1853097Y15419102D01*
X2054717Y15553820D01*
X2226180Y15725283D01*
X2360898Y15926903D01*
X2453693Y16150931D01*
X2501000Y16388757D01*
X2501000Y16631243D01*
X2579000Y16631243D01*
X2579000Y16388757D01*
X2626307Y16150931D01*
X2719102Y15926903D01*
X2853820Y15725283D01*
X3025283Y15553820D01*
X3226903Y15419102D01*
X3450931Y15326307D01*
X3688757Y15279000D01*
X3931243Y15279000D01*
X4169069Y15326307D01*
X4393097Y15419102D01*
X4594717Y15553820D01*
X4766180Y15725283D01*
X4900898Y15926903D01*
X4993693Y16150931D01*
X5041000Y16388757D01*
X5041000Y16631243D01*
X5119000Y16631243D01*
X5119000Y16388757D01*
X5166307Y16150931D01*
X5259102Y15926903D01*
X5393820Y15725283D01*
X5565283Y15553820D01*
X5766903Y15419102D01*
X5990931Y15326307D01*
X6228757Y15279000D01*
X6471243Y15279000D01*
X6709069Y15326307D01*
X6933097Y15419102D01*
X7134717Y15553820D01*
X7306180Y15725283D01*
X7440898Y15926903D01*
X7533693Y16150931D01*
X7581000Y16388757D01*
X7581000Y16631243D01*
X7659000Y16631243D01*
X7659000Y16388757D01*
X7706307Y16150931D01*
X7799102Y15926903D01*
X7933820Y15725283D01*
X8105283Y15553820D01*
X8306903Y15419102D01*
X8530931Y15326307D01*
X8768757Y15279000D01*
X9011243Y15279000D01*
X9249069Y15326307D01*
X9473097Y15419102D01*
X9541616Y15464885D01*
X22934000Y15464885D01*
X22934000Y15045115D01*
X23015893Y14633410D01*
X23176532Y14245593D01*
X23409744Y13896567D01*
X23706567Y13599744D01*
X24055593Y13366532D01*
X24443410Y13205893D01*
X24855115Y13124000D01*
X25274885Y13124000D01*
X25686590Y13205893D01*
X26074407Y13366532D01*
X26423433Y13599744D01*
X26720256Y13896567D01*
X26953468Y14245593D01*
X27114107Y14633410D01*
X27196000Y15045115D01*
X27196000Y15464885D01*
X27114107Y15876590D01*
X26953468Y16264407D01*
X26720256Y16613433D01*
X26423433Y16910256D01*
X26074407Y17143468D01*
X25686590Y17304107D01*
X25274885Y17386000D01*
X24855115Y17386000D01*
X24443410Y17304107D01*
X24055593Y17143468D01*
X23706567Y16910256D01*
X23409744Y16613433D01*
X23176532Y16264407D01*
X23015893Y15876590D01*
X22934000Y15464885D01*
X9541616Y15464885D01*
X9674717Y15553820D01*
X9846180Y15725283D01*
X9980898Y15926903D01*
X10073693Y16150931D01*
X10121000Y16388757D01*
X10121000Y16631243D01*
X10073693Y16869069D01*
X9980898Y17093097D01*
X9846180Y17294717D01*
X9674717Y17466180D01*
X9473097Y17600898D01*
X9249069Y17693693D01*
X9011243Y17741000D01*
X8768757Y17741000D01*
X8530931Y17693693D01*
X8306903Y17600898D01*
X8105283Y17466180D01*
X7933820Y17294717D01*
X7799102Y17093097D01*
X7706307Y16869069D01*
X7659000Y16631243D01*
X7581000Y16631243D01*
X7533693Y16869069D01*
X7440898Y17093097D01*
X7306180Y17294717D01*
X7134717Y17466180D01*
X6933097Y17600898D01*
X6709069Y17693693D01*
X6471243Y17741000D01*
X6228757Y17741000D01*
X5990931Y17693693D01*
X5766903Y17600898D01*
X5565283Y17466180D01*
X5393820Y17294717D01*
X5259102Y17093097D01*
X5166307Y16869069D01*
X5119000Y16631243D01*
X5041000Y16631243D01*
X4993693Y16869069D01*
X4900898Y17093097D01*
X4766180Y17294717D01*
X4594717Y17466180D01*
X4393097Y17600898D01*
X4169069Y17693693D01*
X3931243Y17741000D01*
X3688757Y17741000D01*
X3450931Y17693693D01*
X3226903Y17600898D01*
X3025283Y17466180D01*
X2853820Y17294717D01*
X2719102Y17093097D01*
X2626307Y16869069D01*
X2579000Y16631243D01*
X2501000Y16631243D01*
X2453693Y16869069D01*
X2360898Y17093097D01*
X2226180Y17294717D01*
X2054717Y17466180D01*
X1853097Y17600898D01*
X1629069Y17693693D01*
X1391243Y17741000D01*
X1148757Y17741000D01*
X910931Y17693693D01*
X686903Y17600898D01*
X485283Y17466180D01*
X313820Y17294717D01*
X179102Y17093097D01*
X86307Y16869069D01*
X39000Y16631243D01*
X-39000Y16631243D01*
X-86307Y16869069D01*
X-179102Y17093097D01*
X-313820Y17294717D01*
X-485283Y17466180D01*
X-686903Y17600898D01*
X-910931Y17693693D01*
X-1148757Y17741000D01*
X-1391243Y17741000D01*
X-1629069Y17693693D01*
X-1853097Y17600898D01*
X-2054717Y17466180D01*
X-2226180Y17294717D01*
X-2360898Y17093097D01*
X-2453693Y16869069D01*
X-2501000Y16631243D01*
X-2579000Y16631243D01*
X-2626307Y16869069D01*
X-2719102Y17093097D01*
X-2853820Y17294717D01*
X-3025283Y17466180D01*
X-3226903Y17600898D01*
X-3450931Y17693693D01*
X-3688757Y17741000D01*
X-3931243Y17741000D01*
X-4169069Y17693693D01*
X-4393097Y17600898D01*
X-4594717Y17466180D01*
X-4766180Y17294717D01*
X-4900898Y17093097D01*
X-4993693Y16869069D01*
X-5041000Y16631243D01*
X-5119000Y16631243D01*
X-5166307Y16869069D01*
X-5259102Y17093097D01*
X-5393820Y17294717D01*
X-5565283Y17466180D01*
X-5766903Y17600898D01*
X-5990931Y17693693D01*
X-6228757Y17741000D01*
X-6471243Y17741000D01*
X-6709069Y17693693D01*
X-6933097Y17600898D01*
X-7134717Y17466180D01*
X-7306180Y17294717D01*
X-7440898Y17093097D01*
X-7533693Y16869069D01*
X-7581000Y16631243D01*
X-7657157Y16631243D01*
X-7657157Y17360000D01*
X-7664513Y17434689D01*
X-7686299Y17506508D01*
X-7721678Y17572696D01*
X-7769289Y17630711D01*
X-7827304Y17678322D01*
X-7893492Y17713701D01*
X-7965311Y17735487D01*
X-8040000Y17742843D01*
X-9740000Y17742843D01*
X-9814689Y17735487D01*
X-9886508Y17713701D01*
X-9952696Y17678322D01*
X-10010711Y17630711D01*
X-10058322Y17572696D01*
X-10093701Y17506508D01*
X-10115487Y17434689D01*
X-10122843Y17360000D01*
X-24794403Y17360000D01*
X-24925115Y17386000D01*
X-25344885Y17386000D01*
X-25756590Y17304107D01*
X-26144407Y17143468D01*
X-26493433Y16910256D01*
X-26790256Y16613433D01*
X-27023468Y16264407D01*
X-27184107Y15876590D01*
X-27266000Y15464885D01*
X-39869000Y15464885D01*
X-39869000Y17274000D01*
X-35836374Y17274000D01*
X-35835532Y17274083D01*
X-35833808Y17274089D01*
X-35812907Y17276213D01*
X-35791902Y17276066D01*
X-35785218Y17276721D01*
X-35103938Y17348326D01*
X-35061276Y17357084D01*
X-35018410Y17365261D01*
X-35011981Y17367202D01*
X-34357584Y17569771D01*
X-34317398Y17586664D01*
X-34276975Y17602996D01*
X-34271045Y17606149D01*
X-33668457Y17931967D01*
X-33632294Y17956360D01*
X-33595837Y17980217D01*
X-33590632Y17984461D01*
X-33062806Y18421117D01*
X-33032103Y18452036D01*
X-33000940Y18482553D01*
X-32996659Y18487728D01*
X-32563698Y19018590D01*
X-32539577Y19054895D01*
X-32514943Y19090872D01*
X-32511748Y19096780D01*
X-32472156Y19171243D01*
X-10121000Y19171243D01*
X-10121000Y18928757D01*
X-10073693Y18690931D01*
X-9980898Y18466903D01*
X-9846180Y18265283D01*
X-9674717Y18093820D01*
X-9473097Y17959102D01*
X-9249069Y17866307D01*
X-9011243Y17819000D01*
X-8768757Y17819000D01*
X-8530931Y17866307D01*
X-8306903Y17959102D01*
X-8105283Y18093820D01*
X-7933820Y18265283D01*
X-7799102Y18466903D01*
X-7706307Y18690931D01*
X-7659000Y18928757D01*
X-7659000Y19171243D01*
X-7581000Y19171243D01*
X-7581000Y18928757D01*
X-7533693Y18690931D01*
X-7440898Y18466903D01*
X-7306180Y18265283D01*
X-7134717Y18093820D01*
X-6933097Y17959102D01*
X-6709069Y17866307D01*
X-6471243Y17819000D01*
X-6228757Y17819000D01*
X-5990931Y17866307D01*
X-5766903Y17959102D01*
X-5565283Y18093820D01*
X-5393820Y18265283D01*
X-5259102Y18466903D01*
X-5166307Y18690931D01*
X-5119000Y18928757D01*
X-5119000Y19171243D01*
X-5041000Y19171243D01*
X-5041000Y18928757D01*
X-4993693Y18690931D01*
X-4900898Y18466903D01*
X-4766180Y18265283D01*
X-4594717Y18093820D01*
X-4393097Y17959102D01*
X-4169069Y17866307D01*
X-3931243Y17819000D01*
X-3688757Y17819000D01*
X-3450931Y17866307D01*
X-3226903Y17959102D01*
X-3025283Y18093820D01*
X-2853820Y18265283D01*
X-2719102Y18466903D01*
X-2626307Y18690931D01*
X-2579000Y18928757D01*
X-2579000Y19171243D01*
X-2501000Y19171243D01*
X-2501000Y18928757D01*
X-2453693Y18690931D01*
X-2360898Y18466903D01*
X-2226180Y18265283D01*
X-2054717Y18093820D01*
X-1853097Y17959102D01*
X-1629069Y17866307D01*
X-1391243Y17819000D01*
X-1148757Y17819000D01*
X-910931Y17866307D01*
X-686903Y17959102D01*
X-485283Y18093820D01*
X-313820Y18265283D01*
X-179102Y18466903D01*
X-86307Y18690931D01*
X-39000Y18928757D01*
X-39000Y19171243D01*
X39000Y19171243D01*
X39000Y18928757D01*
X86307Y18690931D01*
X179102Y18466903D01*
X313820Y18265283D01*
X485283Y18093820D01*
X686903Y17959102D01*
X910931Y17866307D01*
X1148757Y17819000D01*
X1391243Y17819000D01*
X1629069Y17866307D01*
X1853097Y17959102D01*
X2054717Y18093820D01*
X2226180Y18265283D01*
X2360898Y18466903D01*
X2453693Y18690931D01*
X2501000Y18928757D01*
X2501000Y19171243D01*
X2579000Y19171243D01*
X2579000Y18928757D01*
X2626307Y18690931D01*
X2719102Y18466903D01*
X2853820Y18265283D01*
X3025283Y18093820D01*
X3226903Y17959102D01*
X3450931Y17866307D01*
X3688757Y17819000D01*
X3931243Y17819000D01*
X4169069Y17866307D01*
X4393097Y17959102D01*
X4594717Y18093820D01*
X4766180Y18265283D01*
X4900898Y18466903D01*
X4993693Y18690931D01*
X5041000Y18928757D01*
X5041000Y19171243D01*
X5119000Y19171243D01*
X5119000Y18928757D01*
X5166307Y18690931D01*
X5259102Y18466903D01*
X5393820Y18265283D01*
X5565283Y18093820D01*
X5766903Y17959102D01*
X5990931Y17866307D01*
X6228757Y17819000D01*
X6471243Y17819000D01*
X6709069Y17866307D01*
X6933097Y17959102D01*
X7134717Y18093820D01*
X7306180Y18265283D01*
X7440898Y18466903D01*
X7533693Y18690931D01*
X7542064Y18733019D01*
X7700505Y18733019D01*
X7785201Y18507051D01*
X7912353Y18301948D01*
X8077076Y18125592D01*
X8273039Y17984761D01*
X8492712Y17884866D01*
X8573020Y17860511D01*
X8763000Y17921373D01*
X8763000Y18923000D01*
X9017000Y18923000D01*
X9017000Y17921373D01*
X9206980Y17860511D01*
X9287288Y17884866D01*
X9506961Y17984761D01*
X9702924Y18125592D01*
X9867647Y18301948D01*
X9994799Y18507051D01*
X10079495Y18733019D01*
X10019187Y18923000D01*
X9017000Y18923000D01*
X8763000Y18923000D01*
X7760813Y18923000D01*
X7700505Y18733019D01*
X7542064Y18733019D01*
X7581000Y18928757D01*
X7581000Y19171243D01*
X7544933Y19352564D01*
X7785131Y19592763D01*
X7700505Y19366981D01*
X7760813Y19177000D01*
X8763000Y19177000D01*
X8763000Y19197000D01*
X9017000Y19197000D01*
X9017000Y19177000D01*
X10019187Y19177000D01*
X10079495Y19366981D01*
X9994799Y19592949D01*
X9867647Y19798052D01*
X9702924Y19974408D01*
X9543471Y20089001D01*
X13181633Y20089001D01*
X14340555Y18930078D01*
X14362015Y18822191D01*
X14420889Y18680058D01*
X14506360Y18552141D01*
X14615143Y18443358D01*
X14743060Y18357887D01*
X14885193Y18299013D01*
X15036080Y18269000D01*
X15189924Y18269000D01*
X15340811Y18299013D01*
X15482944Y18357887D01*
X15610861Y18443358D01*
X15719644Y18552141D01*
X15805115Y18680058D01*
X15863989Y18822191D01*
X15894002Y18973078D01*
X15894002Y19126922D01*
X15863989Y19277809D01*
X15805115Y19419942D01*
X15719644Y19547859D01*
X15610861Y19656642D01*
X15482944Y19742113D01*
X15340811Y19800987D01*
X15232924Y19822447D01*
X13911106Y21144264D01*
X13891344Y21168344D01*
X13795262Y21247197D01*
X13685643Y21305790D01*
X13566699Y21341871D01*
X13473999Y21351001D01*
X13473991Y21351001D01*
X13443001Y21354053D01*
X13412011Y21351001D01*
X8050988Y21351001D01*
X8020000Y21354053D01*
X7989012Y21351001D01*
X7989003Y21351001D01*
X7896303Y21341871D01*
X7777359Y21305790D01*
X7667740Y21247197D01*
X7606456Y21196902D01*
X7571658Y21168344D01*
X7551900Y21144269D01*
X6652564Y20244933D01*
X6471243Y20281000D01*
X6228757Y20281000D01*
X5990931Y20233693D01*
X5766903Y20140898D01*
X5565283Y20006180D01*
X5393820Y19834717D01*
X5259102Y19633097D01*
X5166307Y19409069D01*
X5119000Y19171243D01*
X5041000Y19171243D01*
X4993693Y19409069D01*
X4900898Y19633097D01*
X4766180Y19834717D01*
X4594717Y20006180D01*
X4393097Y20140898D01*
X4169069Y20233693D01*
X3931243Y20281000D01*
X3688757Y20281000D01*
X3450931Y20233693D01*
X3226903Y20140898D01*
X3025283Y20006180D01*
X2853820Y19834717D01*
X2719102Y19633097D01*
X2626307Y19409069D01*
X2579000Y19171243D01*
X2501000Y19171243D01*
X2453693Y19409069D01*
X2360898Y19633097D01*
X2226180Y19834717D01*
X2054717Y20006180D01*
X1853097Y20140898D01*
X1629069Y20233693D01*
X1391243Y20281000D01*
X1148757Y20281000D01*
X910931Y20233693D01*
X686903Y20140898D01*
X485283Y20006180D01*
X313820Y19834717D01*
X179102Y19633097D01*
X86307Y19409069D01*
X39000Y19171243D01*
X-39000Y19171243D01*
X-86307Y19409069D01*
X-118242Y19486167D01*
X2768591Y22372999D01*
X23901408Y22372999D01*
X27921000Y18353406D01*
X27921000Y18211076D01*
X27951013Y18060189D01*
X28009887Y17918056D01*
X28095358Y17790139D01*
X28204141Y17681356D01*
X28332058Y17595885D01*
X28474191Y17537011D01*
X28625078Y17506998D01*
X28778922Y17506998D01*
X28929809Y17537011D01*
X29071942Y17595885D01*
X29199859Y17681356D01*
X29308642Y17790139D01*
X29394113Y17918056D01*
X29452987Y18060189D01*
X29483000Y18211076D01*
X29483000Y18364920D01*
X29452987Y18515807D01*
X29394113Y18657940D01*
X29308642Y18785857D01*
X29199859Y18894640D01*
X29071942Y18980111D01*
X28929809Y19038985D01*
X28778922Y19068998D01*
X28636592Y19068998D01*
X24486375Y23219214D01*
X24470526Y23238526D01*
X24393478Y23301758D01*
X24305574Y23348744D01*
X24210192Y23377677D01*
X24135853Y23384999D01*
X24135845Y23384999D01*
X24110999Y23387446D01*
X24086153Y23384999D01*
X2583844Y23384999D01*
X2558998Y23387446D01*
X2534152Y23384999D01*
X2534145Y23384999D01*
X2469693Y23378651D01*
X2459805Y23377677D01*
X2437606Y23370943D01*
X2364424Y23348744D01*
X2276520Y23301758D01*
X2199472Y23238526D01*
X2183627Y23219219D01*
X-833833Y20201758D01*
X-910931Y20233693D01*
X-1148757Y20281000D01*
X-1391243Y20281000D01*
X-1629069Y20233693D01*
X-1853097Y20140898D01*
X-2054717Y20006180D01*
X-2226180Y19834717D01*
X-2360898Y19633097D01*
X-2453693Y19409069D01*
X-2501000Y19171243D01*
X-2579000Y19171243D01*
X-2626307Y19409069D01*
X-2719102Y19633097D01*
X-2853820Y19834717D01*
X-3025283Y20006180D01*
X-3226903Y20140898D01*
X-3450931Y20233693D01*
X-3688757Y20281000D01*
X-3931243Y20281000D01*
X-4169069Y20233693D01*
X-4393097Y20140898D01*
X-4594717Y20006180D01*
X-4766180Y19834717D01*
X-4900898Y19633097D01*
X-4993693Y19409069D01*
X-5041000Y19171243D01*
X-5119000Y19171243D01*
X-5166307Y19409069D01*
X-5259102Y19633097D01*
X-5393820Y19834717D01*
X-5565283Y20006180D01*
X-5766903Y20140898D01*
X-5990931Y20233693D01*
X-6228757Y20281000D01*
X-6471243Y20281000D01*
X-6709069Y20233693D01*
X-6933097Y20140898D01*
X-7134717Y20006180D01*
X-7306180Y19834717D01*
X-7440898Y19633097D01*
X-7533693Y19409069D01*
X-7581000Y19171243D01*
X-7659000Y19171243D01*
X-7706307Y19409069D01*
X-7799102Y19633097D01*
X-7933820Y19834717D01*
X-8105283Y20006180D01*
X-8306903Y20140898D01*
X-8530931Y20233693D01*
X-8768757Y20281000D01*
X-9011243Y20281000D01*
X-9249069Y20233693D01*
X-9473097Y20140898D01*
X-9674717Y20006180D01*
X-9846180Y19834717D01*
X-9980898Y19633097D01*
X-10073693Y19409069D01*
X-10121000Y19171243D01*
X-32472156Y19171243D01*
X-32190145Y19701627D01*
X-32173527Y19741946D01*
X-32156358Y19782003D01*
X-32154372Y19788419D01*
X-31956376Y20444213D01*
X-31947908Y20486981D01*
X-31938845Y20529621D01*
X-31938143Y20536300D01*
X-31871296Y21218063D01*
X-31869000Y21241374D01*
X-31869000Y25274000D01*
X31869000Y25274000D01*
X31869001Y21241374D01*
G04 #@! TA.AperFunction,Conductor*
D20*
G36*
X31869001Y21241374D02*
G01*
X31869083Y21240542D01*
X31869089Y21238808D01*
X31871213Y21217907D01*
X31871066Y21196902D01*
X31871721Y21190218D01*
X31943326Y20508938D01*
X31952084Y20466276D01*
X31960261Y20423410D01*
X31962202Y20416981D01*
X32164771Y19762584D01*
X32181664Y19722398D01*
X32197996Y19681975D01*
X32201149Y19676045D01*
X32258000Y19570901D01*
X32258000Y-19574010D01*
X32190145Y-19701627D01*
X32173536Y-19741924D01*
X32156359Y-19782002D01*
X32154372Y-19788418D01*
X31956376Y-20444213D01*
X31947908Y-20486981D01*
X31938845Y-20529621D01*
X31938143Y-20536300D01*
X31871296Y-21218063D01*
X31869000Y-21241375D01*
X31869001Y-25274000D01*
X-31869000Y-25274000D01*
X-31869000Y-21241374D01*
X-31869083Y-21240532D01*
X-31869089Y-21238808D01*
X-31871213Y-21217907D01*
X-31871066Y-21196903D01*
X-31871721Y-21190218D01*
X-31943326Y-20508938D01*
X-31952092Y-20466231D01*
X-31960261Y-20423411D01*
X-31962202Y-20416981D01*
X-32164771Y-19762585D01*
X-32181665Y-19722396D01*
X-32197996Y-19681975D01*
X-32201149Y-19676045D01*
X-32526967Y-19073458D01*
X-32551330Y-19037338D01*
X-32575216Y-19000837D01*
X-32579461Y-18995632D01*
X-32634784Y-18928757D01*
X-6311000Y-18928757D01*
X-6311000Y-19171243D01*
X-6263693Y-19409069D01*
X-6170898Y-19633097D01*
X-6036180Y-19834717D01*
X-5864717Y-20006180D01*
X-5663097Y-20140898D01*
X-5439069Y-20233693D01*
X-5201243Y-20281000D01*
X-4958757Y-20281000D01*
X-4720931Y-20233693D01*
X-4496903Y-20140898D01*
X-4295283Y-20006180D01*
X-4123820Y-19834717D01*
X-3989102Y-19633097D01*
X-3896307Y-19409069D01*
X-3849000Y-19171243D01*
X-3849000Y-18928757D01*
X-3771000Y-18928757D01*
X-3771000Y-19171243D01*
X-3723693Y-19409069D01*
X-3630898Y-19633097D01*
X-3496180Y-19834717D01*
X-3324717Y-20006180D01*
X-3123097Y-20140898D01*
X-2899069Y-20233693D01*
X-2661243Y-20281000D01*
X-2418757Y-20281000D01*
X-2180931Y-20233693D01*
X-1956903Y-20140898D01*
X-1755283Y-20006180D01*
X-1583820Y-19834717D01*
X-1449102Y-19633097D01*
X-1356307Y-19409069D01*
X-1309000Y-19171243D01*
X-1309000Y-18928757D01*
X-1231000Y-18928757D01*
X-1231000Y-19171243D01*
X-1183693Y-19409069D01*
X-1090898Y-19633097D01*
X-956180Y-19834717D01*
X-784717Y-20006180D01*
X-583097Y-20140898D01*
X-359069Y-20233693D01*
X-121243Y-20281000D01*
X121243Y-20281000D01*
X359069Y-20233693D01*
X583097Y-20140898D01*
X784717Y-20006180D01*
X956180Y-19834717D01*
X1090898Y-19633097D01*
X1183693Y-19409069D01*
X1231000Y-19171243D01*
X1231000Y-18928757D01*
X1183693Y-18690931D01*
X1114561Y-18524031D01*
X1257593Y-18380999D01*
X1506501Y-18380999D01*
X1449102Y-18466903D01*
X1356307Y-18690931D01*
X1309000Y-18928757D01*
X1309000Y-19171243D01*
X1356307Y-19409069D01*
X1449102Y-19633097D01*
X1583820Y-19834717D01*
X1755283Y-20006180D01*
X1956903Y-20140898D01*
X2180931Y-20233693D01*
X2418757Y-20281000D01*
X2661243Y-20281000D01*
X2899069Y-20233693D01*
X2976167Y-20201758D01*
X4239651Y-21465243D01*
X4255496Y-21484550D01*
X4332544Y-21547782D01*
X4420448Y-21594768D01*
X4515830Y-21623701D01*
X4615023Y-21633471D01*
X4639877Y-21631023D01*
X27670830Y-21631023D01*
X27695676Y-21633470D01*
X27720522Y-21631023D01*
X27720530Y-21631023D01*
X27794869Y-21623701D01*
X27890251Y-21594768D01*
X27978155Y-21547782D01*
X28055203Y-21484550D01*
X28071052Y-21465238D01*
X28988435Y-20547856D01*
X29130765Y-20547856D01*
X29281652Y-20517843D01*
X29423785Y-20458969D01*
X29551702Y-20373498D01*
X29660485Y-20264715D01*
X29745956Y-20136798D01*
X29804830Y-19994665D01*
X29834843Y-19843778D01*
X29834843Y-19689934D01*
X29804830Y-19539047D01*
X29745956Y-19396914D01*
X29660485Y-19268997D01*
X29645684Y-19254196D01*
X29692932Y-19206948D01*
X29778403Y-19079031D01*
X29837277Y-18936898D01*
X29867290Y-18786011D01*
X29867290Y-18632167D01*
X29837277Y-18481280D01*
X29778403Y-18339147D01*
X29692932Y-18211230D01*
X29584149Y-18102447D01*
X29456232Y-18016976D01*
X29314099Y-17958102D01*
X29163212Y-17928089D01*
X29009368Y-17928089D01*
X28858481Y-17958102D01*
X28784881Y-17988588D01*
X28737142Y-17917141D01*
X28628359Y-17808358D01*
X28500442Y-17722887D01*
X28358309Y-17664013D01*
X28207422Y-17634000D01*
X28053578Y-17634000D01*
X27902691Y-17664013D01*
X27760558Y-17722887D01*
X27632641Y-17808358D01*
X27523858Y-17917141D01*
X27438387Y-18045058D01*
X27379513Y-18187191D01*
X27349500Y-18338078D01*
X27349500Y-18491922D01*
X27379513Y-18642809D01*
X27438387Y-18784942D01*
X27458846Y-18815562D01*
X26555408Y-19719001D01*
X12463499Y-19719001D01*
X12520898Y-19633097D01*
X12613693Y-19409069D01*
X12661000Y-19171243D01*
X12661000Y-18928757D01*
X12613693Y-18690931D01*
X12520898Y-18466903D01*
X12386180Y-18265283D01*
X12214717Y-18093820D01*
X12013097Y-17959102D01*
X11789069Y-17866307D01*
X11551243Y-17819000D01*
X11308757Y-17819000D01*
X11070931Y-17866307D01*
X10846903Y-17959102D01*
X10645283Y-18093820D01*
X10473820Y-18265283D01*
X10339102Y-18466903D01*
X10246307Y-18690931D01*
X10199000Y-18928757D01*
X10199000Y-19171243D01*
X10246307Y-19409069D01*
X10339102Y-19633097D01*
X10396501Y-19719001D01*
X7607593Y-19719001D01*
X6919500Y-19030909D01*
X6919500Y-18669352D01*
X6921948Y-18644498D01*
X6912178Y-18545305D01*
X6883245Y-18449923D01*
X6878660Y-18441346D01*
X6836259Y-18362019D01*
X6773027Y-18284971D01*
X6753720Y-18269126D01*
X6153801Y-17669208D01*
X6200711Y-17630711D01*
X6248322Y-17572696D01*
X6283701Y-17506508D01*
X6305487Y-17434689D01*
X6312843Y-17360000D01*
X6312843Y-15660000D01*
X10197157Y-15660000D01*
X10197157Y-17360000D01*
X10204513Y-17434689D01*
X10226299Y-17506508D01*
X10261678Y-17572696D01*
X10309289Y-17630711D01*
X10367304Y-17678322D01*
X10433492Y-17713701D01*
X10505311Y-17735487D01*
X10580000Y-17742843D01*
X12280000Y-17742843D01*
X12354689Y-17735487D01*
X12426508Y-17713701D01*
X12492696Y-17678322D01*
X12550711Y-17630711D01*
X12598322Y-17572696D01*
X12633701Y-17506508D01*
X12655487Y-17434689D01*
X12662843Y-17360000D01*
X12662843Y-15660000D01*
X12655487Y-15585311D01*
X12633701Y-15513492D01*
X12598322Y-15447304D01*
X12550711Y-15389289D01*
X12492696Y-15341678D01*
X12426508Y-15306299D01*
X12354689Y-15284513D01*
X12280000Y-15277157D01*
X10580000Y-15277157D01*
X10505311Y-15284513D01*
X10433492Y-15306299D01*
X10367304Y-15341678D01*
X10309289Y-15389289D01*
X10261678Y-15447304D01*
X10226299Y-15513492D01*
X10204513Y-15585311D01*
X10197157Y-15660000D01*
X6312843Y-15660000D01*
X6305487Y-15585311D01*
X6283701Y-15513492D01*
X6248322Y-15447304D01*
X6200711Y-15389289D01*
X6142696Y-15341678D01*
X6076508Y-15306299D01*
X6004689Y-15284513D01*
X5930000Y-15277157D01*
X4230000Y-15277157D01*
X4155311Y-15284513D01*
X4083492Y-15306299D01*
X4017304Y-15341678D01*
X3959289Y-15389289D01*
X3911678Y-15447304D01*
X3876299Y-15513492D01*
X3854513Y-15585311D01*
X3847157Y-15660000D01*
X3847157Y-17360000D01*
X3848043Y-17368999D01*
X3414018Y-17368999D01*
X3517647Y-17258052D01*
X3644799Y-17052949D01*
X3729495Y-16826981D01*
X3669187Y-16637000D01*
X2667000Y-16637000D01*
X2667000Y-16657000D01*
X2413000Y-16657000D01*
X2413000Y-16637000D01*
X1410813Y-16637000D01*
X1350505Y-16826981D01*
X1435201Y-17052949D01*
X1562353Y-17258052D01*
X1665982Y-17368999D01*
X1072846Y-17368999D01*
X1048000Y-17366552D01*
X1023154Y-17368999D01*
X1023147Y-17368999D01*
X958695Y-17375347D01*
X948807Y-17376321D01*
X880145Y-17397149D01*
X853426Y-17405254D01*
X826923Y-17419420D01*
X977647Y-17258052D01*
X1104799Y-17052949D01*
X1189495Y-16826981D01*
X1129187Y-16637000D01*
X127000Y-16637000D01*
X127000Y-17638627D01*
X316980Y-17699489D01*
X397288Y-17675134D01*
X616961Y-17575239D01*
X671017Y-17536391D01*
X344082Y-17863326D01*
X121243Y-17819000D01*
X-121243Y-17819000D01*
X-359069Y-17866307D01*
X-583097Y-17959102D01*
X-784717Y-18093820D01*
X-956180Y-18265283D01*
X-1090898Y-18466903D01*
X-1183693Y-18690931D01*
X-1231000Y-18928757D01*
X-1309000Y-18928757D01*
X-1356307Y-18690931D01*
X-1449102Y-18466903D01*
X-1583820Y-18265283D01*
X-1755283Y-18093820D01*
X-1956903Y-17959102D01*
X-2180931Y-17866307D01*
X-2418757Y-17819000D01*
X-2661243Y-17819000D01*
X-2899069Y-17866307D01*
X-3123097Y-17959102D01*
X-3324717Y-18093820D01*
X-3496180Y-18265283D01*
X-3630898Y-18466903D01*
X-3723693Y-18690931D01*
X-3771000Y-18928757D01*
X-3849000Y-18928757D01*
X-3896307Y-18690931D01*
X-3989102Y-18466903D01*
X-4123820Y-18265283D01*
X-4295283Y-18093820D01*
X-4496903Y-17959102D01*
X-4720931Y-17866307D01*
X-4958757Y-17819000D01*
X-5201243Y-17819000D01*
X-5439069Y-17866307D01*
X-5663097Y-17959102D01*
X-5864717Y-18093820D01*
X-6036180Y-18265283D01*
X-6170898Y-18466903D01*
X-6263693Y-18690931D01*
X-6311000Y-18928757D01*
X-32634784Y-18928757D01*
X-33016117Y-18467806D01*
X-33047036Y-18437103D01*
X-33077553Y-18405940D01*
X-33082727Y-18401659D01*
X-33613590Y-17968698D01*
X-33649895Y-17944577D01*
X-33685872Y-17919943D01*
X-33691780Y-17916748D01*
X-34296627Y-17595145D01*
X-34336924Y-17578536D01*
X-34377002Y-17561359D01*
X-34383418Y-17559372D01*
X-35039213Y-17361376D01*
X-35081981Y-17352908D01*
X-35124621Y-17343845D01*
X-35131300Y-17343143D01*
X-35812916Y-17276310D01*
X-35836374Y-17274000D01*
X-39869000Y-17274000D01*
X-39869000Y-15045115D01*
X-27266000Y-15045115D01*
X-27266000Y-15464885D01*
X-27184107Y-15876590D01*
X-27023468Y-16264407D01*
X-26790256Y-16613433D01*
X-26493433Y-16910256D01*
X-26144407Y-17143468D01*
X-25756590Y-17304107D01*
X-25344885Y-17386000D01*
X-24925115Y-17386000D01*
X-24513410Y-17304107D01*
X-24125593Y-17143468D01*
X-23776567Y-16910256D01*
X-23693292Y-16826981D01*
X-6269495Y-16826981D01*
X-6184799Y-17052949D01*
X-6057647Y-17258052D01*
X-5892924Y-17434408D01*
X-5696961Y-17575239D01*
X-5477288Y-17675134D01*
X-5396980Y-17699489D01*
X-5207000Y-17638627D01*
X-5207000Y-16637000D01*
X-4953000Y-16637000D01*
X-4953000Y-17638627D01*
X-4763020Y-17699489D01*
X-4682712Y-17675134D01*
X-4463039Y-17575239D01*
X-4267076Y-17434408D01*
X-4102353Y-17258052D01*
X-3975201Y-17052949D01*
X-3890505Y-16826981D01*
X-3950813Y-16637000D01*
X-4953000Y-16637000D01*
X-5207000Y-16637000D01*
X-6209187Y-16637000D01*
X-6269495Y-16826981D01*
X-23693292Y-16826981D01*
X-23479744Y-16613433D01*
X-23329621Y-16388757D01*
X-3771000Y-16388757D01*
X-3771000Y-16631243D01*
X-3723693Y-16869069D01*
X-3630898Y-17093097D01*
X-3496180Y-17294717D01*
X-3324717Y-17466180D01*
X-3123097Y-17600898D01*
X-2899069Y-17693693D01*
X-2661243Y-17741000D01*
X-2418757Y-17741000D01*
X-2180931Y-17693693D01*
X-1956903Y-17600898D01*
X-1755283Y-17466180D01*
X-1583820Y-17294717D01*
X-1449102Y-17093097D01*
X-1356307Y-16869069D01*
X-1347936Y-16826981D01*
X-1189495Y-16826981D01*
X-1104799Y-17052949D01*
X-977647Y-17258052D01*
X-812924Y-17434408D01*
X-616961Y-17575239D01*
X-397288Y-17675134D01*
X-316980Y-17699489D01*
X-127000Y-17638627D01*
X-127000Y-16637000D01*
X-1129187Y-16637000D01*
X-1189495Y-16826981D01*
X-1347936Y-16826981D01*
X-1309000Y-16631243D01*
X-1309000Y-16388757D01*
X-1347935Y-16193019D01*
X-1189495Y-16193019D01*
X-1129187Y-16383000D01*
X-127000Y-16383000D01*
X-127000Y-15381373D01*
X127000Y-15381373D01*
X127000Y-16383000D01*
X1129187Y-16383000D01*
X1189495Y-16193019D01*
X1350505Y-16193019D01*
X1410813Y-16383000D01*
X2413000Y-16383000D01*
X2413000Y-15381373D01*
X2667000Y-15381373D01*
X2667000Y-16383000D01*
X3669187Y-16383000D01*
X3729495Y-16193019D01*
X3644799Y-15967051D01*
X3517647Y-15761948D01*
X3352924Y-15585592D01*
X3156961Y-15444761D01*
X2937288Y-15344866D01*
X2856980Y-15320511D01*
X2667000Y-15381373D01*
X2413000Y-15381373D01*
X2223020Y-15320511D01*
X2142712Y-15344866D01*
X1923039Y-15444761D01*
X1727076Y-15585592D01*
X1562353Y-15761948D01*
X1435201Y-15967051D01*
X1350505Y-16193019D01*
X1189495Y-16193019D01*
X1104799Y-15967051D01*
X977647Y-15761948D01*
X812924Y-15585592D01*
X616961Y-15444761D01*
X397288Y-15344866D01*
X316980Y-15320511D01*
X127000Y-15381373D01*
X-127000Y-15381373D01*
X-316980Y-15320511D01*
X-397288Y-15344866D01*
X-616961Y-15444761D01*
X-812924Y-15585592D01*
X-977647Y-15761948D01*
X-1104799Y-15967051D01*
X-1189495Y-16193019D01*
X-1347935Y-16193019D01*
X-1356307Y-16150931D01*
X-1449102Y-15926903D01*
X-1583820Y-15725283D01*
X-1755283Y-15553820D01*
X-1956903Y-15419102D01*
X-2180931Y-15326307D01*
X-2418757Y-15279000D01*
X-2661243Y-15279000D01*
X-2899069Y-15326307D01*
X-3123097Y-15419102D01*
X-3324717Y-15553820D01*
X-3496180Y-15725283D01*
X-3630898Y-15926903D01*
X-3723693Y-16150931D01*
X-3771000Y-16388757D01*
X-23329621Y-16388757D01*
X-23246532Y-16264407D01*
X-23216963Y-16193019D01*
X-6269495Y-16193019D01*
X-6209187Y-16383000D01*
X-5207000Y-16383000D01*
X-5207000Y-15381373D01*
X-4953000Y-15381373D01*
X-4953000Y-16383000D01*
X-3950813Y-16383000D01*
X-3890505Y-16193019D01*
X-3975201Y-15967051D01*
X-4102353Y-15761948D01*
X-4267076Y-15585592D01*
X-4463039Y-15444761D01*
X-4682712Y-15344866D01*
X-4763020Y-15320511D01*
X-4953000Y-15381373D01*
X-5207000Y-15381373D01*
X-5396980Y-15320511D01*
X-5477288Y-15344866D01*
X-5696961Y-15444761D01*
X-5892924Y-15585592D01*
X-6057647Y-15761948D01*
X-6184799Y-15967051D01*
X-6269495Y-16193019D01*
X-23216963Y-16193019D01*
X-23085893Y-15876590D01*
X-23004000Y-15464885D01*
X-23004000Y-15045115D01*
X23004000Y-15045115D01*
X23004000Y-15464885D01*
X23085893Y-15876590D01*
X23246532Y-16264407D01*
X23479744Y-16613433D01*
X23776567Y-16910256D01*
X24125593Y-17143468D01*
X24513410Y-17304107D01*
X24925115Y-17386000D01*
X25344885Y-17386000D01*
X25756590Y-17304107D01*
X26144407Y-17143468D01*
X26493433Y-16910256D01*
X26790256Y-16613433D01*
X27023468Y-16264407D01*
X27184107Y-15876590D01*
X27266000Y-15464885D01*
X27266000Y-15045115D01*
X27184107Y-14633410D01*
X27023468Y-14245593D01*
X26790256Y-13896567D01*
X26493433Y-13599744D01*
X26144407Y-13366532D01*
X25756590Y-13205893D01*
X25344885Y-13124000D01*
X24925115Y-13124000D01*
X24513410Y-13205893D01*
X24125593Y-13366532D01*
X23776567Y-13599744D01*
X23479744Y-13896567D01*
X23246532Y-14245593D01*
X23085893Y-14633410D01*
X23004000Y-15045115D01*
X-23004000Y-15045115D01*
X-23085893Y-14633410D01*
X-23246532Y-14245593D01*
X-23479744Y-13896567D01*
X-23776567Y-13599744D01*
X-24125593Y-13366532D01*
X-24513410Y-13205893D01*
X-24925115Y-13124000D01*
X-25344885Y-13124000D01*
X-25756590Y-13205893D01*
X-26144407Y-13366532D01*
X-26493433Y-13599744D01*
X-26790256Y-13896567D01*
X-27023468Y-14245593D01*
X-27184107Y-14633410D01*
X-27266000Y-15045115D01*
X-39869000Y-15045115D01*
X-39869000Y-5830115D01*
X-34781000Y-5830115D01*
X-34781000Y-6249885D01*
X-34699107Y-6661590D01*
X-34538468Y-7049407D01*
X-34305256Y-7398433D01*
X-34008433Y-7695256D01*
X-33659407Y-7928468D01*
X-33271590Y-8089107D01*
X-32859885Y-8171000D01*
X-32440115Y-8171000D01*
X-32028410Y-8089107D01*
X-31640593Y-7928468D01*
X-31291567Y-7695256D01*
X-30994744Y-7398433D01*
X-30761532Y-7049407D01*
X-30600893Y-6661590D01*
X-30519000Y-6249885D01*
X-30519000Y-5830115D01*
X-30600893Y-5418410D01*
X-30761532Y-5030593D01*
X-30994744Y-4681567D01*
X-31291567Y-4384744D01*
X-31640593Y-4151532D01*
X-32028410Y-3990893D01*
X-32440115Y-3909000D01*
X-32859885Y-3909000D01*
X-33271590Y-3990893D01*
X-33659407Y-4151532D01*
X-34008433Y-4384744D01*
X-34305256Y-4681567D01*
X-34538468Y-5030593D01*
X-34699107Y-5418410D01*
X-34781000Y-5830115D01*
X-39869000Y-5830115D01*
X-39869000Y8712928D01*
X-37611000Y8712928D01*
X-37611000Y8559084D01*
X-37580987Y8408197D01*
X-37522113Y8266064D01*
X-37460999Y8174600D01*
X-37461000Y-1366010D01*
X-37464052Y-1397000D01*
X-37461000Y-1427990D01*
X-37461000Y-1427997D01*
X-37451870Y-1520697D01*
X-37415789Y-1639641D01*
X-37357196Y-1749260D01*
X-37278343Y-1845343D01*
X-37254263Y-1865105D01*
X-35901101Y-3218268D01*
X-35881343Y-3242343D01*
X-35857268Y-3262101D01*
X-35857266Y-3262103D01*
X-35829996Y-3284483D01*
X-35785261Y-3321196D01*
X-35675642Y-3379789D01*
X-35556698Y-3415870D01*
X-35463998Y-3425000D01*
X-35463989Y-3425000D01*
X-35433001Y-3428052D01*
X-35402013Y-3425000D01*
X-29494990Y-3425000D01*
X-29464000Y-3428052D01*
X-29433010Y-3425000D01*
X-29433002Y-3425000D01*
X-29340302Y-3415870D01*
X-29221358Y-3379789D01*
X-29111739Y-3321196D01*
X-29015657Y-3242343D01*
X-28995895Y-3218263D01*
X-28280475Y-2502843D01*
X-27090000Y-2502843D01*
X-27015311Y-2495487D01*
X-26943492Y-2473701D01*
X-26877304Y-2438322D01*
X-26819289Y-2390711D01*
X-26771678Y-2332696D01*
X-26754001Y-2299625D01*
X-26754001Y-4961009D01*
X-26757053Y-4991999D01*
X-26754001Y-5022989D01*
X-26754001Y-5022996D01*
X-26744871Y-5115696D01*
X-26708790Y-5234640D01*
X-26650197Y-5344259D01*
X-26571344Y-5440342D01*
X-26547264Y-5460104D01*
X-22693101Y-9314268D01*
X-22673343Y-9338343D01*
X-22577261Y-9417196D01*
X-22467642Y-9475789D01*
X-22348698Y-9511870D01*
X-22255998Y-9521000D01*
X-22255991Y-9521000D01*
X-22225000Y-9524052D01*
X-22194010Y-9521000D01*
X-4960368Y-9521000D01*
X-4794426Y-9686942D01*
X-4852191Y-9663015D01*
X-5003078Y-9633002D01*
X-5156922Y-9633002D01*
X-5307809Y-9663015D01*
X-5449942Y-9721889D01*
X-5577859Y-9807360D01*
X-5686642Y-9916143D01*
X-5772113Y-10044060D01*
X-5830987Y-10186193D01*
X-5861000Y-10337080D01*
X-5861000Y-10490924D01*
X-5830987Y-10641811D01*
X-5772113Y-10783944D01*
X-5686642Y-10911861D01*
X-5577859Y-11020644D01*
X-5449942Y-11106115D01*
X-5307809Y-11164989D01*
X-5156922Y-11195002D01*
X-5014591Y-11195002D01*
X-4547375Y-11662219D01*
X-4531530Y-11681526D01*
X-4454482Y-11744758D01*
X-4366578Y-11791744D01*
X-4271196Y-11820677D01*
X-4172003Y-11830447D01*
X-4147149Y-11827999D01*
X22308155Y-11827999D01*
X22333001Y-11830446D01*
X22357847Y-11827999D01*
X22357855Y-11827999D01*
X22432194Y-11820677D01*
X22527576Y-11791744D01*
X22615480Y-11744758D01*
X22666362Y-11703000D01*
X22809922Y-11703000D01*
X22960809Y-11672987D01*
X23102942Y-11614113D01*
X23230859Y-11528642D01*
X23339642Y-11419859D01*
X23425113Y-11291942D01*
X23483987Y-11149809D01*
X23514000Y-10998922D01*
X23514000Y-10845078D01*
X23483987Y-10694191D01*
X23425113Y-10552058D01*
X23339642Y-10424141D01*
X23230859Y-10315358D01*
X23102942Y-10229887D01*
X22960809Y-10171013D01*
X22809922Y-10141000D01*
X22656078Y-10141000D01*
X22505191Y-10171013D01*
X22363058Y-10229887D01*
X22235141Y-10315358D01*
X22126358Y-10424141D01*
X22040887Y-10552058D01*
X21982013Y-10694191D01*
X21957784Y-10815999D01*
X15095369Y-10815999D01*
X15105922Y-10805447D01*
X15213809Y-10783987D01*
X15355942Y-10725113D01*
X15483859Y-10639642D01*
X15592642Y-10530859D01*
X15678113Y-10402942D01*
X15736987Y-10260809D01*
X15767000Y-10109922D01*
X15767000Y-9956078D01*
X15736987Y-9805191D01*
X15678113Y-9663058D01*
X15592642Y-9535141D01*
X15483859Y-9426358D01*
X15355942Y-9340887D01*
X15213809Y-9282013D01*
X15062922Y-9252000D01*
X14909078Y-9252000D01*
X14758191Y-9282013D01*
X14616058Y-9340887D01*
X14488141Y-9426358D01*
X14379358Y-9535141D01*
X14293887Y-9663058D01*
X14235013Y-9805191D01*
X14213553Y-9913078D01*
X14128631Y-9998001D01*
X-2698630Y-9998001D01*
X-4230895Y-8465737D01*
X-4250657Y-8441657D01*
X-4346739Y-8362804D01*
X-4456358Y-8304211D01*
X-4575302Y-8268130D01*
X-4668002Y-8259000D01*
X-4668010Y-8259000D01*
X-4699000Y-8255948D01*
X-4729990Y-8259000D01*
X-21963631Y-8259000D01*
X-25492001Y-4730631D01*
X-25492001Y3378922D01*
X-24911000Y3378922D01*
X-24911000Y3225078D01*
X-24880987Y3074191D01*
X-24822113Y2932058D01*
X-24736642Y2804141D01*
X-24636000Y2703499D01*
X-24635999Y-610137D01*
X-24636000Y-610147D01*
X-24635999Y-2134144D01*
X-24638447Y-2159000D01*
X-24632927Y-2215052D01*
X-24657000Y-2336078D01*
X-24657000Y-2489922D01*
X-24626987Y-2640809D01*
X-24568113Y-2782942D01*
X-24482642Y-2910859D01*
X-24373859Y-3019642D01*
X-24245942Y-3105113D01*
X-24103809Y-3163987D01*
X-23952922Y-3194000D01*
X-23799078Y-3194000D01*
X-23648191Y-3163987D01*
X-23506058Y-3105113D01*
X-23378141Y-3019642D01*
X-23269358Y-2910859D01*
X-23183887Y-2782942D01*
X-23125013Y-2640809D01*
X-23095000Y-2489922D01*
X-23095000Y-2336078D01*
X-23125013Y-2185191D01*
X-23183887Y-2043058D01*
X-23269358Y-1915141D01*
X-23378141Y-1806358D01*
X-23506058Y-1720887D01*
X-23624000Y-1672033D01*
X-23624000Y2703499D01*
X-23523358Y2804141D01*
X-23437887Y2932058D01*
X-23379013Y3074191D01*
X-23349000Y3225078D01*
X-23349000Y3315422D01*
X-12274500Y3315422D01*
X-12274500Y3161578D01*
X-12244487Y3010691D01*
X-12185613Y2868558D01*
X-12124500Y2777095D01*
X-12124499Y-794500D01*
X-12127552Y-825500D01*
X-12115370Y-949197D01*
X-12079289Y-1068141D01*
X-12020696Y-1177760D01*
X-11961603Y-1249765D01*
X-11961600Y-1249768D01*
X-11941842Y-1273843D01*
X-11917767Y-1293601D01*
X-9993105Y-3218263D01*
X-9973343Y-3242343D01*
X-9877261Y-3321196D01*
X-9767642Y-3379789D01*
X-9735518Y-3389534D01*
X-9746564Y-3416201D01*
X-9776577Y-3567088D01*
X-9776577Y-3720932D01*
X-9746564Y-3871819D01*
X-9715358Y-3947157D01*
X-9730000Y-3947157D01*
X-9804689Y-3954513D01*
X-9876508Y-3976299D01*
X-9942696Y-4011678D01*
X-10000711Y-4059289D01*
X-10048322Y-4117304D01*
X-10083701Y-4183492D01*
X-10105487Y-4255311D01*
X-10112843Y-4330000D01*
X-10112843Y-5830000D01*
X-10105487Y-5904689D01*
X-10083701Y-5976508D01*
X-10048322Y-6042696D01*
X-10000711Y-6100711D01*
X-9942696Y-6148322D01*
X-9876508Y-6183701D01*
X-9804689Y-6205487D01*
X-9730000Y-6212843D01*
X-8230000Y-6212843D01*
X-8155311Y-6205487D01*
X-8083492Y-6183701D01*
X-8017304Y-6148322D01*
X-7959289Y-6100711D01*
X-7911678Y-6042696D01*
X-7876299Y-5976508D01*
X-7854513Y-5904689D01*
X-7847157Y-5830000D01*
X-2312843Y-5830000D01*
X-2305487Y-5904689D01*
X-2283701Y-5976508D01*
X-2248322Y-6042696D01*
X-2200711Y-6100711D01*
X-2142696Y-6148322D01*
X-2076508Y-6183701D01*
X-2004689Y-6205487D01*
X-1930000Y-6212843D01*
X-1402250Y-6211000D01*
X-1307000Y-6115750D01*
X-1307000Y-5207000D01*
X-1053000Y-5207000D01*
X-1053000Y-6115750D01*
X-957750Y-6211000D01*
X-430000Y-6212843D01*
X-355311Y-6205487D01*
X-283492Y-6183701D01*
X-217304Y-6148322D01*
X-159289Y-6100711D01*
X-111678Y-6042696D01*
X-76299Y-5976508D01*
X-54513Y-5904689D01*
X-47157Y-5830000D01*
X-49000Y-5302250D01*
X-144250Y-5207000D01*
X-1053000Y-5207000D01*
X-1307000Y-5207000D01*
X-2215750Y-5207000D01*
X-2311000Y-5302250D01*
X-2312843Y-5830000D01*
X-7847157Y-5830000D01*
X-7847157Y-4330000D01*
X-2312843Y-4330000D01*
X-2311000Y-4857750D01*
X-2215750Y-4953000D01*
X-1307000Y-4953000D01*
X-1307000Y-4044250D01*
X-1053000Y-4044250D01*
X-1053000Y-4953000D01*
X-144250Y-4953000D01*
X-49000Y-4857750D01*
X-47157Y-4330000D01*
X-54513Y-4255311D01*
X-76299Y-4183492D01*
X-111678Y-4117304D01*
X-159289Y-4059289D01*
X-217304Y-4011678D01*
X-283492Y-3976299D01*
X-355311Y-3954513D01*
X-430000Y-3947157D01*
X-957750Y-3949000D01*
X-1053000Y-4044250D01*
X-1307000Y-4044250D01*
X-1402250Y-3949000D01*
X-1930000Y-3947157D01*
X-2004689Y-3954513D01*
X-2076508Y-3976299D01*
X-2142696Y-4011678D01*
X-2200711Y-4059289D01*
X-2248322Y-4117304D01*
X-2283701Y-4183492D01*
X-2305487Y-4255311D01*
X-2312843Y-4330000D01*
X-7847157Y-4330000D01*
X-7854513Y-4255311D01*
X-7876299Y-4183492D01*
X-7911678Y-4117304D01*
X-7959289Y-4059289D01*
X-8017304Y-4011678D01*
X-8083492Y-3976299D01*
X-8155311Y-3954513D01*
X-8230000Y-3947157D01*
X-8275796Y-3947157D01*
X-8244590Y-3871819D01*
X-8214577Y-3720932D01*
X-8214577Y-3567088D01*
X-8242840Y-3425000D01*
X-4537501Y-3425000D01*
X-4434859Y-3527642D01*
X-4306942Y-3613113D01*
X-4164809Y-3671987D01*
X-4013922Y-3702000D01*
X-3860078Y-3702000D01*
X-3709191Y-3671987D01*
X-3567058Y-3613113D01*
X-3475595Y-3552000D01*
X2532632Y-3552000D01*
X2960899Y-3980268D01*
X2980657Y-4004343D01*
X3004732Y-4024101D01*
X3004734Y-4024103D01*
X3076739Y-4083196D01*
X3186358Y-4141789D01*
X3292792Y-4174075D01*
X3282512Y-4182512D01*
X3203810Y-4278411D01*
X3145329Y-4387821D01*
X3109317Y-4506538D01*
X3097157Y-4629999D01*
X3097157Y-5322252D01*
X2834780Y-5584629D01*
X2815474Y-5600473D01*
X2752242Y-5677521D01*
X2739228Y-5701869D01*
X2705255Y-5765426D01*
X2676322Y-5860808D01*
X2666553Y-5960000D01*
X2669001Y-5984856D01*
X2669001Y-6132498D01*
X2568358Y-6233141D01*
X2482887Y-6361058D01*
X2424013Y-6503191D01*
X2394000Y-6654078D01*
X2394000Y-6807922D01*
X2424013Y-6958809D01*
X2435690Y-6987000D01*
X217501Y-6987000D01*
X116859Y-6886358D01*
X-11058Y-6800887D01*
X-153191Y-6742013D01*
X-304078Y-6712000D01*
X-457922Y-6712000D01*
X-608809Y-6742013D01*
X-750942Y-6800887D01*
X-878859Y-6886358D01*
X-987642Y-6995141D01*
X-1073113Y-7123058D01*
X-1131987Y-7265191D01*
X-1162000Y-7416078D01*
X-1162000Y-7569922D01*
X-1131987Y-7720809D01*
X-1073113Y-7862942D01*
X-987642Y-7990859D01*
X-878859Y-8099642D01*
X-750942Y-8185113D01*
X-608809Y-8243987D01*
X-457922Y-8274000D01*
X-304078Y-8274000D01*
X-153191Y-8243987D01*
X-11058Y-8185113D01*
X116859Y-8099642D01*
X217501Y-7999000D01*
X21438154Y-7999000D01*
X21463000Y-8001447D01*
X21487846Y-7999000D01*
X21487854Y-7999000D01*
X21562193Y-7991678D01*
X21657575Y-7962745D01*
X21745479Y-7915759D01*
X21822527Y-7852527D01*
X21838376Y-7833215D01*
X22540592Y-7131000D01*
X22682922Y-7131000D01*
X22833809Y-7100987D01*
X22975942Y-7042113D01*
X23103859Y-6956642D01*
X23212642Y-6847859D01*
X23298113Y-6719942D01*
X23356987Y-6577809D01*
X23387000Y-6426922D01*
X23387000Y-6273078D01*
X23356987Y-6122191D01*
X23298113Y-5980058D01*
X23212642Y-5852141D01*
X23103859Y-5743358D01*
X22975942Y-5657887D01*
X22833809Y-5599013D01*
X22682922Y-5569000D01*
X22529078Y-5569000D01*
X22378191Y-5599013D01*
X22236058Y-5657887D01*
X22108141Y-5743358D01*
X21999358Y-5852141D01*
X21913887Y-5980058D01*
X21855013Y-6122191D01*
X21825000Y-6273078D01*
X21825000Y-6415408D01*
X21253409Y-6987000D01*
X3914310Y-6987000D01*
X3925987Y-6958809D01*
X3956000Y-6807922D01*
X3956000Y-6654078D01*
X3925987Y-6503191D01*
X3867113Y-6361058D01*
X3781642Y-6233141D01*
X3709306Y-6160805D01*
X3729999Y-6162843D01*
X4380001Y-6162843D01*
X4503462Y-6150683D01*
X4622179Y-6114671D01*
X4731589Y-6056190D01*
X4827488Y-5977488D01*
X4906190Y-5881589D01*
X4964671Y-5772179D01*
X5000683Y-5653462D01*
X5012843Y-5530001D01*
X5012843Y-4825532D01*
X5060804Y-4915260D01*
X5119897Y-4987265D01*
X5119900Y-4987268D01*
X5139658Y-5011343D01*
X5147157Y-5017497D01*
X5147157Y-5530001D01*
X5159317Y-5653462D01*
X5195329Y-5772179D01*
X5253810Y-5881589D01*
X5332512Y-5977488D01*
X5428411Y-6056190D01*
X5537821Y-6114671D01*
X5656538Y-6150683D01*
X5779999Y-6162843D01*
X6430001Y-6162843D01*
X6553462Y-6150683D01*
X6672179Y-6114671D01*
X6781589Y-6056190D01*
X6877488Y-5977488D01*
X6956190Y-5881589D01*
X7014671Y-5772179D01*
X7050683Y-5653462D01*
X7062843Y-5530001D01*
X7062843Y-4629999D01*
X7050683Y-4506538D01*
X7014671Y-4387821D01*
X6956190Y-4278411D01*
X6877488Y-4182512D01*
X6781589Y-4103810D01*
X6672179Y-4045329D01*
X6553462Y-4009317D01*
X6430001Y-3997157D01*
X6232529Y-3997157D01*
X6280113Y-3925942D01*
X6338987Y-3783809D01*
X6369000Y-3632922D01*
X6369000Y-3479078D01*
X6338987Y-3328191D01*
X6280113Y-3186058D01*
X6194642Y-3058141D01*
X6085859Y-2949358D01*
X5957942Y-2863887D01*
X5815809Y-2805013D01*
X5664922Y-2775000D01*
X5511078Y-2775000D01*
X5360191Y-2805013D01*
X5218058Y-2863887D01*
X5126595Y-2925000D01*
X3690369Y-2925000D01*
X3262103Y-2496735D01*
X3242343Y-2472657D01*
X3146261Y-2393804D01*
X3036642Y-2335211D01*
X2917698Y-2299130D01*
X2824998Y-2290000D01*
X2824990Y-2290000D01*
X2794000Y-2286948D01*
X2763010Y-2290000D01*
X-3475595Y-2290000D01*
X-3567058Y-2228887D01*
X-3709191Y-2170013D01*
X-3860078Y-2140000D01*
X-4013922Y-2140000D01*
X-4129552Y-2163000D01*
X-9263632Y-2163000D01*
X-10862500Y-564132D01*
X-10862500Y2777095D01*
X-10801387Y2868558D01*
X-10742513Y3010691D01*
X-10712500Y3161578D01*
X-10712500Y3315422D01*
X-10742513Y3466309D01*
X-10801387Y3608442D01*
X-10886858Y3736359D01*
X-10995641Y3845142D01*
X-11123558Y3930613D01*
X-11265691Y3989487D01*
X-11416578Y4019500D01*
X-11570422Y4019500D01*
X-11721309Y3989487D01*
X-11863442Y3930613D01*
X-11991359Y3845142D01*
X-12100142Y3736359D01*
X-12185613Y3608442D01*
X-12244487Y3466309D01*
X-12274500Y3315422D01*
X-23349000Y3315422D01*
X-23349000Y3378922D01*
X-23379013Y3529809D01*
X-23437887Y3671942D01*
X-23523358Y3799859D01*
X-23632141Y3908642D01*
X-23760058Y3994113D01*
X-23902191Y4052987D01*
X-24053078Y4083000D01*
X-24206922Y4083000D01*
X-24357809Y4052987D01*
X-24499942Y3994113D01*
X-24627859Y3908642D01*
X-24736642Y3799859D01*
X-24822113Y3671942D01*
X-24880987Y3529809D01*
X-24911000Y3378922D01*
X-25492001Y3378922D01*
X-25492001Y5830000D01*
X-10112843Y5830000D01*
X-10112843Y4330000D01*
X-10105487Y4255311D01*
X-10083701Y4183492D01*
X-10048322Y4117304D01*
X-10000711Y4059289D01*
X-9942696Y4011678D01*
X-9876508Y3976299D01*
X-9804689Y3954513D01*
X-9730000Y3947157D01*
X-9486000Y3947157D01*
X-9486000Y3289847D01*
X-9488447Y3265000D01*
X-9486000Y3240154D01*
X-9486000Y3240147D01*
X-9478678Y3165808D01*
X-9449745Y3070426D01*
X-9402759Y2982521D01*
X-9339527Y2905473D01*
X-9320215Y2889624D01*
X-8884372Y2453780D01*
X-8868527Y2434473D01*
X-8791479Y2371241D01*
X-8703575Y2324255D01*
X-8608193Y2295322D01*
X-8509000Y2285552D01*
X-8484146Y2288000D01*
X-6059501Y2288000D01*
X-5958859Y2187358D01*
X-5830942Y2101887D01*
X-5688809Y2043013D01*
X-5537922Y2013000D01*
X-5384078Y2013000D01*
X-5233191Y2043013D01*
X-5091058Y2101887D01*
X-4963141Y2187358D01*
X-4854358Y2296141D01*
X-4768887Y2424058D01*
X-4710013Y2566191D01*
X-4680000Y2717078D01*
X-4680000Y2870922D01*
X-4710013Y3021809D01*
X-4768887Y3163942D01*
X-4854358Y3291859D01*
X-4963141Y3400642D01*
X-5091058Y3486113D01*
X-5233191Y3544987D01*
X-5384078Y3575000D01*
X-5537922Y3575000D01*
X-5688809Y3544987D01*
X-5830942Y3486113D01*
X-5958859Y3400642D01*
X-6059501Y3300000D01*
X-8299408Y3300000D01*
X-8474000Y3474591D01*
X-8474000Y3947157D01*
X-8230000Y3947157D01*
X-8155311Y3954513D01*
X-8083492Y3976299D01*
X-8017304Y4011678D01*
X-7959289Y4059289D01*
X-7911678Y4117304D01*
X-7876299Y4183492D01*
X-7854513Y4255311D01*
X-7847157Y4330000D01*
X-7847157Y5830000D01*
X-7854513Y5904689D01*
X-7876299Y5976508D01*
X-7911678Y6042696D01*
X-7959289Y6100711D01*
X-8017304Y6148322D01*
X-8083492Y6183701D01*
X-8155311Y6205487D01*
X-8230000Y6212843D01*
X-9730000Y6212843D01*
X-9804689Y6205487D01*
X-9876508Y6183701D01*
X-9942696Y6148322D01*
X-10000711Y6100711D01*
X-10048322Y6042696D01*
X-10083701Y5976508D01*
X-10105487Y5904689D01*
X-10112843Y5830000D01*
X-25492001Y5830000D01*
X-25492001Y6704661D01*
X-25410141Y6759358D01*
X-25301358Y6868141D01*
X-25215887Y6996058D01*
X-25157013Y7138191D01*
X-25127000Y7289078D01*
X-25127000Y7442922D01*
X-25157013Y7593809D01*
X-25215887Y7735942D01*
X-25301358Y7863859D01*
X-25410141Y7972642D01*
X-25538058Y8058113D01*
X-25680191Y8116987D01*
X-25831078Y8147000D01*
X-25984922Y8147000D01*
X-26135809Y8116987D01*
X-26277942Y8058113D01*
X-26405859Y7972642D01*
X-26514642Y7863859D01*
X-26600113Y7735942D01*
X-26658987Y7593809D01*
X-26689000Y7442922D01*
X-26689000Y7430664D01*
X-26708790Y7393640D01*
X-26744871Y7274696D01*
X-26757053Y7150999D01*
X-26754000Y7119999D01*
X-26754000Y1577473D01*
X-26756307Y1589069D01*
X-26849102Y1813097D01*
X-26983820Y2014717D01*
X-27155283Y2186180D01*
X-27356903Y2320898D01*
X-27580931Y2413693D01*
X-27818757Y2461000D01*
X-28061243Y2461000D01*
X-28299069Y2413693D01*
X-28523097Y2320898D01*
X-28724717Y2186180D01*
X-28896180Y2014717D01*
X-28940000Y1949136D01*
X-28983820Y2014717D01*
X-29155283Y2186180D01*
X-29356903Y2320898D01*
X-29580931Y2413693D01*
X-29818757Y2461000D01*
X-30061243Y2461000D01*
X-30299069Y2413693D01*
X-30523097Y2320898D01*
X-30724717Y2186180D01*
X-30896180Y2014717D01*
X-31030898Y1813097D01*
X-31123693Y1589069D01*
X-31171000Y1351243D01*
X-31171000Y1108757D01*
X-31123693Y870931D01*
X-31030898Y646903D01*
X-30896180Y445283D01*
X-30724717Y273820D01*
X-30523097Y139102D01*
X-30299069Y46307D01*
X-30061243Y-1000D01*
X-29818757Y-1000D01*
X-29580931Y46307D01*
X-29356903Y139102D01*
X-29155283Y273820D01*
X-28983820Y445283D01*
X-28940000Y510864D01*
X-28896180Y445283D01*
X-28724717Y273820D01*
X-28523097Y139102D01*
X-28299069Y46307D01*
X-28061243Y-1000D01*
X-27818757Y-1000D01*
X-27580931Y46307D01*
X-27356903Y139102D01*
X-27155283Y273820D01*
X-26983820Y445283D01*
X-26849102Y646903D01*
X-26756307Y870931D01*
X-26754001Y882526D01*
X-26754001Y-240375D01*
X-26771678Y-207304D01*
X-26819289Y-149289D01*
X-26877304Y-101678D01*
X-26943492Y-66299D01*
X-27015311Y-44513D01*
X-27090000Y-37157D01*
X-28790000Y-37157D01*
X-28864689Y-44513D01*
X-28936508Y-66299D01*
X-29002696Y-101678D01*
X-29060711Y-149289D01*
X-29108322Y-207304D01*
X-29143701Y-273492D01*
X-29154024Y-307524D01*
X-29155578Y-305970D01*
X-29227506Y-377898D01*
X-29319523Y-199922D01*
X-29540207Y-99434D01*
X-29776255Y-43931D01*
X-30018596Y-35544D01*
X-30257917Y-74598D01*
X-30485020Y-159589D01*
X-30560477Y-199922D01*
X-30652495Y-377900D01*
X-29940000Y-1090395D01*
X-29925858Y-1076253D01*
X-29746253Y-1255858D01*
X-29760395Y-1270000D01*
X-29746253Y-1284143D01*
X-29925858Y-1463748D01*
X-29940000Y-1449605D01*
X-30652495Y-2162100D01*
X-30652030Y-2163000D01*
X-35171631Y-2163000D01*
X-35986035Y-1348596D01*
X-31174456Y-1348596D01*
X-31135402Y-1587917D01*
X-31050411Y-1815020D01*
X-31010078Y-1890477D01*
X-30832100Y-1982495D01*
X-30119605Y-1270000D01*
X-30832100Y-557505D01*
X-31010078Y-649523D01*
X-31110566Y-870207D01*
X-31166069Y-1106255D01*
X-31174456Y-1348596D01*
X-35986035Y-1348596D01*
X-36199000Y-1135632D01*
X-36199000Y6209885D01*
X-34781000Y6209885D01*
X-34781000Y5790115D01*
X-34699107Y5378410D01*
X-34538468Y4990593D01*
X-34305256Y4641567D01*
X-34008433Y4344744D01*
X-33659407Y4111532D01*
X-33271590Y3950893D01*
X-32859885Y3869000D01*
X-32440115Y3869000D01*
X-32028410Y3950893D01*
X-31640593Y4111532D01*
X-31291567Y4344744D01*
X-30994744Y4641567D01*
X-30761532Y4990593D01*
X-30600893Y5378410D01*
X-30519000Y5790115D01*
X-30519000Y6209885D01*
X-30600893Y6621590D01*
X-30761532Y7009407D01*
X-30994744Y7358433D01*
X-31291567Y7655256D01*
X-31640593Y7888468D01*
X-32028410Y8049107D01*
X-32440115Y8131000D01*
X-32859885Y8131000D01*
X-33271590Y8049107D01*
X-33659407Y7888468D01*
X-34008433Y7655256D01*
X-34305256Y7358433D01*
X-34538468Y7009407D01*
X-34699107Y6621590D01*
X-34781000Y6209885D01*
X-36199000Y6209885D01*
X-36199000Y8174601D01*
X-36137887Y8266064D01*
X-36079013Y8408197D01*
X-36049000Y8559084D01*
X-36049000Y8712928D01*
X-36079013Y8863815D01*
X-36137887Y9005948D01*
X-36223358Y9133865D01*
X-36332141Y9242648D01*
X-36460058Y9328119D01*
X-36602191Y9386993D01*
X-36753078Y9417006D01*
X-36906922Y9417006D01*
X-37057809Y9386993D01*
X-37199942Y9328119D01*
X-37327859Y9242648D01*
X-37436642Y9133865D01*
X-37522113Y9005948D01*
X-37580987Y8863815D01*
X-37611000Y8712928D01*
X-39869000Y8712928D01*
X-39869000Y12141922D01*
X-10814000Y12141922D01*
X-10814000Y11988078D01*
X-10783987Y11837191D01*
X-10725113Y11695058D01*
X-10639642Y11567141D01*
X-10530859Y11458358D01*
X-10402942Y11372887D01*
X-10260809Y11314013D01*
X-10109922Y11284000D01*
X-9956078Y11284000D01*
X-9805191Y11314013D01*
X-9663058Y11372887D01*
X-9535141Y11458358D01*
X-9426358Y11567141D01*
X-9340887Y11695058D01*
X-9282013Y11837191D01*
X-9252000Y11988078D01*
X-9252000Y12027559D01*
X-5897072Y12027559D01*
X-5925333Y11885480D01*
X-5925333Y11731636D01*
X-5895320Y11580749D01*
X-5836446Y11438616D01*
X-5750975Y11310699D01*
X-5642192Y11201916D01*
X-5641923Y11201737D01*
X-5645113Y11196963D01*
X-5703987Y11054830D01*
X-5734000Y10903943D01*
X-5734000Y10807501D01*
X-5807423Y10846747D01*
X-5902805Y10875680D01*
X-5977144Y10883002D01*
X-5977152Y10883002D01*
X-6001998Y10885449D01*
X-6026844Y10883002D01*
X-7378153Y10883002D01*
X-7402999Y10885449D01*
X-7427845Y10883002D01*
X-7427852Y10883002D01*
X-7492304Y10876654D01*
X-7502192Y10875680D01*
X-7514580Y10871922D01*
X-7597573Y10846747D01*
X-7685477Y10799761D01*
X-7762525Y10736529D01*
X-7778370Y10717222D01*
X-7808592Y10687000D01*
X-7950922Y10687000D01*
X-8101809Y10656987D01*
X-8243942Y10598113D01*
X-8371859Y10512642D01*
X-8480642Y10403859D01*
X-8566113Y10275942D01*
X-8624987Y10133809D01*
X-8655000Y9982922D01*
X-8655000Y9829078D01*
X-8624987Y9678191D01*
X-8566113Y9536058D01*
X-8480642Y9408141D01*
X-8371859Y9299358D01*
X-8243942Y9213887D01*
X-8101809Y9155013D01*
X-7950922Y9125000D01*
X-7797078Y9125000D01*
X-7646191Y9155013D01*
X-7504058Y9213887D01*
X-7376141Y9299358D01*
X-7267358Y9408141D01*
X-7181887Y9536058D01*
X-7130999Y9658911D01*
X-7130999Y9575079D01*
X-7100986Y9424192D01*
X-7042112Y9282059D01*
X-6956641Y9154142D01*
X-6847858Y9045359D01*
X-6719941Y8959888D01*
X-6577808Y8901014D01*
X-6426921Y8871001D01*
X-6273077Y8871001D01*
X-6122190Y8901014D01*
X-5980057Y8959888D01*
X-5852140Y9045359D01*
X-5751497Y9146002D01*
X4576001Y9146000D01*
X4576000Y8505000D01*
X-9444595Y8505000D01*
X-9536058Y8566113D01*
X-9678191Y8624987D01*
X-9829078Y8655000D01*
X-9982922Y8655000D01*
X-10133809Y8624987D01*
X-10275942Y8566113D01*
X-10403859Y8480642D01*
X-10512642Y8371859D01*
X-10598113Y8243942D01*
X-10656987Y8101809D01*
X-10687000Y7950922D01*
X-10687000Y7797078D01*
X-10656987Y7646191D01*
X-10598113Y7504058D01*
X-10512642Y7376141D01*
X-10403859Y7267358D01*
X-10275942Y7181887D01*
X-10133809Y7123013D01*
X-9982922Y7093000D01*
X-9829078Y7093000D01*
X-9678191Y7123013D01*
X-9536058Y7181887D01*
X-9444595Y7243000D01*
X4576001Y7243000D01*
X4576000Y5093591D01*
X4572948Y5062601D01*
X4576000Y5031611D01*
X4576000Y5031604D01*
X4585130Y4938904D01*
X4621211Y4819960D01*
X4679804Y4710341D01*
X4758657Y4614258D01*
X4782737Y4594496D01*
X5316233Y4060999D01*
X4462843Y4060999D01*
X4462843Y4880000D01*
X4455487Y4954689D01*
X4433701Y5026508D01*
X4405108Y5080000D01*
X4433701Y5133492D01*
X4455487Y5205311D01*
X4462843Y5280000D01*
X4462843Y6280000D01*
X4455487Y6354689D01*
X4433701Y6426508D01*
X4398322Y6492696D01*
X4350711Y6550711D01*
X4292696Y6598322D01*
X4226508Y6633701D01*
X4154689Y6655487D01*
X4080000Y6662843D01*
X2580000Y6662843D01*
X2505311Y6655487D01*
X2433492Y6633701D01*
X2367304Y6598322D01*
X2309289Y6550711D01*
X2261678Y6492696D01*
X2226299Y6426508D01*
X2204513Y6354689D01*
X2197748Y6286000D01*
X2089824Y6286000D01*
X2064978Y6288447D01*
X2040132Y6286000D01*
X2040125Y6286000D01*
X1979208Y6280000D01*
X1965785Y6278678D01*
X1870404Y6249745D01*
X1782500Y6202759D01*
X1705452Y6139527D01*
X1689608Y6120221D01*
X1684387Y6115000D01*
X1542057Y6115000D01*
X1391170Y6084987D01*
X1249037Y6026113D01*
X1121120Y5940642D01*
X1012337Y5831859D01*
X926866Y5703942D01*
X917688Y5681785D01*
X782127Y5708750D01*
X628283Y5708750D01*
X477396Y5678737D01*
X335263Y5619863D01*
X207346Y5534392D01*
X98563Y5425609D01*
X13092Y5297692D01*
X-45782Y5155559D01*
X-49000Y5139381D01*
X-49000Y5207002D01*
X-144248Y5207002D01*
X-49000Y5302250D01*
X-47157Y5830000D01*
X-54513Y5904689D01*
X-76299Y5976508D01*
X-111678Y6042696D01*
X-159289Y6100711D01*
X-217304Y6148322D01*
X-283492Y6183701D01*
X-355311Y6205487D01*
X-430000Y6212843D01*
X-957750Y6211000D01*
X-1053000Y6115750D01*
X-1053000Y5207000D01*
X-1033000Y5207000D01*
X-1033000Y4953000D01*
X-1053000Y4953000D01*
X-1053000Y4933000D01*
X-1307000Y4933000D01*
X-1307000Y4953000D01*
X-1327000Y4953000D01*
X-1327000Y5207000D01*
X-1307000Y5207000D01*
X-1307000Y6115750D01*
X-1402250Y6211000D01*
X-1930000Y6212843D01*
X-2004689Y6205487D01*
X-2076508Y6183701D01*
X-2142696Y6148322D01*
X-2200711Y6100711D01*
X-2248322Y6042696D01*
X-2283701Y5976508D01*
X-2305487Y5904689D01*
X-2312843Y5830000D01*
X-2312663Y5778577D01*
X-2439191Y5830987D01*
X-2590078Y5861000D01*
X-2743922Y5861000D01*
X-2894809Y5830987D01*
X-3036942Y5772113D01*
X-3164859Y5686642D01*
X-3180643Y5670858D01*
X-3203362Y5704859D01*
X-3312145Y5813642D01*
X-3440062Y5899113D01*
X-3582195Y5957987D01*
X-3733082Y5988000D01*
X-3886926Y5988000D01*
X-4037813Y5957987D01*
X-4179946Y5899113D01*
X-4307863Y5813642D01*
X-4416646Y5704859D01*
X-4502117Y5576942D01*
X-4560991Y5434809D01*
X-4591004Y5283922D01*
X-4591004Y5130078D01*
X-4560991Y4979191D01*
X-4502117Y4837058D01*
X-4416646Y4709141D01*
X-4316004Y4608499D01*
X-4316003Y3015858D01*
X-4318451Y2991002D01*
X-4308682Y2891810D01*
X-4279749Y2796428D01*
X-4262825Y2764767D01*
X-4232762Y2708523D01*
X-4169530Y2631475D01*
X-4150223Y2615630D01*
X-1722840Y188246D01*
X-1706995Y168939D01*
X-1629947Y105707D01*
X-1542043Y58721D01*
X-1446661Y29788D01*
X-1347468Y20018D01*
X-1322614Y22466D01*
X15009941Y22466D01*
X19919998Y-4887592D01*
X19919998Y-5029922D01*
X19950011Y-5180809D01*
X20008885Y-5322942D01*
X20094356Y-5450859D01*
X20203139Y-5559642D01*
X20331056Y-5645113D01*
X20473189Y-5703987D01*
X20624076Y-5734000D01*
X20777920Y-5734000D01*
X20928807Y-5703987D01*
X21070940Y-5645113D01*
X21198857Y-5559642D01*
X21307640Y-5450859D01*
X21380919Y-5341189D01*
X21418395Y-5366230D01*
X21560528Y-5425104D01*
X21711415Y-5455117D01*
X21865259Y-5455117D01*
X22016146Y-5425104D01*
X22158279Y-5366230D01*
X22286196Y-5280759D01*
X22394979Y-5171976D01*
X22480450Y-5044059D01*
X22539324Y-4901926D01*
X22543594Y-4880458D01*
X22607740Y-4914745D01*
X22680922Y-4936944D01*
X22703121Y-4943678D01*
X22713009Y-4944652D01*
X22777461Y-4951000D01*
X22777468Y-4951000D01*
X22802314Y-4953447D01*
X22827160Y-4951000D01*
X23150499Y-4951000D01*
X23251141Y-5051642D01*
X23379058Y-5137113D01*
X23521191Y-5195987D01*
X23672078Y-5226000D01*
X23825922Y-5226000D01*
X23976809Y-5195987D01*
X24118942Y-5137113D01*
X24163255Y-5107504D01*
X24199887Y-5195942D01*
X24285358Y-5323859D01*
X24394141Y-5432642D01*
X24522058Y-5518113D01*
X24664191Y-5576987D01*
X24815078Y-5607000D01*
X24968922Y-5607000D01*
X25119809Y-5576987D01*
X25261942Y-5518113D01*
X25389859Y-5432642D01*
X25498642Y-5323859D01*
X25584113Y-5195942D01*
X25642987Y-5053809D01*
X25673000Y-4902922D01*
X25673000Y-4749078D01*
X25642987Y-4598191D01*
X25584113Y-4456058D01*
X25498642Y-4328141D01*
X25397130Y-4226629D01*
X25390678Y-4161122D01*
X25389812Y-4158265D01*
X25361745Y-4065740D01*
X25350258Y-4044250D01*
X25314759Y-3977836D01*
X25251527Y-3900788D01*
X25232220Y-3884943D01*
X24727060Y-3379784D01*
X24711211Y-3360472D01*
X24634163Y-3297240D01*
X24546259Y-3250254D01*
X24450877Y-3221321D01*
X24376538Y-3213999D01*
X24376530Y-3213999D01*
X24351684Y-3211552D01*
X24326838Y-3213999D01*
X22979591Y-3213999D01*
X17546877Y2218714D01*
X17531028Y2238026D01*
X17453980Y2301258D01*
X17366076Y2348244D01*
X17270694Y2377177D01*
X17196355Y2384499D01*
X17196347Y2384499D01*
X17171501Y2386946D01*
X17146655Y2384499D01*
X13227000Y2384499D01*
X13227000Y2456900D01*
X13198737Y2598988D01*
X13881640Y2598988D01*
X13906486Y2596541D01*
X13931332Y2598988D01*
X13931340Y2598988D01*
X14005679Y2606310D01*
X14101061Y2635243D01*
X14188965Y2682229D01*
X14266013Y2745461D01*
X14281862Y2764773D01*
X14662077Y3144987D01*
X20898141Y3144987D01*
X20922987Y3142540D01*
X20947833Y3144987D01*
X20947841Y3144987D01*
X21022180Y3152309D01*
X21117562Y3181242D01*
X21205466Y3228228D01*
X21282514Y3291460D01*
X21298363Y3310772D01*
X22667592Y4680000D01*
X22809922Y4680000D01*
X22960809Y4710013D01*
X23102942Y4768887D01*
X23230859Y4854358D01*
X23339642Y4963141D01*
X23425113Y5091058D01*
X23483987Y5233191D01*
X23514000Y5384078D01*
X23514000Y5537922D01*
X23483987Y5688809D01*
X23425113Y5830942D01*
X23339642Y5958859D01*
X23230859Y6067642D01*
X23185425Y6098000D01*
X23920409Y6098000D01*
X25021001Y4997407D01*
X25021000Y-2068499D01*
X24920358Y-2169141D01*
X24834887Y-2297058D01*
X24776013Y-2439191D01*
X24746000Y-2590078D01*
X24746000Y-2743922D01*
X24776013Y-2894809D01*
X24834887Y-3036942D01*
X24920358Y-3164859D01*
X25029141Y-3273642D01*
X25157058Y-3359113D01*
X25299191Y-3417987D01*
X25450078Y-3448000D01*
X25603922Y-3448000D01*
X25754809Y-3417987D01*
X25896942Y-3359113D01*
X26024859Y-3273642D01*
X26133642Y-3164859D01*
X26219113Y-3036942D01*
X26277987Y-2894809D01*
X26308000Y-2743922D01*
X26308000Y-2590078D01*
X26277987Y-2439191D01*
X26219113Y-2297058D01*
X26133642Y-2169141D01*
X26033000Y-2068499D01*
X26033000Y5182155D01*
X26035447Y5207001D01*
X26033000Y5231847D01*
X26033000Y5231854D01*
X26025678Y5306193D01*
X25996745Y5401575D01*
X25949759Y5489479D01*
X25886527Y5566527D01*
X25867220Y5582372D01*
X24505376Y6944215D01*
X24489527Y6963527D01*
X24412479Y7026759D01*
X24324575Y7073745D01*
X24229193Y7102678D01*
X24154854Y7110000D01*
X24154846Y7110000D01*
X24130000Y7112447D01*
X24105154Y7110000D01*
X21049841Y7110000D01*
X21024995Y7112447D01*
X21000149Y7110000D01*
X21000142Y7110000D01*
X20935690Y7103652D01*
X20925802Y7102678D01*
X20834865Y7075093D01*
X20830421Y7073745D01*
X20742517Y7026759D01*
X20665469Y6963527D01*
X20649624Y6944220D01*
X20166003Y6460599D01*
X20166003Y6507925D01*
X20135990Y6658812D01*
X20077116Y6800945D01*
X19991645Y6928862D01*
X19882862Y7037645D01*
X19754945Y7123116D01*
X19612812Y7181990D01*
X19461925Y7212003D01*
X19308081Y7212003D01*
X19157194Y7181990D01*
X19015061Y7123116D01*
X18887144Y7037645D01*
X18786502Y6937003D01*
X16976841Y6937003D01*
X16972966Y6946357D01*
X16887495Y7074274D01*
X16778712Y7183057D01*
X16650795Y7268528D01*
X16508662Y7327402D01*
X16357775Y7357415D01*
X16203931Y7357415D01*
X16053044Y7327402D01*
X15910911Y7268528D01*
X15782994Y7183057D01*
X15674211Y7074274D01*
X15588740Y6946357D01*
X15529866Y6804224D01*
X15499853Y6653337D01*
X15499853Y6499493D01*
X15529866Y6348606D01*
X15588740Y6206473D01*
X15674211Y6078556D01*
X15739633Y6013134D01*
X15631141Y5940642D01*
X15522358Y5831859D01*
X15436887Y5703942D01*
X15378013Y5561809D01*
X15348000Y5410922D01*
X15348000Y5257078D01*
X15378013Y5106191D01*
X15436887Y4964058D01*
X15522358Y4836141D01*
X15631141Y4727358D01*
X15759058Y4641887D01*
X15843287Y4606998D01*
X14290930Y4606998D01*
X14266084Y4609445D01*
X14241238Y4606998D01*
X14241231Y4606998D01*
X14176779Y4600650D01*
X14166891Y4599676D01*
X14109085Y4582141D01*
X14071510Y4570743D01*
X13983606Y4523757D01*
X13906558Y4460525D01*
X13890714Y4441219D01*
X13510495Y4060999D01*
X7962843Y4060999D01*
X7962843Y4880000D01*
X7955487Y4954689D01*
X7933701Y5026508D01*
X7905108Y5080000D01*
X7933701Y5133492D01*
X7955487Y5205311D01*
X7962236Y5273841D01*
X7963848Y5274000D01*
X7963856Y5274000D01*
X8038195Y5281322D01*
X8133577Y5310255D01*
X8221481Y5357241D01*
X8298529Y5420473D01*
X8314378Y5439785D01*
X10221594Y7347000D01*
X10363924Y7347000D01*
X10514811Y7377013D01*
X10656944Y7435887D01*
X10784861Y7521358D01*
X10893644Y7630141D01*
X10979115Y7758058D01*
X11037989Y7900191D01*
X11068002Y8051078D01*
X11068002Y8204922D01*
X11037989Y8355809D01*
X10979115Y8497942D01*
X10893644Y8625859D01*
X10784861Y8734642D01*
X10656944Y8820113D01*
X10514811Y8878987D01*
X10363924Y8909000D01*
X10210080Y8909000D01*
X10059193Y8878987D01*
X9917060Y8820113D01*
X9789143Y8734642D01*
X9680360Y8625859D01*
X9594889Y8497942D01*
X9536015Y8355809D01*
X9506002Y8204922D01*
X9506002Y8062592D01*
X7911484Y6468073D01*
X7898322Y6492696D01*
X7850711Y6550711D01*
X7792696Y6598322D01*
X7726508Y6633701D01*
X7654689Y6655487D01*
X7580000Y6662843D01*
X6080000Y6662843D01*
X6005311Y6655487D01*
X5933492Y6633701D01*
X5867304Y6598322D01*
X5838000Y6574273D01*
X5838000Y7843003D01*
X5841053Y7874000D01*
X5838000Y7904998D01*
X5838000Y9009632D01*
X6230369Y9402000D01*
X14216632Y9402000D01*
X15229553Y8389079D01*
X15251013Y8281191D01*
X15309887Y8139058D01*
X15395358Y8011141D01*
X15504141Y7902358D01*
X15632058Y7816887D01*
X15774191Y7758013D01*
X15925078Y7728000D01*
X16078922Y7728000D01*
X16229809Y7758013D01*
X16371942Y7816887D01*
X16499859Y7902358D01*
X16608642Y8011141D01*
X16694113Y8139058D01*
X16752987Y8281191D01*
X16783000Y8432078D01*
X16783000Y8585922D01*
X16752987Y8736809D01*
X16713553Y8832011D01*
X26188624Y8832011D01*
X26213470Y8829564D01*
X26238316Y8832011D01*
X26238324Y8832011D01*
X26312663Y8839333D01*
X26408045Y8868266D01*
X26495949Y8915252D01*
X26572997Y8978484D01*
X26588846Y8997796D01*
X26949245Y9358195D01*
X27091576Y9358195D01*
X27242463Y9388208D01*
X27384596Y9447082D01*
X27512513Y9532553D01*
X27621296Y9641336D01*
X27706767Y9769253D01*
X27747098Y9866620D01*
X27805620Y9854979D01*
X27959464Y9854979D01*
X28110351Y9884992D01*
X28252484Y9943866D01*
X28380401Y10029337D01*
X28489184Y10138120D01*
X28574655Y10266037D01*
X28593593Y10311756D01*
X28603358Y10297141D01*
X28712141Y10188358D01*
X28840058Y10102887D01*
X28982191Y10044013D01*
X29133078Y10014000D01*
X29286922Y10014000D01*
X29437809Y10044013D01*
X29579942Y10102887D01*
X29707859Y10188358D01*
X29816642Y10297141D01*
X29902113Y10425058D01*
X29960987Y10567191D01*
X29991000Y10718078D01*
X29991000Y10871922D01*
X29960987Y11022809D01*
X29902113Y11164942D01*
X29816642Y11292859D01*
X29707859Y11401642D01*
X29579942Y11487113D01*
X29437809Y11545987D01*
X29286922Y11576000D01*
X29144591Y11576000D01*
X29019387Y11701204D01*
X29003538Y11720516D01*
X28926490Y11783748D01*
X28838586Y11830734D01*
X28743204Y11859667D01*
X28668865Y11866989D01*
X28668857Y11866989D01*
X28644011Y11869436D01*
X28619165Y11866989D01*
X23006000Y11866989D01*
X23006000Y12014922D01*
X22975987Y12165809D01*
X22917113Y12307942D01*
X22831642Y12435859D01*
X22722859Y12544642D01*
X22594942Y12630113D01*
X22452809Y12688987D01*
X22301922Y12719000D01*
X22159592Y12719000D01*
X20739877Y14138714D01*
X20724028Y14158026D01*
X20646980Y14221258D01*
X20559076Y14268244D01*
X20463694Y14297177D01*
X20389355Y14304499D01*
X20389347Y14304499D01*
X20364501Y14306946D01*
X20339655Y14304499D01*
X-4515225Y14304499D01*
X-4540071Y14306946D01*
X-4564917Y14304499D01*
X-4564924Y14304499D01*
X-4629376Y14298151D01*
X-4639264Y14297177D01*
X-4661463Y14290443D01*
X-4734645Y14268244D01*
X-4822549Y14221258D01*
X-4899597Y14158026D01*
X-4915442Y14138719D01*
X-5014592Y14039569D01*
X-5156922Y14039569D01*
X-5307809Y14009556D01*
X-5449942Y13950682D01*
X-5577859Y13865211D01*
X-5686642Y13756428D01*
X-5772113Y13628511D01*
X-5830987Y13486378D01*
X-5861000Y13335491D01*
X-5861000Y13181647D01*
X-5832737Y13039559D01*
X-9539596Y13039559D01*
X-9564442Y13042006D01*
X-9589288Y13039559D01*
X-9589295Y13039559D01*
X-9663634Y13032237D01*
X-9759016Y13003304D01*
X-9846920Y12956318D01*
X-9923968Y12893086D01*
X-9939817Y12873774D01*
X-9967591Y12846000D01*
X-10109922Y12846000D01*
X-10260809Y12815987D01*
X-10402942Y12757113D01*
X-10530859Y12671642D01*
X-10639642Y12562859D01*
X-10725113Y12434942D01*
X-10783987Y12292809D01*
X-10814000Y12141922D01*
X-39869000Y12141922D01*
X-39869000Y15464885D01*
X-27266000Y15464885D01*
X-27266000Y15045115D01*
X-27184107Y14633410D01*
X-27023468Y14245593D01*
X-26790256Y13896567D01*
X-26493433Y13599744D01*
X-26144407Y13366532D01*
X-25756590Y13205893D01*
X-25344885Y13124000D01*
X-24925115Y13124000D01*
X-24513410Y13205893D01*
X-24125593Y13366532D01*
X-23776567Y13599744D01*
X-23479744Y13896567D01*
X-23246532Y14245593D01*
X-23085893Y14633410D01*
X-23004000Y15045115D01*
X-23004000Y15464885D01*
X-23085893Y15876590D01*
X-23246532Y16264407D01*
X-23479744Y16613433D01*
X-23776567Y16910256D01*
X-24125593Y17143468D01*
X-24513410Y17304107D01*
X-24794403Y17360000D01*
X-10122843Y17360000D01*
X-10122843Y15660000D01*
X-10115487Y15585311D01*
X-10093701Y15513492D01*
X-10058322Y15447304D01*
X-10010711Y15389289D01*
X-9952696Y15341678D01*
X-9886508Y15306299D01*
X-9814689Y15284513D01*
X-9740000Y15277157D01*
X-8040000Y15277157D01*
X-7965311Y15284513D01*
X-7893492Y15306299D01*
X-7827304Y15341678D01*
X-7769289Y15389289D01*
X-7721678Y15447304D01*
X-7686299Y15513492D01*
X-7664513Y15585311D01*
X-7657157Y15660000D01*
X-7657157Y16631243D01*
X-7581000Y16631243D01*
X-7581000Y16388757D01*
X-7533693Y16150931D01*
X-7440898Y15926903D01*
X-7306180Y15725283D01*
X-7134717Y15553820D01*
X-6933097Y15419102D01*
X-6709069Y15326307D01*
X-6471243Y15279000D01*
X-6228757Y15279000D01*
X-5990931Y15326307D01*
X-5766903Y15419102D01*
X-5565283Y15553820D01*
X-5393820Y15725283D01*
X-5259102Y15926903D01*
X-5166307Y16150931D01*
X-5119000Y16388757D01*
X-5119000Y16631243D01*
X-5041000Y16631243D01*
X-5041000Y16388757D01*
X-4993693Y16150931D01*
X-4900898Y15926903D01*
X-4766180Y15725283D01*
X-4594717Y15553820D01*
X-4393097Y15419102D01*
X-4169069Y15326307D01*
X-3931243Y15279000D01*
X-3688757Y15279000D01*
X-3450931Y15326307D01*
X-3226903Y15419102D01*
X-3025283Y15553820D01*
X-2853820Y15725283D01*
X-2719102Y15926903D01*
X-2626307Y16150931D01*
X-2579000Y16388757D01*
X-2579000Y16631243D01*
X-2501000Y16631243D01*
X-2501000Y16388757D01*
X-2453693Y16150931D01*
X-2360898Y15926903D01*
X-2226180Y15725283D01*
X-2054717Y15553820D01*
X-1853097Y15419102D01*
X-1629069Y15326307D01*
X-1391243Y15279000D01*
X-1148757Y15279000D01*
X-910931Y15326307D01*
X-686903Y15419102D01*
X-485283Y15553820D01*
X-313820Y15725283D01*
X-179102Y15926903D01*
X-86307Y16150931D01*
X-39000Y16388757D01*
X-39000Y16631243D01*
X39000Y16631243D01*
X39000Y16388757D01*
X86307Y16150931D01*
X179102Y15926903D01*
X313820Y15725283D01*
X485283Y15553820D01*
X686903Y15419102D01*
X910931Y15326307D01*
X1148757Y15279000D01*
X1391243Y15279000D01*
X1629069Y15326307D01*
X1853097Y15419102D01*
X2054717Y15553820D01*
X2226180Y15725283D01*
X2360898Y15926903D01*
X2453693Y16150931D01*
X2501000Y16388757D01*
X2501000Y16631243D01*
X2579000Y16631243D01*
X2579000Y16388757D01*
X2626307Y16150931D01*
X2719102Y15926903D01*
X2853820Y15725283D01*
X3025283Y15553820D01*
X3226903Y15419102D01*
X3450931Y15326307D01*
X3688757Y15279000D01*
X3931243Y15279000D01*
X4169069Y15326307D01*
X4393097Y15419102D01*
X4594717Y15553820D01*
X4766180Y15725283D01*
X4900898Y15926903D01*
X4993693Y16150931D01*
X5041000Y16388757D01*
X5041000Y16631243D01*
X5119000Y16631243D01*
X5119000Y16388757D01*
X5166307Y16150931D01*
X5259102Y15926903D01*
X5393820Y15725283D01*
X5565283Y15553820D01*
X5766903Y15419102D01*
X5990931Y15326307D01*
X6228757Y15279000D01*
X6471243Y15279000D01*
X6709069Y15326307D01*
X6933097Y15419102D01*
X7134717Y15553820D01*
X7306180Y15725283D01*
X7440898Y15926903D01*
X7533693Y16150931D01*
X7581000Y16388757D01*
X7581000Y16631243D01*
X7659000Y16631243D01*
X7659000Y16388757D01*
X7706307Y16150931D01*
X7799102Y15926903D01*
X7933820Y15725283D01*
X8105283Y15553820D01*
X8306903Y15419102D01*
X8530931Y15326307D01*
X8768757Y15279000D01*
X9011243Y15279000D01*
X9249069Y15326307D01*
X9473097Y15419102D01*
X9541616Y15464885D01*
X22934000Y15464885D01*
X22934000Y15045115D01*
X23015893Y14633410D01*
X23176532Y14245593D01*
X23409744Y13896567D01*
X23706567Y13599744D01*
X24055593Y13366532D01*
X24443410Y13205893D01*
X24855115Y13124000D01*
X25274885Y13124000D01*
X25686590Y13205893D01*
X26074407Y13366532D01*
X26423433Y13599744D01*
X26720256Y13896567D01*
X26953468Y14245593D01*
X27114107Y14633410D01*
X27196000Y15045115D01*
X27196000Y15464885D01*
X27114107Y15876590D01*
X26953468Y16264407D01*
X26720256Y16613433D01*
X26423433Y16910256D01*
X26074407Y17143468D01*
X25686590Y17304107D01*
X25274885Y17386000D01*
X24855115Y17386000D01*
X24443410Y17304107D01*
X24055593Y17143468D01*
X23706567Y16910256D01*
X23409744Y16613433D01*
X23176532Y16264407D01*
X23015893Y15876590D01*
X22934000Y15464885D01*
X9541616Y15464885D01*
X9674717Y15553820D01*
X9846180Y15725283D01*
X9980898Y15926903D01*
X10073693Y16150931D01*
X10121000Y16388757D01*
X10121000Y16631243D01*
X10073693Y16869069D01*
X9980898Y17093097D01*
X9846180Y17294717D01*
X9674717Y17466180D01*
X9473097Y17600898D01*
X9249069Y17693693D01*
X9011243Y17741000D01*
X8768757Y17741000D01*
X8530931Y17693693D01*
X8306903Y17600898D01*
X8105283Y17466180D01*
X7933820Y17294717D01*
X7799102Y17093097D01*
X7706307Y16869069D01*
X7659000Y16631243D01*
X7581000Y16631243D01*
X7533693Y16869069D01*
X7440898Y17093097D01*
X7306180Y17294717D01*
X7134717Y17466180D01*
X6933097Y17600898D01*
X6709069Y17693693D01*
X6471243Y17741000D01*
X6228757Y17741000D01*
X5990931Y17693693D01*
X5766903Y17600898D01*
X5565283Y17466180D01*
X5393820Y17294717D01*
X5259102Y17093097D01*
X5166307Y16869069D01*
X5119000Y16631243D01*
X5041000Y16631243D01*
X4993693Y16869069D01*
X4900898Y17093097D01*
X4766180Y17294717D01*
X4594717Y17466180D01*
X4393097Y17600898D01*
X4169069Y17693693D01*
X3931243Y17741000D01*
X3688757Y17741000D01*
X3450931Y17693693D01*
X3226903Y17600898D01*
X3025283Y17466180D01*
X2853820Y17294717D01*
X2719102Y17093097D01*
X2626307Y16869069D01*
X2579000Y16631243D01*
X2501000Y16631243D01*
X2453693Y16869069D01*
X2360898Y17093097D01*
X2226180Y17294717D01*
X2054717Y17466180D01*
X1853097Y17600898D01*
X1629069Y17693693D01*
X1391243Y17741000D01*
X1148757Y17741000D01*
X910931Y17693693D01*
X686903Y17600898D01*
X485283Y17466180D01*
X313820Y17294717D01*
X179102Y17093097D01*
X86307Y16869069D01*
X39000Y16631243D01*
X-39000Y16631243D01*
X-86307Y16869069D01*
X-179102Y17093097D01*
X-313820Y17294717D01*
X-485283Y17466180D01*
X-686903Y17600898D01*
X-910931Y17693693D01*
X-1148757Y17741000D01*
X-1391243Y17741000D01*
X-1629069Y17693693D01*
X-1853097Y17600898D01*
X-2054717Y17466180D01*
X-2226180Y17294717D01*
X-2360898Y17093097D01*
X-2453693Y16869069D01*
X-2501000Y16631243D01*
X-2579000Y16631243D01*
X-2626307Y16869069D01*
X-2719102Y17093097D01*
X-2853820Y17294717D01*
X-3025283Y17466180D01*
X-3226903Y17600898D01*
X-3450931Y17693693D01*
X-3688757Y17741000D01*
X-3931243Y17741000D01*
X-4169069Y17693693D01*
X-4393097Y17600898D01*
X-4594717Y17466180D01*
X-4766180Y17294717D01*
X-4900898Y17093097D01*
X-4993693Y16869069D01*
X-5041000Y16631243D01*
X-5119000Y16631243D01*
X-5166307Y16869069D01*
X-5259102Y17093097D01*
X-5393820Y17294717D01*
X-5565283Y17466180D01*
X-5766903Y17600898D01*
X-5990931Y17693693D01*
X-6228757Y17741000D01*
X-6471243Y17741000D01*
X-6709069Y17693693D01*
X-6933097Y17600898D01*
X-7134717Y17466180D01*
X-7306180Y17294717D01*
X-7440898Y17093097D01*
X-7533693Y16869069D01*
X-7581000Y16631243D01*
X-7657157Y16631243D01*
X-7657157Y17360000D01*
X-7664513Y17434689D01*
X-7686299Y17506508D01*
X-7721678Y17572696D01*
X-7769289Y17630711D01*
X-7827304Y17678322D01*
X-7893492Y17713701D01*
X-7965311Y17735487D01*
X-8040000Y17742843D01*
X-9740000Y17742843D01*
X-9814689Y17735487D01*
X-9886508Y17713701D01*
X-9952696Y17678322D01*
X-10010711Y17630711D01*
X-10058322Y17572696D01*
X-10093701Y17506508D01*
X-10115487Y17434689D01*
X-10122843Y17360000D01*
X-24794403Y17360000D01*
X-24925115Y17386000D01*
X-25344885Y17386000D01*
X-25756590Y17304107D01*
X-26144407Y17143468D01*
X-26493433Y16910256D01*
X-26790256Y16613433D01*
X-27023468Y16264407D01*
X-27184107Y15876590D01*
X-27266000Y15464885D01*
X-39869000Y15464885D01*
X-39869000Y17274000D01*
X-35836374Y17274000D01*
X-35835532Y17274083D01*
X-35833808Y17274089D01*
X-35812907Y17276213D01*
X-35791902Y17276066D01*
X-35785218Y17276721D01*
X-35103938Y17348326D01*
X-35061276Y17357084D01*
X-35018410Y17365261D01*
X-35011981Y17367202D01*
X-34357584Y17569771D01*
X-34317398Y17586664D01*
X-34276975Y17602996D01*
X-34271045Y17606149D01*
X-33668457Y17931967D01*
X-33632294Y17956360D01*
X-33595837Y17980217D01*
X-33590632Y17984461D01*
X-33062806Y18421117D01*
X-33032103Y18452036D01*
X-33000940Y18482553D01*
X-32996659Y18487728D01*
X-32563698Y19018590D01*
X-32539577Y19054895D01*
X-32514943Y19090872D01*
X-32511748Y19096780D01*
X-32472156Y19171243D01*
X-10121000Y19171243D01*
X-10121000Y18928757D01*
X-10073693Y18690931D01*
X-9980898Y18466903D01*
X-9846180Y18265283D01*
X-9674717Y18093820D01*
X-9473097Y17959102D01*
X-9249069Y17866307D01*
X-9011243Y17819000D01*
X-8768757Y17819000D01*
X-8530931Y17866307D01*
X-8306903Y17959102D01*
X-8105283Y18093820D01*
X-7933820Y18265283D01*
X-7799102Y18466903D01*
X-7706307Y18690931D01*
X-7659000Y18928757D01*
X-7659000Y19171243D01*
X-7581000Y19171243D01*
X-7581000Y18928757D01*
X-7533693Y18690931D01*
X-7440898Y18466903D01*
X-7306180Y18265283D01*
X-7134717Y18093820D01*
X-6933097Y17959102D01*
X-6709069Y17866307D01*
X-6471243Y17819000D01*
X-6228757Y17819000D01*
X-5990931Y17866307D01*
X-5766903Y17959102D01*
X-5565283Y18093820D01*
X-5393820Y18265283D01*
X-5259102Y18466903D01*
X-5166307Y18690931D01*
X-5119000Y18928757D01*
X-5119000Y19171243D01*
X-5041000Y19171243D01*
X-5041000Y18928757D01*
X-4993693Y18690931D01*
X-4900898Y18466903D01*
X-4766180Y18265283D01*
X-4594717Y18093820D01*
X-4393097Y17959102D01*
X-4169069Y17866307D01*
X-3931243Y17819000D01*
X-3688757Y17819000D01*
X-3450931Y17866307D01*
X-3226903Y17959102D01*
X-3025283Y18093820D01*
X-2853820Y18265283D01*
X-2719102Y18466903D01*
X-2626307Y18690931D01*
X-2579000Y18928757D01*
X-2579000Y19171243D01*
X-2501000Y19171243D01*
X-2501000Y18928757D01*
X-2453693Y18690931D01*
X-2360898Y18466903D01*
X-2226180Y18265283D01*
X-2054717Y18093820D01*
X-1853097Y17959102D01*
X-1629069Y17866307D01*
X-1391243Y17819000D01*
X-1148757Y17819000D01*
X-910931Y17866307D01*
X-686903Y17959102D01*
X-485283Y18093820D01*
X-313820Y18265283D01*
X-179102Y18466903D01*
X-86307Y18690931D01*
X-39000Y18928757D01*
X-39000Y19171243D01*
X39000Y19171243D01*
X39000Y18928757D01*
X86307Y18690931D01*
X179102Y18466903D01*
X313820Y18265283D01*
X485283Y18093820D01*
X686903Y17959102D01*
X910931Y17866307D01*
X1148757Y17819000D01*
X1391243Y17819000D01*
X1629069Y17866307D01*
X1853097Y17959102D01*
X2054717Y18093820D01*
X2226180Y18265283D01*
X2360898Y18466903D01*
X2453693Y18690931D01*
X2501000Y18928757D01*
X2501000Y19171243D01*
X2579000Y19171243D01*
X2579000Y18928757D01*
X2626307Y18690931D01*
X2719102Y18466903D01*
X2853820Y18265283D01*
X3025283Y18093820D01*
X3226903Y17959102D01*
X3450931Y17866307D01*
X3688757Y17819000D01*
X3931243Y17819000D01*
X4169069Y17866307D01*
X4393097Y17959102D01*
X4594717Y18093820D01*
X4766180Y18265283D01*
X4900898Y18466903D01*
X4993693Y18690931D01*
X5041000Y18928757D01*
X5041000Y19171243D01*
X5119000Y19171243D01*
X5119000Y18928757D01*
X5166307Y18690931D01*
X5259102Y18466903D01*
X5393820Y18265283D01*
X5565283Y18093820D01*
X5766903Y17959102D01*
X5990931Y17866307D01*
X6228757Y17819000D01*
X6471243Y17819000D01*
X6709069Y17866307D01*
X6933097Y17959102D01*
X7134717Y18093820D01*
X7306180Y18265283D01*
X7440898Y18466903D01*
X7533693Y18690931D01*
X7542064Y18733019D01*
X7700505Y18733019D01*
X7785201Y18507051D01*
X7912353Y18301948D01*
X8077076Y18125592D01*
X8273039Y17984761D01*
X8492712Y17884866D01*
X8573020Y17860511D01*
X8763000Y17921373D01*
X8763000Y18923000D01*
X9017000Y18923000D01*
X9017000Y17921373D01*
X9206980Y17860511D01*
X9287288Y17884866D01*
X9506961Y17984761D01*
X9702924Y18125592D01*
X9867647Y18301948D01*
X9994799Y18507051D01*
X10079495Y18733019D01*
X10019187Y18923000D01*
X9017000Y18923000D01*
X8763000Y18923000D01*
X7760813Y18923000D01*
X7700505Y18733019D01*
X7542064Y18733019D01*
X7581000Y18928757D01*
X7581000Y19171243D01*
X7544933Y19352564D01*
X7785131Y19592763D01*
X7700505Y19366981D01*
X7760813Y19177000D01*
X8763000Y19177000D01*
X8763000Y19197000D01*
X9017000Y19197000D01*
X9017000Y19177000D01*
X10019187Y19177000D01*
X10079495Y19366981D01*
X9994799Y19592949D01*
X9867647Y19798052D01*
X9702924Y19974408D01*
X9543471Y20089001D01*
X13181633Y20089001D01*
X14340555Y18930078D01*
X14362015Y18822191D01*
X14420889Y18680058D01*
X14506360Y18552141D01*
X14615143Y18443358D01*
X14743060Y18357887D01*
X14885193Y18299013D01*
X15036080Y18269000D01*
X15189924Y18269000D01*
X15340811Y18299013D01*
X15482944Y18357887D01*
X15610861Y18443358D01*
X15719644Y18552141D01*
X15805115Y18680058D01*
X15863989Y18822191D01*
X15894002Y18973078D01*
X15894002Y19126922D01*
X15863989Y19277809D01*
X15805115Y19419942D01*
X15719644Y19547859D01*
X15610861Y19656642D01*
X15482944Y19742113D01*
X15340811Y19800987D01*
X15232924Y19822447D01*
X13911106Y21144264D01*
X13891344Y21168344D01*
X13795262Y21247197D01*
X13685643Y21305790D01*
X13566699Y21341871D01*
X13473999Y21351001D01*
X13473991Y21351001D01*
X13443001Y21354053D01*
X13412011Y21351001D01*
X8050988Y21351001D01*
X8020000Y21354053D01*
X7989012Y21351001D01*
X7989003Y21351001D01*
X7896303Y21341871D01*
X7777359Y21305790D01*
X7667740Y21247197D01*
X7606456Y21196902D01*
X7571658Y21168344D01*
X7551900Y21144269D01*
X6652564Y20244933D01*
X6471243Y20281000D01*
X6228757Y20281000D01*
X5990931Y20233693D01*
X5766903Y20140898D01*
X5565283Y20006180D01*
X5393820Y19834717D01*
X5259102Y19633097D01*
X5166307Y19409069D01*
X5119000Y19171243D01*
X5041000Y19171243D01*
X4993693Y19409069D01*
X4900898Y19633097D01*
X4766180Y19834717D01*
X4594717Y20006180D01*
X4393097Y20140898D01*
X4169069Y20233693D01*
X3931243Y20281000D01*
X3688757Y20281000D01*
X3450931Y20233693D01*
X3226903Y20140898D01*
X3025283Y20006180D01*
X2853820Y19834717D01*
X2719102Y19633097D01*
X2626307Y19409069D01*
X2579000Y19171243D01*
X2501000Y19171243D01*
X2453693Y19409069D01*
X2360898Y19633097D01*
X2226180Y19834717D01*
X2054717Y20006180D01*
X1853097Y20140898D01*
X1629069Y20233693D01*
X1391243Y20281000D01*
X1148757Y20281000D01*
X910931Y20233693D01*
X686903Y20140898D01*
X485283Y20006180D01*
X313820Y19834717D01*
X179102Y19633097D01*
X86307Y19409069D01*
X39000Y19171243D01*
X-39000Y19171243D01*
X-86307Y19409069D01*
X-118242Y19486167D01*
X2768591Y22372999D01*
X23901408Y22372999D01*
X27921000Y18353406D01*
X27921000Y18211076D01*
X27951013Y18060189D01*
X28009887Y17918056D01*
X28095358Y17790139D01*
X28204141Y17681356D01*
X28332058Y17595885D01*
X28474191Y17537011D01*
X28625078Y17506998D01*
X28778922Y17506998D01*
X28929809Y17537011D01*
X29071942Y17595885D01*
X29199859Y17681356D01*
X29308642Y17790139D01*
X29394113Y17918056D01*
X29452987Y18060189D01*
X29483000Y18211076D01*
X29483000Y18364920D01*
X29452987Y18515807D01*
X29394113Y18657940D01*
X29308642Y18785857D01*
X29199859Y18894640D01*
X29071942Y18980111D01*
X28929809Y19038985D01*
X28778922Y19068998D01*
X28636592Y19068998D01*
X24486375Y23219214D01*
X24470526Y23238526D01*
X24393478Y23301758D01*
X24305574Y23348744D01*
X24210192Y23377677D01*
X24135853Y23384999D01*
X24135845Y23384999D01*
X24110999Y23387446D01*
X24086153Y23384999D01*
X2583844Y23384999D01*
X2558998Y23387446D01*
X2534152Y23384999D01*
X2534145Y23384999D01*
X2469693Y23378651D01*
X2459805Y23377677D01*
X2437606Y23370943D01*
X2364424Y23348744D01*
X2276520Y23301758D01*
X2199472Y23238526D01*
X2183627Y23219219D01*
X-833833Y20201758D01*
X-910931Y20233693D01*
X-1148757Y20281000D01*
X-1391243Y20281000D01*
X-1629069Y20233693D01*
X-1853097Y20140898D01*
X-2054717Y20006180D01*
X-2226180Y19834717D01*
X-2360898Y19633097D01*
X-2453693Y19409069D01*
X-2501000Y19171243D01*
X-2579000Y19171243D01*
X-2626307Y19409069D01*
X-2719102Y19633097D01*
X-2853820Y19834717D01*
X-3025283Y20006180D01*
X-3226903Y20140898D01*
X-3450931Y20233693D01*
X-3688757Y20281000D01*
X-3931243Y20281000D01*
X-4169069Y20233693D01*
X-4393097Y20140898D01*
X-4594717Y20006180D01*
X-4766180Y19834717D01*
X-4900898Y19633097D01*
X-4993693Y19409069D01*
X-5041000Y19171243D01*
X-5119000Y19171243D01*
X-5166307Y19409069D01*
X-5259102Y19633097D01*
X-5393820Y19834717D01*
X-5565283Y20006180D01*
X-5766903Y20140898D01*
X-5990931Y20233693D01*
X-6228757Y20281000D01*
X-6471243Y20281000D01*
X-6709069Y20233693D01*
X-6933097Y20140898D01*
X-7134717Y20006180D01*
X-7306180Y19834717D01*
X-7440898Y19633097D01*
X-7533693Y19409069D01*
X-7581000Y19171243D01*
X-7659000Y19171243D01*
X-7706307Y19409069D01*
X-7799102Y19633097D01*
X-7933820Y19834717D01*
X-8105283Y20006180D01*
X-8306903Y20140898D01*
X-8530931Y20233693D01*
X-8768757Y20281000D01*
X-9011243Y20281000D01*
X-9249069Y20233693D01*
X-9473097Y20140898D01*
X-9674717Y20006180D01*
X-9846180Y19834717D01*
X-9980898Y19633097D01*
X-10073693Y19409069D01*
X-10121000Y19171243D01*
X-32472156Y19171243D01*
X-32190145Y19701627D01*
X-32173527Y19741946D01*
X-32156358Y19782003D01*
X-32154372Y19788419D01*
X-31956376Y20444213D01*
X-31947908Y20486981D01*
X-31938845Y20529621D01*
X-31938143Y20536300D01*
X-31871296Y21218063D01*
X-31869000Y21241374D01*
X-31869000Y25274000D01*
X31869000Y25274000D01*
X31869001Y21241374D01*
G37*
G04 #@! TD.AperFunction*
M02*
