M48
; DRILL file {KiCad (5.1.9)-1} date 03/07/21 13:30:38
; FORMAT={-:-/ absolute / inch / decimal}
; #@! TF.CreationDate,2021-03-07T13:30:38+01:00
; #@! TF.GenerationSoftware,Kicad,Pcbnew,(5.1.9)-1
; #@! TF.FileFunction,Plated,1,2,PTH
FMAT,2
INCH
T1C0.0157
T2C0.0362
T3C0.0394
T4C0.0917
%
G90
G05
T1
X-1.55Y0.66
X-1.45Y0.34
X-1.33Y0.11
X-1.255Y0.58
X-1.225Y0.125
X-1.2Y0.95
X-1.105Y0.785
X-1.1Y-0.2
X-1.09Y0.455
X-1.025Y0.345
X-1.02Y0.29
X-0.995Y0.0
X-0.95Y0.13
X-0.95Y-0.2
X-0.94Y-0.095
X-0.915Y-0.04
X-0.85Y-0.3
X-0.85Y-0.4
X-0.845Y0.0
X-0.78Y0.785
X-0.76Y0.92
X-0.755Y-0.05
X-0.745Y0.13
X-0.69Y-0.205
X-0.595Y0.115
X-0.595Y-0.11
X-0.57Y0.4
X-0.56Y0.635
X-0.4525Y0.1275
X-0.435Y0.925
X-0.395Y0.475
X-0.39Y0.31
X-0.38Y0.36
X-0.355Y0.265
X-0.3542Y-0.1435
X-0.345Y-0.83
X-0.31Y0.39
X-0.305Y-0.42
X-0.25Y0.38
X-0.215Y0.11
X-0.2025Y0.4649
X-0.2Y0.522
X-0.2Y-0.41
X-0.195Y0.4263
X-0.155Y-0.115
X-0.15Y0.205
X-0.115Y-0.895
X-0.105Y0.2
X-0.1Y0.11
X-0.08Y-0.505
X-0.045Y-0.385
X-0.015Y-0.295
X-0.005Y0.4263
X0.0278Y0.194
X0.0637Y0.21
X0.1Y0.0937
X0.125Y-0.265
X0.15Y0.0937
X0.155Y0.345
X0.22Y-0.14
X0.26Y0.35
X0.31Y-0.13
X0.31Y-0.505
X0.335Y-0.265
X0.335Y-0.37
X0.355Y-0.92
X0.405Y-0.14
X0.405Y0.32
X0.48Y0.605
X0.49Y0.0937
X0.505Y-0.895
X0.515Y-0.355
X0.55Y-0.57
X0.56Y-0.11
X0.57Y0.1025
X0.59Y-0.395
X0.595Y0.75
X0.625Y-0.71
X0.63Y0.335
X0.635Y0.21
X0.641Y0.2589
X0.69Y0.45
X0.705Y0.61
X0.74Y0.45
X0.7632Y0.2532
X0.785Y-0.635
X0.815Y-0.195
X0.82Y0.945
X0.82Y0.855
X0.82Y0.455
X0.83Y0.22
X0.835Y-0.015
X0.8578Y-0.184
X0.875Y0.47
X0.89Y-0.25
X0.895Y0.215
X0.895Y-0.43
X0.935Y-0.175
X0.945Y-0.025
X0.98Y-0.19
X1.005Y-0.105
X1.0636Y0.3992
X1.07Y0.005
X1.08Y-0.22
X1.095Y-0.935
X1.0977Y0.4187
X1.1075Y-0.725
X1.13Y0.72
X1.1439Y-0.7782
X1.1451Y-0.7366
X1.15Y0.425
X1.155Y0.515
X1.195Y0.2
X1.195Y-0.23
X1.21Y0.755
X1.235Y0.45
T2
X-1.1787Y0.0484
X-1.1787Y-0.05
X-1.1Y0.0484
X-1.1Y-0.05
T3
X-0.35Y0.75
X-0.35Y0.65
X-0.25Y0.75
X-0.25Y0.65
X-0.2Y-0.65
X-0.2Y-0.75
X-0.15Y0.75
X-0.15Y0.65
X-0.1Y-0.65
X-0.1Y-0.75
X-0.05Y0.75
X-0.05Y0.65
X0.0Y-0.65
X0.0Y-0.75
X0.05Y0.75
X0.05Y0.65
X0.1Y-0.65
X0.1Y-0.75
X0.15Y0.75
X0.15Y0.65
X0.2Y-0.65
X0.2Y-0.75
X0.25Y0.75
X0.25Y0.65
X0.35Y0.75
X0.35Y0.65
X0.45Y-0.65
X0.45Y-0.75
T4
X-1.2854Y0.2362
X-1.2854Y-0.2378
T0
M30
