G04 #@! TF.GenerationSoftware,KiCad,Pcbnew,(5.1.9)-1*
G04 #@! TF.CreationDate,2021-03-07T13:30:36+01:00*
G04 #@! TF.ProjectId,Minew MS88SF2 breakout,4d696e65-7720-44d5-9338-385346322062,rev?*
G04 #@! TF.SameCoordinates,Original*
G04 #@! TF.FileFunction,Legend,Bot*
G04 #@! TF.FilePolarity,Positive*
%FSLAX46Y46*%
G04 Gerber Fmt 4.6, Leading zero omitted, Abs format (unit mm)*
G04 Created by KiCad (PCBNEW (5.1.9)-1) date 2021-03-07 13:30:36*
%MOMM*%
%LPD*%
G01*
G04 APERTURE LIST*
%ADD10C,0.150000*%
%ADD11C,0.120000*%
G04 APERTURE END LIST*
D10*
X36377619Y12571428D02*
X36330000Y12523809D01*
X36282380Y12428571D01*
X36282380Y12190476D01*
X36330000Y12095238D01*
X36377619Y12047619D01*
X36472857Y12000000D01*
X36568095Y12000000D01*
X36710952Y12047619D01*
X37282380Y12619047D01*
X37282380Y12000000D01*
X36615714Y11142857D02*
X37282380Y11142857D01*
X36234761Y11380952D02*
X36949047Y11619047D01*
X36949047Y11000000D01*
X36282380Y10428571D02*
X36282380Y10333333D01*
X36330000Y10238095D01*
X36377619Y10190476D01*
X36472857Y10142857D01*
X36663333Y10095238D01*
X36901428Y10095238D01*
X37091904Y10142857D01*
X37187142Y10190476D01*
X37234761Y10238095D01*
X37282380Y10333333D01*
X37282380Y10428571D01*
X37234761Y10523809D01*
X37187142Y10571428D01*
X37091904Y10619047D01*
X36901428Y10666666D01*
X36663333Y10666666D01*
X36472857Y10619047D01*
X36377619Y10571428D01*
X36330000Y10523809D01*
X36282380Y10428571D01*
X36377619Y9714285D02*
X36330000Y9666666D01*
X36282380Y9571428D01*
X36282380Y9333333D01*
X36330000Y9238095D01*
X36377619Y9190476D01*
X36472857Y9142857D01*
X36568095Y9142857D01*
X36710952Y9190476D01*
X37282380Y9761904D01*
X37282380Y9142857D01*
X36282380Y8238095D02*
X36282380Y8714285D01*
X36758571Y8761904D01*
X36710952Y8714285D01*
X36663333Y8619047D01*
X36663333Y8380952D01*
X36710952Y8285714D01*
X36758571Y8238095D01*
X36853809Y8190476D01*
X37091904Y8190476D01*
X37187142Y8238095D01*
X37234761Y8285714D01*
X37282380Y8380952D01*
X37282380Y8619047D01*
X37234761Y8714285D01*
X37187142Y8761904D01*
X36282380Y7571428D02*
X36282380Y7476190D01*
X36330000Y7380952D01*
X36377619Y7333333D01*
X36472857Y7285714D01*
X36663333Y7238095D01*
X36901428Y7238095D01*
X37091904Y7285714D01*
X37187142Y7333333D01*
X37234761Y7380952D01*
X37282380Y7476190D01*
X37282380Y7571428D01*
X37234761Y7666666D01*
X37187142Y7714285D01*
X37091904Y7761904D01*
X36901428Y7809523D01*
X36663333Y7809523D01*
X36472857Y7761904D01*
X36377619Y7714285D01*
X36330000Y7666666D01*
X36282380Y7571428D01*
X36282380Y6619047D02*
X36282380Y6523809D01*
X36330000Y6428571D01*
X36377619Y6380952D01*
X36472857Y6333333D01*
X36663333Y6285714D01*
X36901428Y6285714D01*
X37091904Y6333333D01*
X37187142Y6380952D01*
X37234761Y6428571D01*
X37282380Y6523809D01*
X37282380Y6619047D01*
X37234761Y6714285D01*
X37187142Y6761904D01*
X37091904Y6809523D01*
X36901428Y6857142D01*
X36663333Y6857142D01*
X36472857Y6809523D01*
X36377619Y6761904D01*
X36330000Y6714285D01*
X36282380Y6619047D01*
X36282380Y5666666D02*
X36282380Y5571428D01*
X36330000Y5476190D01*
X36377619Y5428571D01*
X36472857Y5380952D01*
X36663333Y5333333D01*
X36901428Y5333333D01*
X37091904Y5380952D01*
X37187142Y5428571D01*
X37234761Y5476190D01*
X37282380Y5571428D01*
X37282380Y5666666D01*
X37234761Y5761904D01*
X37187142Y5809523D01*
X37091904Y5857142D01*
X36901428Y5904761D01*
X36663333Y5904761D01*
X36472857Y5857142D01*
X36377619Y5809523D01*
X36330000Y5761904D01*
X36282380Y5666666D01*
X36282380Y4714285D02*
X36282380Y4619047D01*
X36330000Y4523809D01*
X36377619Y4476190D01*
X36472857Y4428571D01*
X36663333Y4380952D01*
X36901428Y4380952D01*
X37091904Y4428571D01*
X37187142Y4476190D01*
X37234761Y4523809D01*
X37282380Y4619047D01*
X37282380Y4714285D01*
X37234761Y4809523D01*
X37187142Y4857142D01*
X37091904Y4904761D01*
X36901428Y4952380D01*
X36663333Y4952380D01*
X36472857Y4904761D01*
X36377619Y4857142D01*
X36330000Y4809523D01*
X36282380Y4714285D01*
X36282380Y3761904D02*
X36282380Y3666666D01*
X36330000Y3571428D01*
X36377619Y3523809D01*
X36472857Y3476190D01*
X36663333Y3428571D01*
X36901428Y3428571D01*
X37091904Y3476190D01*
X37187142Y3523809D01*
X37234761Y3571428D01*
X37282380Y3666666D01*
X37282380Y3761904D01*
X37234761Y3857142D01*
X37187142Y3904761D01*
X37091904Y3952380D01*
X36901428Y4000000D01*
X36663333Y4000000D01*
X36472857Y3952380D01*
X36377619Y3904761D01*
X36330000Y3857142D01*
X36282380Y3761904D01*
X37282380Y3000000D02*
X36282380Y3000000D01*
X36758571Y3000000D02*
X36758571Y2428571D01*
X37282380Y2428571D02*
X36282380Y2428571D01*
X36615714Y2047619D02*
X36615714Y1523809D01*
X37282380Y2047619D01*
X37282380Y1523809D01*
X36901428Y380952D02*
X36901428Y-380952D01*
X36377619Y-1571428D02*
X36330000Y-1619047D01*
X36282380Y-1714285D01*
X36282380Y-1952380D01*
X36330000Y-2047619D01*
X36377619Y-2095238D01*
X36472857Y-2142857D01*
X36568095Y-2142857D01*
X36710952Y-2095238D01*
X37282380Y-1523809D01*
X37282380Y-2142857D01*
X36615714Y-2999999D02*
X37282380Y-2999999D01*
X36234761Y-2761904D02*
X36949047Y-2523809D01*
X36949047Y-3142857D01*
X36710952Y-3666666D02*
X36663333Y-3571428D01*
X36615714Y-3523809D01*
X36520476Y-3476190D01*
X36472857Y-3476190D01*
X36377619Y-3523809D01*
X36330000Y-3571428D01*
X36282380Y-3666666D01*
X36282380Y-3857142D01*
X36330000Y-3952380D01*
X36377619Y-3999999D01*
X36472857Y-4047619D01*
X36520476Y-4047619D01*
X36615714Y-3999999D01*
X36663333Y-3952380D01*
X36710952Y-3857142D01*
X36710952Y-3666666D01*
X36758571Y-3571428D01*
X36806190Y-3523809D01*
X36901428Y-3476190D01*
X37091904Y-3476190D01*
X37187142Y-3523809D01*
X37234761Y-3571428D01*
X37282380Y-3666666D01*
X37282380Y-3857142D01*
X37234761Y-3952380D01*
X37187142Y-3999999D01*
X37091904Y-4047619D01*
X36901428Y-4047619D01*
X36806190Y-3999999D01*
X36758571Y-3952380D01*
X36710952Y-3857142D01*
X36377619Y-4428571D02*
X36330000Y-4476190D01*
X36282380Y-4571428D01*
X36282380Y-4809523D01*
X36330000Y-4904761D01*
X36377619Y-4952380D01*
X36472857Y-4999999D01*
X36568095Y-4999999D01*
X36710952Y-4952380D01*
X37282380Y-4380952D01*
X37282380Y-4999999D01*
X36282380Y-5904761D02*
X36282380Y-5428571D01*
X36758571Y-5380952D01*
X36710952Y-5428571D01*
X36663333Y-5523809D01*
X36663333Y-5761904D01*
X36710952Y-5857142D01*
X36758571Y-5904761D01*
X36853809Y-5952380D01*
X37091904Y-5952380D01*
X37187142Y-5904761D01*
X37234761Y-5857142D01*
X37282380Y-5761904D01*
X37282380Y-5523809D01*
X37234761Y-5428571D01*
X37187142Y-5380952D01*
X36282380Y-6571428D02*
X36282380Y-6666666D01*
X36330000Y-6761904D01*
X36377619Y-6809523D01*
X36472857Y-6857142D01*
X36663333Y-6904761D01*
X36901428Y-6904761D01*
X37091904Y-6857142D01*
X37187142Y-6809523D01*
X37234761Y-6761904D01*
X37282380Y-6666666D01*
X37282380Y-6571428D01*
X37234761Y-6476190D01*
X37187142Y-6428571D01*
X37091904Y-6380952D01*
X36901428Y-6333333D01*
X36663333Y-6333333D01*
X36472857Y-6380952D01*
X36377619Y-6428571D01*
X36330000Y-6476190D01*
X36282380Y-6571428D01*
X36282380Y-7523809D02*
X36282380Y-7619047D01*
X36330000Y-7714285D01*
X36377619Y-7761904D01*
X36472857Y-7809523D01*
X36663333Y-7857142D01*
X36901428Y-7857142D01*
X37091904Y-7809523D01*
X37187142Y-7761904D01*
X37234761Y-7714285D01*
X37282380Y-7619047D01*
X37282380Y-7523809D01*
X37234761Y-7428571D01*
X37187142Y-7380952D01*
X37091904Y-7333333D01*
X36901428Y-7285714D01*
X36663333Y-7285714D01*
X36472857Y-7333333D01*
X36377619Y-7380952D01*
X36330000Y-7428571D01*
X36282380Y-7523809D01*
X36282380Y-8476190D02*
X36282380Y-8571428D01*
X36330000Y-8666666D01*
X36377619Y-8714285D01*
X36472857Y-8761904D01*
X36663333Y-8809523D01*
X36901428Y-8809523D01*
X37091904Y-8761904D01*
X37187142Y-8714285D01*
X37234761Y-8666666D01*
X37282380Y-8571428D01*
X37282380Y-8476190D01*
X37234761Y-8380952D01*
X37187142Y-8333333D01*
X37091904Y-8285714D01*
X36901428Y-8238095D01*
X36663333Y-8238095D01*
X36472857Y-8285714D01*
X36377619Y-8333333D01*
X36330000Y-8380952D01*
X36282380Y-8476190D01*
X36282380Y-9428571D02*
X36282380Y-9523809D01*
X36330000Y-9619047D01*
X36377619Y-9666666D01*
X36472857Y-9714285D01*
X36663333Y-9761904D01*
X36901428Y-9761904D01*
X37091904Y-9714285D01*
X37187142Y-9666666D01*
X37234761Y-9619047D01*
X37282380Y-9523809D01*
X37282380Y-9428571D01*
X37234761Y-9333333D01*
X37187142Y-9285714D01*
X37091904Y-9238095D01*
X36901428Y-9190476D01*
X36663333Y-9190476D01*
X36472857Y-9238095D01*
X36377619Y-9285714D01*
X36330000Y-9333333D01*
X36282380Y-9428571D01*
X36282380Y-10380952D02*
X36282380Y-10476190D01*
X36330000Y-10571428D01*
X36377619Y-10619047D01*
X36472857Y-10666666D01*
X36663333Y-10714285D01*
X36901428Y-10714285D01*
X37091904Y-10666666D01*
X37187142Y-10619047D01*
X37234761Y-10571428D01*
X37282380Y-10476190D01*
X37282380Y-10380952D01*
X37234761Y-10285714D01*
X37187142Y-10238095D01*
X37091904Y-10190476D01*
X36901428Y-10142857D01*
X36663333Y-10142857D01*
X36472857Y-10190476D01*
X36377619Y-10238095D01*
X36330000Y-10285714D01*
X36282380Y-10380952D01*
X37282380Y-11142857D02*
X36282380Y-11142857D01*
X36758571Y-11142857D02*
X36758571Y-11714285D01*
X37282380Y-11714285D02*
X36282380Y-11714285D01*
X36615714Y-12095238D02*
X36615714Y-12619047D01*
X37282380Y-12095238D01*
X37282380Y-12619047D01*
X23499999Y372619D02*
X23499999Y1372619D01*
X23071428Y372619D02*
X23071428Y896428D01*
X23119047Y991666D01*
X23214285Y1039285D01*
X23357142Y1039285D01*
X23452380Y991666D01*
X23499999Y944047D01*
X22738095Y1039285D02*
X22357142Y1039285D01*
X22595238Y1372619D02*
X22595238Y515476D01*
X22547619Y420238D01*
X22452380Y372619D01*
X22357142Y372619D01*
X22166666Y1039285D02*
X21785714Y1039285D01*
X22023809Y1372619D02*
X22023809Y515476D01*
X21976190Y420238D01*
X21880952Y372619D01*
X21785714Y372619D01*
X21452380Y1039285D02*
X21452380Y39285D01*
X21452380Y991666D02*
X21357142Y1039285D01*
X21166666Y1039285D01*
X21071428Y991666D01*
X21023809Y944047D01*
X20976190Y848809D01*
X20976190Y563095D01*
X21023809Y467857D01*
X21071428Y420238D01*
X21166666Y372619D01*
X21357142Y372619D01*
X21452380Y420238D01*
X20595238Y420238D02*
X20499999Y372619D01*
X20309523Y372619D01*
X20214285Y420238D01*
X20166666Y515476D01*
X20166666Y563095D01*
X20214285Y658333D01*
X20309523Y705952D01*
X20452380Y705952D01*
X20547619Y753571D01*
X20595238Y848809D01*
X20595238Y896428D01*
X20547619Y991666D01*
X20452380Y1039285D01*
X20309523Y1039285D01*
X20214285Y991666D01*
X19738095Y467857D02*
X19690476Y420238D01*
X19738095Y372619D01*
X19785714Y420238D01*
X19738095Y467857D01*
X19738095Y372619D01*
X19738095Y991666D02*
X19690476Y944047D01*
X19738095Y896428D01*
X19785714Y944047D01*
X19738095Y991666D01*
X19738095Y896428D01*
X18547619Y1420238D02*
X19404761Y134523D01*
X17499999Y1420238D02*
X18357142Y134523D01*
X16738095Y1039285D02*
X16738095Y229761D01*
X16785714Y134523D01*
X16833333Y86904D01*
X16928571Y39285D01*
X17071428Y39285D01*
X17166666Y86904D01*
X16738095Y420238D02*
X16833333Y372619D01*
X17023809Y372619D01*
X17119047Y420238D01*
X17166666Y467857D01*
X17214285Y563095D01*
X17214285Y848809D01*
X17166666Y944047D01*
X17119047Y991666D01*
X17023809Y1039285D01*
X16833333Y1039285D01*
X16738095Y991666D01*
X16261904Y372619D02*
X16261904Y1039285D01*
X16261904Y1372619D02*
X16309523Y1325000D01*
X16261904Y1277380D01*
X16214285Y1325000D01*
X16261904Y1372619D01*
X16261904Y1277380D01*
X15928571Y1039285D02*
X15547619Y1039285D01*
X15785714Y1372619D02*
X15785714Y515476D01*
X15738095Y420238D01*
X15642857Y372619D01*
X15547619Y372619D01*
X15214285Y372619D02*
X15214285Y1372619D01*
X14785714Y372619D02*
X14785714Y896428D01*
X14833333Y991666D01*
X14928571Y1039285D01*
X15071428Y1039285D01*
X15166666Y991666D01*
X15214285Y944047D01*
X13880952Y1039285D02*
X13880952Y372619D01*
X14309523Y1039285D02*
X14309523Y515476D01*
X14261904Y420238D01*
X14166666Y372619D01*
X14023809Y372619D01*
X13928571Y420238D01*
X13880952Y467857D01*
X13404761Y372619D02*
X13404761Y1372619D01*
X13404761Y991666D02*
X13309523Y1039285D01*
X13119047Y1039285D01*
X13023809Y991666D01*
X12976190Y944047D01*
X12928571Y848809D01*
X12928571Y563095D01*
X12976190Y467857D01*
X13023809Y420238D01*
X13119047Y372619D01*
X13309523Y372619D01*
X13404761Y420238D01*
X12500000Y467857D02*
X12452380Y420238D01*
X12500000Y372619D01*
X12547619Y420238D01*
X12500000Y467857D01*
X12500000Y372619D01*
X11595238Y420238D02*
X11690476Y372619D01*
X11880952Y372619D01*
X11976190Y420238D01*
X12023809Y467857D01*
X12071428Y563095D01*
X12071428Y848809D01*
X12023809Y944047D01*
X11976190Y991666D01*
X11880952Y1039285D01*
X11690476Y1039285D01*
X11595238Y991666D01*
X11023809Y372619D02*
X11119047Y420238D01*
X11166666Y467857D01*
X11214285Y563095D01*
X11214285Y848809D01*
X11166666Y944047D01*
X11119047Y991666D01*
X11023809Y1039285D01*
X10880952Y1039285D01*
X10785714Y991666D01*
X10738095Y944047D01*
X10690476Y848809D01*
X10690476Y563095D01*
X10738095Y467857D01*
X10785714Y420238D01*
X10880952Y372619D01*
X11023809Y372619D01*
X10261904Y372619D02*
X10261904Y1039285D01*
X10261904Y944047D02*
X10214285Y991666D01*
X10119047Y1039285D01*
X9976190Y1039285D01*
X9880952Y991666D01*
X9833333Y896428D01*
X9833333Y372619D01*
X9833333Y896428D02*
X9785714Y991666D01*
X9690476Y1039285D01*
X9547619Y1039285D01*
X9452380Y991666D01*
X9404761Y896428D01*
X9404761Y372619D01*
X8214285Y1420238D02*
X9071428Y134523D01*
X7452380Y372619D02*
X7452380Y896428D01*
X7500000Y991666D01*
X7595238Y1039285D01*
X7785714Y1039285D01*
X7880952Y991666D01*
X7452380Y420238D02*
X7547619Y372619D01*
X7785714Y372619D01*
X7880952Y420238D01*
X7928571Y515476D01*
X7928571Y610714D01*
X7880952Y705952D01*
X7785714Y753571D01*
X7547619Y753571D01*
X7452380Y801190D01*
X7119047Y1039285D02*
X6738095Y1039285D01*
X6976190Y1372619D02*
X6976190Y515476D01*
X6928571Y420238D01*
X6833333Y372619D01*
X6738095Y372619D01*
X6261904Y372619D02*
X6357142Y420238D01*
X6404761Y467857D01*
X6452380Y563095D01*
X6452380Y848809D01*
X6404761Y944047D01*
X6357142Y991666D01*
X6261904Y1039285D01*
X6119047Y1039285D01*
X6023809Y991666D01*
X5976190Y944047D01*
X5928571Y848809D01*
X5928571Y563095D01*
X5976190Y467857D01*
X6023809Y420238D01*
X6119047Y372619D01*
X6261904Y372619D01*
X5357142Y372619D02*
X5452380Y420238D01*
X5500000Y467857D01*
X5547619Y563095D01*
X5547619Y848809D01*
X5500000Y944047D01*
X5452380Y991666D01*
X5357142Y1039285D01*
X5214285Y1039285D01*
X5119047Y991666D01*
X5071428Y944047D01*
X5023809Y848809D01*
X5023809Y563095D01*
X5071428Y467857D01*
X5119047Y420238D01*
X5214285Y372619D01*
X5357142Y372619D01*
X4595238Y372619D02*
X4595238Y1039285D01*
X4595238Y944047D02*
X4547619Y991666D01*
X4452380Y1039285D01*
X4309523Y1039285D01*
X4214285Y991666D01*
X4166666Y896428D01*
X4166666Y372619D01*
X4166666Y896428D02*
X4119047Y991666D01*
X4023809Y1039285D01*
X3880952Y1039285D01*
X3785714Y991666D01*
X3738095Y896428D01*
X3738095Y372619D01*
X3261904Y1039285D02*
X3261904Y372619D01*
X3261904Y944047D02*
X3214285Y991666D01*
X3119047Y1039285D01*
X2976190Y1039285D01*
X2880952Y991666D01*
X2833333Y896428D01*
X2833333Y372619D01*
X1976190Y420238D02*
X2071428Y372619D01*
X2261904Y372619D01*
X2357142Y420238D01*
X2404761Y515476D01*
X2404761Y896428D01*
X2357142Y991666D01*
X2261904Y1039285D01*
X2071428Y1039285D01*
X1976190Y991666D01*
X1928571Y896428D01*
X1928571Y801190D01*
X2404761Y705952D01*
X1642857Y1039285D02*
X1261904Y1039285D01*
X1500000Y1372619D02*
X1500000Y515476D01*
X1452380Y420238D01*
X1357142Y372619D01*
X1261904Y372619D01*
X928571Y372619D02*
X928571Y1039285D01*
X928571Y944047D02*
X880952Y991666D01*
X785714Y1039285D01*
X642857Y1039285D01*
X547619Y991666D01*
X500000Y896428D01*
X500000Y372619D01*
X500000Y896428D02*
X452380Y991666D01*
X357142Y1039285D01*
X214285Y1039285D01*
X119047Y991666D01*
X71428Y896428D01*
X71428Y372619D01*
X-833333Y372619D02*
X-833333Y896428D01*
X-785714Y991666D01*
X-690476Y1039285D01*
X-499999Y1039285D01*
X-404761Y991666D01*
X-833333Y420238D02*
X-738095Y372619D01*
X-499999Y372619D01*
X-404761Y420238D01*
X-357142Y515476D01*
X-357142Y610714D01*
X-404761Y705952D01*
X-499999Y753571D01*
X-738095Y753571D01*
X-833333Y801190D01*
X-1309523Y372619D02*
X-1309523Y1039285D01*
X-1309523Y848809D02*
X-1357142Y944047D01*
X-1404761Y991666D01*
X-1499999Y1039285D01*
X-1595238Y1039285D01*
X-2357142Y420238D02*
X-2261904Y372619D01*
X-2071428Y372619D01*
X-1976190Y420238D01*
X-1928571Y467857D01*
X-1880952Y563095D01*
X-1880952Y848809D01*
X-1928571Y944047D01*
X-1976190Y991666D01*
X-2071428Y1039285D01*
X-2261904Y1039285D01*
X-2357142Y991666D01*
X-3499999Y1420238D02*
X-2642857Y134523D01*
X-3833333Y372619D02*
X-3833333Y1372619D01*
X-4166666Y658333D01*
X-4499999Y1372619D01*
X-4499999Y372619D01*
X-4976190Y372619D02*
X-4976190Y1039285D01*
X-4976190Y1372619D02*
X-4928571Y1325000D01*
X-4976190Y1277380D01*
X-5023809Y1325000D01*
X-4976190Y1372619D01*
X-4976190Y1277380D01*
X-5452380Y1039285D02*
X-5452380Y372619D01*
X-5452380Y944047D02*
X-5499999Y991666D01*
X-5595238Y1039285D01*
X-5738095Y1039285D01*
X-5833333Y991666D01*
X-5880952Y896428D01*
X-5880952Y372619D01*
X-6738095Y420238D02*
X-6642857Y372619D01*
X-6452380Y372619D01*
X-6357142Y420238D01*
X-6309523Y515476D01*
X-6309523Y896428D01*
X-6357142Y991666D01*
X-6452380Y1039285D01*
X-6642857Y1039285D01*
X-6738095Y991666D01*
X-6785714Y896428D01*
X-6785714Y801190D01*
X-6309523Y705952D01*
X-7119047Y1039285D02*
X-7309523Y372619D01*
X-7499999Y848809D01*
X-7690476Y372619D01*
X-7880952Y1039285D01*
X-8261904Y753571D02*
X-9023809Y753571D01*
X-9499999Y372619D02*
X-9499999Y1372619D01*
X-9833333Y658333D01*
X-10166666Y1372619D01*
X-10166666Y372619D01*
X-10595238Y420238D02*
X-10738095Y372619D01*
X-10976190Y372619D01*
X-11071428Y420238D01*
X-11119047Y467857D01*
X-11166666Y563095D01*
X-11166666Y658333D01*
X-11119047Y753571D01*
X-11071428Y801190D01*
X-10976190Y848809D01*
X-10785714Y896428D01*
X-10690476Y944047D01*
X-10642857Y991666D01*
X-10595238Y1086904D01*
X-10595238Y1182142D01*
X-10642857Y1277380D01*
X-10690476Y1325000D01*
X-10785714Y1372619D01*
X-11023809Y1372619D01*
X-11166666Y1325000D01*
X-11738095Y944047D02*
X-11642857Y991666D01*
X-11595238Y1039285D01*
X-11547619Y1134523D01*
X-11547619Y1182142D01*
X-11595238Y1277380D01*
X-11642857Y1325000D01*
X-11738095Y1372619D01*
X-11928571Y1372619D01*
X-12023809Y1325000D01*
X-12071428Y1277380D01*
X-12119047Y1182142D01*
X-12119047Y1134523D01*
X-12071428Y1039285D01*
X-12023809Y991666D01*
X-11928571Y944047D01*
X-11738095Y944047D01*
X-11642857Y896428D01*
X-11595238Y848809D01*
X-11547619Y753571D01*
X-11547619Y563095D01*
X-11595238Y467857D01*
X-11642857Y420238D01*
X-11738095Y372619D01*
X-11928571Y372619D01*
X-12023809Y420238D01*
X-12071428Y467857D01*
X-12119047Y563095D01*
X-12119047Y753571D01*
X-12071428Y848809D01*
X-12023809Y896428D01*
X-11928571Y944047D01*
X-12690476Y944047D02*
X-12595238Y991666D01*
X-12547619Y1039285D01*
X-12499999Y1134523D01*
X-12499999Y1182142D01*
X-12547619Y1277380D01*
X-12595238Y1325000D01*
X-12690476Y1372619D01*
X-12880952Y1372619D01*
X-12976190Y1325000D01*
X-13023809Y1277380D01*
X-13071428Y1182142D01*
X-13071428Y1134523D01*
X-13023809Y1039285D01*
X-12976190Y991666D01*
X-12880952Y944047D01*
X-12690476Y944047D01*
X-12595238Y896428D01*
X-12547619Y848809D01*
X-12499999Y753571D01*
X-12499999Y563095D01*
X-12547619Y467857D01*
X-12595238Y420238D01*
X-12690476Y372619D01*
X-12880952Y372619D01*
X-12976190Y420238D01*
X-13023809Y467857D01*
X-13071428Y563095D01*
X-13071428Y753571D01*
X-13023809Y848809D01*
X-12976190Y896428D01*
X-12880952Y944047D01*
X-13452380Y420238D02*
X-13595238Y372619D01*
X-13833333Y372619D01*
X-13928571Y420238D01*
X-13976190Y467857D01*
X-14023809Y563095D01*
X-14023809Y658333D01*
X-13976190Y753571D01*
X-13928571Y801190D01*
X-13833333Y848809D01*
X-13642857Y896428D01*
X-13547619Y944047D01*
X-13499999Y991666D01*
X-13452380Y1086904D01*
X-13452380Y1182142D01*
X-13499999Y1277380D01*
X-13547619Y1325000D01*
X-13642857Y1372619D01*
X-13880952Y1372619D01*
X-14023809Y1325000D01*
X-14785714Y896428D02*
X-14452380Y896428D01*
X-14452380Y372619D02*
X-14452380Y1372619D01*
X-14928571Y1372619D01*
X-15261904Y1277380D02*
X-15309523Y1325000D01*
X-15404761Y1372619D01*
X-15642857Y1372619D01*
X-15738095Y1325000D01*
X-15785714Y1277380D01*
X-15833333Y1182142D01*
X-15833333Y1086904D01*
X-15785714Y944047D01*
X-15214285Y372619D01*
X-15833333Y372619D01*
X-16261904Y753571D02*
X-17023809Y753571D01*
X-17499999Y372619D02*
X-17499999Y1372619D01*
X-17499999Y991666D02*
X-17595238Y1039285D01*
X-17785714Y1039285D01*
X-17880952Y991666D01*
X-17928571Y944047D01*
X-17976190Y848809D01*
X-17976190Y563095D01*
X-17928571Y467857D01*
X-17880952Y420238D01*
X-17785714Y372619D01*
X-17595238Y372619D01*
X-17499999Y420238D01*
X-18404761Y372619D02*
X-18404761Y1039285D01*
X-18404761Y848809D02*
X-18452380Y944047D01*
X-18499999Y991666D01*
X-18595238Y1039285D01*
X-18690476Y1039285D01*
X-19404761Y420238D02*
X-19309523Y372619D01*
X-19119047Y372619D01*
X-19023809Y420238D01*
X-18976190Y515476D01*
X-18976190Y896428D01*
X-19023809Y991666D01*
X-19119047Y1039285D01*
X-19309523Y1039285D01*
X-19404761Y991666D01*
X-19452380Y896428D01*
X-19452380Y801190D01*
X-18976190Y705952D01*
X-20309523Y372619D02*
X-20309523Y896428D01*
X-20261904Y991666D01*
X-20166666Y1039285D01*
X-19976190Y1039285D01*
X-19880952Y991666D01*
X-20309523Y420238D02*
X-20214285Y372619D01*
X-19976190Y372619D01*
X-19880952Y420238D01*
X-19833333Y515476D01*
X-19833333Y610714D01*
X-19880952Y705952D01*
X-19976190Y753571D01*
X-20214285Y753571D01*
X-20309523Y801190D01*
X-20785714Y372619D02*
X-20785714Y1372619D01*
X-20880952Y753571D02*
X-21166666Y372619D01*
X-21166666Y1039285D02*
X-20785714Y658333D01*
X-21738095Y372619D02*
X-21642857Y420238D01*
X-21595238Y467857D01*
X-21547619Y563095D01*
X-21547619Y848809D01*
X-21595238Y944047D01*
X-21642857Y991666D01*
X-21738095Y1039285D01*
X-21880952Y1039285D01*
X-21976190Y991666D01*
X-22023809Y944047D01*
X-22071428Y848809D01*
X-22071428Y563095D01*
X-22023809Y467857D01*
X-21976190Y420238D01*
X-21880952Y372619D01*
X-21738095Y372619D01*
X-22928571Y1039285D02*
X-22928571Y372619D01*
X-22499999Y1039285D02*
X-22499999Y515476D01*
X-22547619Y420238D01*
X-22642857Y372619D01*
X-22785714Y372619D01*
X-22880952Y420238D01*
X-22928571Y467857D01*
X-23261904Y1039285D02*
X-23642857Y1039285D01*
X-23404761Y1372619D02*
X-23404761Y515476D01*
X-23452380Y420238D01*
X-23547619Y372619D01*
X-23642857Y372619D01*
X10523809Y-991666D02*
X10047619Y-991666D01*
X10619047Y-1277380D02*
X10285714Y-277380D01*
X9952380Y-1277380D01*
X9619047Y-610714D02*
X9619047Y-1610714D01*
X9619047Y-658333D02*
X9523809Y-610714D01*
X9333333Y-610714D01*
X9238095Y-658333D01*
X9190476Y-705952D01*
X9142857Y-801190D01*
X9142857Y-1086904D01*
X9190476Y-1182142D01*
X9238095Y-1229761D01*
X9333333Y-1277380D01*
X9523809Y-1277380D01*
X9619047Y-1229761D01*
X8285714Y-1277380D02*
X8285714Y-753571D01*
X8333333Y-658333D01*
X8428571Y-610714D01*
X8619047Y-610714D01*
X8714285Y-658333D01*
X8285714Y-1229761D02*
X8380952Y-1277380D01*
X8619047Y-1277380D01*
X8714285Y-1229761D01*
X8761904Y-1134523D01*
X8761904Y-1039285D01*
X8714285Y-944047D01*
X8619047Y-896428D01*
X8380952Y-896428D01*
X8285714Y-848809D01*
X7380952Y-1229761D02*
X7476190Y-1277380D01*
X7666666Y-1277380D01*
X7761904Y-1229761D01*
X7809523Y-1182142D01*
X7857142Y-1086904D01*
X7857142Y-801190D01*
X7809523Y-705952D01*
X7761904Y-658333D01*
X7666666Y-610714D01*
X7476190Y-610714D01*
X7380952Y-658333D01*
X6952380Y-1277380D02*
X6952380Y-277380D01*
X6523809Y-1277380D02*
X6523809Y-753571D01*
X6571428Y-658333D01*
X6666666Y-610714D01*
X6809523Y-610714D01*
X6904761Y-658333D01*
X6952380Y-705952D01*
X5666666Y-1229761D02*
X5761904Y-1277380D01*
X5952380Y-1277380D01*
X6047619Y-1229761D01*
X6095238Y-1134523D01*
X6095238Y-753571D01*
X6047619Y-658333D01*
X5952380Y-610714D01*
X5761904Y-610714D01*
X5666666Y-658333D01*
X5619047Y-753571D01*
X5619047Y-848809D01*
X6095238Y-944047D01*
X3952380Y-1277380D02*
X4428571Y-1277380D01*
X4428571Y-277380D01*
X3619047Y-1277380D02*
X3619047Y-610714D01*
X3619047Y-277380D02*
X3666666Y-325000D01*
X3619047Y-372619D01*
X3571428Y-325000D01*
X3619047Y-277380D01*
X3619047Y-372619D01*
X2714285Y-1229761D02*
X2809523Y-1277380D01*
X3000000Y-1277380D01*
X3095238Y-1229761D01*
X3142857Y-1182142D01*
X3190476Y-1086904D01*
X3190476Y-801190D01*
X3142857Y-705952D01*
X3095238Y-658333D01*
X3000000Y-610714D01*
X2809523Y-610714D01*
X2714285Y-658333D01*
X1904761Y-1229761D02*
X2000000Y-1277380D01*
X2190476Y-1277380D01*
X2285714Y-1229761D01*
X2333333Y-1134523D01*
X2333333Y-753571D01*
X2285714Y-658333D01*
X2190476Y-610714D01*
X2000000Y-610714D01*
X1904761Y-658333D01*
X1857142Y-753571D01*
X1857142Y-848809D01*
X2333333Y-944047D01*
X1428571Y-610714D02*
X1428571Y-1277380D01*
X1428571Y-705952D02*
X1380952Y-658333D01*
X1285714Y-610714D01*
X1142857Y-610714D01*
X1047619Y-658333D01*
X1000000Y-753571D01*
X1000000Y-1277380D01*
X571428Y-1229761D02*
X476190Y-1277380D01*
X285714Y-1277380D01*
X190476Y-1229761D01*
X142857Y-1134523D01*
X142857Y-1086904D01*
X190476Y-991666D01*
X285714Y-944047D01*
X428571Y-944047D01*
X523809Y-896428D01*
X571428Y-801190D01*
X571428Y-753571D01*
X523809Y-658333D01*
X428571Y-610714D01*
X285714Y-610714D01*
X190476Y-658333D01*
X-666666Y-1229761D02*
X-571428Y-1277380D01*
X-380952Y-1277380D01*
X-285714Y-1229761D01*
X-238095Y-1134523D01*
X-238095Y-753571D01*
X-285714Y-658333D01*
X-380952Y-610714D01*
X-571428Y-610714D01*
X-666666Y-658333D01*
X-714285Y-753571D01*
X-714285Y-848809D01*
X-238095Y-944047D01*
X-1190476Y-1229761D02*
X-1190476Y-1277380D01*
X-1142857Y-1372619D01*
X-1095238Y-1420238D01*
X-2238095Y-277380D02*
X-2571428Y-1277380D01*
X-2904761Y-277380D01*
X-3619047Y-1229761D02*
X-3523809Y-1277380D01*
X-3333333Y-1277380D01*
X-3238095Y-1229761D01*
X-3190476Y-1134523D01*
X-3190476Y-753571D01*
X-3238095Y-658333D01*
X-3333333Y-610714D01*
X-3523809Y-610714D01*
X-3619047Y-658333D01*
X-3666666Y-753571D01*
X-3666666Y-848809D01*
X-3190476Y-944047D01*
X-4095238Y-1277380D02*
X-4095238Y-610714D01*
X-4095238Y-801190D02*
X-4142857Y-705952D01*
X-4190476Y-658333D01*
X-4285714Y-610714D01*
X-4380952Y-610714D01*
X-4666666Y-1229761D02*
X-4761904Y-1277380D01*
X-4952380Y-1277380D01*
X-5047619Y-1229761D01*
X-5095238Y-1134523D01*
X-5095238Y-1086904D01*
X-5047619Y-991666D01*
X-4952380Y-944047D01*
X-4809523Y-944047D01*
X-4714285Y-896428D01*
X-4666666Y-801190D01*
X-4666666Y-753571D01*
X-4714285Y-658333D01*
X-4809523Y-610714D01*
X-4952380Y-610714D01*
X-5047619Y-658333D01*
X-5523809Y-1277380D02*
X-5523809Y-610714D01*
X-5523809Y-277380D02*
X-5476190Y-325000D01*
X-5523809Y-372619D01*
X-5571428Y-325000D01*
X-5523809Y-277380D01*
X-5523809Y-372619D01*
X-6142857Y-1277380D02*
X-6047619Y-1229761D01*
X-5999999Y-1182142D01*
X-5952380Y-1086904D01*
X-5952380Y-801190D01*
X-5999999Y-705952D01*
X-6047619Y-658333D01*
X-6142857Y-610714D01*
X-6285714Y-610714D01*
X-6380952Y-658333D01*
X-6428571Y-705952D01*
X-6476190Y-801190D01*
X-6476190Y-1086904D01*
X-6428571Y-1182142D01*
X-6380952Y-1229761D01*
X-6285714Y-1277380D01*
X-6142857Y-1277380D01*
X-6904761Y-610714D02*
X-6904761Y-1277380D01*
X-6904761Y-705952D02*
X-6952380Y-658333D01*
X-7047619Y-610714D01*
X-7190476Y-610714D01*
X-7285714Y-658333D01*
X-7333333Y-753571D01*
X-7333333Y-1277380D01*
X-8523809Y-372619D02*
X-8571428Y-325000D01*
X-8666666Y-277380D01*
X-8904761Y-277380D01*
X-8999999Y-325000D01*
X-9047619Y-372619D01*
X-9095238Y-467857D01*
X-9095238Y-563095D01*
X-9047619Y-705952D01*
X-8476190Y-1277380D01*
X-9095238Y-1277380D01*
X-9523809Y-1182142D02*
X-9571428Y-1229761D01*
X-9523809Y-1277380D01*
X-9476190Y-1229761D01*
X-9523809Y-1182142D01*
X-9523809Y-1277380D01*
X-10190476Y-277380D02*
X-10285714Y-277380D01*
X-10380952Y-325000D01*
X-10428571Y-372619D01*
X-10476190Y-467857D01*
X-10523809Y-658333D01*
X-10523809Y-896428D01*
X-10476190Y-1086904D01*
X-10428571Y-1182142D01*
X-10380952Y-1229761D01*
X-10285714Y-1277380D01*
X-10190476Y-1277380D01*
X-10095238Y-1229761D01*
X-10047619Y-1182142D01*
X-9999999Y-1086904D01*
X-9952380Y-896428D01*
X-9952380Y-658333D01*
X-9999999Y-467857D01*
X-10047619Y-372619D01*
X-10095238Y-325000D01*
X-10190476Y-277380D01*
X13824976Y6785619D02*
X14158309Y7261809D01*
X14396404Y6785619D02*
X14396404Y7785619D01*
X14015452Y7785619D01*
X13920214Y7738000D01*
X13872595Y7690380D01*
X13824976Y7595142D01*
X13824976Y7452285D01*
X13872595Y7357047D01*
X13920214Y7309428D01*
X14015452Y7261809D01*
X14396404Y7261809D01*
X13396404Y6880857D02*
X13348785Y6833238D01*
X13396404Y6785619D01*
X13444023Y6833238D01*
X13396404Y6880857D01*
X13396404Y6785619D01*
X13396404Y7404666D02*
X13348785Y7357047D01*
X13396404Y7309428D01*
X13444023Y7357047D01*
X13396404Y7404666D01*
X13396404Y7309428D01*
X12158309Y6785619D02*
X12158309Y7785619D01*
X11777357Y7785619D01*
X11682119Y7738000D01*
X11634500Y7690380D01*
X11586880Y7595142D01*
X11586880Y7452285D01*
X11634500Y7357047D01*
X11682119Y7309428D01*
X11777357Y7261809D01*
X12158309Y7261809D01*
X10967833Y7785619D02*
X10872595Y7785619D01*
X10777357Y7738000D01*
X10729738Y7690380D01*
X10682119Y7595142D01*
X10634500Y7404666D01*
X10634500Y7166571D01*
X10682119Y6976095D01*
X10729738Y6880857D01*
X10777357Y6833238D01*
X10872595Y6785619D01*
X10967833Y6785619D01*
X11063071Y6833238D01*
X11110690Y6880857D01*
X11158309Y6976095D01*
X11205928Y7166571D01*
X11205928Y7404666D01*
X11158309Y7595142D01*
X11110690Y7690380D01*
X11063071Y7738000D01*
X10967833Y7785619D01*
X10205928Y6880857D02*
X10158309Y6833238D01*
X10205928Y6785619D01*
X10253547Y6833238D01*
X10205928Y6880857D01*
X10205928Y6785619D01*
X9539261Y7785619D02*
X9444023Y7785619D01*
X9348785Y7738000D01*
X9301166Y7690380D01*
X9253547Y7595142D01*
X9205928Y7404666D01*
X9205928Y7166571D01*
X9253547Y6976095D01*
X9301166Y6880857D01*
X9348785Y6833238D01*
X9444023Y6785619D01*
X9539261Y6785619D01*
X9634500Y6833238D01*
X9682119Y6880857D01*
X9729738Y6976095D01*
X9777357Y7166571D01*
X9777357Y7404666D01*
X9729738Y7595142D01*
X9682119Y7690380D01*
X9634500Y7738000D01*
X9539261Y7785619D01*
X8634500Y7357047D02*
X8729738Y7404666D01*
X8777357Y7452285D01*
X8824976Y7547523D01*
X8824976Y7595142D01*
X8777357Y7690380D01*
X8729738Y7738000D01*
X8634500Y7785619D01*
X8444023Y7785619D01*
X8348785Y7738000D01*
X8301166Y7690380D01*
X8253547Y7595142D01*
X8253547Y7547523D01*
X8301166Y7452285D01*
X8348785Y7404666D01*
X8444023Y7357047D01*
X8634500Y7357047D01*
X8729738Y7309428D01*
X8777357Y7261809D01*
X8824976Y7166571D01*
X8824976Y6976095D01*
X8777357Y6880857D01*
X8729738Y6833238D01*
X8634500Y6785619D01*
X8444023Y6785619D01*
X8348785Y6833238D01*
X8301166Y6880857D01*
X8253547Y6976095D01*
X8253547Y7166571D01*
X8301166Y7261809D01*
X8348785Y7309428D01*
X8444023Y7357047D01*
X13872595Y6088000D02*
X13967833Y6135619D01*
X14110690Y6135619D01*
X14253547Y6088000D01*
X14348785Y5992761D01*
X14396404Y5897523D01*
X14444023Y5707047D01*
X14444023Y5564190D01*
X14396404Y5373714D01*
X14348785Y5278476D01*
X14253547Y5183238D01*
X14110690Y5135619D01*
X14015452Y5135619D01*
X13872595Y5183238D01*
X13824976Y5230857D01*
X13824976Y5564190D01*
X14015452Y5564190D01*
X13396404Y5230857D02*
X13348785Y5183238D01*
X13396404Y5135619D01*
X13444023Y5183238D01*
X13396404Y5230857D01*
X13396404Y5135619D01*
X13396404Y5754666D02*
X13348785Y5707047D01*
X13396404Y5659428D01*
X13444023Y5707047D01*
X13396404Y5754666D01*
X13396404Y5659428D01*
X12158309Y5135619D02*
X12158309Y6135619D01*
X11777357Y6135619D01*
X11682119Y6088000D01*
X11634500Y6040380D01*
X11586880Y5945142D01*
X11586880Y5802285D01*
X11634500Y5707047D01*
X11682119Y5659428D01*
X11777357Y5611809D01*
X12158309Y5611809D01*
X10634500Y5135619D02*
X11205928Y5135619D01*
X10920214Y5135619D02*
X10920214Y6135619D01*
X11015452Y5992761D01*
X11110690Y5897523D01*
X11205928Y5849904D01*
X10205928Y5230857D02*
X10158309Y5183238D01*
X10205928Y5135619D01*
X10253547Y5183238D01*
X10205928Y5230857D01*
X10205928Y5135619D01*
X9539261Y6135619D02*
X9444023Y6135619D01*
X9348785Y6088000D01*
X9301166Y6040380D01*
X9253547Y5945142D01*
X9205928Y5754666D01*
X9205928Y5516571D01*
X9253547Y5326095D01*
X9301166Y5230857D01*
X9348785Y5183238D01*
X9444023Y5135619D01*
X9539261Y5135619D01*
X9634500Y5183238D01*
X9682119Y5230857D01*
X9729738Y5326095D01*
X9777357Y5516571D01*
X9777357Y5754666D01*
X9729738Y5945142D01*
X9682119Y6040380D01*
X9634500Y6088000D01*
X9539261Y6135619D01*
X8729738Y5135619D02*
X8539261Y5135619D01*
X8444023Y5183238D01*
X8396404Y5230857D01*
X8301166Y5373714D01*
X8253547Y5564190D01*
X8253547Y5945142D01*
X8301166Y6040380D01*
X8348785Y6088000D01*
X8444023Y6135619D01*
X8634500Y6135619D01*
X8729738Y6088000D01*
X8777357Y6040380D01*
X8824976Y5945142D01*
X8824976Y5707047D01*
X8777357Y5611809D01*
X8729738Y5564190D01*
X8634500Y5516571D01*
X8444023Y5516571D01*
X8348785Y5564190D01*
X8301166Y5611809D01*
X8253547Y5707047D01*
X14063071Y4009428D02*
X13920214Y3961809D01*
X13872595Y3914190D01*
X13824976Y3818952D01*
X13824976Y3676095D01*
X13872595Y3580857D01*
X13920214Y3533238D01*
X14015452Y3485619D01*
X14396404Y3485619D01*
X14396404Y4485619D01*
X14063071Y4485619D01*
X13967833Y4438000D01*
X13920214Y4390380D01*
X13872595Y4295142D01*
X13872595Y4199904D01*
X13920214Y4104666D01*
X13967833Y4057047D01*
X14063071Y4009428D01*
X14396404Y4009428D01*
X13396404Y3580857D02*
X13348785Y3533238D01*
X13396404Y3485619D01*
X13444023Y3533238D01*
X13396404Y3580857D01*
X13396404Y3485619D01*
X13396404Y4104666D02*
X13348785Y4057047D01*
X13396404Y4009428D01*
X13444023Y4057047D01*
X13396404Y4104666D01*
X13396404Y4009428D01*
X12158309Y3485619D02*
X12158309Y4485619D01*
X11777357Y4485619D01*
X11682119Y4438000D01*
X11634500Y4390380D01*
X11586880Y4295142D01*
X11586880Y4152285D01*
X11634500Y4057047D01*
X11682119Y4009428D01*
X11777357Y3961809D01*
X12158309Y3961809D01*
X10967833Y4485619D02*
X10872595Y4485619D01*
X10777357Y4438000D01*
X10729738Y4390380D01*
X10682119Y4295142D01*
X10634500Y4104666D01*
X10634500Y3866571D01*
X10682119Y3676095D01*
X10729738Y3580857D01*
X10777357Y3533238D01*
X10872595Y3485619D01*
X10967833Y3485619D01*
X11063071Y3533238D01*
X11110690Y3580857D01*
X11158309Y3676095D01*
X11205928Y3866571D01*
X11205928Y4104666D01*
X11158309Y4295142D01*
X11110690Y4390380D01*
X11063071Y4438000D01*
X10967833Y4485619D01*
X10205928Y3580857D02*
X10158309Y3533238D01*
X10205928Y3485619D01*
X10253547Y3533238D01*
X10205928Y3580857D01*
X10205928Y3485619D01*
X9205928Y3485619D02*
X9777357Y3485619D01*
X9491642Y3485619D02*
X9491642Y4485619D01*
X9586880Y4342761D01*
X9682119Y4247523D01*
X9777357Y4199904D01*
X8824976Y4390380D02*
X8777357Y4438000D01*
X8682119Y4485619D01*
X8444023Y4485619D01*
X8348785Y4438000D01*
X8301166Y4390380D01*
X8253547Y4295142D01*
X8253547Y4199904D01*
X8301166Y4057047D01*
X8872595Y3485619D01*
X8253547Y3485619D01*
X11326571Y-5659380D02*
X11326571Y-4659380D01*
X10945619Y-4659380D01*
X10850380Y-4707000D01*
X10802761Y-4754619D01*
X10755142Y-4849857D01*
X10755142Y-4992714D01*
X10802761Y-5087952D01*
X10850380Y-5135571D01*
X10945619Y-5183190D01*
X11326571Y-5183190D01*
X10136095Y-4659380D02*
X10040857Y-4659380D01*
X9945619Y-4707000D01*
X9898000Y-4754619D01*
X9850380Y-4849857D01*
X9802761Y-5040333D01*
X9802761Y-5278428D01*
X9850380Y-5468904D01*
X9898000Y-5564142D01*
X9945619Y-5611761D01*
X10040857Y-5659380D01*
X10136095Y-5659380D01*
X10231333Y-5611761D01*
X10278952Y-5564142D01*
X10326571Y-5468904D01*
X10374190Y-5278428D01*
X10374190Y-5040333D01*
X10326571Y-4849857D01*
X10278952Y-4754619D01*
X10231333Y-4707000D01*
X10136095Y-4659380D01*
X9374190Y-5564142D02*
X9326571Y-5611761D01*
X9374190Y-5659380D01*
X9421809Y-5611761D01*
X9374190Y-5564142D01*
X9374190Y-5659380D01*
X8707523Y-4659380D02*
X8612285Y-4659380D01*
X8517047Y-4707000D01*
X8469428Y-4754619D01*
X8421809Y-4849857D01*
X8374190Y-5040333D01*
X8374190Y-5278428D01*
X8421809Y-5468904D01*
X8469428Y-5564142D01*
X8517047Y-5611761D01*
X8612285Y-5659380D01*
X8707523Y-5659380D01*
X8802761Y-5611761D01*
X8850380Y-5564142D01*
X8898000Y-5468904D01*
X8945619Y-5278428D01*
X8945619Y-5040333D01*
X8898000Y-4849857D01*
X8850380Y-4754619D01*
X8802761Y-4707000D01*
X8707523Y-4659380D01*
X7517047Y-4659380D02*
X7707523Y-4659380D01*
X7802761Y-4707000D01*
X7850380Y-4754619D01*
X7945619Y-4897476D01*
X7993238Y-5087952D01*
X7993238Y-5468904D01*
X7945619Y-5564142D01*
X7898000Y-5611761D01*
X7802761Y-5659380D01*
X7612285Y-5659380D01*
X7517047Y-5611761D01*
X7469428Y-5564142D01*
X7421809Y-5468904D01*
X7421809Y-5230809D01*
X7469428Y-5135571D01*
X7517047Y-5087952D01*
X7612285Y-5040333D01*
X7802761Y-5040333D01*
X7898000Y-5087952D01*
X7945619Y-5135571D01*
X7993238Y-5230809D01*
X-3151428Y7421619D02*
X-3151428Y8421619D01*
X-3532380Y8421619D01*
X-3627619Y8374000D01*
X-3675238Y8326380D01*
X-3722857Y8231142D01*
X-3722857Y8088285D01*
X-3675238Y7993047D01*
X-3627619Y7945428D01*
X-3532380Y7897809D01*
X-3151428Y7897809D01*
X-4675238Y7421619D02*
X-4103809Y7421619D01*
X-4389523Y7421619D02*
X-4389523Y8421619D01*
X-4294285Y8278761D01*
X-4199047Y8183523D01*
X-4103809Y8135904D01*
X-5103809Y7516857D02*
X-5151428Y7469238D01*
X-5103809Y7421619D01*
X-5056190Y7469238D01*
X-5103809Y7516857D01*
X-5103809Y7421619D01*
X-6103809Y7421619D02*
X-5532380Y7421619D01*
X-5818095Y7421619D02*
X-5818095Y8421619D01*
X-5722857Y8278761D01*
X-5627619Y8183523D01*
X-5532380Y8135904D01*
X-7008571Y8421619D02*
X-6532380Y8421619D01*
X-6484761Y7945428D01*
X-6532380Y7993047D01*
X-6627619Y8040666D01*
X-6865714Y8040666D01*
X-6960952Y7993047D01*
X-7008571Y7945428D01*
X-7056190Y7850190D01*
X-7056190Y7612095D01*
X-7008571Y7516857D01*
X-6960952Y7469238D01*
X-6865714Y7421619D01*
X-6627619Y7421619D01*
X-6532380Y7469238D01*
X-6484761Y7516857D01*
X-3627619Y-8453380D02*
X-3294285Y-7977190D01*
X-3056190Y-8453380D02*
X-3056190Y-7453380D01*
X-3437142Y-7453380D01*
X-3532380Y-7501000D01*
X-3580000Y-7548619D01*
X-3627619Y-7643857D01*
X-3627619Y-7786714D01*
X-3580000Y-7881952D01*
X-3532380Y-7929571D01*
X-3437142Y-7977190D01*
X-3056190Y-7977190D01*
X-4056190Y-7929571D02*
X-4389523Y-7929571D01*
X-4532380Y-8453380D02*
X-4056190Y-8453380D01*
X-4056190Y-7453380D01*
X-4532380Y-7453380D01*
X-4913333Y-8405761D02*
X-5056190Y-8453380D01*
X-5294285Y-8453380D01*
X-5389523Y-8405761D01*
X-5437142Y-8358142D01*
X-5484761Y-8262904D01*
X-5484761Y-8167666D01*
X-5437142Y-8072428D01*
X-5389523Y-8024809D01*
X-5294285Y-7977190D01*
X-5103809Y-7929571D01*
X-5008571Y-7881952D01*
X-4960952Y-7834333D01*
X-4913333Y-7739095D01*
X-4913333Y-7643857D01*
X-4960952Y-7548619D01*
X-5008571Y-7501000D01*
X-5103809Y-7453380D01*
X-5341904Y-7453380D01*
X-5484761Y-7501000D01*
X-5913333Y-7929571D02*
X-6246666Y-7929571D01*
X-6389523Y-8453380D02*
X-5913333Y-8453380D01*
X-5913333Y-7453380D01*
X-6389523Y-7453380D01*
X-6675238Y-7453380D02*
X-7246666Y-7453380D01*
X-6960952Y-8453380D02*
X-6960952Y-7453380D01*
D11*
X-8140000Y6930000D02*
X-8140000Y3230000D01*
X-2020000Y6930000D02*
X-8140000Y6930000D01*
X-2020000Y3230000D02*
X-2020000Y6930000D01*
X-8140000Y3230000D02*
X-2020000Y3230000D01*
X3220000Y-4120000D02*
X6080000Y-4120000D01*
X3220000Y-6040000D02*
X3220000Y-4120000D01*
X6080000Y-6040000D02*
X3220000Y-6040000D01*
D10*
X7780000Y6580000D02*
X2380000Y6580000D01*
X7780000Y3580000D02*
X2280000Y3580000D01*
X2280000Y4580000D02*
X2280000Y3580000D01*
D11*
X-8140000Y-3230000D02*
X-8140000Y-6930000D01*
X-2020000Y-3230000D02*
X-8140000Y-3230000D01*
X-2020000Y-6930000D02*
X-2020000Y-3230000D01*
X-8140000Y-6930000D02*
X-2020000Y-6930000D01*
D10*
X-10350666Y4675238D02*
X-10493523Y4627619D01*
X-10731619Y4627619D01*
X-10826857Y4675238D01*
X-10874476Y4722857D01*
X-10922095Y4818095D01*
X-10922095Y4913333D01*
X-10874476Y5008571D01*
X-10826857Y5056190D01*
X-10731619Y5103809D01*
X-10541142Y5151428D01*
X-10445904Y5199047D01*
X-10398285Y5246666D01*
X-10350666Y5341904D01*
X-10350666Y5437142D01*
X-10398285Y5532380D01*
X-10445904Y5580000D01*
X-10541142Y5627619D01*
X-10779238Y5627619D01*
X-10922095Y5580000D01*
X-11255428Y5627619D02*
X-11493523Y4627619D01*
X-11684000Y5341904D01*
X-11874476Y4627619D01*
X-12112571Y5627619D01*
X-12445904Y5532380D02*
X-12493523Y5580000D01*
X-12588761Y5627619D01*
X-12826857Y5627619D01*
X-12922095Y5580000D01*
X-12969714Y5532380D01*
X-13017333Y5437142D01*
X-13017333Y5341904D01*
X-12969714Y5199047D01*
X-12398285Y4627619D01*
X-13017333Y4627619D01*
X5818095Y-7437380D02*
X5818095Y-6437380D01*
X5580000Y-6437380D01*
X5437142Y-6485000D01*
X5341904Y-6580238D01*
X5294285Y-6675476D01*
X5246666Y-6865952D01*
X5246666Y-7008809D01*
X5294285Y-7199285D01*
X5341904Y-7294523D01*
X5437142Y-7389761D01*
X5580000Y-7437380D01*
X5818095Y-7437380D01*
X4389523Y-6437380D02*
X4580000Y-6437380D01*
X4675238Y-6485000D01*
X4722857Y-6532619D01*
X4818095Y-6675476D01*
X4865714Y-6865952D01*
X4865714Y-7246904D01*
X4818095Y-7342142D01*
X4770476Y-7389761D01*
X4675238Y-7437380D01*
X4484761Y-7437380D01*
X4389523Y-7389761D01*
X4341904Y-7342142D01*
X4294285Y-7246904D01*
X4294285Y-7008809D01*
X4341904Y-6913571D01*
X4389523Y-6865952D01*
X4484761Y-6818333D01*
X4675238Y-6818333D01*
X4770476Y-6865952D01*
X4818095Y-6913571D01*
X4865714Y-7008809D01*
X5818095Y7040619D02*
X5818095Y8040619D01*
X5580000Y8040619D01*
X5437142Y7993000D01*
X5341904Y7897761D01*
X5294285Y7802523D01*
X5246666Y7612047D01*
X5246666Y7469190D01*
X5294285Y7278714D01*
X5341904Y7183476D01*
X5437142Y7088238D01*
X5580000Y7040619D01*
X5818095Y7040619D01*
X4341904Y8040619D02*
X4818095Y8040619D01*
X4865714Y7564428D01*
X4818095Y7612047D01*
X4722857Y7659666D01*
X4484761Y7659666D01*
X4389523Y7612047D01*
X4341904Y7564428D01*
X4294285Y7469190D01*
X4294285Y7231095D01*
X4341904Y7135857D01*
X4389523Y7088238D01*
X4484761Y7040619D01*
X4722857Y7040619D01*
X4818095Y7088238D01*
X4865714Y7135857D01*
X-10350666Y-5484761D02*
X-10493523Y-5532380D01*
X-10731619Y-5532380D01*
X-10826857Y-5484761D01*
X-10874476Y-5437142D01*
X-10922095Y-5341904D01*
X-10922095Y-5246666D01*
X-10874476Y-5151428D01*
X-10826857Y-5103809D01*
X-10731619Y-5056190D01*
X-10541142Y-5008571D01*
X-10445904Y-4960952D01*
X-10398285Y-4913333D01*
X-10350666Y-4818095D01*
X-10350666Y-4722857D01*
X-10398285Y-4627619D01*
X-10445904Y-4580000D01*
X-10541142Y-4532380D01*
X-10779238Y-4532380D01*
X-10922095Y-4580000D01*
X-11255428Y-4532380D02*
X-11493523Y-5532380D01*
X-11684000Y-4818095D01*
X-11874476Y-5532380D01*
X-12112571Y-4532380D01*
X-13017333Y-5532380D02*
X-12445904Y-5532380D01*
X-12731619Y-5532380D02*
X-12731619Y-4532380D01*
X-12636380Y-4675238D01*
X-12541142Y-4770476D01*
X-12445904Y-4818095D01*
M02*
