G04 #@! TF.GenerationSoftware,KiCad,Pcbnew,(5.1.9)-1*
G04 #@! TF.CreationDate,2021-03-07T13:30:36+01:00*
G04 #@! TF.ProjectId,Minew MS88SF2 breakout,4d696e65-7720-44d5-9338-385346322062,rev?*
G04 #@! TF.SameCoordinates,Original*
G04 #@! TF.FileFunction,Legend,Top*
G04 #@! TF.FilePolarity,Positive*
%FSLAX46Y46*%
G04 Gerber Fmt 4.6, Leading zero omitted, Abs format (unit mm)*
G04 Created by KiCad (PCBNEW (5.1.9)-1) date 2021-03-07 13:30:36*
%MOMM*%
%LPD*%
G01*
G04 APERTURE LIST*
%ADD10C,0.150000*%
%ADD11C,0.120000*%
G04 APERTURE END LIST*
D10*
X10215714Y-14422380D02*
X10215714Y-13422380D01*
X10787142Y-14422380D01*
X10787142Y-13422380D01*
X11596666Y-13898571D02*
X11263333Y-13898571D01*
X11263333Y-14422380D02*
X11263333Y-13422380D01*
X11739523Y-13422380D01*
X12691904Y-14327142D02*
X12644285Y-14374761D01*
X12501428Y-14422380D01*
X12406190Y-14422380D01*
X12263333Y-14374761D01*
X12168095Y-14279523D01*
X12120476Y-14184285D01*
X12072857Y-13993809D01*
X12072857Y-13850952D01*
X12120476Y-13660476D01*
X12168095Y-13565238D01*
X12263333Y-13470000D01*
X12406190Y-13422380D01*
X12501428Y-13422380D01*
X12644285Y-13470000D01*
X12691904Y-13517619D01*
X-5580000Y-13745595D02*
X-5627619Y-13840833D01*
X-5627619Y-13983690D01*
X-5580000Y-14126547D01*
X-5484761Y-14221785D01*
X-5389523Y-14269404D01*
X-5199047Y-14317023D01*
X-5056190Y-14317023D01*
X-4865714Y-14269404D01*
X-4770476Y-14221785D01*
X-4675238Y-14126547D01*
X-4627619Y-13983690D01*
X-4627619Y-13888452D01*
X-4675238Y-13745595D01*
X-4722857Y-13697976D01*
X-5056190Y-13697976D01*
X-5056190Y-13888452D01*
X-4627619Y-13269404D02*
X-5627619Y-13269404D01*
X-4627619Y-12697976D01*
X-5627619Y-12697976D01*
X-4627619Y-12221785D02*
X-5627619Y-12221785D01*
X-5627619Y-11983690D01*
X-5580000Y-11840833D01*
X-5484761Y-11745595D01*
X-5389523Y-11697976D01*
X-5199047Y-11650357D01*
X-5056190Y-11650357D01*
X-4865714Y-11697976D01*
X-4770476Y-11745595D01*
X-4675238Y-11840833D01*
X-4627619Y-11983690D01*
X-4627619Y-12221785D01*
X-499999Y-13745595D02*
X-547619Y-13840833D01*
X-547619Y-13983690D01*
X-499999Y-14126547D01*
X-404761Y-14221785D01*
X-309523Y-14269404D01*
X-119047Y-14317023D01*
X23809Y-14317023D01*
X214285Y-14269404D01*
X309523Y-14221785D01*
X404761Y-14126547D01*
X452380Y-13983690D01*
X452380Y-13888452D01*
X404761Y-13745595D01*
X357142Y-13697976D01*
X23809Y-13697976D01*
X23809Y-13888452D01*
X452380Y-13269404D02*
X-547619Y-13269404D01*
X452380Y-12697976D01*
X-547619Y-12697976D01*
X452380Y-12221785D02*
X-547619Y-12221785D01*
X-547619Y-11983690D01*
X-499999Y-11840833D01*
X-404761Y-11745595D01*
X-309523Y-11697976D01*
X-119047Y-11650357D01*
X23809Y-11650357D01*
X214285Y-11697976D01*
X309523Y-11745595D01*
X404761Y-11840833D01*
X452380Y-11983690D01*
X452380Y-12221785D01*
X2040000Y-13745595D02*
X1992380Y-13840833D01*
X1992380Y-13983690D01*
X2040000Y-14126547D01*
X2135238Y-14221785D01*
X2230476Y-14269404D01*
X2420952Y-14317023D01*
X2563809Y-14317023D01*
X2754285Y-14269404D01*
X2849523Y-14221785D01*
X2944761Y-14126547D01*
X2992380Y-13983690D01*
X2992380Y-13888452D01*
X2944761Y-13745595D01*
X2897142Y-13697976D01*
X2563809Y-13697976D01*
X2563809Y-13888452D01*
X2992380Y-13269404D02*
X1992380Y-13269404D01*
X2992380Y-12697976D01*
X1992380Y-12697976D01*
X2992380Y-12221785D02*
X1992380Y-12221785D01*
X1992380Y-11983690D01*
X2040000Y-11840833D01*
X2135238Y-11745595D01*
X2230476Y-11697976D01*
X2420952Y-11650357D01*
X2563809Y-11650357D01*
X2754285Y-11697976D01*
X2849523Y-11745595D01*
X2944761Y-11840833D01*
X2992380Y-11983690D01*
X2992380Y-12221785D01*
X4532380Y-14364642D02*
X4532380Y-13745595D01*
X4913333Y-14078928D01*
X4913333Y-13936071D01*
X4960952Y-13840833D01*
X5008571Y-13793214D01*
X5103809Y-13745595D01*
X5341904Y-13745595D01*
X5437142Y-13793214D01*
X5484761Y-13840833D01*
X5532380Y-13936071D01*
X5532380Y-14221785D01*
X5484761Y-14317023D01*
X5437142Y-14364642D01*
X4532380Y-13459880D02*
X5532380Y-13126547D01*
X4532380Y-12793214D01*
X4532380Y-12555119D02*
X4532380Y-11936071D01*
X4913333Y-12269404D01*
X4913333Y-12126547D01*
X4960952Y-12031309D01*
X5008571Y-11983690D01*
X5103809Y-11936071D01*
X5341904Y-11936071D01*
X5437142Y-11983690D01*
X5484761Y-12031309D01*
X5532380Y-12126547D01*
X5532380Y-12412261D01*
X5484761Y-12507500D01*
X5437142Y-12555119D01*
X4532380Y-11317023D02*
X4532380Y-11126547D01*
X4580000Y-11031309D01*
X4675238Y-10936071D01*
X4865714Y-10888452D01*
X5199047Y-10888452D01*
X5389523Y-10936071D01*
X5484761Y-11031309D01*
X5532380Y-11126547D01*
X5532380Y-11317023D01*
X5484761Y-11412261D01*
X5389523Y-11507500D01*
X5199047Y-11555119D01*
X4865714Y-11555119D01*
X4675238Y-11507500D01*
X4580000Y-11412261D01*
X4532380Y-11317023D01*
X-5995000Y-23766785D02*
X-5995000Y-22766785D01*
X-4627619Y-22957261D02*
X-5103809Y-23290595D01*
X-4627619Y-23528690D02*
X-5627619Y-23528690D01*
X-5627619Y-23147738D01*
X-5580000Y-23052500D01*
X-5532380Y-23004880D01*
X-5437142Y-22957261D01*
X-5294285Y-22957261D01*
X-5199047Y-23004880D01*
X-5151428Y-23052500D01*
X-5103809Y-23147738D01*
X-5103809Y-23528690D01*
X-5995000Y-22766785D02*
X-5995000Y-21814404D01*
X-4675238Y-22576309D02*
X-4627619Y-22433452D01*
X-4627619Y-22195357D01*
X-4675238Y-22100119D01*
X-4722857Y-22052500D01*
X-4818095Y-22004880D01*
X-4913333Y-22004880D01*
X-5008571Y-22052500D01*
X-5056190Y-22100119D01*
X-5103809Y-22195357D01*
X-5151428Y-22385833D01*
X-5199047Y-22481071D01*
X-5246666Y-22528690D01*
X-5341904Y-22576309D01*
X-5437142Y-22576309D01*
X-5532380Y-22528690D01*
X-5580000Y-22481071D01*
X-5627619Y-22385833D01*
X-5627619Y-22147738D01*
X-5580000Y-22004880D01*
X-5995000Y-21814404D02*
X-5995000Y-21052500D01*
X-5627619Y-21719166D02*
X-5627619Y-21147738D01*
X-4627619Y-21433452D02*
X-5627619Y-21433452D01*
X404761Y-24004880D02*
X452380Y-23862023D01*
X452380Y-23623928D01*
X404761Y-23528690D01*
X357142Y-23481071D01*
X261904Y-23433452D01*
X166666Y-23433452D01*
X71428Y-23481071D01*
X23809Y-23528690D01*
X-23809Y-23623928D01*
X-71428Y-23814404D01*
X-119047Y-23909642D01*
X-166666Y-23957261D01*
X-261904Y-24004880D01*
X-357142Y-24004880D01*
X-452380Y-23957261D01*
X-500000Y-23909642D01*
X-547619Y-23814404D01*
X-547619Y-23576309D01*
X-500000Y-23433452D01*
X-547619Y-23100119D02*
X452380Y-22862023D01*
X-261904Y-22671547D01*
X452380Y-22481071D01*
X-547619Y-22242976D01*
X-547619Y-21671547D02*
X-547619Y-21481071D01*
X-500000Y-21385833D01*
X-404761Y-21290595D01*
X-214285Y-21242976D01*
X119047Y-21242976D01*
X309523Y-21290595D01*
X404761Y-21385833D01*
X452380Y-21481071D01*
X452380Y-21671547D01*
X404761Y-21766785D01*
X309523Y-21862023D01*
X119047Y-21909642D01*
X-214285Y-21909642D01*
X-404761Y-21862023D01*
X-500000Y-21766785D01*
X-547619Y-21671547D01*
X2897142Y-23052500D02*
X2944761Y-23100119D01*
X2992380Y-23242976D01*
X2992380Y-23338214D01*
X2944761Y-23481071D01*
X2849523Y-23576309D01*
X2754285Y-23623928D01*
X2563809Y-23671547D01*
X2420952Y-23671547D01*
X2230476Y-23623928D01*
X2135238Y-23576309D01*
X2039999Y-23481071D01*
X1992380Y-23338214D01*
X1992380Y-23242976D01*
X2040000Y-23100119D01*
X2087619Y-23052500D01*
X2992380Y-22147738D02*
X2992380Y-22623928D01*
X1992380Y-22623928D01*
X2992380Y-21814404D02*
X1992380Y-21814404D01*
X2992380Y-21242976D02*
X2420952Y-21671547D01*
X1992380Y-21242976D02*
X2563809Y-21814404D01*
X5532380Y-23338214D02*
X4532380Y-23338214D01*
X4532380Y-23100119D01*
X4580000Y-22957261D01*
X4675238Y-22862023D01*
X4770476Y-22814404D01*
X4960952Y-22766785D01*
X5103809Y-22766785D01*
X5294285Y-22814404D01*
X5389523Y-22862023D01*
X5484761Y-22957261D01*
X5532380Y-23100119D01*
X5532380Y-23338214D01*
X5532380Y-22338214D02*
X4532380Y-22338214D01*
X4532380Y-21671547D02*
X4532380Y-21481071D01*
X4580000Y-21385833D01*
X4675238Y-21290595D01*
X4865714Y-21242976D01*
X5199047Y-21242976D01*
X5389523Y-21290595D01*
X5484761Y-21385833D01*
X5532380Y-21481071D01*
X5532380Y-21671547D01*
X5484761Y-21766785D01*
X5389523Y-21862023D01*
X5199047Y-21909642D01*
X4865714Y-21909642D01*
X4675238Y-21862023D01*
X4580000Y-21766785D01*
X4532380Y-21671547D01*
X9342380Y10412261D02*
X8342380Y10412261D01*
X8342380Y10793214D01*
X8390000Y10888452D01*
X8437619Y10936071D01*
X8532857Y10983690D01*
X8675714Y10983690D01*
X8770952Y10936071D01*
X8818571Y10888452D01*
X8866190Y10793214D01*
X8866190Y10412261D01*
X8342380Y11602738D02*
X8342380Y11697976D01*
X8390000Y11793214D01*
X8437619Y11840833D01*
X8532857Y11888452D01*
X8723333Y11936071D01*
X8961428Y11936071D01*
X9151904Y11888452D01*
X9247142Y11840833D01*
X9294761Y11793214D01*
X9342380Y11697976D01*
X9342380Y11602738D01*
X9294761Y11507500D01*
X9247142Y11459880D01*
X9151904Y11412261D01*
X8961428Y11364642D01*
X8723333Y11364642D01*
X8532857Y11412261D01*
X8437619Y11459880D01*
X8390000Y11507500D01*
X8342380Y11602738D01*
X9247142Y12364642D02*
X9294761Y12412261D01*
X9342380Y12364642D01*
X9294761Y12317023D01*
X9247142Y12364642D01*
X9342380Y12364642D01*
X8437619Y12793214D02*
X8390000Y12840833D01*
X8342380Y12936071D01*
X8342380Y13174166D01*
X8390000Y13269404D01*
X8437619Y13317023D01*
X8532857Y13364642D01*
X8628095Y13364642D01*
X8770952Y13317023D01*
X9342380Y12745595D01*
X9342380Y13364642D01*
X8675714Y14221785D02*
X9342380Y14221785D01*
X8294761Y13983690D02*
X9009047Y13745595D01*
X9009047Y14364642D01*
X6802380Y10412261D02*
X5802380Y10412261D01*
X5802380Y10793214D01*
X5850000Y10888452D01*
X5897619Y10936071D01*
X5992857Y10983690D01*
X6135714Y10983690D01*
X6230952Y10936071D01*
X6278571Y10888452D01*
X6326190Y10793214D01*
X6326190Y10412261D01*
X5802380Y11602738D02*
X5802380Y11697976D01*
X5850000Y11793214D01*
X5897619Y11840833D01*
X5992857Y11888452D01*
X6183333Y11936071D01*
X6421428Y11936071D01*
X6611904Y11888452D01*
X6707142Y11840833D01*
X6754761Y11793214D01*
X6802380Y11697976D01*
X6802380Y11602738D01*
X6754761Y11507500D01*
X6707142Y11459880D01*
X6611904Y11412261D01*
X6421428Y11364642D01*
X6183333Y11364642D01*
X5992857Y11412261D01*
X5897619Y11459880D01*
X5850000Y11507500D01*
X5802380Y11602738D01*
X6707142Y12364642D02*
X6754761Y12412261D01*
X6802380Y12364642D01*
X6754761Y12317023D01*
X6707142Y12364642D01*
X6802380Y12364642D01*
X5897619Y12793214D02*
X5850000Y12840833D01*
X5802380Y12936071D01*
X5802380Y13174166D01*
X5850000Y13269404D01*
X5897619Y13317023D01*
X5992857Y13364642D01*
X6088095Y13364642D01*
X6230952Y13317023D01*
X6802380Y12745595D01*
X6802380Y13364642D01*
X5897619Y13745595D02*
X5850000Y13793214D01*
X5802380Y13888452D01*
X5802380Y14126547D01*
X5850000Y14221785D01*
X5897619Y14269404D01*
X5992857Y14317023D01*
X6088095Y14317023D01*
X6230952Y14269404D01*
X6802380Y13697976D01*
X6802380Y14317023D01*
X4262380Y10412261D02*
X3262380Y10412261D01*
X3262380Y10793214D01*
X3310000Y10888452D01*
X3357619Y10936071D01*
X3452857Y10983690D01*
X3595714Y10983690D01*
X3690952Y10936071D01*
X3738571Y10888452D01*
X3786190Y10793214D01*
X3786190Y10412261D01*
X3262380Y11602738D02*
X3262380Y11697976D01*
X3310000Y11793214D01*
X3357619Y11840833D01*
X3452857Y11888452D01*
X3643333Y11936071D01*
X3881428Y11936071D01*
X4071904Y11888452D01*
X4167142Y11840833D01*
X4214761Y11793214D01*
X4262380Y11697976D01*
X4262380Y11602738D01*
X4214761Y11507500D01*
X4167142Y11459880D01*
X4071904Y11412261D01*
X3881428Y11364642D01*
X3643333Y11364642D01*
X3452857Y11412261D01*
X3357619Y11459880D01*
X3310000Y11507500D01*
X3262380Y11602738D01*
X4167142Y12364642D02*
X4214761Y12412261D01*
X4262380Y12364642D01*
X4214761Y12317023D01*
X4167142Y12364642D01*
X4262380Y12364642D01*
X3357619Y12793214D02*
X3310000Y12840833D01*
X3262380Y12936071D01*
X3262380Y13174166D01*
X3310000Y13269404D01*
X3357619Y13317023D01*
X3452857Y13364642D01*
X3548095Y13364642D01*
X3690952Y13317023D01*
X4262380Y12745595D01*
X4262380Y13364642D01*
X3262380Y13983690D02*
X3262380Y14078928D01*
X3310000Y14174166D01*
X3357619Y14221785D01*
X3452857Y14269404D01*
X3643333Y14317023D01*
X3881428Y14317023D01*
X4071904Y14269404D01*
X4167142Y14221785D01*
X4214761Y14174166D01*
X4262380Y14078928D01*
X4262380Y13983690D01*
X4214761Y13888452D01*
X4167142Y13840833D01*
X4071904Y13793214D01*
X3881428Y13745595D01*
X3643333Y13745595D01*
X3452857Y13793214D01*
X3357619Y13840833D01*
X3310000Y13888452D01*
X3262380Y13983690D01*
X1722380Y10412261D02*
X722380Y10412261D01*
X722380Y10793214D01*
X769999Y10888452D01*
X817619Y10936071D01*
X912857Y10983690D01*
X1055714Y10983690D01*
X1150952Y10936071D01*
X1198571Y10888452D01*
X1246190Y10793214D01*
X1246190Y10412261D01*
X722380Y11602738D02*
X722380Y11697976D01*
X769999Y11793214D01*
X817619Y11840833D01*
X912857Y11888452D01*
X1103333Y11936071D01*
X1341428Y11936071D01*
X1531904Y11888452D01*
X1627142Y11840833D01*
X1674761Y11793214D01*
X1722380Y11697976D01*
X1722380Y11602738D01*
X1674761Y11507500D01*
X1627142Y11459880D01*
X1531904Y11412261D01*
X1341428Y11364642D01*
X1103333Y11364642D01*
X912857Y11412261D01*
X817619Y11459880D01*
X769999Y11507500D01*
X722380Y11602738D01*
X1627142Y12364642D02*
X1674761Y12412261D01*
X1722380Y12364642D01*
X1674761Y12317023D01*
X1627142Y12364642D01*
X1722380Y12364642D01*
X1722380Y13364642D02*
X1722380Y12793214D01*
X1722380Y13078928D02*
X722380Y13078928D01*
X865238Y12983690D01*
X960476Y12888452D01*
X1008095Y12793214D01*
X722380Y14269404D02*
X722380Y13793214D01*
X1198571Y13745595D01*
X1150952Y13793214D01*
X1103333Y13888452D01*
X1103333Y14126547D01*
X1150952Y14221785D01*
X1198571Y14269404D01*
X1293809Y14317023D01*
X1531904Y14317023D01*
X1627142Y14269404D01*
X1674761Y14221785D01*
X1722380Y14126547D01*
X1722380Y13888452D01*
X1674761Y13793214D01*
X1627142Y13745595D01*
X-817619Y10412261D02*
X-1817619Y10412261D01*
X-1817619Y10793214D01*
X-1770000Y10888452D01*
X-1722380Y10936071D01*
X-1627142Y10983690D01*
X-1484285Y10983690D01*
X-1389047Y10936071D01*
X-1341428Y10888452D01*
X-1293809Y10793214D01*
X-1293809Y10412261D01*
X-1817619Y11602738D02*
X-1817619Y11697976D01*
X-1770000Y11793214D01*
X-1722380Y11840833D01*
X-1627142Y11888452D01*
X-1436666Y11936071D01*
X-1198571Y11936071D01*
X-1008095Y11888452D01*
X-912857Y11840833D01*
X-865238Y11793214D01*
X-817619Y11697976D01*
X-817619Y11602738D01*
X-865238Y11507500D01*
X-912857Y11459880D01*
X-1008095Y11412261D01*
X-1198571Y11364642D01*
X-1436666Y11364642D01*
X-1627142Y11412261D01*
X-1722380Y11459880D01*
X-1770000Y11507500D01*
X-1817619Y11602738D01*
X-912857Y12364642D02*
X-865238Y12412261D01*
X-817619Y12364642D01*
X-865238Y12317023D01*
X-912857Y12364642D01*
X-817619Y12364642D01*
X-817619Y13364642D02*
X-817619Y12793214D01*
X-817619Y13078928D02*
X-1817619Y13078928D01*
X-1674761Y12983690D01*
X-1579523Y12888452D01*
X-1531904Y12793214D01*
X-1817619Y13697976D02*
X-1817619Y14317023D01*
X-1436666Y13983690D01*
X-1436666Y14126547D01*
X-1389047Y14221785D01*
X-1341428Y14269404D01*
X-1246190Y14317023D01*
X-1008095Y14317023D01*
X-912857Y14269404D01*
X-865238Y14221785D01*
X-817619Y14126547D01*
X-817619Y13840833D01*
X-865238Y13745595D01*
X-912857Y13697976D01*
X-3357619Y10412261D02*
X-4357619Y10412261D01*
X-4357619Y10793214D01*
X-4310000Y10888452D01*
X-4262380Y10936071D01*
X-4167142Y10983690D01*
X-4024285Y10983690D01*
X-3929047Y10936071D01*
X-3881428Y10888452D01*
X-3833809Y10793214D01*
X-3833809Y10412261D01*
X-4357619Y11602738D02*
X-4357619Y11697976D01*
X-4310000Y11793214D01*
X-4262380Y11840833D01*
X-4167142Y11888452D01*
X-3976666Y11936071D01*
X-3738571Y11936071D01*
X-3548095Y11888452D01*
X-3452857Y11840833D01*
X-3405238Y11793214D01*
X-3357619Y11697976D01*
X-3357619Y11602738D01*
X-3405238Y11507500D01*
X-3452857Y11459880D01*
X-3548095Y11412261D01*
X-3738571Y11364642D01*
X-3976666Y11364642D01*
X-4167142Y11412261D01*
X-4262380Y11459880D01*
X-4310000Y11507500D01*
X-4357619Y11602738D01*
X-3452857Y12364642D02*
X-3405238Y12412261D01*
X-3357619Y12364642D01*
X-3405238Y12317023D01*
X-3452857Y12364642D01*
X-3357619Y12364642D01*
X-4357619Y13031309D02*
X-4357619Y13126547D01*
X-4310000Y13221785D01*
X-4262380Y13269404D01*
X-4167142Y13317023D01*
X-3976666Y13364642D01*
X-3738571Y13364642D01*
X-3548095Y13317023D01*
X-3452857Y13269404D01*
X-3405238Y13221785D01*
X-3357619Y13126547D01*
X-3357619Y13031309D01*
X-3405238Y12936071D01*
X-3452857Y12888452D01*
X-3548095Y12840833D01*
X-3738571Y12793214D01*
X-3976666Y12793214D01*
X-4167142Y12840833D01*
X-4262380Y12888452D01*
X-4310000Y12936071D01*
X-4357619Y13031309D01*
X-4357619Y14221785D02*
X-4357619Y14031309D01*
X-4310000Y13936071D01*
X-4262380Y13888452D01*
X-4119523Y13793214D01*
X-3929047Y13745595D01*
X-3548095Y13745595D01*
X-3452857Y13793214D01*
X-3405238Y13840833D01*
X-3357619Y13936071D01*
X-3357619Y14126547D01*
X-3405238Y14221785D01*
X-3452857Y14269404D01*
X-3548095Y14317023D01*
X-3786190Y14317023D01*
X-3881428Y14269404D01*
X-3929047Y14221785D01*
X-3976666Y14126547D01*
X-3976666Y13936071D01*
X-3929047Y13840833D01*
X-3881428Y13793214D01*
X-3786190Y13745595D01*
X-5897619Y10412261D02*
X-6897619Y10412261D01*
X-6897619Y10793214D01*
X-6850000Y10888452D01*
X-6802380Y10936071D01*
X-6707142Y10983690D01*
X-6564285Y10983690D01*
X-6469047Y10936071D01*
X-6421428Y10888452D01*
X-6373809Y10793214D01*
X-6373809Y10412261D01*
X-6897619Y11602738D02*
X-6897619Y11697976D01*
X-6850000Y11793214D01*
X-6802380Y11840833D01*
X-6707142Y11888452D01*
X-6516666Y11936071D01*
X-6278571Y11936071D01*
X-6088095Y11888452D01*
X-5992857Y11840833D01*
X-5945238Y11793214D01*
X-5897619Y11697976D01*
X-5897619Y11602738D01*
X-5945238Y11507500D01*
X-5992857Y11459880D01*
X-6088095Y11412261D01*
X-6278571Y11364642D01*
X-6516666Y11364642D01*
X-6707142Y11412261D01*
X-6802380Y11459880D01*
X-6850000Y11507500D01*
X-6897619Y11602738D01*
X-5992857Y12364642D02*
X-5945238Y12412261D01*
X-5897619Y12364642D01*
X-5945238Y12317023D01*
X-5992857Y12364642D01*
X-5897619Y12364642D01*
X-6897619Y13031309D02*
X-6897619Y13126547D01*
X-6850000Y13221785D01*
X-6802380Y13269404D01*
X-6707142Y13317023D01*
X-6516666Y13364642D01*
X-6278571Y13364642D01*
X-6088095Y13317023D01*
X-5992857Y13269404D01*
X-5945238Y13221785D01*
X-5897619Y13126547D01*
X-5897619Y13031309D01*
X-5945238Y12936071D01*
X-5992857Y12888452D01*
X-6088095Y12840833D01*
X-6278571Y12793214D01*
X-6516666Y12793214D01*
X-6707142Y12840833D01*
X-6802380Y12888452D01*
X-6850000Y12936071D01*
X-6897619Y13031309D01*
X-6564285Y14221785D02*
X-5897619Y14221785D01*
X-6945238Y13983690D02*
X-6230952Y13745595D01*
X-6230952Y14364642D01*
X-8437619Y10412261D02*
X-9437619Y10412261D01*
X-9437619Y10793214D01*
X-9390000Y10888452D01*
X-9342380Y10936071D01*
X-9247142Y10983690D01*
X-9104285Y10983690D01*
X-9009047Y10936071D01*
X-8961428Y10888452D01*
X-8913809Y10793214D01*
X-8913809Y10412261D01*
X-9437619Y11602738D02*
X-9437619Y11697976D01*
X-9390000Y11793214D01*
X-9342380Y11840833D01*
X-9247142Y11888452D01*
X-9056666Y11936071D01*
X-8818571Y11936071D01*
X-8628095Y11888452D01*
X-8532857Y11840833D01*
X-8485238Y11793214D01*
X-8437619Y11697976D01*
X-8437619Y11602738D01*
X-8485238Y11507500D01*
X-8532857Y11459880D01*
X-8628095Y11412261D01*
X-8818571Y11364642D01*
X-9056666Y11364642D01*
X-9247142Y11412261D01*
X-9342380Y11459880D01*
X-9390000Y11507500D01*
X-9437619Y11602738D01*
X-8532857Y12364642D02*
X-8485238Y12412261D01*
X-8437619Y12364642D01*
X-8485238Y12317023D01*
X-8532857Y12364642D01*
X-8437619Y12364642D01*
X-9437619Y13031309D02*
X-9437619Y13126547D01*
X-9390000Y13221785D01*
X-9342380Y13269404D01*
X-9247142Y13317023D01*
X-9056666Y13364642D01*
X-8818571Y13364642D01*
X-8628095Y13317023D01*
X-8532857Y13269404D01*
X-8485238Y13221785D01*
X-8437619Y13126547D01*
X-8437619Y13031309D01*
X-8485238Y12936071D01*
X-8532857Y12888452D01*
X-8628095Y12840833D01*
X-8818571Y12793214D01*
X-9056666Y12793214D01*
X-9247142Y12840833D01*
X-9342380Y12888452D01*
X-9390000Y12936071D01*
X-9437619Y13031309D01*
X-9342380Y13745595D02*
X-9390000Y13793214D01*
X-9437619Y13888452D01*
X-9437619Y14126547D01*
X-9390000Y14221785D01*
X-9342380Y14269404D01*
X-9247142Y14317023D01*
X-9151904Y14317023D01*
X-9009047Y14269404D01*
X-8437619Y13697976D01*
X-8437619Y14317023D01*
X8390000Y21814404D02*
X8342380Y21719166D01*
X8342380Y21576309D01*
X8390000Y21433452D01*
X8485238Y21338214D01*
X8580476Y21290595D01*
X8770952Y21242976D01*
X8913809Y21242976D01*
X9104285Y21290595D01*
X9199523Y21338214D01*
X9294761Y21433452D01*
X9342380Y21576309D01*
X9342380Y21671547D01*
X9294761Y21814404D01*
X9247142Y21862023D01*
X8913809Y21862023D01*
X8913809Y21671547D01*
X9342380Y22290595D02*
X8342380Y22290595D01*
X9342380Y22862023D01*
X8342380Y22862023D01*
X9342380Y23338214D02*
X8342380Y23338214D01*
X8342380Y23576309D01*
X8390000Y23719166D01*
X8485238Y23814404D01*
X8580476Y23862023D01*
X8770952Y23909642D01*
X8913809Y23909642D01*
X9104285Y23862023D01*
X9199523Y23814404D01*
X9294761Y23719166D01*
X9342380Y23576309D01*
X9342380Y23338214D01*
X5802380Y21195357D02*
X5802380Y21814404D01*
X6183333Y21481071D01*
X6183333Y21623928D01*
X6230952Y21719166D01*
X6278571Y21766785D01*
X6373809Y21814404D01*
X6611904Y21814404D01*
X6707142Y21766785D01*
X6754761Y21719166D01*
X6802380Y21623928D01*
X6802380Y21338214D01*
X6754761Y21242976D01*
X6707142Y21195357D01*
X5802380Y22100119D02*
X6802380Y22433452D01*
X5802380Y22766785D01*
X5802380Y23004880D02*
X5802380Y23623928D01*
X6183333Y23290595D01*
X6183333Y23433452D01*
X6230952Y23528690D01*
X6278571Y23576309D01*
X6373809Y23623928D01*
X6611904Y23623928D01*
X6707142Y23576309D01*
X6754761Y23528690D01*
X6802380Y23433452D01*
X6802380Y23147738D01*
X6754761Y23052500D01*
X6707142Y23004880D01*
X5802380Y24242976D02*
X5802380Y24433452D01*
X5850000Y24528690D01*
X5945238Y24623928D01*
X6135714Y24671547D01*
X6469047Y24671547D01*
X6659523Y24623928D01*
X6754761Y24528690D01*
X6802380Y24433452D01*
X6802380Y24242976D01*
X6754761Y24147738D01*
X6659523Y24052500D01*
X6469047Y24004880D01*
X6135714Y24004880D01*
X5945238Y24052500D01*
X5850000Y24147738D01*
X5802380Y24242976D01*
X3262380Y21147738D02*
X4262380Y21481071D01*
X3262380Y21814404D01*
X4262380Y22147738D02*
X3262380Y22147738D01*
X4262380Y22623928D02*
X3262380Y22623928D01*
X4262380Y23195357D01*
X3262380Y23195357D01*
X3262380Y24147738D02*
X3262380Y23671547D01*
X3738571Y23623928D01*
X3690952Y23671547D01*
X3643333Y23766785D01*
X3643333Y24004880D01*
X3690952Y24100119D01*
X3738571Y24147738D01*
X3833809Y24195357D01*
X4071904Y24195357D01*
X4167142Y24147738D01*
X4214761Y24100119D01*
X4262380Y24004880D01*
X4262380Y23766785D01*
X4214761Y23671547D01*
X4167142Y23623928D01*
X3262380Y24481071D02*
X4262380Y24814404D01*
X3262380Y25147738D01*
X1722380Y21290595D02*
X722380Y21290595D01*
X722380Y21671547D01*
X770000Y21766785D01*
X817619Y21814404D01*
X912857Y21862023D01*
X1055714Y21862023D01*
X1150952Y21814404D01*
X1198571Y21766785D01*
X1246190Y21671547D01*
X1246190Y21290595D01*
X1722380Y22814404D02*
X1722380Y22242976D01*
X1722380Y22528690D02*
X722380Y22528690D01*
X865238Y22433452D01*
X960476Y22338214D01*
X1008095Y22242976D01*
X1627142Y23242976D02*
X1674761Y23290595D01*
X1722380Y23242976D01*
X1674761Y23195357D01*
X1627142Y23242976D01*
X1722380Y23242976D01*
X1722380Y24242976D02*
X1722380Y23671547D01*
X1722380Y23957261D02*
X722380Y23957261D01*
X865238Y23862023D01*
X960476Y23766785D01*
X1008095Y23671547D01*
X722380Y25147738D02*
X722380Y24671547D01*
X1198571Y24623928D01*
X1150952Y24671547D01*
X1103333Y24766785D01*
X1103333Y25004880D01*
X1150952Y25100119D01*
X1198571Y25147738D01*
X1293809Y25195357D01*
X1531904Y25195357D01*
X1627142Y25147738D01*
X1674761Y25100119D01*
X1722380Y25004880D01*
X1722380Y24766785D01*
X1674761Y24671547D01*
X1627142Y24623928D01*
X-817619Y21290595D02*
X-1817619Y21290595D01*
X-1817619Y21671547D01*
X-1770000Y21766785D01*
X-1722380Y21814404D01*
X-1627142Y21862023D01*
X-1484285Y21862023D01*
X-1389047Y21814404D01*
X-1341428Y21766785D01*
X-1293809Y21671547D01*
X-1293809Y21290595D01*
X-817619Y22814404D02*
X-817619Y22242976D01*
X-817619Y22528690D02*
X-1817619Y22528690D01*
X-1674761Y22433452D01*
X-1579523Y22338214D01*
X-1531904Y22242976D01*
X-912857Y23242976D02*
X-865238Y23290595D01*
X-817619Y23242976D01*
X-865238Y23195357D01*
X-912857Y23242976D01*
X-817619Y23242976D01*
X-817619Y24242976D02*
X-817619Y23671547D01*
X-817619Y23957261D02*
X-1817619Y23957261D01*
X-1674761Y23862023D01*
X-1579523Y23766785D01*
X-1531904Y23671547D01*
X-1817619Y24576309D02*
X-1817619Y25195357D01*
X-1436666Y24862023D01*
X-1436666Y25004880D01*
X-1389047Y25100119D01*
X-1341428Y25147738D01*
X-1246190Y25195357D01*
X-1008095Y25195357D01*
X-912857Y25147738D01*
X-865238Y25100119D01*
X-817619Y25004880D01*
X-817619Y24719166D01*
X-865238Y24623928D01*
X-912857Y24576309D01*
X-3357619Y21290595D02*
X-4357619Y21290595D01*
X-4357619Y21671547D01*
X-4310000Y21766785D01*
X-4262380Y21814404D01*
X-4167142Y21862023D01*
X-4024285Y21862023D01*
X-3929047Y21814404D01*
X-3881428Y21766785D01*
X-3833809Y21671547D01*
X-3833809Y21290595D01*
X-4357619Y22481071D02*
X-4357619Y22576309D01*
X-4310000Y22671547D01*
X-4262380Y22719166D01*
X-4167142Y22766785D01*
X-3976666Y22814404D01*
X-3738571Y22814404D01*
X-3548095Y22766785D01*
X-3452857Y22719166D01*
X-3405238Y22671547D01*
X-3357619Y22576309D01*
X-3357619Y22481071D01*
X-3405238Y22385833D01*
X-3452857Y22338214D01*
X-3548095Y22290595D01*
X-3738571Y22242976D01*
X-3976666Y22242976D01*
X-4167142Y22290595D01*
X-4262380Y22338214D01*
X-4310000Y22385833D01*
X-4357619Y22481071D01*
X-3452857Y23242976D02*
X-3405238Y23290595D01*
X-3357619Y23242976D01*
X-3405238Y23195357D01*
X-3452857Y23242976D01*
X-3357619Y23242976D01*
X-4357619Y23623928D02*
X-4357619Y24242976D01*
X-3976666Y23909642D01*
X-3976666Y24052500D01*
X-3929047Y24147738D01*
X-3881428Y24195357D01*
X-3786190Y24242976D01*
X-3548095Y24242976D01*
X-3452857Y24195357D01*
X-3405238Y24147738D01*
X-3357619Y24052500D01*
X-3357619Y23766785D01*
X-3405238Y23671547D01*
X-3452857Y23623928D01*
X-3357619Y25195357D02*
X-3357619Y24623928D01*
X-3357619Y24909642D02*
X-4357619Y24909642D01*
X-4214761Y24814404D01*
X-4119523Y24719166D01*
X-4071904Y24623928D01*
X-5897619Y21290595D02*
X-6897619Y21290595D01*
X-6897619Y21671547D01*
X-6850000Y21766785D01*
X-6802380Y21814404D01*
X-6707142Y21862023D01*
X-6564285Y21862023D01*
X-6469047Y21814404D01*
X-6421428Y21766785D01*
X-6373809Y21671547D01*
X-6373809Y21290595D01*
X-6897619Y22481071D02*
X-6897619Y22576309D01*
X-6850000Y22671547D01*
X-6802380Y22719166D01*
X-6707142Y22766785D01*
X-6516666Y22814404D01*
X-6278571Y22814404D01*
X-6088095Y22766785D01*
X-5992857Y22719166D01*
X-5945238Y22671547D01*
X-5897619Y22576309D01*
X-5897619Y22481071D01*
X-5945238Y22385833D01*
X-5992857Y22338214D01*
X-6088095Y22290595D01*
X-6278571Y22242976D01*
X-6516666Y22242976D01*
X-6707142Y22290595D01*
X-6802380Y22338214D01*
X-6850000Y22385833D01*
X-6897619Y22481071D01*
X-5992857Y23242976D02*
X-5945238Y23290595D01*
X-5897619Y23242976D01*
X-5945238Y23195357D01*
X-5992857Y23242976D01*
X-5897619Y23242976D01*
X-6802380Y23671547D02*
X-6850000Y23719166D01*
X-6897619Y23814404D01*
X-6897619Y24052500D01*
X-6850000Y24147738D01*
X-6802380Y24195357D01*
X-6707142Y24242976D01*
X-6611904Y24242976D01*
X-6469047Y24195357D01*
X-5897619Y23623928D01*
X-5897619Y24242976D01*
X-5897619Y24719166D02*
X-5897619Y24909642D01*
X-5945238Y25004880D01*
X-5992857Y25052500D01*
X-6135714Y25147738D01*
X-6326190Y25195357D01*
X-6707142Y25195357D01*
X-6802380Y25147738D01*
X-6850000Y25100119D01*
X-6897619Y25004880D01*
X-6897619Y24814404D01*
X-6850000Y24719166D01*
X-6802380Y24671547D01*
X-6707142Y24623928D01*
X-6469047Y24623928D01*
X-6373809Y24671547D01*
X-6326190Y24719166D01*
X-6278571Y24814404D01*
X-6278571Y25004880D01*
X-6326190Y25100119D01*
X-6373809Y25147738D01*
X-6469047Y25195357D01*
X-8437619Y21290595D02*
X-9437619Y21290595D01*
X-9437619Y21671547D01*
X-9390000Y21766785D01*
X-9342380Y21814404D01*
X-9247142Y21862023D01*
X-9104285Y21862023D01*
X-9009047Y21814404D01*
X-8961428Y21766785D01*
X-8913809Y21671547D01*
X-8913809Y21290595D01*
X-9437619Y22481071D02*
X-9437619Y22576309D01*
X-9390000Y22671547D01*
X-9342380Y22719166D01*
X-9247142Y22766785D01*
X-9056666Y22814404D01*
X-8818571Y22814404D01*
X-8628095Y22766785D01*
X-8532857Y22719166D01*
X-8485238Y22671547D01*
X-8437619Y22576309D01*
X-8437619Y22481071D01*
X-8485238Y22385833D01*
X-8532857Y22338214D01*
X-8628095Y22290595D01*
X-8818571Y22242976D01*
X-9056666Y22242976D01*
X-9247142Y22290595D01*
X-9342380Y22338214D01*
X-9390000Y22385833D01*
X-9437619Y22481071D01*
X-8532857Y23242976D02*
X-8485238Y23290595D01*
X-8437619Y23242976D01*
X-8485238Y23195357D01*
X-8532857Y23242976D01*
X-8437619Y23242976D01*
X-9342380Y23671547D02*
X-9390000Y23719166D01*
X-9437619Y23814404D01*
X-9437619Y24052500D01*
X-9390000Y24147738D01*
X-9342380Y24195357D01*
X-9247142Y24242976D01*
X-9151904Y24242976D01*
X-9009047Y24195357D01*
X-8437619Y23623928D01*
X-8437619Y24242976D01*
X-9437619Y25100119D02*
X-9437619Y24909642D01*
X-9390000Y24814404D01*
X-9342380Y24766785D01*
X-9199523Y24671547D01*
X-9009047Y24623928D01*
X-8628095Y24623928D01*
X-8532857Y24671547D01*
X-8485238Y24719166D01*
X-8437619Y24814404D01*
X-8437619Y25004880D01*
X-8485238Y25100119D01*
X-8532857Y25147738D01*
X-8628095Y25195357D01*
X-8866190Y25195357D01*
X-8961428Y25147738D01*
X-9009047Y25100119D01*
X-9056666Y25004880D01*
X-9056666Y24814404D01*
X-9009047Y24719166D01*
X-8961428Y24671547D01*
X-8866190Y24623928D01*
X-7215238Y-19137142D02*
X-7167619Y-18994285D01*
X-7167619Y-18756190D01*
X-7215238Y-18660952D01*
X-7262857Y-18613333D01*
X-7358095Y-18565714D01*
X-7453333Y-18565714D01*
X-7548571Y-18613333D01*
X-7596190Y-18660952D01*
X-7643809Y-18756190D01*
X-7691428Y-18946666D01*
X-7739047Y-19041904D01*
X-7786666Y-19089523D01*
X-7881904Y-19137142D01*
X-7977142Y-19137142D01*
X-8072380Y-19089523D01*
X-8120000Y-19041904D01*
X-8167619Y-18946666D01*
X-8167619Y-18708571D01*
X-8120000Y-18565714D01*
X-8167619Y-18232380D02*
X-7167619Y-17994285D01*
X-7881904Y-17803809D01*
X-7167619Y-17613333D01*
X-8167619Y-17375238D01*
X-7167619Y-16994285D02*
X-8167619Y-16994285D01*
X-8167619Y-16756190D01*
X-8120000Y-16613333D01*
X-8024761Y-16518095D01*
X-7929523Y-16470476D01*
X-7739047Y-16422857D01*
X-7596190Y-16422857D01*
X-7405714Y-16470476D01*
X-7310476Y-16518095D01*
X-7215238Y-16613333D01*
X-7167619Y-16756190D01*
X-7167619Y-16994285D01*
X-11595238Y1197619D02*
X-11595238Y2197619D01*
X-11261904Y1483333D01*
X-10928571Y2197619D01*
X-10928571Y1197619D01*
X-10452380Y1197619D02*
X-10452380Y1864285D01*
X-10452380Y2197619D02*
X-10500000Y2150000D01*
X-10452380Y2102380D01*
X-10404761Y2150000D01*
X-10452380Y2197619D01*
X-10452380Y2102380D01*
X-9976190Y1864285D02*
X-9976190Y1197619D01*
X-9976190Y1769047D02*
X-9928571Y1816666D01*
X-9833333Y1864285D01*
X-9690476Y1864285D01*
X-9595238Y1816666D01*
X-9547619Y1721428D01*
X-9547619Y1197619D01*
X-8690476Y1245238D02*
X-8785714Y1197619D01*
X-8976190Y1197619D01*
X-9071428Y1245238D01*
X-9119047Y1340476D01*
X-9119047Y1721428D01*
X-9071428Y1816666D01*
X-8976190Y1864285D01*
X-8785714Y1864285D01*
X-8690476Y1816666D01*
X-8642857Y1721428D01*
X-8642857Y1626190D01*
X-9119047Y1530952D01*
X-8309523Y1864285D02*
X-8119047Y1197619D01*
X-7928571Y1673809D01*
X-7738095Y1197619D01*
X-7547619Y1864285D01*
X-6404761Y1197619D02*
X-6404761Y2197619D01*
X-6071428Y1483333D01*
X-5738095Y2197619D01*
X-5738095Y1197619D01*
X-5309523Y1245238D02*
X-5166666Y1197619D01*
X-4928571Y1197619D01*
X-4833333Y1245238D01*
X-4785714Y1292857D01*
X-4738095Y1388095D01*
X-4738095Y1483333D01*
X-4785714Y1578571D01*
X-4833333Y1626190D01*
X-4928571Y1673809D01*
X-5119047Y1721428D01*
X-5214285Y1769047D01*
X-5261904Y1816666D01*
X-5309523Y1911904D01*
X-5309523Y2007142D01*
X-5261904Y2102380D01*
X-5214285Y2150000D01*
X-5119047Y2197619D01*
X-4880952Y2197619D01*
X-4738095Y2150000D01*
X-4166666Y1769047D02*
X-4261904Y1816666D01*
X-4309523Y1864285D01*
X-4357142Y1959523D01*
X-4357142Y2007142D01*
X-4309523Y2102380D01*
X-4261904Y2150000D01*
X-4166666Y2197619D01*
X-3976190Y2197619D01*
X-3880952Y2150000D01*
X-3833333Y2102380D01*
X-3785714Y2007142D01*
X-3785714Y1959523D01*
X-3833333Y1864285D01*
X-3880952Y1816666D01*
X-3976190Y1769047D01*
X-4166666Y1769047D01*
X-4261904Y1721428D01*
X-4309523Y1673809D01*
X-4357142Y1578571D01*
X-4357142Y1388095D01*
X-4309523Y1292857D01*
X-4261904Y1245238D01*
X-4166666Y1197619D01*
X-3976190Y1197619D01*
X-3880952Y1245238D01*
X-3833333Y1292857D01*
X-3785714Y1388095D01*
X-3785714Y1578571D01*
X-3833333Y1673809D01*
X-3880952Y1721428D01*
X-3976190Y1769047D01*
X-3214285Y1769047D02*
X-3309523Y1816666D01*
X-3357142Y1864285D01*
X-3404761Y1959523D01*
X-3404761Y2007142D01*
X-3357142Y2102380D01*
X-3309523Y2150000D01*
X-3214285Y2197619D01*
X-3023809Y2197619D01*
X-2928571Y2150000D01*
X-2880952Y2102380D01*
X-2833333Y2007142D01*
X-2833333Y1959523D01*
X-2880952Y1864285D01*
X-2928571Y1816666D01*
X-3023809Y1769047D01*
X-3214285Y1769047D01*
X-3309523Y1721428D01*
X-3357142Y1673809D01*
X-3404761Y1578571D01*
X-3404761Y1388095D01*
X-3357142Y1292857D01*
X-3309523Y1245238D01*
X-3214285Y1197619D01*
X-3023809Y1197619D01*
X-2928571Y1245238D01*
X-2880952Y1292857D01*
X-2833333Y1388095D01*
X-2833333Y1578571D01*
X-2880952Y1673809D01*
X-2928571Y1721428D01*
X-3023809Y1769047D01*
X-2452380Y1245238D02*
X-2309523Y1197619D01*
X-2071428Y1197619D01*
X-1976190Y1245238D01*
X-1928571Y1292857D01*
X-1880952Y1388095D01*
X-1880952Y1483333D01*
X-1928571Y1578571D01*
X-1976190Y1626190D01*
X-2071428Y1673809D01*
X-2261904Y1721428D01*
X-2357142Y1769047D01*
X-2404761Y1816666D01*
X-2452380Y1911904D01*
X-2452380Y2007142D01*
X-2404761Y2102380D01*
X-2357142Y2150000D01*
X-2261904Y2197619D01*
X-2023809Y2197619D01*
X-1880952Y2150000D01*
X-1119047Y1721428D02*
X-1452380Y1721428D01*
X-1452380Y1197619D02*
X-1452380Y2197619D01*
X-976190Y2197619D01*
X-642857Y2102380D02*
X-595238Y2150000D01*
X-500000Y2197619D01*
X-261904Y2197619D01*
X-166666Y2150000D01*
X-119047Y2102380D01*
X-71428Y2007142D01*
X-71428Y1911904D01*
X-119047Y1769047D01*
X-690476Y1197619D01*
X-71428Y1197619D01*
X1119047Y1197619D02*
X1119047Y2197619D01*
X1119047Y1816666D02*
X1214285Y1864285D01*
X1404761Y1864285D01*
X1499999Y1816666D01*
X1547619Y1769047D01*
X1595238Y1673809D01*
X1595238Y1388095D01*
X1547619Y1292857D01*
X1499999Y1245238D01*
X1404761Y1197619D01*
X1214285Y1197619D01*
X1119047Y1245238D01*
X2023809Y1197619D02*
X2023809Y1864285D01*
X2023809Y1673809D02*
X2071428Y1769047D01*
X2119047Y1816666D01*
X2214285Y1864285D01*
X2309523Y1864285D01*
X3023809Y1245238D02*
X2928571Y1197619D01*
X2738095Y1197619D01*
X2642857Y1245238D01*
X2595238Y1340476D01*
X2595238Y1721428D01*
X2642857Y1816666D01*
X2738095Y1864285D01*
X2928571Y1864285D01*
X3023809Y1816666D01*
X3071428Y1721428D01*
X3071428Y1626190D01*
X2595238Y1530952D01*
X3928571Y1197619D02*
X3928571Y1721428D01*
X3880952Y1816666D01*
X3785714Y1864285D01*
X3595238Y1864285D01*
X3499999Y1816666D01*
X3928571Y1245238D02*
X3833333Y1197619D01*
X3595238Y1197619D01*
X3499999Y1245238D01*
X3452380Y1340476D01*
X3452380Y1435714D01*
X3499999Y1530952D01*
X3595238Y1578571D01*
X3833333Y1578571D01*
X3928571Y1626190D01*
X4404761Y1197619D02*
X4404761Y2197619D01*
X4499999Y1578571D02*
X4785714Y1197619D01*
X4785714Y1864285D02*
X4404761Y1483333D01*
X5357142Y1197619D02*
X5261904Y1245238D01*
X5214285Y1292857D01*
X5166666Y1388095D01*
X5166666Y1673809D01*
X5214285Y1769047D01*
X5261904Y1816666D01*
X5357142Y1864285D01*
X5499999Y1864285D01*
X5595238Y1816666D01*
X5642857Y1769047D01*
X5690476Y1673809D01*
X5690476Y1388095D01*
X5642857Y1292857D01*
X5595238Y1245238D01*
X5499999Y1197619D01*
X5357142Y1197619D01*
X6547619Y1864285D02*
X6547619Y1197619D01*
X6119047Y1864285D02*
X6119047Y1340476D01*
X6166666Y1245238D01*
X6261904Y1197619D01*
X6404761Y1197619D01*
X6499999Y1245238D01*
X6547619Y1292857D01*
X6880952Y1864285D02*
X7261904Y1864285D01*
X7023809Y2197619D02*
X7023809Y1340476D01*
X7071428Y1245238D01*
X7166666Y1197619D01*
X7261904Y1197619D01*
X7642857Y1245238D02*
X7642857Y1197619D01*
X7595238Y1102380D01*
X7547619Y1054761D01*
X8690476Y2197619D02*
X9023809Y1197619D01*
X9357142Y2197619D01*
X10214285Y1197619D02*
X9642857Y1197619D01*
X9928571Y1197619D02*
X9928571Y2197619D01*
X9833333Y2054761D01*
X9738095Y1959523D01*
X9642857Y1911904D01*
X10642857Y1292857D02*
X10690476Y1245238D01*
X10642857Y1197619D01*
X10595238Y1245238D01*
X10642857Y1292857D01*
X10642857Y1197619D01*
X11642857Y1197619D02*
X11071428Y1197619D01*
X11357142Y1197619D02*
X11357142Y2197619D01*
X11261904Y2054761D01*
X11166666Y1959523D01*
X11071428Y1911904D01*
X-13476190Y-452380D02*
X-13476190Y547619D01*
X-13047619Y-452380D02*
X-13047619Y71428D01*
X-13095238Y166666D01*
X-13190476Y214285D01*
X-13333333Y214285D01*
X-13428571Y166666D01*
X-13476190Y119047D01*
X-12714285Y214285D02*
X-12333333Y214285D01*
X-12571428Y547619D02*
X-12571428Y-309523D01*
X-12523809Y-404761D01*
X-12428571Y-452380D01*
X-12333333Y-452380D01*
X-12142857Y214285D02*
X-11761904Y214285D01*
X-12000000Y547619D02*
X-12000000Y-309523D01*
X-11952380Y-404761D01*
X-11857142Y-452380D01*
X-11761904Y-452380D01*
X-11428571Y214285D02*
X-11428571Y-785714D01*
X-11428571Y166666D02*
X-11333333Y214285D01*
X-11142857Y214285D01*
X-11047619Y166666D01*
X-11000000Y119047D01*
X-10952380Y23809D01*
X-10952380Y-261904D01*
X-11000000Y-357142D01*
X-11047619Y-404761D01*
X-11142857Y-452380D01*
X-11333333Y-452380D01*
X-11428571Y-404761D01*
X-10571428Y-404761D02*
X-10476190Y-452380D01*
X-10285714Y-452380D01*
X-10190476Y-404761D01*
X-10142857Y-309523D01*
X-10142857Y-261904D01*
X-10190476Y-166666D01*
X-10285714Y-119047D01*
X-10428571Y-119047D01*
X-10523809Y-71428D01*
X-10571428Y23809D01*
X-10571428Y71428D01*
X-10523809Y166666D01*
X-10428571Y214285D01*
X-10285714Y214285D01*
X-10190476Y166666D01*
X-9714285Y-357142D02*
X-9666666Y-404761D01*
X-9714285Y-452380D01*
X-9761904Y-404761D01*
X-9714285Y-357142D01*
X-9714285Y-452380D01*
X-9714285Y166666D02*
X-9666666Y119047D01*
X-9714285Y71428D01*
X-9761904Y119047D01*
X-9714285Y166666D01*
X-9714285Y71428D01*
X-8523809Y595238D02*
X-9380952Y-690476D01*
X-7476190Y595238D02*
X-8333333Y-690476D01*
X-6714285Y-452380D02*
X-6714285Y71428D01*
X-6761904Y166666D01*
X-6857142Y214285D01*
X-7047619Y214285D01*
X-7142857Y166666D01*
X-6714285Y-404761D02*
X-6809523Y-452380D01*
X-7047619Y-452380D01*
X-7142857Y-404761D01*
X-7190476Y-309523D01*
X-7190476Y-214285D01*
X-7142857Y-119047D01*
X-7047619Y-71428D01*
X-6809523Y-71428D01*
X-6714285Y-23809D01*
X-6380952Y214285D02*
X-6000000Y214285D01*
X-6238095Y547619D02*
X-6238095Y-309523D01*
X-6190476Y-404761D01*
X-6095238Y-452380D01*
X-6000000Y-452380D01*
X-5523809Y-452380D02*
X-5619047Y-404761D01*
X-5666666Y-357142D01*
X-5714285Y-261904D01*
X-5714285Y23809D01*
X-5666666Y119047D01*
X-5619047Y166666D01*
X-5523809Y214285D01*
X-5380952Y214285D01*
X-5285714Y166666D01*
X-5238095Y119047D01*
X-5190476Y23809D01*
X-5190476Y-261904D01*
X-5238095Y-357142D01*
X-5285714Y-404761D01*
X-5380952Y-452380D01*
X-5523809Y-452380D01*
X-4619047Y-452380D02*
X-4714285Y-404761D01*
X-4761904Y-357142D01*
X-4809523Y-261904D01*
X-4809523Y23809D01*
X-4761904Y119047D01*
X-4714285Y166666D01*
X-4619047Y214285D01*
X-4476190Y214285D01*
X-4380952Y166666D01*
X-4333333Y119047D01*
X-4285714Y23809D01*
X-4285714Y-261904D01*
X-4333333Y-357142D01*
X-4380952Y-404761D01*
X-4476190Y-452380D01*
X-4619047Y-452380D01*
X-3857142Y-452380D02*
X-3857142Y214285D01*
X-3857142Y119047D02*
X-3809523Y166666D01*
X-3714285Y214285D01*
X-3571428Y214285D01*
X-3476190Y166666D01*
X-3428571Y71428D01*
X-3428571Y-452380D01*
X-3428571Y71428D02*
X-3380952Y166666D01*
X-3285714Y214285D01*
X-3142857Y214285D01*
X-3047619Y166666D01*
X-3000000Y71428D01*
X-3000000Y-452380D01*
X-2523809Y214285D02*
X-2523809Y-452380D01*
X-2523809Y119047D02*
X-2476190Y166666D01*
X-2380952Y214285D01*
X-2238095Y214285D01*
X-2142857Y166666D01*
X-2095238Y71428D01*
X-2095238Y-452380D01*
X-1238095Y-404761D02*
X-1333333Y-452380D01*
X-1523809Y-452380D01*
X-1619047Y-404761D01*
X-1666666Y-309523D01*
X-1666666Y71428D01*
X-1619047Y166666D01*
X-1523809Y214285D01*
X-1333333Y214285D01*
X-1238095Y166666D01*
X-1190476Y71428D01*
X-1190476Y-23809D01*
X-1666666Y-119047D01*
X-904761Y214285D02*
X-523809Y214285D01*
X-761904Y547619D02*
X-761904Y-309523D01*
X-714285Y-404761D01*
X-619047Y-452380D01*
X-523809Y-452380D01*
X-190476Y-357142D02*
X-142857Y-404761D01*
X-190476Y-452380D01*
X-238095Y-404761D01*
X-190476Y-357142D01*
X-190476Y-452380D01*
X285714Y214285D02*
X285714Y-452380D01*
X285714Y119047D02*
X333333Y166666D01*
X428571Y214285D01*
X571428Y214285D01*
X666666Y166666D01*
X714285Y71428D01*
X714285Y-452380D01*
X1571428Y-404761D02*
X1476190Y-452380D01*
X1285714Y-452380D01*
X1190476Y-404761D01*
X1142857Y-309523D01*
X1142857Y71428D01*
X1190476Y166666D01*
X1285714Y214285D01*
X1476190Y214285D01*
X1571428Y166666D01*
X1619047Y71428D01*
X1619047Y-23809D01*
X1142857Y-119047D01*
X1904761Y214285D02*
X2285714Y214285D01*
X2047619Y547619D02*
X2047619Y-309523D01*
X2095238Y-404761D01*
X2190476Y-452380D01*
X2285714Y-452380D01*
X2666666Y-404761D02*
X2666666Y-452380D01*
X2619047Y-547619D01*
X2571428Y-595238D01*
X3809523Y452380D02*
X3857142Y500000D01*
X3952380Y547619D01*
X4190476Y547619D01*
X4285714Y500000D01*
X4333333Y452380D01*
X4380952Y357142D01*
X4380952Y261904D01*
X4333333Y119047D01*
X3761904Y-452380D01*
X4380952Y-452380D01*
X4999999Y547619D02*
X5095238Y547619D01*
X5190476Y500000D01*
X5238095Y452380D01*
X5285714Y357142D01*
X5333333Y166666D01*
X5333333Y-71428D01*
X5285714Y-261904D01*
X5238095Y-357142D01*
X5190476Y-404761D01*
X5095238Y-452380D01*
X4999999Y-452380D01*
X4904761Y-404761D01*
X4857142Y-357142D01*
X4809523Y-261904D01*
X4761904Y-71428D01*
X4761904Y166666D01*
X4809523Y357142D01*
X4857142Y452380D01*
X4904761Y500000D01*
X4999999Y547619D01*
X5714285Y452380D02*
X5761904Y500000D01*
X5857142Y547619D01*
X6095238Y547619D01*
X6190476Y500000D01*
X6238095Y452380D01*
X6285714Y357142D01*
X6285714Y261904D01*
X6238095Y119047D01*
X5666666Y-452380D01*
X6285714Y-452380D01*
X7238095Y-452380D02*
X6666666Y-452380D01*
X6952380Y-452380D02*
X6952380Y547619D01*
X6857142Y404761D01*
X6761904Y309523D01*
X6666666Y261904D01*
X7666666Y-71428D02*
X8428571Y-71428D01*
X9095238Y547619D02*
X9190476Y547619D01*
X9285714Y500000D01*
X9333333Y452380D01*
X9380952Y357142D01*
X9428571Y166666D01*
X9428571Y-71428D01*
X9380952Y-261904D01*
X9333333Y-357142D01*
X9285714Y-404761D01*
X9190476Y-452380D01*
X9095238Y-452380D01*
X8999999Y-404761D01*
X8952380Y-357142D01*
X8904761Y-261904D01*
X8857142Y-71428D01*
X8857142Y166666D01*
X8904761Y357142D01*
X8952380Y452380D01*
X8999999Y500000D01*
X9095238Y547619D01*
X9761904Y547619D02*
X10380952Y547619D01*
X10047619Y166666D01*
X10190476Y166666D01*
X10285714Y119047D01*
X10333333Y71428D01*
X10380952Y-23809D01*
X10380952Y-261904D01*
X10333333Y-357142D01*
X10285714Y-404761D01*
X10190476Y-452380D01*
X9904761Y-452380D01*
X9809523Y-404761D01*
X9761904Y-357142D01*
X10809523Y-71428D02*
X11571428Y-71428D01*
X12238095Y547619D02*
X12333333Y547619D01*
X12428571Y500000D01*
X12476190Y452380D01*
X12523809Y357142D01*
X12571428Y166666D01*
X12571428Y-71428D01*
X12523809Y-261904D01*
X12476190Y-357142D01*
X12428571Y-404761D01*
X12333333Y-452380D01*
X12238095Y-452380D01*
X12142857Y-404761D01*
X12095238Y-357142D01*
X12047619Y-261904D01*
X11999999Y-71428D01*
X11999999Y166666D01*
X12047619Y357142D01*
X12095238Y452380D01*
X12142857Y500000D01*
X12238095Y547619D01*
X12904761Y547619D02*
X13571428Y547619D01*
X13142857Y-452380D01*
X-13833333Y-2054761D02*
X-13690476Y-2102380D01*
X-13452380Y-2102380D01*
X-13357142Y-2054761D01*
X-13309523Y-2007142D01*
X-13261904Y-1911904D01*
X-13261904Y-1816666D01*
X-13309523Y-1721428D01*
X-13357142Y-1673809D01*
X-13452380Y-1626190D01*
X-13642857Y-1578571D01*
X-13738095Y-1530952D01*
X-13785714Y-1483333D01*
X-13833333Y-1388095D01*
X-13833333Y-1292857D01*
X-13785714Y-1197619D01*
X-13738095Y-1150000D01*
X-13642857Y-1102380D01*
X-13404761Y-1102380D01*
X-13261904Y-1150000D01*
X-12404761Y-1435714D02*
X-12404761Y-2102380D01*
X-12833333Y-1435714D02*
X-12833333Y-1959523D01*
X-12785714Y-2054761D01*
X-12690476Y-2102380D01*
X-12547619Y-2102380D01*
X-12452380Y-2054761D01*
X-12404761Y-2007142D01*
X-11500000Y-1435714D02*
X-11500000Y-2245238D01*
X-11547619Y-2340476D01*
X-11595238Y-2388095D01*
X-11690476Y-2435714D01*
X-11833333Y-2435714D01*
X-11928571Y-2388095D01*
X-11500000Y-2054761D02*
X-11595238Y-2102380D01*
X-11785714Y-2102380D01*
X-11880952Y-2054761D01*
X-11928571Y-2007142D01*
X-11976190Y-1911904D01*
X-11976190Y-1626190D01*
X-11928571Y-1530952D01*
X-11880952Y-1483333D01*
X-11785714Y-1435714D01*
X-11595238Y-1435714D01*
X-11500000Y-1483333D01*
X-10595238Y-1435714D02*
X-10595238Y-2245238D01*
X-10642857Y-2340476D01*
X-10690476Y-2388095D01*
X-10785714Y-2435714D01*
X-10928571Y-2435714D01*
X-11023809Y-2388095D01*
X-10595238Y-2054761D02*
X-10690476Y-2102380D01*
X-10880952Y-2102380D01*
X-10976190Y-2054761D01*
X-11023809Y-2007142D01*
X-11071428Y-1911904D01*
X-11071428Y-1626190D01*
X-11023809Y-1530952D01*
X-10976190Y-1483333D01*
X-10880952Y-1435714D01*
X-10690476Y-1435714D01*
X-10595238Y-1483333D01*
X-9738095Y-2054761D02*
X-9833333Y-2102380D01*
X-10023809Y-2102380D01*
X-10119047Y-2054761D01*
X-10166666Y-1959523D01*
X-10166666Y-1578571D01*
X-10119047Y-1483333D01*
X-10023809Y-1435714D01*
X-9833333Y-1435714D01*
X-9738095Y-1483333D01*
X-9690476Y-1578571D01*
X-9690476Y-1673809D01*
X-10166666Y-1769047D01*
X-9309523Y-2054761D02*
X-9214285Y-2102380D01*
X-9023809Y-2102380D01*
X-8928571Y-2054761D01*
X-8880952Y-1959523D01*
X-8880952Y-1911904D01*
X-8928571Y-1816666D01*
X-9023809Y-1769047D01*
X-9166666Y-1769047D01*
X-9261904Y-1721428D01*
X-9309523Y-1626190D01*
X-9309523Y-1578571D01*
X-9261904Y-1483333D01*
X-9166666Y-1435714D01*
X-9023809Y-1435714D01*
X-8928571Y-1483333D01*
X-8595238Y-1435714D02*
X-8214285Y-1435714D01*
X-8452380Y-1102380D02*
X-8452380Y-1959523D01*
X-8404761Y-2054761D01*
X-8309523Y-2102380D01*
X-8214285Y-2102380D01*
X-7500000Y-2054761D02*
X-7595238Y-2102380D01*
X-7785714Y-2102380D01*
X-7880952Y-2054761D01*
X-7928571Y-1959523D01*
X-7928571Y-1578571D01*
X-7880952Y-1483333D01*
X-7785714Y-1435714D01*
X-7595238Y-1435714D01*
X-7500000Y-1483333D01*
X-7452380Y-1578571D01*
X-7452380Y-1673809D01*
X-7928571Y-1769047D01*
X-6595238Y-2102380D02*
X-6595238Y-1102380D01*
X-6595238Y-2054761D02*
X-6690476Y-2102380D01*
X-6880952Y-2102380D01*
X-6976190Y-2054761D01*
X-7023809Y-2007142D01*
X-7071428Y-1911904D01*
X-7071428Y-1626190D01*
X-7023809Y-1530952D01*
X-6976190Y-1483333D01*
X-6880952Y-1435714D01*
X-6690476Y-1435714D01*
X-6595238Y-1483333D01*
X-4928571Y-2054761D02*
X-5023809Y-2102380D01*
X-5214285Y-2102380D01*
X-5309523Y-2054761D01*
X-5357142Y-2007142D01*
X-5404761Y-1911904D01*
X-5404761Y-1626190D01*
X-5357142Y-1530952D01*
X-5309523Y-1483333D01*
X-5214285Y-1435714D01*
X-5023809Y-1435714D01*
X-4928571Y-1483333D01*
X-4071428Y-2102380D02*
X-4071428Y-1578571D01*
X-4119047Y-1483333D01*
X-4214285Y-1435714D01*
X-4404761Y-1435714D01*
X-4500000Y-1483333D01*
X-4071428Y-2054761D02*
X-4166666Y-2102380D01*
X-4404761Y-2102380D01*
X-4500000Y-2054761D01*
X-4547619Y-1959523D01*
X-4547619Y-1864285D01*
X-4500000Y-1769047D01*
X-4404761Y-1721428D01*
X-4166666Y-1721428D01*
X-4071428Y-1673809D01*
X-3642857Y-2054761D02*
X-3547619Y-2102380D01*
X-3357142Y-2102380D01*
X-3261904Y-2054761D01*
X-3214285Y-1959523D01*
X-3214285Y-1911904D01*
X-3261904Y-1816666D01*
X-3357142Y-1769047D01*
X-3500000Y-1769047D01*
X-3595238Y-1721428D01*
X-3642857Y-1626190D01*
X-3642857Y-1578571D01*
X-3595238Y-1483333D01*
X-3500000Y-1435714D01*
X-3357142Y-1435714D01*
X-3261904Y-1483333D01*
X-2404761Y-2054761D02*
X-2500000Y-2102380D01*
X-2690476Y-2102380D01*
X-2785714Y-2054761D01*
X-2833333Y-1959523D01*
X-2833333Y-1578571D01*
X-2785714Y-1483333D01*
X-2690476Y-1435714D01*
X-2500000Y-1435714D01*
X-2404761Y-1483333D01*
X-2357142Y-1578571D01*
X-2357142Y-1673809D01*
X-2833333Y-1769047D01*
X-1928571Y-2007142D02*
X-1880952Y-2054761D01*
X-1928571Y-2102380D01*
X-1976190Y-2054761D01*
X-1928571Y-2007142D01*
X-1928571Y-2102380D01*
X-1928571Y-1483333D02*
X-1880952Y-1530952D01*
X-1928571Y-1578571D01*
X-1976190Y-1530952D01*
X-1928571Y-1483333D01*
X-1928571Y-1578571D01*
X-690476Y-2102380D02*
X-690476Y-1102380D01*
X-690476Y-1578571D02*
X-119047Y-1578571D01*
X-119047Y-2102380D02*
X-119047Y-1102380D01*
X785714Y-2102380D02*
X785714Y-1578571D01*
X738095Y-1483333D01*
X642857Y-1435714D01*
X452380Y-1435714D01*
X357142Y-1483333D01*
X785714Y-2054761D02*
X690476Y-2102380D01*
X452380Y-2102380D01*
X357142Y-2054761D01*
X309523Y-1959523D01*
X309523Y-1864285D01*
X357142Y-1769047D01*
X452380Y-1721428D01*
X690476Y-1721428D01*
X785714Y-1673809D01*
X1261904Y-2102380D02*
X1261904Y-1435714D01*
X1261904Y-1530952D02*
X1309523Y-1483333D01*
X1404761Y-1435714D01*
X1547619Y-1435714D01*
X1642857Y-1483333D01*
X1690476Y-1578571D01*
X1690476Y-2102380D01*
X1690476Y-1578571D02*
X1738095Y-1483333D01*
X1833333Y-1435714D01*
X1976190Y-1435714D01*
X2071428Y-1483333D01*
X2119047Y-1578571D01*
X2119047Y-2102380D01*
X2595238Y-2102380D02*
X2595238Y-1435714D01*
X2595238Y-1530952D02*
X2642857Y-1483333D01*
X2738095Y-1435714D01*
X2880952Y-1435714D01*
X2976190Y-1483333D01*
X3023809Y-1578571D01*
X3023809Y-2102380D01*
X3023809Y-1578571D02*
X3071428Y-1483333D01*
X3166666Y-1435714D01*
X3309523Y-1435714D01*
X3404761Y-1483333D01*
X3452380Y-1578571D01*
X3452380Y-2102380D01*
X4071428Y-2102380D02*
X3976190Y-2054761D01*
X3928571Y-2007142D01*
X3880952Y-1911904D01*
X3880952Y-1626190D01*
X3928571Y-1530952D01*
X3976190Y-1483333D01*
X4071428Y-1435714D01*
X4214285Y-1435714D01*
X4309523Y-1483333D01*
X4357142Y-1530952D01*
X4404761Y-1626190D01*
X4404761Y-1911904D01*
X4357142Y-2007142D01*
X4309523Y-2054761D01*
X4214285Y-2102380D01*
X4071428Y-2102380D01*
X4833333Y-1435714D02*
X4833333Y-2102380D01*
X4833333Y-1530952D02*
X4880952Y-1483333D01*
X4976190Y-1435714D01*
X5119047Y-1435714D01*
X5214285Y-1483333D01*
X5261904Y-1578571D01*
X5261904Y-2102380D01*
X6166666Y-2102380D02*
X6166666Y-1102380D01*
X6166666Y-2054761D02*
X6071428Y-2102380D01*
X5880952Y-2102380D01*
X5785714Y-2054761D01*
X5738095Y-2007142D01*
X5690476Y-1911904D01*
X5690476Y-1626190D01*
X5738095Y-1530952D01*
X5785714Y-1483333D01*
X5880952Y-1435714D01*
X6071428Y-1435714D01*
X6166666Y-1483333D01*
X7928571Y-2102380D02*
X7357142Y-2102380D01*
X7642857Y-2102380D02*
X7642857Y-1102380D01*
X7547619Y-1245238D01*
X7452380Y-1340476D01*
X7357142Y-1388095D01*
X8833333Y-1102380D02*
X8357142Y-1102380D01*
X8309523Y-1578571D01*
X8357142Y-1530952D01*
X8452380Y-1483333D01*
X8690476Y-1483333D01*
X8785714Y-1530952D01*
X8833333Y-1578571D01*
X8880952Y-1673809D01*
X8880952Y-1911904D01*
X8833333Y-2007142D01*
X8785714Y-2054761D01*
X8690476Y-2102380D01*
X8452380Y-2102380D01*
X8357142Y-2054761D01*
X8309523Y-2007142D01*
X9357142Y-2102380D02*
X9547619Y-2102380D01*
X9642857Y-2054761D01*
X9690476Y-2007142D01*
X9785714Y-1864285D01*
X9833333Y-1673809D01*
X9833333Y-1292857D01*
X9785714Y-1197619D01*
X9738095Y-1150000D01*
X9642857Y-1102380D01*
X9452380Y-1102380D01*
X9357142Y-1150000D01*
X9309523Y-1197619D01*
X9261904Y-1292857D01*
X9261904Y-1530952D01*
X9309523Y-1626190D01*
X9357142Y-1673809D01*
X9452380Y-1721428D01*
X9642857Y-1721428D01*
X9738095Y-1673809D01*
X9785714Y-1626190D01*
X9833333Y-1530952D01*
X10785714Y-2102380D02*
X10214285Y-2102380D01*
X10499999Y-2102380D02*
X10499999Y-1102380D01*
X10404761Y-1245238D01*
X10309523Y-1340476D01*
X10214285Y-1388095D01*
X11119047Y-1102380D02*
X11785714Y-2102380D01*
X11785714Y-1102380D02*
X11119047Y-2102380D01*
X12071428Y-1102380D02*
X12738095Y-2102380D01*
X12738095Y-1102380D02*
X12071428Y-2102380D01*
X13119047Y-2102380D02*
X13119047Y-1102380D01*
X13452380Y-1816666D01*
X13785714Y-1102380D01*
X13785714Y-2102380D01*
D11*
X-24865000Y8662936D02*
X-24865000Y9117064D01*
X-23395000Y8662936D02*
X-23395000Y9117064D01*
X14231252Y12165000D02*
X13708748Y12165000D01*
X14231252Y10695000D02*
X13708748Y10695000D01*
X14231252Y-10695000D02*
X13708748Y-10695000D01*
X14231252Y-12165000D02*
X13708748Y-12165000D01*
X-4345000Y4852936D02*
X-4345000Y5307064D01*
X-5815000Y4852936D02*
X-5815000Y5307064D01*
X-31522936Y-13235000D02*
X-31977064Y-13235000D01*
X-31522936Y-14705000D02*
X-31977064Y-14705000D01*
X-10220000Y15180000D02*
X-10220000Y16510000D01*
X-8890000Y15180000D02*
X-10220000Y15180000D01*
X-10220000Y17780000D02*
X-10220000Y20380000D01*
X-7620000Y17780000D02*
X-10220000Y17780000D01*
X-7620000Y15180000D02*
X-7620000Y17780000D01*
X-10220000Y20380000D02*
X10220000Y20380000D01*
X-7620000Y15180000D02*
X10220000Y15180000D01*
X10220000Y15180000D02*
X10220000Y20380000D01*
X-32011252Y-12165000D02*
X-31488748Y-12165000D01*
X-32011252Y-10695000D02*
X-31488748Y-10695000D01*
X535000Y-4852936D02*
X535000Y-5307064D01*
X2005000Y-4852936D02*
X2005000Y-5307064D01*
X10387064Y7085000D02*
X9932936Y7085000D01*
X10387064Y5615000D02*
X9932936Y5615000D01*
X-227064Y5615000D02*
X227064Y5615000D01*
X-227064Y7085000D02*
X227064Y7085000D01*
X-227064Y3075000D02*
X227064Y3075000D01*
X-227064Y4545000D02*
X227064Y4545000D01*
X-1805000Y-5341252D02*
X-1805000Y-4818748D01*
X-3275000Y-5341252D02*
X-3275000Y-4818748D01*
X-8355000Y-4852936D02*
X-8355000Y-5307064D01*
X-6885000Y-4852936D02*
X-6885000Y-5307064D01*
X-4345000Y-5307064D02*
X-4345000Y-4852936D01*
X-5815000Y-5307064D02*
X-5815000Y-4852936D01*
X-13100000Y14260000D02*
X-13100000Y8250000D01*
X-19920000Y12010000D02*
X-19920000Y8250000D01*
X-13100000Y8250000D02*
X-14360000Y8250000D01*
X-19920000Y8250000D02*
X-18660000Y8250000D01*
X10100000Y-15180000D02*
X11430000Y-15180000D01*
X10100000Y-16510000D02*
X10100000Y-15180000D01*
X10100000Y-17780000D02*
X12760000Y-17780000D01*
X12760000Y-17780000D02*
X12760000Y-20380000D01*
X10100000Y-17780000D02*
X10100000Y-20380000D01*
X10100000Y-20380000D02*
X12760000Y-20380000D01*
X-29877936Y11070000D02*
X-31082064Y11070000D01*
X-29877936Y9250000D02*
X-31082064Y9250000D01*
X-23170000Y1780000D02*
X-23170000Y3240000D01*
X-20010000Y1780000D02*
X-20010000Y3940000D01*
X-20010000Y1780000D02*
X-20940000Y1780000D01*
X-23170000Y1780000D02*
X-22240000Y1780000D01*
X-20010000Y-1780000D02*
X-20010000Y-3240000D01*
X-23170000Y-1780000D02*
X-23170000Y-3940000D01*
X-23170000Y-1780000D02*
X-22240000Y-1780000D01*
X-20010000Y-1780000D02*
X-20940000Y-1780000D01*
X-18640000Y23240000D02*
X-13240000Y23240000D01*
X-18640000Y19940000D02*
X-13240000Y19940000D01*
X-18640000Y23240000D02*
X-18640000Y19940000D01*
X-35180000Y16100000D02*
X-35180000Y10700000D01*
X-38480000Y16100000D02*
X-38480000Y10700000D01*
X-35180000Y16100000D02*
X-38480000Y16100000D01*
X16248748Y-16610000D02*
X16771252Y-16610000D01*
X16248748Y-15140000D02*
X16771252Y-15140000D01*
X16248748Y-20420000D02*
X16771252Y-20420000D01*
X16248748Y-18950000D02*
X16771252Y-18950000D01*
X-10695000Y8628748D02*
X-10695000Y9151252D01*
X-12165000Y8628748D02*
X-12165000Y9151252D01*
X-22325000Y9151252D02*
X-22325000Y8628748D01*
X-20855000Y9151252D02*
X-20855000Y8628748D01*
X6410000Y-15180000D02*
X6410000Y-16510000D01*
X5080000Y-15180000D02*
X6410000Y-15180000D01*
X6410000Y-17780000D02*
X6410000Y-20380000D01*
X3810000Y-17780000D02*
X6410000Y-17780000D01*
X3810000Y-15180000D02*
X3810000Y-17780000D01*
X6410000Y-20380000D02*
X-6410000Y-20380000D01*
X3810000Y-15180000D02*
X-6410000Y-15180000D01*
X-6410000Y-15180000D02*
X-6410000Y-20380000D01*
X32131000Y9398000D02*
X32131000Y7620000D01*
X39751000Y9398000D02*
X39751000Y-9398000D01*
X32131000Y9398000D02*
X39751000Y9398000D01*
X32131000Y9652000D02*
X32131000Y9398000D01*
X16637000Y9652000D02*
X32131000Y9652000D01*
X16637000Y9398000D02*
X16637000Y9652000D01*
X15113000Y9398000D02*
X16637000Y9398000D01*
X15113000Y-9398000D02*
X15113000Y9398000D01*
X16637000Y-9398000D02*
X15113000Y-9398000D01*
X16637000Y-9652000D02*
X16637000Y-9398000D01*
X32131000Y-9652000D02*
X16637000Y-9652000D01*
X32131000Y-9398000D02*
X32131000Y-9652000D01*
X39751000Y-9398000D02*
X32131000Y-9398000D01*
X-30600000Y-6180000D02*
X-26340000Y-6180000D01*
X-26340000Y-6180000D02*
X-26340000Y6140000D01*
X-26340000Y6140000D02*
X-30600000Y6140000D01*
X-34700000Y-6180000D02*
X-43060000Y-6180000D01*
X-43060000Y-6180000D02*
X-43060000Y6140000D01*
X-43060000Y6140000D02*
X-34700000Y6140000D01*
X-26120000Y-1270000D02*
X-25620000Y-1770000D01*
X-25620000Y-1770000D02*
X-25620000Y-770000D01*
X-25620000Y-770000D02*
X-26120000Y-1270000D01*
D10*
X-24296666Y5897619D02*
X-24630000Y6373809D01*
X-24868095Y5897619D02*
X-24868095Y6897619D01*
X-24487142Y6897619D01*
X-24391904Y6850000D01*
X-24344285Y6802380D01*
X-24296666Y6707142D01*
X-24296666Y6564285D01*
X-24344285Y6469047D01*
X-24391904Y6421428D01*
X-24487142Y6373809D01*
X-24868095Y6373809D01*
X-23344285Y5897619D02*
X-23915714Y5897619D01*
X-23630000Y5897619D02*
X-23630000Y6897619D01*
X-23725238Y6754761D01*
X-23820476Y6659523D01*
X-23915714Y6611904D01*
X13803333Y9392857D02*
X13755714Y9345238D01*
X13612857Y9297619D01*
X13517619Y9297619D01*
X13374761Y9345238D01*
X13279523Y9440476D01*
X13231904Y9535714D01*
X13184285Y9726190D01*
X13184285Y9869047D01*
X13231904Y10059523D01*
X13279523Y10154761D01*
X13374761Y10250000D01*
X13517619Y10297619D01*
X13612857Y10297619D01*
X13755714Y10250000D01*
X13803333Y10202380D01*
X14374761Y9869047D02*
X14279523Y9916666D01*
X14231904Y9964285D01*
X14184285Y10059523D01*
X14184285Y10107142D01*
X14231904Y10202380D01*
X14279523Y10250000D01*
X14374761Y10297619D01*
X14565238Y10297619D01*
X14660476Y10250000D01*
X14708095Y10202380D01*
X14755714Y10107142D01*
X14755714Y10059523D01*
X14708095Y9964285D01*
X14660476Y9916666D01*
X14565238Y9869047D01*
X14374761Y9869047D01*
X14279523Y9821428D01*
X14231904Y9773809D01*
X14184285Y9678571D01*
X14184285Y9488095D01*
X14231904Y9392857D01*
X14279523Y9345238D01*
X14374761Y9297619D01*
X14565238Y9297619D01*
X14660476Y9345238D01*
X14708095Y9392857D01*
X14755714Y9488095D01*
X14755714Y9678571D01*
X14708095Y9773809D01*
X14660476Y9821428D01*
X14565238Y9869047D01*
X16618833Y-11914142D02*
X16571214Y-11961761D01*
X16428357Y-12009380D01*
X16333119Y-12009380D01*
X16190261Y-11961761D01*
X16095023Y-11866523D01*
X16047404Y-11771285D01*
X15999785Y-11580809D01*
X15999785Y-11437952D01*
X16047404Y-11247476D01*
X16095023Y-11152238D01*
X16190261Y-11057000D01*
X16333119Y-11009380D01*
X16428357Y-11009380D01*
X16571214Y-11057000D01*
X16618833Y-11104619D01*
X16952166Y-11009380D02*
X17618833Y-11009380D01*
X17190261Y-12009380D01*
X-6277619Y4437142D02*
X-6753809Y4103809D01*
X-6277619Y3865714D02*
X-7277619Y3865714D01*
X-7277619Y4246666D01*
X-7230000Y4341904D01*
X-7182380Y4389523D01*
X-7087142Y4437142D01*
X-6944285Y4437142D01*
X-6849047Y4389523D01*
X-6801428Y4341904D01*
X-6753809Y4246666D01*
X-6753809Y3865714D01*
X-6277619Y5389523D02*
X-6277619Y4818095D01*
X-6277619Y5103809D02*
X-7277619Y5103809D01*
X-7134761Y5008571D01*
X-7039523Y4913333D01*
X-6991904Y4818095D01*
X-7277619Y6008571D02*
X-7277619Y6103809D01*
X-7230000Y6199047D01*
X-7182380Y6246666D01*
X-7087142Y6294285D01*
X-6896666Y6341904D01*
X-6658571Y6341904D01*
X-6468095Y6294285D01*
X-6372857Y6246666D01*
X-6325238Y6199047D01*
X-6277619Y6103809D01*
X-6277619Y6008571D01*
X-6325238Y5913333D01*
X-6372857Y5865714D01*
X-6468095Y5818095D01*
X-6658571Y5770476D01*
X-6896666Y5770476D01*
X-7087142Y5818095D01*
X-7182380Y5865714D01*
X-7230000Y5913333D01*
X-7277619Y6008571D01*
X-34964666Y-14422380D02*
X-35298000Y-13946190D01*
X-35536095Y-14422380D02*
X-35536095Y-13422380D01*
X-35155142Y-13422380D01*
X-35059904Y-13470000D01*
X-35012285Y-13517619D01*
X-34964666Y-13612857D01*
X-34964666Y-13755714D01*
X-35012285Y-13850952D01*
X-35059904Y-13898571D01*
X-35155142Y-13946190D01*
X-35536095Y-13946190D01*
X-34488476Y-14422380D02*
X-34298000Y-14422380D01*
X-34202761Y-14374761D01*
X-34155142Y-14327142D01*
X-34059904Y-14184285D01*
X-34012285Y-13993809D01*
X-34012285Y-13612857D01*
X-34059904Y-13517619D01*
X-34107523Y-13470000D01*
X-34202761Y-13422380D01*
X-34393238Y-13422380D01*
X-34488476Y-13470000D01*
X-34536095Y-13517619D01*
X-34583714Y-13612857D01*
X-34583714Y-13850952D01*
X-34536095Y-13946190D01*
X-34488476Y-13993809D01*
X-34393238Y-14041428D01*
X-34202761Y-14041428D01*
X-34107523Y-13993809D01*
X-34059904Y-13946190D01*
X-34012285Y-13850952D01*
X-11767619Y17446666D02*
X-11053333Y17446666D01*
X-10910476Y17399047D01*
X-10815238Y17303809D01*
X-10767619Y17160952D01*
X-10767619Y17065714D01*
X-11434285Y18351428D02*
X-10767619Y18351428D01*
X-11815238Y18113333D02*
X-11100952Y17875238D01*
X-11100952Y18494285D01*
X-34837666Y-11660142D02*
X-34885285Y-11707761D01*
X-35028142Y-11755380D01*
X-35123380Y-11755380D01*
X-35266238Y-11707761D01*
X-35361476Y-11612523D01*
X-35409095Y-11517285D01*
X-35456714Y-11326809D01*
X-35456714Y-11183952D01*
X-35409095Y-10993476D01*
X-35361476Y-10898238D01*
X-35266238Y-10803000D01*
X-35123380Y-10755380D01*
X-35028142Y-10755380D01*
X-34885285Y-10803000D01*
X-34837666Y-10850619D01*
X-33980523Y-10755380D02*
X-34171000Y-10755380D01*
X-34266238Y-10803000D01*
X-34313857Y-10850619D01*
X-34409095Y-10993476D01*
X-34456714Y-11183952D01*
X-34456714Y-11564904D01*
X-34409095Y-11660142D01*
X-34361476Y-11707761D01*
X-34266238Y-11755380D01*
X-34075761Y-11755380D01*
X-33980523Y-11707761D01*
X-33932904Y-11660142D01*
X-33885285Y-11564904D01*
X-33885285Y-11326809D01*
X-33932904Y-11231571D01*
X-33980523Y-11183952D01*
X-34075761Y-11136333D01*
X-34266238Y-11136333D01*
X-34361476Y-11183952D01*
X-34409095Y-11231571D01*
X-34456714Y-11326809D01*
X1722380Y-8167666D02*
X1246190Y-8501000D01*
X1722380Y-8739095D02*
X722380Y-8739095D01*
X722380Y-8358142D01*
X770000Y-8262904D01*
X817619Y-8215285D01*
X912857Y-8167666D01*
X1055714Y-8167666D01*
X1150952Y-8215285D01*
X1198571Y-8262904D01*
X1246190Y-8358142D01*
X1246190Y-8739095D01*
X1150952Y-7596238D02*
X1103333Y-7691476D01*
X1055714Y-7739095D01*
X960476Y-7786714D01*
X912857Y-7786714D01*
X817619Y-7739095D01*
X770000Y-7691476D01*
X722380Y-7596238D01*
X722380Y-7405761D01*
X770000Y-7310523D01*
X817619Y-7262904D01*
X912857Y-7215285D01*
X960476Y-7215285D01*
X1055714Y-7262904D01*
X1103333Y-7310523D01*
X1150952Y-7405761D01*
X1150952Y-7596238D01*
X1198571Y-7691476D01*
X1246190Y-7739095D01*
X1341428Y-7786714D01*
X1531904Y-7786714D01*
X1627142Y-7739095D01*
X1674761Y-7691476D01*
X1722380Y-7596238D01*
X1722380Y-7405761D01*
X1674761Y-7310523D01*
X1627142Y-7262904D01*
X1531904Y-7215285D01*
X1341428Y-7215285D01*
X1246190Y-7262904D01*
X1198571Y-7310523D01*
X1150952Y-7405761D01*
X12787333Y5897619D02*
X12454000Y6373809D01*
X12215904Y5897619D02*
X12215904Y6897619D01*
X12596857Y6897619D01*
X12692095Y6850000D01*
X12739714Y6802380D01*
X12787333Y6707142D01*
X12787333Y6564285D01*
X12739714Y6469047D01*
X12692095Y6421428D01*
X12596857Y6373809D01*
X12215904Y6373809D01*
X13120666Y6897619D02*
X13787333Y6897619D01*
X13358761Y5897619D01*
X-2960666Y5897619D02*
X-3294000Y6373809D01*
X-3532095Y5897619D02*
X-3532095Y6897619D01*
X-3151142Y6897619D01*
X-3055904Y6850000D01*
X-3008285Y6802380D01*
X-2960666Y6707142D01*
X-2960666Y6564285D01*
X-3008285Y6469047D01*
X-3055904Y6421428D01*
X-3151142Y6373809D01*
X-3532095Y6373809D01*
X-2103523Y6897619D02*
X-2294000Y6897619D01*
X-2389238Y6850000D01*
X-2436857Y6802380D01*
X-2532095Y6659523D01*
X-2579714Y6469047D01*
X-2579714Y6088095D01*
X-2532095Y5992857D01*
X-2484476Y5945238D01*
X-2389238Y5897619D01*
X-2198761Y5897619D01*
X-2103523Y5945238D01*
X-2055904Y5992857D01*
X-2008285Y6088095D01*
X-2008285Y6326190D01*
X-2055904Y6421428D01*
X-2103523Y6469047D01*
X-2198761Y6516666D01*
X-2389238Y6516666D01*
X-2484476Y6469047D01*
X-2532095Y6421428D01*
X-2579714Y6326190D01*
X-2960666Y3357619D02*
X-3294000Y3833809D01*
X-3532095Y3357619D02*
X-3532095Y4357619D01*
X-3151142Y4357619D01*
X-3055904Y4310000D01*
X-3008285Y4262380D01*
X-2960666Y4167142D01*
X-2960666Y4024285D01*
X-3008285Y3929047D01*
X-3055904Y3881428D01*
X-3151142Y3833809D01*
X-3532095Y3833809D01*
X-2055904Y4357619D02*
X-2532095Y4357619D01*
X-2579714Y3881428D01*
X-2532095Y3929047D01*
X-2436857Y3976666D01*
X-2198761Y3976666D01*
X-2103523Y3929047D01*
X-2055904Y3881428D01*
X-2008285Y3786190D01*
X-2008285Y3548095D01*
X-2055904Y3452857D01*
X-2103523Y3405238D01*
X-2198761Y3357619D01*
X-2436857Y3357619D01*
X-2532095Y3405238D01*
X-2579714Y3452857D01*
X-2182857Y-8294666D02*
X-2135238Y-8342285D01*
X-2087619Y-8485142D01*
X-2087619Y-8580380D01*
X-2135238Y-8723238D01*
X-2230476Y-8818476D01*
X-2325714Y-8866095D01*
X-2516190Y-8913714D01*
X-2659047Y-8913714D01*
X-2849523Y-8866095D01*
X-2944761Y-8818476D01*
X-3040000Y-8723238D01*
X-3087619Y-8580380D01*
X-3087619Y-8485142D01*
X-3040000Y-8342285D01*
X-2992380Y-8294666D01*
X-3087619Y-7389904D02*
X-3087619Y-7866095D01*
X-2611428Y-7913714D01*
X-2659047Y-7866095D01*
X-2706666Y-7770857D01*
X-2706666Y-7532761D01*
X-2659047Y-7437523D01*
X-2611428Y-7389904D01*
X-2516190Y-7342285D01*
X-2278095Y-7342285D01*
X-2182857Y-7389904D01*
X-2135238Y-7437523D01*
X-2087619Y-7532761D01*
X-2087619Y-7770857D01*
X-2135238Y-7866095D01*
X-2182857Y-7913714D01*
X-7167619Y-8294666D02*
X-7643809Y-8628000D01*
X-7167619Y-8866095D02*
X-8167619Y-8866095D01*
X-8167619Y-8485142D01*
X-8120000Y-8389904D01*
X-8072380Y-8342285D01*
X-7977142Y-8294666D01*
X-7834285Y-8294666D01*
X-7739047Y-8342285D01*
X-7691428Y-8389904D01*
X-7643809Y-8485142D01*
X-7643809Y-8866095D01*
X-7834285Y-7437523D02*
X-7167619Y-7437523D01*
X-8215238Y-7675619D02*
X-7500952Y-7913714D01*
X-7500952Y-7294666D01*
X-4627619Y-8294666D02*
X-5103809Y-8628000D01*
X-4627619Y-8866095D02*
X-5627619Y-8866095D01*
X-5627619Y-8485142D01*
X-5580000Y-8389904D01*
X-5532380Y-8342285D01*
X-5437142Y-8294666D01*
X-5294285Y-8294666D01*
X-5199047Y-8342285D01*
X-5151428Y-8389904D01*
X-5103809Y-8485142D01*
X-5103809Y-8866095D01*
X-5627619Y-7961333D02*
X-5627619Y-7342285D01*
X-5246666Y-7675619D01*
X-5246666Y-7532761D01*
X-5199047Y-7437523D01*
X-5151428Y-7389904D01*
X-5056190Y-7342285D01*
X-4818095Y-7342285D01*
X-4722857Y-7389904D01*
X-4675238Y-7437523D01*
X-4627619Y-7532761D01*
X-4627619Y-7818476D01*
X-4675238Y-7913714D01*
X-4722857Y-7961333D01*
X-17271904Y15914619D02*
X-17271904Y15105095D01*
X-17224285Y15009857D01*
X-17176666Y14962238D01*
X-17081428Y14914619D01*
X-16890952Y14914619D01*
X-16795714Y14962238D01*
X-16748095Y15009857D01*
X-16700476Y15105095D01*
X-16700476Y15914619D01*
X-16271904Y15819380D02*
X-16224285Y15867000D01*
X-16129047Y15914619D01*
X-15890952Y15914619D01*
X-15795714Y15867000D01*
X-15748095Y15819380D01*
X-15700476Y15724142D01*
X-15700476Y15628904D01*
X-15748095Y15486047D01*
X-16319523Y14914619D01*
X-15700476Y14914619D01*
X8810666Y-15454380D02*
X8810666Y-16168666D01*
X8763047Y-16311523D01*
X8667809Y-16406761D01*
X8524952Y-16454380D01*
X8429714Y-16454380D01*
X9191619Y-15454380D02*
X9810666Y-15454380D01*
X9477333Y-15835333D01*
X9620190Y-15835333D01*
X9715428Y-15882952D01*
X9763047Y-15930571D01*
X9810666Y-16025809D01*
X9810666Y-16263904D01*
X9763047Y-16359142D01*
X9715428Y-16406761D01*
X9620190Y-16454380D01*
X9334476Y-16454380D01*
X9239238Y-16406761D01*
X9191619Y-16359142D01*
X-30813333Y8411428D02*
X-31146666Y8411428D01*
X-31146666Y7887619D02*
X-31146666Y8887619D01*
X-30670476Y8887619D01*
X-29765714Y7887619D02*
X-30337142Y7887619D01*
X-30051428Y7887619D02*
X-30051428Y8887619D01*
X-30146666Y8744761D01*
X-30241904Y8649523D01*
X-30337142Y8601904D01*
X-22328095Y4500619D02*
X-22328095Y5500619D01*
X-22090000Y5500619D01*
X-21947142Y5453000D01*
X-21851904Y5357761D01*
X-21804285Y5262523D01*
X-21756666Y5072047D01*
X-21756666Y4929190D01*
X-21804285Y4738714D01*
X-21851904Y4643476D01*
X-21947142Y4548238D01*
X-22090000Y4500619D01*
X-22328095Y4500619D01*
X-20899523Y5167285D02*
X-20899523Y4500619D01*
X-21137619Y5548238D02*
X-21375714Y4833952D01*
X-20756666Y4833952D01*
X-22328095Y-5405380D02*
X-22328095Y-4405380D01*
X-22090000Y-4405380D01*
X-21947142Y-4453000D01*
X-21851904Y-4548238D01*
X-21804285Y-4643476D01*
X-21756666Y-4833952D01*
X-21756666Y-4976809D01*
X-21804285Y-5167285D01*
X-21851904Y-5262523D01*
X-21947142Y-5357761D01*
X-22090000Y-5405380D01*
X-22328095Y-5405380D01*
X-21423333Y-4405380D02*
X-20804285Y-4405380D01*
X-21137619Y-4786333D01*
X-20994761Y-4786333D01*
X-20899523Y-4833952D01*
X-20851904Y-4881571D01*
X-20804285Y-4976809D01*
X-20804285Y-5214904D01*
X-20851904Y-5310142D01*
X-20899523Y-5357761D01*
X-20994761Y-5405380D01*
X-21280476Y-5405380D01*
X-21375714Y-5357761D01*
X-21423333Y-5310142D01*
X-15978095Y23637619D02*
X-15978095Y24637619D01*
X-15740000Y24637619D01*
X-15597142Y24590000D01*
X-15501904Y24494761D01*
X-15454285Y24399523D01*
X-15406666Y24209047D01*
X-15406666Y24066190D01*
X-15454285Y23875714D01*
X-15501904Y23780476D01*
X-15597142Y23685238D01*
X-15740000Y23637619D01*
X-15978095Y23637619D01*
X-15025714Y24542380D02*
X-14978095Y24590000D01*
X-14882857Y24637619D01*
X-14644761Y24637619D01*
X-14549523Y24590000D01*
X-14501904Y24542380D01*
X-14454285Y24447142D01*
X-14454285Y24351904D01*
X-14501904Y24209047D01*
X-15073333Y23637619D01*
X-14454285Y23637619D01*
X-33877619Y11961904D02*
X-34877619Y11961904D01*
X-34877619Y12200000D01*
X-34830000Y12342857D01*
X-34734761Y12438095D01*
X-34639523Y12485714D01*
X-34449047Y12533333D01*
X-34306190Y12533333D01*
X-34115714Y12485714D01*
X-34020476Y12438095D01*
X-33925238Y12342857D01*
X-33877619Y12200000D01*
X-33877619Y11961904D01*
X-33877619Y13485714D02*
X-33877619Y12914285D01*
X-33877619Y13200000D02*
X-34877619Y13200000D01*
X-34734761Y13104761D01*
X-34639523Y13009523D01*
X-34591904Y12914285D01*
X16343333Y-14581142D02*
X16295714Y-14628761D01*
X16152857Y-14676380D01*
X16057619Y-14676380D01*
X15914761Y-14628761D01*
X15819523Y-14533523D01*
X15771904Y-14438285D01*
X15724285Y-14247809D01*
X15724285Y-14104952D01*
X15771904Y-13914476D01*
X15819523Y-13819238D01*
X15914761Y-13724000D01*
X16057619Y-13676380D01*
X16152857Y-13676380D01*
X16295714Y-13724000D01*
X16343333Y-13771619D01*
X17200476Y-14009714D02*
X17200476Y-14676380D01*
X16962380Y-13628761D02*
X16724285Y-14343047D01*
X17343333Y-14343047D01*
X16343333Y-21947142D02*
X16295714Y-21994761D01*
X16152857Y-22042380D01*
X16057619Y-22042380D01*
X15914761Y-21994761D01*
X15819523Y-21899523D01*
X15771904Y-21804285D01*
X15724285Y-21613809D01*
X15724285Y-21470952D01*
X15771904Y-21280476D01*
X15819523Y-21185238D01*
X15914761Y-21090000D01*
X16057619Y-21042380D01*
X16152857Y-21042380D01*
X16295714Y-21090000D01*
X16343333Y-21137619D01*
X16676666Y-21042380D02*
X17295714Y-21042380D01*
X16962380Y-21423333D01*
X17105238Y-21423333D01*
X17200476Y-21470952D01*
X17248095Y-21518571D01*
X17295714Y-21613809D01*
X17295714Y-21851904D01*
X17248095Y-21947142D01*
X17200476Y-21994761D01*
X17105238Y-22042380D01*
X16819523Y-22042380D01*
X16724285Y-21994761D01*
X16676666Y-21947142D01*
X-11660166Y11136357D02*
X-11707785Y11088738D01*
X-11850642Y11041119D01*
X-11945880Y11041119D01*
X-12088738Y11088738D01*
X-12183976Y11183976D01*
X-12231595Y11279214D01*
X-12279214Y11469690D01*
X-12279214Y11612547D01*
X-12231595Y11803023D01*
X-12183976Y11898261D01*
X-12088738Y11993500D01*
X-11945880Y12041119D01*
X-11850642Y12041119D01*
X-11707785Y11993500D01*
X-11660166Y11945880D01*
X-11279214Y11945880D02*
X-11231595Y11993500D01*
X-11136357Y12041119D01*
X-10898261Y12041119D01*
X-10803023Y11993500D01*
X-10755404Y11945880D01*
X-10707785Y11850642D01*
X-10707785Y11755404D01*
X-10755404Y11612547D01*
X-11326833Y11041119D01*
X-10707785Y11041119D01*
X-21756666Y5865857D02*
X-21804285Y5818238D01*
X-21947142Y5770619D01*
X-22042380Y5770619D01*
X-22185238Y5818238D01*
X-22280476Y5913476D01*
X-22328095Y6008714D01*
X-22375714Y6199190D01*
X-22375714Y6342047D01*
X-22328095Y6532523D01*
X-22280476Y6627761D01*
X-22185238Y6723000D01*
X-22042380Y6770619D01*
X-21947142Y6770619D01*
X-21804285Y6723000D01*
X-21756666Y6675380D01*
X-20804285Y5770619D02*
X-21375714Y5770619D01*
X-21090000Y5770619D02*
X-21090000Y6770619D01*
X-21185238Y6627761D01*
X-21280476Y6532523D01*
X-21375714Y6484904D01*
X7540666Y-19518380D02*
X7540666Y-20232666D01*
X7493047Y-20375523D01*
X7397809Y-20470761D01*
X7254952Y-20518380D01*
X7159714Y-20518380D01*
X7969238Y-19613619D02*
X8016857Y-19566000D01*
X8112095Y-19518380D01*
X8350190Y-19518380D01*
X8445428Y-19566000D01*
X8493047Y-19613619D01*
X8540666Y-19708857D01*
X8540666Y-19804095D01*
X8493047Y-19946952D01*
X7921619Y-20518380D01*
X8540666Y-20518380D01*
X13422380Y-7111904D02*
X14231904Y-7111904D01*
X14327142Y-7064285D01*
X14374761Y-7016666D01*
X14422380Y-6921428D01*
X14422380Y-6730952D01*
X14374761Y-6635714D01*
X14327142Y-6588095D01*
X14231904Y-6540476D01*
X13422380Y-6540476D01*
X14422380Y-5540476D02*
X14422380Y-6111904D01*
X14422380Y-5826190D02*
X13422380Y-5826190D01*
X13565238Y-5921428D01*
X13660476Y-6016666D01*
X13708095Y-6111904D01*
X-27511333Y-6564380D02*
X-27511333Y-7278666D01*
X-27558952Y-7421523D01*
X-27654190Y-7516761D01*
X-27797047Y-7564380D01*
X-27892285Y-7564380D01*
X-26511333Y-7564380D02*
X-27082761Y-7564380D01*
X-26797047Y-7564380D02*
X-26797047Y-6564380D01*
X-26892285Y-6707238D01*
X-26987523Y-6802476D01*
X-27082761Y-6850095D01*
M02*
